<?xml version="1.0" encoding="UTF-8" standalone="yes"?><svg xmlns="http://www.w3.org/2000/svg" xmlns:xlink="http://www.w3.org/1999/xlink" width="297.000mm" height="167.000mm" viewBox="0.000000 0.000000 297.000000 167.000000" stroke-linejoin="round" stroke-linecap="round" fill="none" fill-rule="evenodd"><desc>Composer Export</desc><script type="text/ecmascript"><![CDATA[
if(typeof(top) != "undefined")
{
	top.ShowPaper = ShowPaper;
}
function ShowHotSpot(evt,hotspotid)
{
	var svgDocument = evt.target.ownerDocument;
	var strId = "hotspot."+hotspotid;
	var hotspot = svgDocument.getElementById(strId);
	if(hotspot)
		hotspot.setAttribute("opacity",".5");
}
function HideHotSpot(evt,hotspotid)
{
	var svgDocument = evt.target.ownerDocument;
	var strId = "hotspot."+hotspotid;
	var hotspot = svgDocument.getElementById(strId);
	if(hotspot)
		hotspot.setAttribute("opacity","0");

	var toolTip = svgDocument.getElementById('ToolTip');
	if(toolTip)
		toolTip.setAttribute("visibility","hidden");
}
function ShowToolTip(evt,hotspotid,strTooltip)
{
	if(strTooltip=="")
	return;

	// change text
	var svgDocument = evt.target.ownerDocument;
	var tiptext = svgDocument.getElementById('ToolTipText');
	if( !tiptext )
	return;
	tiptext.firstChild.nodeValue = " " + strTooltip + "  " ;

	// show tooltip before, else some refresh issue

	var toolTip = svgDocument.getElementById('ToolTip');
	if(!toolTip)
	return;

	toolTip.setAttribute("visibility","visible");
	toolTip.setAttribute("opacity",".95");

	// move tooltip
	// get viewbox

	var root = svgDocument.documentElement;
	var vbox = (root.getAttribute("viewBox")).split(' ');
	var x0 = parseFloat(vbox[0]);
	var y0 = parseFloat(vbox[1]);
	var vboxW = parseFloat(vbox[2]);
	var vboxH = parseFloat(vbox[3]);

	// get default width of svg

	var strW = root.getAttribute("width");
	var svgW = parseFloat(strW);
	if(strW.indexOf('mm') != -1)
	svgW *= 3.779;

	var strH = root.getAttribute("height");
	var svgH = parseFloat(strH);
	if(strH.indexOf('mm') != -1)
	svgH *= 3.779;  	// 96 dpi  -> 96/25.4 = 3.779

	// update the viewbox / width / height if svg is embedded in html with zoom fit all
	var realx0 = x0;
	var realy0 = y0;
	var realvboxW = vboxW;
	var realvboxH = vboxH;
	var realsvgW = svgW;
	var realsvgH = svgH;

	if ((typeof(top) == "undefined") || (typeof(top.svgctl1) != "undefined")) // embedded in html
	{
		// get window size in pxl

		svgW = window.innerWidth;
		svgH = window.innerHeight;

		// calculate real viewbox

		realsvgW = svgW;
		realsvgH = svgH;
		if((svgW / svgH) > (vboxW / vboxH))
		{
			realvboxW = (vboxH * svgW) / svgH;
			realvboxH = vboxH;
			realx0 = x0 - (realvboxW - vboxW)/2 ;
		}
		else
		{
			realvboxH = (vboxW * svgH) / svgW;
			realvboxW = vboxW;
			realy0 = y0 - (realvboxH - vboxH)/2 ;
		}
	}

	// get user zoom/pan

	var newScale = root.currentScale;
	var translation = root.currentTranslate;

	// transform pxl to user unit

	var xPos = (((evt.clientX+10- translation.x)/newScale) * realvboxW)/realsvgW  + realx0 ;
	var yPos = (((evt.clientY+5- translation.y)/newScale) * realvboxH)/ realsvgH  + realy0 ;
	var scaleForWidth = ( (1 / newScale) * realvboxH) / realsvgH;

	// move tooltip

	toolTip.setAttribute("transform", "translate(" + xPos + "," + yPos + ")" );

	// resize tooltip

	var fontsize = 12;
	tiptext.setAttribute("font-size",fontsize*scaleForWidth);
	tiptext.setAttribute("y", fontsize*scaleForWidth);
	var tipBG = svgDocument.getElementById('ToolTipBG');
	var outline = tiptext.getBBox();
	if(tipBG)
	{
		tipBG.setAttribute("stroke-width", 1*scaleForWidth);
		tipBG.setAttribute("width", Number(outline.width) );
		tipBG.setAttribute("height", Number(outline.height) + fontsize*.5*scaleForWidth );
	}
	var ToolTipShadow = svgDocument.getElementById('ToolTipShadow');
	if(ToolTipShadow)
	{
		ToolTipShadow.setAttribute("width", Number(outline.width) );
		ToolTipShadow.setAttribute("height", Number(outline.height) + fontsize*.5*scaleForWidth );
		ToolTipShadow.setAttribute("x", 3*scaleForWidth);
		ToolTipShadow.setAttribute("y", 3*scaleForWidth);
	}
}
function ShowPaper()
{
  var svgDocument = getDocument();
  var paper = svgDocument.getElementById("paperID");
  if(paper)
  {
    paper.setAttribute("transform","scale(1)");
    paper.setAttribute("opacity","1");
    paper.setAttribute("visibility","visible");
  }
  var svg = svgDocument.getRootElement();
  if(svg)
  {
    svg.setAttribute("width","307.000mm");
    svg.setAttribute("height","177.000mm");
    svg.setAttribute("viewBox","-5.000000 -5.000000 307.000000 177.000000");
  }
}
]]></script><defs/><g><path style="fill:#ffffff" d="M70.47,21.79L70.30,22.24L60.20,24.37L57.53,24.87L56.14,25.40L54.61,26.55L52.03,27.09L51.54,27.18L50.32,27.43L49.51,28.06L48.93,28.92L48.87,35.06L48.95,45.79L49.03,49.63L49.11,50.27L49.19,50.60L49.27,51.08L49.41,51.62L66.86,99.00L67.84,101.39L68.80,102.19L69.48,102.34L70.29,102.34L71.40,102.11L71.88,102.02L72.85,101.79L83.10,99.55L83.57,99.48L83.91,99.40L84.22,99.30L84.54,99.24L85.01,99.16L85.35,99.08L85.66,98.98L86.78,98.76L87.10,98.66L87.59,98.60L87.91,98.51L88.23,98.44L88.54,98.34L89.03,98.28L89.35,98.18L89.66,98.12L90.14,98.04L90.47,97.96L90.79,97.86L91.11,97.80L91.58,97.72L91.91,97.64L92.22,97.54L93.34,97.32L93.66,97.22L94.16,97.16L94.47,97.06L94.79,97.00L95.26,96.91L95.60,96.84L95.91,96.74L96.23,96.68L96.70,96.59L97.04,96.52L97.35,96.42L97.67,96.36L98.14,96.27L98.48,96.20L98.79,96.10L99.28,96.04L99.60,95.94L99.91,95.88L100.23,95.78L100.72,95.72L101.04,95.62L101.34,95.55L101.48,95.58L101.93,96.75L102.57,97.72L103.70,98.99L105.29,99.96L107.20,100.61L110.37,100.60L112.27,99.95L112.89,99.40L113.03,99.45L112.33,101.61L111.95,103.26L111.71,104.86L111.71,108.56L113.79,111.79L119.24,116.43L120.08,117.06L119.92,117.22L117.79,116.44L115.00,116.44L113.77,116.81L111.87,117.79L110.43,119.39L109.63,120.88L109.38,122.47L108.75,127.13L108.61,127.65L110.59,132.13L117.64,138.21L119.70,139.67L123.14,141.41L122.98,141.84L118.52,146.22L117.42,146.88L115.69,150.43L115.23,153.69L115.23,154.50L115.31,154.83L115.40,155.30L115.79,157.06L115.88,157.53L115.95,157.87L116.04,158.34L116.43,160.10L116.52,160.58L116.91,162.34L117.00,162.82L117.29,164.33L118.09,166.41L118.47,166.96L0.05,166.94L0.05,0.05L62.13,0.02z"/><path style="fill:#c8cfee" d="M62.13,0.02L74.92,0.04L82.19,19.00L83.31,18.95L91.85,17.17L92.04,17.28L92.03,17.61L90.46,17.97L75.57,21.11L75.24,21.09L74.87,19.91L73.63,16.78L73.58,16.52L73.40,16.52L73.44,18.10L74.61,21.25L73.81,21.49L70.78,22.13L70.47,21.79z"/><path style="fill:#4c4c4c" d="M74.92,0.04L90.77,0.04L90.90,0.48L91.29,2.24L91.38,2.72L91.77,4.48L91.86,4.96L92.26,6.72L92.25,7.21L92.04,17.28L91.85,17.17L83.31,18.95L82.19,19.00z"/><path style="fill:#c0c0c0" d="M146.04,7.19L146.18,8.18L146.34,8.53L146.43,9.35L149.09,21.13L149.18,21.61L149.41,22.57L149.50,23.06L149.73,24.01L149.82,24.50L150.05,25.45L150.14,25.94L150.37,26.90L150.46,27.38L150.69,28.34L150.78,28.82L151.01,29.78L151.09,30.26L151.33,31.22L151.42,31.70L151.65,32.66L151.74,33.14L151.96,34.11L152.05,34.64L152.23,34.73L152.25,34.87L152.16,34.97L152.21,35.21L152.29,35.55L152.38,36.02L152.61,36.98L152.70,37.46L152.93,38.42L153.02,38.91L153.25,39.86L153.34,40.35L153.57,41.30L153.66,41.79L153.89,42.75L153.98,43.23L154.21,44.19L154.30,44.67L154.43,45.37L154.62,45.67L155.41,46.32L157.10,52.66L157.09,53.32L156.84,53.73L156.84,54.49L157.53,56.88L157.97,58.49L160.10,59.43L164.26,60.24L165.38,60.40L168.58,60.68L168.64,60.79L169.39,60.80L171.75,61.04L172.07,61.35L172.63,62.60L172.72,63.08L173.11,64.68L173.20,65.16L173.50,66.50L173.52,67.40L173.04,70.93L172.94,71.40L172.58,74.29L172.48,74.37L172.53,74.72L172.58,74.29L173.04,74.01L173.50,74.67L175.06,74.51L175.92,74.09L176.48,73.49L176.70,73.39L176.54,72.86L176.56,72.04L176.69,70.86L177.02,70.23L177.55,70.07L177.87,70.10L178.31,70.81L178.38,71.73L178.48,72.20L178.62,72.90L176.34,74.03L175.89,74.87L175.50,76.53L175.28,78.29L175.18,78.77L174.96,81.33L174.51,81.46L173.76,81.70L173.32,82.25L173.03,82.20L172.72,81.69L172.63,81.70L172.04,82.41L171.75,82.35L171.57,82.02L171.43,82.27L171.35,82.94L170.55,88.54L170.46,88.82L170.14,89.13L169.23,89.37L168.64,89.39L168.58,89.50L166.99,89.70L166.18,89.69L165.49,88.75L164.87,87.58L164.84,87.47L164.43,87.53L161.55,87.94L160.79,87.94L160.78,88.54L160.63,89.83L160.43,90.18L151.45,91.38L151.02,91.49L150.61,91.49L148.21,90.66L147.89,90.34L147.42,89.37L145.82,87.63L141.68,87.85L133.06,89.78L129.69,89.46L128.88,89.47L128.73,89.52L128.26,89.36L128.08,89.30L126.00,88.82L124.19,88.44L121.41,89.87L120.22,91.07L120.07,91.22L119.98,91.30L120.07,91.46L119.65,91.63L118.68,92.74L116.17,96.02L116.12,96.33L116.44,96.30L118.31,95.38L120.56,95.38L121.95,95.63L123.71,96.44L129.01,99.78L135.25,103.46L139.30,105.37L139.77,105.48L142.97,105.64L146.18,105.15L148.41,104.99L155.62,104.58L157.28,104.29L159.21,103.82L159.58,103.38L159.82,102.47L160.08,100.88L160.07,100.22L160.87,99.55L162.55,98.51L162.98,98.43L170.99,97.31L171.63,97.22L172.12,97.15L172.53,97.08L172.43,96.99L172.63,95.42L172.80,94.33L173.02,94.04L173.39,94.11L176.75,93.62L177.36,93.66L178.25,95.69L178.99,95.71L181.23,95.38L182.79,95.31L182.98,95.44L183.27,96.23L184.15,99.90L184.24,100.38L184.31,100.87L184.41,101.34L184.41,103.11L183.51,108.87L183.12,111.59L182.39,116.23L181.43,122.65L181.17,123.22L176.00,125.41L175.97,125.67L176.08,126.16L176.15,126.65L176.24,127.12L176.31,127.61L176.40,128.08L176.47,128.56L176.56,129.20L177.34,129.89L178.87,135.93L178.97,136.41L178.96,136.85L178.47,137.68L178.24,137.75L178.32,138.02L178.55,138.97L178.64,139.45L179.67,143.77L179.76,144.25L180.79,148.57L180.88,149.06L181.91,153.38L182.00,153.86L183.03,158.18L183.12,158.66L184.79,165.71L184.88,166.19L185.08,166.95L118.47,166.96L118.09,166.41L117.29,164.33L117.00,162.82L116.99,162.39L116.91,162.34L116.52,160.58L116.51,160.15L116.43,160.10L116.04,158.34L116.02,157.92L115.95,157.87L115.88,157.53L115.87,157.11L115.79,157.06L115.40,155.30L115.38,154.88L115.31,154.83L115.23,154.50L115.23,153.69L115.69,150.43L117.42,146.88L118.52,146.22L122.98,141.84L123.21,141.79L123.38,141.40L123.14,141.41L119.70,139.67L117.64,138.21L110.59,132.13L108.61,127.65L108.75,127.13L109.38,122.47L109.63,120.88L110.43,119.39L111.87,117.79L113.77,116.81L115.00,116.44L117.79,116.44L119.92,117.22L120.00,117.32L120.37,117.24L120.08,117.06L119.24,116.43L113.79,111.79L111.71,108.56L111.71,104.86L111.95,103.26L112.33,101.61L113.03,99.45L113.17,99.17L113.08,99.15L112.89,99.40L112.27,99.95L110.37,100.60L107.20,100.61L105.29,99.96L103.70,98.99L102.57,97.72L101.93,96.75L101.48,95.58L101.46,95.27L101.22,93.67L101.63,90.29L101.66,89.65L101.84,89.18L101.80,89.02L101.86,88.38L101.96,87.73L101.96,87.42L102.44,83.73L102.44,83.25L102.51,83.08L102.59,82.14L102.66,81.81L102.82,80.38L103.20,78.07L103.58,77.20L104.24,75.77L106.01,73.48L106.27,73.29L106.04,73.17L105.95,72.53L105.93,71.94L105.86,71.88L105.79,71.25L105.77,70.66L105.70,70.60L105.63,69.97L105.61,69.38L105.55,69.32L105.47,68.85L105.49,68.52L105.46,68.10L105.38,68.05L105.31,67.71L105.30,67.30L105.22,67.25L105.15,66.91L105.13,66.50L105.06,66.44L104.98,65.87L104.66,65.86L104.16,64.91L102.75,60.36L102.73,59.94L102.66,59.88L102.51,58.65L103.09,57.15L102.99,56.67L102.59,54.92L102.57,54.49L102.50,54.43L102.11,52.68L102.09,52.25L102.02,52.19L101.63,50.43L101.61,50.01L101.54,49.95L101.15,48.19L101.13,47.77L101.06,47.71L100.67,45.95L100.65,45.53L100.58,45.47L100.33,44.08L98.58,43.43L96.50,42.14L94.74,40.71L93.30,38.94L92.32,37.05L92.00,35.76L91.86,32.99L91.86,31.38L92.03,20.33L92.03,17.61L92.04,17.28L92.25,7.21L92.33,6.79L92.26,6.72L91.86,4.96L91.84,4.54L91.77,4.48L91.38,2.72L91.36,2.30L91.29,2.24L90.90,0.48L90.94,0.03L144.41,0.04z"/><path style="fill:#ffffff" d="M147.42,89.37L147.89,90.34L148.21,90.66L150.61,91.49L151.02,91.49L151.45,91.38L160.43,90.18L160.63,89.83L160.78,88.54L160.97,88.12L161.55,87.94L164.43,87.53L164.87,87.58L165.49,88.75L166.18,89.69L166.99,89.70L168.58,89.50L171.48,97.14L170.99,97.31L162.98,98.43L162.55,98.51L160.87,99.55L160.07,100.22L159.99,100.27L160.08,100.88L159.82,102.47L159.58,103.38L159.21,103.82L157.28,104.29L155.62,104.58L148.41,104.99L146.18,105.15L142.97,105.64L139.77,105.48L139.30,105.37L135.25,103.46L129.01,99.78L123.71,96.44L121.95,95.63L120.56,95.38L118.31,95.38L116.44,96.30L116.12,96.33L116.17,96.02L118.68,92.74L119.65,91.63L120.07,91.46L120.41,91.39L120.73,91.30L121.04,91.23L121.52,91.15L121.85,91.08L122.17,90.98L122.49,90.92L122.96,90.83L123.29,90.75L123.60,90.66L124.09,90.59L124.41,90.50L124.73,90.44L125.04,90.34L125.54,90.27L125.85,90.18L126.17,90.11L126.64,90.03L126.97,89.95L127.29,89.86L127.61,89.79L128.08,89.71L128.42,89.64L128.73,89.52L128.88,89.47L129.69,89.46L133.06,89.78L141.68,87.85L145.82,87.63z"/><path style="fill:#000020" d="M52.04,27.18L51.54,27.18L52.03,27.09z"/><path style="fill:#404040" d="M52.47,27.42L53.90,31.12L54.24,31.86L54.37,32.40L69.43,72.75L69.80,73.52L71.35,78.02L71.99,81.23L72.09,90.93L72.09,91.10L71.83,101.78L71.73,101.96L71.40,102.11L70.29,102.34L69.48,102.34L68.80,102.19L67.84,101.39L66.86,99.00L49.41,51.62L49.27,51.08L49.26,50.65L49.19,50.60L49.11,50.27L49.10,49.68L49.03,49.63L48.95,45.79L48.93,35.12L48.87,35.06L48.93,28.92L49.51,28.06L50.32,27.43L51.54,27.18L52.04,27.18z"/><path style="fill:#c8cfee" d="M52.04,27.18L52.03,27.09L54.61,26.55L54.71,26.70L54.38,27.01L54.22,27.64L54.24,31.86L53.90,31.12L52.47,27.42z"/><path style="fill:#c8cfee" d="M105.55,69.32L105.63,69.97L105.70,70.60L105.79,71.25L105.86,71.88L105.95,72.53L106.04,73.17L106.01,73.48L104.24,75.77L92.27,78.35L82.76,80.49L81.92,80.80L81.23,81.39L81.04,82.29L80.97,86.77L80.59,86.82L80.77,86.99L80.89,89.02L80.95,97.89L81.29,98.63L81.44,99.00L82.07,99.33L82.45,99.39L83.10,99.55L72.85,101.79L71.88,102.02L71.73,101.96L71.83,101.78L72.09,91.10L72.48,90.99L72.09,90.93L71.99,81.23L71.35,78.02L69.80,73.52L70.24,74.01L71.35,74.82L72.79,75.31L75.30,75.30L105.47,68.85z"/><path style="fill:#868c8c" d="M54.61,26.55L56.14,25.40L57.53,24.87L60.20,24.37L70.30,22.24L70.78,22.13L73.81,21.49L74.61,21.25L75.24,21.09L75.57,21.11L90.46,17.97L92.03,17.61L92.03,20.33L91.00,21.03L88.98,22.54L87.63,23.75L86.17,25.49L84.66,27.98L83.67,30.68L83.45,32.02L83.29,33.30L83.22,36.50L83.22,39.55L83.29,40.50L83.37,41.63L83.99,44.09L85.28,46.81L86.89,49.03L88.66,50.79L91.06,52.71L93.93,54.33L96.97,55.61L99.84,56.42L102.64,56.88L103.09,57.15L102.51,58.65L102.66,59.88L102.75,60.36L104.16,64.91L104.66,65.86L104.98,65.87L105.06,66.44L105.15,66.91L105.22,67.25L105.31,67.71L105.38,68.05L105.49,68.52L105.47,68.85L75.30,75.30L72.79,75.31L71.35,74.82L70.24,74.01L69.80,73.52L69.43,72.75L54.37,32.40L54.24,31.86L54.22,27.64L54.38,27.01L54.71,26.70z"/><path style="fill:#000000" d="M198.79,52.41L199.76,53.36L200.15,54.45L200.25,54.91L200.32,55.25L200.41,55.71L200.49,56.19L200.58,56.84L200.64,57.79L200.64,58.44L200.58,59.56L200.09,62.60L199.30,67.73L199.20,70.12L199.29,70.93L199.36,71.41L199.45,71.88L199.52,72.53L199.61,73.00L199.68,73.49L199.70,73.91L199.81,73.97L200.07,76.74L200.07,81.60L197.84,95.54L196.81,96.75L196.19,97.09L185.52,98.68L185.02,98.04L184.38,95.48L184.06,93.38L183.27,96.23L182.98,95.44L182.79,95.31L181.23,95.38L178.99,95.71L178.25,95.69L177.36,93.66L177.34,93.56L176.75,93.62L173.39,94.11L173.02,94.04L172.80,94.33L172.63,95.42L172.43,96.99L172.12,97.15L171.63,97.22L171.48,97.14L168.58,89.50L169.23,89.37L170.14,89.13L170.46,88.82L170.55,88.54L171.35,82.94L171.43,82.27L171.57,82.02L171.75,82.35L172.04,82.41L172.63,81.70L172.72,81.69L173.03,82.20L173.32,82.25L173.76,81.70L174.51,81.46L174.94,81.44L174.96,81.33L175.18,78.77L175.28,78.29L175.50,76.53L175.89,74.87L176.34,74.03L178.62,72.90L178.48,72.20L178.46,71.78L178.38,71.73L178.31,70.81L177.87,70.10L177.67,69.85L177.55,70.07L177.02,70.23L176.69,70.86L176.56,72.04L176.54,72.86L176.48,73.49L175.92,74.09L175.06,74.51L173.50,74.67L173.04,74.01L172.58,74.29L172.94,71.40L173.04,70.93L173.52,67.40L173.50,66.50L173.20,65.16L173.18,64.73L173.11,64.68L172.72,63.08L172.70,62.65L172.63,62.60L172.07,61.35L171.75,61.04L169.39,60.80L168.75,60.65L168.71,60.03L168.88,58.76L169.29,57.70L169.72,57.45L170.19,57.35L177.39,56.96L180.44,56.96L180.57,57.03L182.62,60.25L183.10,61.70L184.34,66.39L184.55,66.44L184.53,67.03L184.76,66.43L184.74,66.29L185.27,62.44L186.49,54.28L187.04,53.52L187.47,53.43L196.92,52.16L198.32,52.08z"/><path style="fill:#ffffff" d="M103.20,78.07L102.82,80.38L102.66,81.81L102.59,82.14L102.34,82.61L101.87,83.32L102.44,83.25L102.44,83.73L101.96,87.42L101.51,87.61L101.01,87.69L100.75,87.79L100.66,88.20L100.60,91.37L100.71,91.40L101.25,91.32L101.40,89.71L101.66,89.65L101.63,90.29L101.22,93.67L101.46,95.27L101.19,95.38L100.86,95.45L100.38,95.53L100.05,95.60L99.73,95.70L99.42,95.76L98.94,95.85L98.61,95.92L98.30,96.02L97.81,96.09L97.49,96.18L97.17,96.24L96.86,96.34L96.37,96.41L96.05,96.50L95.73,96.57L95.26,96.65L94.92,96.73L94.61,96.82L94.29,96.89L93.82,96.97L93.49,97.05L93.17,97.15L92.06,97.37L91.73,97.46L91.24,97.53L90.92,97.62L90.61,97.68L90.29,97.78L89.80,97.85L89.49,97.94L89.17,98.01L88.70,98.09L88.36,98.17L88.05,98.26L87.73,98.33L87.26,98.41L86.92,98.49L86.61,98.59L85.49,98.81L85.17,98.91L84.68,98.97L84.36,99.06L84.05,99.13L83.58,99.21L83.25,99.30L82.45,99.39L82.07,99.33L81.44,99.00L81.29,98.63L81.37,83.09L81.77,82.41L82.67,81.71L83.26,81.48L102.84,77.22L103.58,77.20z"/><path style="fill:#000020" d="M100.71,91.40L100.60,91.37L100.66,88.20z"/><path style="fill:#404040" d="M91.86,31.38L91.86,32.99L92.00,35.76L92.32,37.05L93.30,38.94L94.74,40.71L96.50,42.14L98.58,43.43L100.33,44.08L100.58,45.47L100.67,45.95L101.06,47.71L101.15,48.19L101.54,49.95L101.63,50.43L102.02,52.19L102.11,52.68L102.50,54.43L102.59,54.92L102.99,56.67L102.64,56.88L99.84,56.42L96.97,55.61L93.93,54.33L91.06,52.71L88.66,50.79L86.89,49.03L85.28,46.81L83.99,44.09L83.37,41.63L83.35,40.56L83.29,40.50L83.22,39.55L83.22,36.50L83.29,33.30L83.45,32.02L83.67,30.68L84.66,27.98L86.17,25.49L87.63,23.75L88.98,22.54L91.00,21.03L92.03,20.33z"/><path style="fill:#c0c0c0" d="M185.64,69.39L185.63,69.68L185.81,69.87L185.82,70.37L185.99,70.36L186.72,72.52L186.80,73.00L186.87,73.49L186.97,73.96L187.04,74.60L187.00,75.09L186.89,75.17L186.94,75.52L187.00,75.09L187.12,75.07L187.20,75.56L187.12,75.89L187.10,76.33L187.20,76.06L187.29,76.04L187.36,76.52L187.28,76.84L187.26,77.45L187.36,77.01L187.45,77.00L187.52,77.49L187.61,78.13L187.61,82.62L187.49,83.29L187.38,83.32L187.35,83.72L187.21,84.87L187.11,85.13L186.68,85.20L186.19,85.29L185.76,85.30L186.07,82.46L186.17,81.81L186.39,78.30L186.46,77.71L186.39,77.64L186.32,76.70L186.30,75.94L186.24,75.88L186.16,75.40L186.14,74.99L186.07,74.93L186.01,74.28L185.99,73.86L185.91,73.81L185.84,73.32L185.83,72.90L185.75,72.85L185.68,72.36L185.67,71.95L185.59,71.90L185.52,71.56L185.51,71.14L185.44,71.08L184.81,68.25L185.02,68.22z"/><path style="fill:#fffe02" d="M72.96,28.07L74.40,28.71L76.00,29.83L76.63,30.63L77.35,32.03L77.46,32.50L77.43,34.37L77.28,35.18L76.31,36.77L75.29,37.67L74.09,38.39L72.78,38.84L71.46,39.12L68.63,39.12L66.70,38.65L64.96,37.67L63.50,36.08L63.02,35.13L62.87,34.32L62.86,32.44L63.19,31.49L63.84,30.38L64.25,29.83L65.53,28.87L67.42,28.00L68.21,27.82L69.48,27.66L70.77,27.66z"/><path style="fill:#fffe02" d="M82.93,54.88L84.00,55.29L85.44,56.09L86.10,56.72L87.06,57.83L87.69,59.12L87.77,59.72L87.86,60.19L87.69,61.75L86.99,63.30L86.09,64.32L84.91,65.22L82.88,66.07L80.91,66.34L80.00,66.34L78.55,66.18L76.79,65.70L74.89,64.56L73.77,63.28L73.26,62.34L72.95,60.89L72.95,59.82L73.27,58.54L73.93,57.44L74.66,56.57L75.78,55.77L77.54,54.97L78.45,54.72L79.73,54.56L80.86,54.56z"/><path style="fill:#c8cfee" d="M146.04,7.19L179.32,0.12L179.80,0.03L185.56,0.04L185.56,0.12L167.15,4.04L146.66,8.37L146.18,8.18z"/><path style="fill:#c8cfee" d="M151.09,30.26L151.28,29.80L155.72,28.92L290.43,0.04L296.94,0.05L296.95,4.80L296.35,5.00L267.53,11.17L259.85,12.84L239.19,17.26L231.51,18.93L198.21,26.06L174.83,31.10L153.06,35.74L152.61,35.69L152.40,35.06L152.25,34.87L152.23,34.73L152.03,34.16L151.96,34.11L151.74,33.14L151.72,32.72L151.65,32.66L151.42,31.70L151.40,31.28L151.33,31.22z"/><path style="fill:#c8cfee" d="M198.32,52.08L196.92,52.16L187.47,53.43L187.04,53.52L186.49,54.28L185.27,62.44L184.74,66.29L184.55,66.44L184.34,66.39L183.10,61.70L182.62,60.25L180.57,57.03L180.44,56.96L177.39,56.96L170.19,57.35L169.72,57.45L169.29,57.70L168.88,58.76L168.71,60.03L168.58,60.68L165.38,60.40L164.26,60.24L160.10,59.43L157.97,58.49L157.53,56.88L158.24,56.10L158.61,55.35L158.71,54.59L158.91,54.64L160.00,57.11L161.44,56.90L296.96,27.53L296.95,52.67L294.75,53.12L268.49,58.88L202.05,73.45L199.81,73.97L199.68,73.49L199.61,73.00L199.59,72.58L199.52,72.53L199.45,71.88L199.44,71.46L199.36,71.41L199.29,70.93L199.27,70.18L199.20,70.12L199.30,67.73L200.09,62.60L200.58,59.56L200.64,58.44L200.71,57.85L200.64,57.79L200.58,56.84L200.55,56.25L200.49,56.19L200.41,55.71L200.40,55.30L200.32,55.25L200.25,54.91L200.24,54.49L200.15,54.45L199.76,53.36L198.79,52.41z"/><path style="fill:#868c8c" d="M152.61,35.69L152.73,35.91L157.81,48.41L158.86,51.38L158.86,52.84L158.71,54.59L158.61,55.35L158.24,56.10L157.53,56.88L156.84,54.49L156.84,53.73L157.09,53.32L157.17,52.72L157.10,52.66L155.41,46.32L154.62,45.67L154.43,45.37L154.30,44.67L154.29,44.24L154.21,44.19L153.98,43.23L153.97,42.80L153.89,42.75L153.66,41.79L153.65,41.36L153.57,41.30L153.34,40.35L153.33,39.92L153.25,39.86L153.02,38.91L153.01,38.48L152.93,38.42L152.70,37.46L152.69,37.03L152.61,36.98L152.38,36.02L152.37,35.60L152.29,35.55L152.21,35.21L152.40,35.06z"/><path style="fill:#000000" d="M90.27,85.72L90.25,85.92L89.77,85.87L89.60,85.55L88.26,85.70L87.63,86.54L87.30,86.52L88.65,84.16L89.13,84.08z"/><path style="fill:#000000" d="M101.96,87.73L101.80,87.90L101.40,88.11L101.40,89.12L101.63,89.19L101.66,89.65L101.40,89.71L101.25,91.32L100.71,91.40L100.66,88.20L100.75,87.79L101.01,87.69L101.51,87.61L101.96,87.42z"/><path style="fill:#ffffff" d="M144.41,0.04L179.32,0.04L179.32,0.12L146.04,7.19z"/><path style="fill:#ffffff" d="M155.63,74.80L155.66,74.93L156.37,76.90L156.38,77.43L156.20,77.24L156.21,77.89L156.53,77.70L156.62,77.95L156.71,78.45L156.94,79.56L157.03,80.22L157.09,80.85L157.19,81.33L157.26,82.29L157.34,83.26L157.26,86.13L157.23,86.27L156.74,86.64L156.10,86.74L155.58,86.34L154.63,83.93L153.47,82.36L153.18,81.33L153.16,80.91L153.09,80.85L153.15,79.19L153.95,76.73L153.96,75.51L154.23,74.68L154.66,74.59L155.43,74.60z"/><path style="fill:#ffffff" d="M89.34,85.05L89.20,85.31L88.47,85.44L88.47,85.13L88.76,84.58L88.96,84.56z"/><path style="fill:#ffffff" d="M126.00,88.82L128.08,89.30L128.26,89.36L128.25,89.46L127.75,89.52L127.43,89.61L127.11,89.68L126.80,89.78L126.31,89.84L125.99,89.94L125.67,90.00L125.20,90.08L124.87,90.16L124.55,90.26L124.23,90.32L123.76,90.41L123.43,90.48L123.11,90.58L122.62,90.64L122.30,90.73L121.99,90.80L121.67,90.90L121.18,90.96L120.87,91.06L120.55,91.13L120.22,91.07L121.41,89.87L124.19,88.44z"/><path style="fill:#ffffff" d="M101.86,88.38L101.80,89.02L101.63,89.19L101.40,89.12L101.40,88.11L101.80,87.90z"/><path style="fill:#ffffff" d="M117.69,125.40L117.68,125.65L117.57,125.75L117.14,125.75L115.32,125.13L115.36,124.83L115.86,124.76z"/><path style="fill:#ffffff" d="M124.67,149.42L125.04,149.71L125.32,149.85L125.56,150.98L125.65,151.46L126.04,153.22L126.13,153.70L126.68,156.26L126.77,156.74L127.16,158.50L127.25,158.98L127.80,161.54L127.89,162.02L128.28,163.78L128.21,163.95L124.08,165.90L122.80,166.00L122.33,165.89L121.32,165.27L120.99,164.95L120.20,162.19L120.18,161.76L120.11,161.70L119.72,159.94L119.70,159.52L119.63,159.46L119.24,157.70L119.23,157.28L119.15,157.23L119.08,156.89L119.06,156.48L118.99,156.42L118.60,154.66L118.59,154.24L118.51,154.19L118.44,153.86L118.42,152.31L118.35,152.25L118.43,151.09L119.71,149.00L120.44,148.62L123.34,145.88L123.53,145.90z"/><path style="fill:#000020" d="M185.56,0.12L185.56,0.04L186.04,0.03z"/><path style="fill:#000020" d="M179.32,0.12L179.32,0.04L179.80,0.03z"/><path style="fill:#000020" d="M90.90,0.48L90.77,0.04L90.94,0.03z"/><path style="fill:#000020" d="M91.38,2.72L91.29,2.24L91.36,2.30z"/><path style="fill:#000020" d="M91.86,4.96L91.77,4.48L91.84,4.54z"/><path style="fill:#000020" d="M92.25,7.21L92.26,6.72L92.33,6.79z"/><path style="fill:#000020" d="M146.66,8.37L146.34,8.53L146.18,8.18z"/><path style="fill:#000020" d="M73.63,16.78L73.44,18.10L73.40,16.52L73.58,16.52z"/><path style="fill:#000020" d="M149.18,21.61L149.09,21.13L149.17,21.18z"/><path style="fill:#000020" d="M70.78,22.13L70.30,22.24L70.47,21.79z"/><path style="fill:#000020" d="M149.50,23.06L149.41,22.57L149.49,22.63z"/><path style="fill:#000020" d="M149.82,24.50L149.73,24.01L149.81,24.07z"/><path style="fill:#000020" d="M150.14,25.94L150.05,25.45L150.13,25.51z"/><path style="fill:#000020" d="M150.46,27.38L150.37,26.90L150.45,26.95z"/><path style="fill:#000020" d="M150.78,28.82L150.69,28.34L150.77,28.39z"/><path style="fill:#000020" d="M151.09,30.26L151.01,29.78L151.28,29.80z"/><path style="fill:#000020" d="M151.42,31.70L151.33,31.22L151.40,31.28z"/><path style="fill:#000020" d="M77.46,32.50L77.35,32.03L77.44,32.07z"/><path style="fill:#000020" d="M151.74,33.14L151.65,32.66L151.72,32.72z"/><path style="fill:#000020" d="M152.23,34.73L152.05,34.64L151.96,34.11L152.03,34.16z"/><path style="fill:#000020" d="M152.40,35.06L152.21,35.21L152.16,34.97L152.25,34.87z"/><path style="fill:#000020" d="M152.73,35.91L152.61,35.69L153.06,35.74z"/><path style="fill:#000020" d="M152.38,36.02L152.29,35.55L152.37,35.60z"/><path style="fill:#000020" d="M152.70,37.46L152.61,36.98L152.69,37.03z"/><path style="fill:#000020" d="M153.02,38.91L152.93,38.42L153.01,38.48z"/><path style="fill:#000020" d="M153.34,40.35L153.25,39.86L153.33,39.92z"/><path style="fill:#000020" d="M83.37,41.63L83.29,40.50L83.35,40.56z"/><path style="fill:#000020" d="M153.66,41.79L153.57,41.30L153.65,41.36z"/><path style="fill:#000020" d="M153.98,43.23L153.89,42.75L153.97,42.80z"/><path style="fill:#000020" d="M154.30,44.67L154.21,44.19L154.29,44.24z"/><path style="fill:#000020" d="M48.95,45.79L48.87,35.06L48.93,35.12z"/><path style="fill:#000020" d="M100.67,45.95L100.58,45.47L100.65,45.53z"/><path style="fill:#000020" d="M101.15,48.19L101.06,47.71L101.13,47.77z"/><path style="fill:#000020" d="M49.11,50.27L49.03,49.63L49.10,49.68z"/><path style="fill:#000020" d="M101.63,50.43L101.54,49.95L101.61,50.01z"/><path style="fill:#000020" d="M49.27,51.08L49.19,50.60L49.26,50.65z"/><path style="fill:#000020" d="M102.11,52.68L102.02,52.19L102.09,52.25z"/><path style="fill:#000020" d="M158.86,52.84L158.86,51.38L158.93,51.44z"/><path style="fill:#000020" d="M157.09,53.32L157.10,52.66L157.17,52.72z"/><path style="fill:#000020" d="M102.59,54.92L102.50,54.43L102.57,54.49z"/><path style="fill:#000020" d="M102.64,56.88L102.99,56.67L103.09,57.15z"/><path style="fill:#000020" d="M87.86,60.19L87.77,59.72L87.84,59.78z"/><path style="fill:#000020" d="M102.75,60.36L102.66,59.88L102.73,59.94z"/><path style="fill:#000020" d="M169.39,60.80L168.64,60.79L168.58,60.68L168.75,60.65z"/><path style="fill:#000020" d="M172.72,63.08L172.63,62.60L172.70,62.65z"/><path style="fill:#000020" d="M173.20,65.16L173.11,64.68L173.18,64.73z"/><path style="fill:#000020" d="M105.15,66.91L105.06,66.44L105.13,66.50z"/><path style="fill:#000020" d="M105.31,67.71L105.22,67.25L105.30,67.30z"/><path style="fill:#000020" d="M105.49,68.52L105.38,68.05L105.46,68.10z"/><path style="fill:#000020" d="M177.87,70.10L177.55,70.07L177.67,69.85z"/><path style="fill:#000020" d="M105.63,69.97L105.55,69.32L105.61,69.38z"/><path style="fill:#000020" d="M105.79,71.25L105.70,70.60L105.77,70.66z"/><path style="fill:#000020" d="M105.95,72.53L105.86,71.88L105.93,71.94z"/><path style="fill:#000020" d="M176.70,73.39L176.48,73.49L176.54,72.86z"/><path style="fill:#000020" d="M106.27,73.29L106.01,73.48L106.04,73.17z"/><path style="fill:#000020" d="M155.43,74.60L154.66,74.59L155.40,74.51z"/><path style="fill:#000020" d="M172.53,74.72L172.48,74.37L172.58,74.29z"/><path style="fill:#000020" d="M155.66,74.93L155.63,74.80L156.22,74.82z"/><path style="fill:#000020" d="M186.94,75.52L186.89,75.17L187.00,75.09z"/><path style="fill:#000020" d="M187.20,76.06L187.10,76.33L187.12,75.89z"/><path style="fill:#000020" d="M187.36,77.01L187.26,77.45L187.28,76.84z"/><path style="fill:#000020" d="M156.71,78.45L156.62,77.95L156.69,78.02z"/><path style="fill:#000020" d="M157.03,80.22L156.94,79.56L157.01,79.62z"/><path style="fill:#000020" d="M157.19,81.33L157.09,80.85L157.17,80.91z"/><path style="fill:#000020" d="M153.18,81.33L153.09,80.85L153.16,80.91z"/><path style="fill:#000020" d="M174.94,81.44L174.51,81.46L174.96,81.33z"/><path style="fill:#000020" d="M111.65,81.54L112.18,81.53L111.99,81.73L111.67,81.70z"/><path style="fill:#000020" d="M97.99,82.30L97.49,82.25L97.98,82.17z"/><path style="fill:#000020" d="M102.34,82.61L102.59,82.14L102.51,83.08z"/><path style="fill:#000020" d="M157.34,83.26L157.26,82.29L157.32,82.35z"/><path style="fill:#000020" d="M187.35,83.72L187.38,83.32L187.49,83.29z"/><path style="fill:#000020" d="M99.13,83.76L99.16,81.86L99.41,81.83z"/><path style="fill:#000020" d="M94.02,83.74L94.04,82.96L94.28,82.94z"/><path style="fill:#000020" d="M96.55,84.52L96.44,84.49L96.44,82.51L96.54,82.48z"/><path style="fill:#000020" d="M186.65,85.34L186.51,85.38L186.19,85.29L186.68,85.20z"/><path style="fill:#000020" d="M89.50,85.19L89.20,85.31L89.34,85.05z"/><path style="fill:#000020" d="M92.07,85.48L91.96,85.45L91.96,83.47L92.06,83.44z"/><path style="fill:#000020" d="M161.15,86.08L161.12,85.53L161.48,85.52z"/><path style="fill:#000020" d="M157.23,86.27L157.26,86.13L157.65,86.19z"/><path style="fill:#000020" d="M86.81,86.65L86.72,86.73L86.58,85.15L86.73,84.89z"/><path style="fill:#000020" d="M80.59,86.82L80.97,86.77L80.89,89.02L80.77,86.99z"/><path style="fill:#000020" d="M164.87,87.58L164.43,87.53L164.84,87.47z"/><path style="fill:#000020" d="M101.86,88.38L101.80,87.90L101.96,87.73z"/><path style="fill:#000020" d="M160.97,88.12L160.78,88.54L160.79,87.94L161.55,87.94z"/><path style="fill:#000020" d="M168.58,89.50L168.64,89.39L169.23,89.37z"/><path style="fill:#000020" d="M128.73,89.52L128.42,89.64L128.25,89.46L128.26,89.36z"/><path style="fill:#000020" d="M128.08,89.71L127.61,89.79L127.43,89.61L127.75,89.52z"/><path style="fill:#000020" d="M101.84,89.18L101.66,89.65L101.63,89.19L101.80,89.02z"/><path style="fill:#000020" d="M127.29,89.86L126.97,89.95L126.80,89.78L127.11,89.68z"/><path style="fill:#000020" d="M98.18,89.82L98.12,89.00L98.25,88.89z"/><path style="fill:#000020" d="M126.64,90.03L126.17,90.11L125.99,89.94L126.31,89.84z"/><path style="fill:#000020" d="M125.85,90.18L125.54,90.27L125.20,90.08L125.67,90.00z"/><path style="fill:#000020" d="M125.04,90.34L124.73,90.44L124.55,90.26L124.87,90.16z"/><path style="fill:#000020" d="M124.41,90.50L124.09,90.59L123.76,90.41L124.23,90.32z"/><path style="fill:#000020" d="M123.60,90.66L123.29,90.75L123.11,90.58L123.43,90.48z"/><path style="fill:#000020" d="M122.96,90.83L122.49,90.92L122.30,90.73L122.62,90.64z"/><path style="fill:#000020" d="M122.17,90.98L121.85,91.08L121.67,90.90L121.99,90.80z"/><path style="fill:#000020" d="M121.52,91.15L121.04,91.23L120.87,91.06L121.18,90.96z"/><path style="fill:#000020" d="M72.09,91.10L72.09,90.93L72.48,90.99z"/><path style="fill:#000020" d="M120.73,91.30L120.41,91.39L120.07,91.22L120.22,91.07L120.55,91.13z"/><path style="fill:#000020" d="M93.53,92.87L93.56,89.39L93.65,89.35z"/><path style="fill:#000020" d="M177.36,93.66L176.75,93.62L177.34,93.56z"/><path style="fill:#000020" d="M101.19,95.38L101.46,95.27L101.48,95.58L101.34,95.55z"/><path style="fill:#000020" d="M101.04,95.62L100.72,95.72L100.38,95.53L100.86,95.45z"/><path style="fill:#000020" d="M100.23,95.78L99.91,95.88L99.73,95.70L100.05,95.60z"/><path style="fill:#000020" d="M99.60,95.94L99.28,96.04L98.94,95.85L99.42,95.76z"/><path style="fill:#000020" d="M98.79,96.10L98.48,96.20L98.30,96.02L98.61,95.92z"/><path style="fill:#000020" d="M98.14,96.27L97.67,96.36L97.49,96.18L97.81,96.09z"/><path style="fill:#000020" d="M97.35,96.42L97.04,96.52L96.86,96.34L97.17,96.24z"/><path style="fill:#000020" d="M96.70,96.59L96.23,96.68L96.05,96.50L96.37,96.41z"/><path style="fill:#000020" d="M95.91,96.74L95.60,96.84L95.26,96.65L95.73,96.57z"/><path style="fill:#000020" d="M95.26,96.91L94.79,97.00L94.61,96.82L94.92,96.73z"/><path style="fill:#000020" d="M94.47,97.06L94.16,97.16L93.82,96.97L94.29,96.89z"/><path style="fill:#000020" d="M172.12,97.15L172.43,96.99L172.53,97.08z"/><path style="fill:#000020" d="M93.66,97.22L93.34,97.32L93.17,97.15L93.49,97.05z"/><path style="fill:#000020" d="M170.99,97.31L171.48,97.14L171.63,97.22z"/><path style="fill:#000020" d="M92.22,97.54L91.91,97.64L91.73,97.46L92.06,97.37z"/><path style="fill:#000020" d="M91.58,97.72L91.11,97.80L90.92,97.62L91.24,97.53z"/><path style="fill:#000020" d="M90.79,97.86L90.47,97.96L90.29,97.78L90.61,97.68z"/><path style="fill:#000020" d="M90.14,98.04L89.66,98.12L89.49,97.94L89.80,97.85z"/><path style="fill:#000020" d="M89.35,98.18L89.03,98.28L88.70,98.09L89.17,98.01z"/><path style="fill:#000020" d="M88.54,98.34L88.23,98.44L88.05,98.26L88.36,98.17z"/><path style="fill:#000020" d="M87.91,98.51L87.59,98.60L87.26,98.41L87.73,98.33z"/><path style="fill:#000020" d="M87.10,98.66L86.78,98.76L86.61,98.59L86.92,98.49z"/><path style="fill:#000020" d="M85.66,98.98L85.35,99.08L85.17,98.91L85.49,98.81z"/><path style="fill:#000020" d="M85.01,99.16L84.54,99.24L84.36,99.06L84.68,98.97z"/><path style="fill:#000020" d="M84.22,99.30L83.91,99.40L83.58,99.21L84.05,99.13z"/><path style="fill:#000020" d="M113.03,99.45L112.89,99.40L113.08,99.15L113.17,99.17z"/><path style="fill:#000020" d="M83.57,99.48L83.10,99.55L82.45,99.39L83.25,99.30z"/><path style="fill:#000020" d="M184.24,100.38L184.15,99.90L184.22,99.96z"/><path style="fill:#000020" d="M160.08,100.88L159.99,100.27L160.07,100.22z"/><path style="fill:#000020" d="M184.41,101.34L184.31,100.87L184.39,100.92z"/><path style="fill:#000020" d="M71.40,102.11L71.73,101.96L71.88,102.02z"/><path style="fill:#000020" d="M120.37,117.24L120.00,117.32L119.92,117.22L120.08,117.06z"/><path style="fill:#000020" d="M117.97,125.47L117.68,125.65L117.69,125.40z"/><path style="fill:#000020" d="M176.08,126.16L175.97,125.67L176.05,125.73z"/><path style="fill:#000020" d="M176.24,127.12L176.15,126.65L176.22,126.70z"/><path style="fill:#000020" d="M176.40,128.08L176.31,127.61L176.38,127.66z"/><path style="fill:#000020" d="M176.56,129.20L176.47,128.56L176.54,128.61z"/><path style="fill:#000020" d="M119.18,129.85L119.38,129.73L119.38,130.61z"/><path style="fill:#000020" d="M178.97,136.41L178.87,135.93L178.94,135.98z"/><path style="fill:#000020" d="M178.32,138.02L178.24,137.75L178.47,137.68z"/><path style="fill:#000020" d="M178.64,139.45L178.55,138.97L178.62,139.03z"/><path style="fill:#000020" d="M123.21,141.79L122.98,141.84L123.14,141.41L123.38,141.40z"/><path style="fill:#000020" d="M179.76,144.25L179.67,143.77L179.74,143.83z"/><path style="fill:#000020" d="M180.88,149.06L180.79,148.57L180.86,148.63z"/><path style="fill:#000020" d="M125.32,149.85L125.04,149.71L125.33,149.59z"/><path style="fill:#000020" d="M125.65,151.46L125.56,150.98L125.63,151.03z"/><path style="fill:#000020" d="M126.13,153.70L126.04,153.22L126.11,153.27z"/><path style="fill:#000020" d="M182.00,153.86L181.91,153.38L181.98,153.44z"/><path style="fill:#000020" d="M118.44,153.86L118.35,152.25L118.42,152.31z"/><path style="fill:#000020" d="M118.60,154.66L118.51,154.19L118.59,154.24z"/><path style="fill:#000020" d="M115.40,155.30L115.31,154.83L115.38,154.88z"/><path style="fill:#000020" d="M126.77,156.74L126.68,156.26L126.75,156.31z"/><path style="fill:#000020" d="M119.08,156.89L118.99,156.42L119.06,156.48z"/><path style="fill:#000020" d="M115.88,157.53L115.79,157.06L115.87,157.11z"/><path style="fill:#000020" d="M119.24,157.70L119.15,157.23L119.23,157.28z"/><path style="fill:#000020" d="M116.04,158.34L115.95,157.87L116.02,157.92z"/><path style="fill:#000020" d="M183.12,158.66L183.03,158.18L183.10,158.24z"/><path style="fill:#000020" d="M127.25,158.98L127.16,158.50L127.23,158.55z"/><path style="fill:#000020" d="M119.72,159.94L119.63,159.46L119.70,159.52z"/><path style="fill:#000020" d="M116.52,160.58L116.43,160.10L116.51,160.15z"/><path style="fill:#000020" d="M127.89,162.02L127.80,161.54L127.87,161.59z"/><path style="fill:#000020" d="M120.20,162.19L120.11,161.70L120.18,161.76z"/><path style="fill:#000020" d="M117.00,162.82L116.91,162.34L116.99,162.39z"/><path style="fill:#000020" d="M128.36,164.21L128.21,163.95L128.28,163.78L128.37,163.85z"/><path style="fill:#000020" d="M184.88,166.19L184.79,165.71L184.86,165.76z"/><path style="fill:#404040" d="M82.76,80.49L92.27,78.35L104.24,75.77L103.58,77.20L102.84,77.22L83.26,81.48z"/><path style="fill:#404040" d="M81.37,83.09L81.29,98.63L80.95,97.89L80.89,89.02L80.97,86.77L81.04,82.29L81.10,82.35z"/><path style="fill:#c0c0c0" d="M74.87,19.91L75.24,21.09L74.61,21.25L73.44,18.10L73.63,16.78z"/><path style="fill:#c8cfee" d="M128.42,89.64L128.08,89.71L127.75,89.52L128.25,89.46z"/><path style="fill:#c8cfee" d="M127.61,89.79L127.29,89.86L127.11,89.68L127.43,89.61z"/><path style="fill:#c8cfee" d="M126.97,89.95L126.64,90.03L126.31,89.84L126.80,89.78z"/><path style="fill:#c8cfee" d="M126.17,90.11L125.85,90.18L125.67,90.00L125.99,89.94z"/><path style="fill:#c8cfee" d="M125.54,90.27L125.04,90.34L124.87,90.16L125.20,90.08z"/><path style="fill:#c8cfee" d="M124.73,90.44L124.41,90.50L124.23,90.32L124.55,90.26z"/><path style="fill:#c8cfee" d="M124.09,90.59L123.60,90.66L123.43,90.48L123.76,90.41z"/><path style="fill:#c8cfee" d="M123.29,90.75L122.96,90.83L122.62,90.64L123.11,90.58z"/><path style="fill:#c8cfee" d="M122.49,90.92L122.17,90.98L121.99,90.80L122.30,90.73z"/><path style="fill:#c8cfee" d="M121.85,91.08L121.52,91.15L121.18,90.96L121.67,90.90z"/><path style="fill:#c8cfee" d="M121.04,91.23L120.73,91.30L120.55,91.13L120.87,91.06z"/><path style="fill:#c8cfee" d="M120.41,91.39L120.07,91.46L119.98,91.30L120.07,91.22z"/><path style="fill:#c8cfee" d="M101.34,95.55L101.04,95.62L100.86,95.45L101.19,95.38z"/><path style="fill:#c8cfee" d="M100.72,95.72L100.23,95.78L100.05,95.60L100.38,95.53z"/><path style="fill:#c8cfee" d="M99.91,95.88L99.60,95.94L99.42,95.76L99.73,95.70z"/><path style="fill:#c8cfee" d="M99.28,96.04L98.79,96.10L98.61,95.92L98.94,95.85z"/><path style="fill:#c8cfee" d="M98.48,96.20L98.14,96.27L97.81,96.09L98.30,96.02z"/><path style="fill:#c8cfee" d="M97.67,96.36L97.35,96.42L97.17,96.24L97.49,96.18z"/><path style="fill:#c8cfee" d="M97.04,96.52L96.70,96.59L96.37,96.41L96.86,96.34z"/><path style="fill:#c8cfee" d="M96.23,96.68L95.91,96.74L95.73,96.57L96.05,96.50z"/><path style="fill:#c8cfee" d="M95.60,96.84L95.26,96.91L94.92,96.73L95.26,96.65z"/><path style="fill:#c8cfee" d="M94.79,97.00L94.47,97.06L94.29,96.89L94.61,96.82z"/><path style="fill:#c8cfee" d="M94.16,97.16L93.66,97.22L93.49,97.05L93.82,96.97z"/><path style="fill:#c8cfee" d="M93.34,97.32L92.22,97.54L92.06,97.37L93.17,97.15z"/><path style="fill:#c8cfee" d="M91.91,97.64L91.58,97.72L91.24,97.53L91.73,97.46z"/><path style="fill:#c8cfee" d="M91.11,97.80L90.79,97.86L90.61,97.68L90.92,97.62z"/><path style="fill:#c8cfee" d="M90.47,97.96L90.14,98.04L89.80,97.85L90.29,97.78z"/><path style="fill:#c8cfee" d="M89.66,98.12L89.35,98.18L89.17,98.01L89.49,97.94z"/><path style="fill:#c8cfee" d="M89.03,98.28L88.54,98.34L88.36,98.17L88.70,98.09z"/><path style="fill:#c8cfee" d="M88.23,98.44L87.91,98.51L87.73,98.33L88.05,98.26z"/><path style="fill:#c8cfee" d="M87.59,98.60L87.10,98.66L86.92,98.49L87.26,98.41z"/><path style="fill:#c8cfee" d="M86.78,98.76L85.66,98.98L85.49,98.81L86.61,98.59z"/><path style="fill:#c8cfee" d="M85.35,99.08L85.01,99.16L84.68,98.97L85.17,98.91z"/><path style="fill:#c8cfee" d="M84.54,99.24L84.22,99.30L84.05,99.13L84.36,99.06z"/><path style="fill:#c8cfee" d="M83.91,99.40L83.57,99.48L83.25,99.30L83.58,99.21z"/><path style="fill:#4c4c4c" d="M146.34,8.53L146.66,8.37L167.15,4.04L185.56,0.12L186.04,0.03L290.43,0.04L155.72,28.92L151.28,29.80L151.01,29.78L150.78,28.82L150.77,28.39L150.69,28.34L150.46,27.38L150.45,26.95L150.37,26.90L150.14,25.94L150.13,25.51L150.05,25.45L149.82,24.50L149.81,24.07L149.73,24.01L149.50,23.06L149.49,22.63L149.41,22.57L149.18,21.61L149.17,21.18L149.09,21.13L146.43,9.35z"/><path style="fill:#4c4c4c" d="M152.73,35.91L153.06,35.74L174.83,31.10L198.21,26.06L231.51,18.93L239.19,17.26L259.85,12.84L267.53,11.17L296.35,5.00L296.95,4.80L296.96,27.53L161.44,56.90L160.00,57.11L158.91,54.64L158.71,54.59L158.86,52.84L158.93,51.44L158.86,51.38L157.81,48.41z"/><path style="fill:#000000" d="M83.26,81.48L82.67,81.71L81.77,82.41L81.37,83.09L81.10,82.35L81.04,82.29L81.23,81.39L81.92,80.80L82.76,80.49z"/><path style="fill:#000000" d="M101.62,81.84L101.46,82.24L100.90,82.65L101.62,83.30L101.57,83.47L101.29,83.49L100.33,82.81L99.64,82.99L99.53,83.84L99.21,84.02L99.13,83.76L99.41,81.83L100.54,81.62L101.35,81.62z"/><path style="fill:#000000" d="M98.59,82.22L97.99,82.30L97.98,82.17L98.59,82.03z"/><path style="fill:#000000" d="M96.91,82.67L96.92,83.21L98.29,83.01L98.26,83.17L96.96,83.51L96.81,84.51L96.55,84.52L96.54,82.48L97.49,82.25L97.99,82.30z"/><path style="fill:#000000" d="M102.51,83.08L102.44,83.25L101.87,83.32L102.34,82.61z"/><path style="fill:#000000" d="M92.82,83.61L93.94,84.48L94.02,83.74L94.28,82.94L94.40,82.98L94.41,84.96L94.21,85.10L93.78,85.07L92.49,83.93L92.32,85.47L92.07,85.48L92.06,83.44L92.51,83.31z"/><path style="fill:#000000" d="M85.46,86.53L85.60,86.56L86.36,84.76L86.67,84.56L87.04,84.57L87.04,86.58L86.81,86.65L86.73,84.89L86.58,85.15L85.76,86.88L85.23,86.88L84.63,85.70L84.31,87.23L84.12,87.23L84.11,85.23L84.65,85.05z"/><path style="fill:#000000" d="M91.20,85.78L90.84,85.78L90.89,83.66L91.20,83.61z"/><path style="fill:#000000" d="M96.14,91.70L96.31,91.70L97.78,88.49L98.19,88.26L98.90,88.26L98.89,91.85L98.24,92.01L98.18,89.82L98.25,88.89L98.12,89.00L96.64,92.32L95.81,92.49L94.40,89.87L94.25,92.80L94.05,92.94L93.57,92.99L93.53,92.87L93.65,89.35L94.74,89.05z"/><path style="fill:#ffffff" d="M200.25,54.91L200.15,54.45L200.24,54.49z"/><path style="fill:#ffffff" d="M200.41,55.71L200.32,55.25L200.40,55.30z"/><path style="fill:#ffffff" d="M200.58,56.84L200.49,56.19L200.55,56.25z"/><path style="fill:#ffffff" d="M200.64,58.44L200.64,57.79L200.71,57.85z"/><path style="fill:#ffffff" d="M168.75,60.65L168.58,60.68L168.71,60.03z"/><path style="fill:#ffffff" d="M184.76,66.43L184.53,67.03L184.55,66.44L184.74,66.29z"/><path style="fill:#ffffff" d="M199.29,70.93L199.20,70.12L199.27,70.18z"/><path style="fill:#ffffff" d="M185.52,71.56L185.44,71.08L185.51,71.14z"/><path style="fill:#ffffff" d="M199.45,71.88L199.36,71.41L199.44,71.46z"/><path style="fill:#ffffff" d="M178.48,72.20L178.38,71.73L178.46,71.78z"/><path style="fill:#ffffff" d="M185.68,72.36L185.59,71.90L185.67,71.95z"/><path style="fill:#ffffff" d="M199.61,73.00L199.52,72.53L199.59,72.58z"/><path style="fill:#ffffff" d="M186.80,73.00L186.72,72.52L186.79,72.58z"/><path style="fill:#ffffff" d="M185.84,73.32L185.75,72.85L185.83,72.90z"/><path style="fill:#ffffff" d="M199.81,73.97L199.70,73.91L199.68,73.49z"/><path style="fill:#ffffff" d="M186.97,73.96L186.87,73.49L186.95,73.54z"/><path style="fill:#ffffff" d="M186.01,74.28L185.91,73.81L185.99,73.86z"/><path style="fill:#ffffff" d="M199.81,73.97L202.05,73.45L268.49,58.88L294.75,53.12L296.95,52.67L296.94,166.94L185.08,166.95L184.88,166.19L184.86,165.76L184.79,165.71L183.12,158.66L183.10,158.24L183.03,158.18L182.00,153.86L181.98,153.44L181.91,153.38L180.88,149.06L180.86,148.63L180.79,148.57L179.76,144.25L179.74,143.83L179.67,143.77L178.64,139.45L178.62,139.03L178.55,138.97L178.32,138.02L178.47,137.68L178.96,136.85L178.97,136.41L178.94,135.98L178.87,135.93L177.34,129.89L176.56,129.20L176.54,128.61L176.47,128.56L176.40,128.08L176.38,127.66L176.31,127.61L176.24,127.12L176.22,126.70L176.15,126.65L176.08,126.16L176.05,125.73L175.97,125.67L176.00,125.41L181.17,123.22L181.43,122.65L182.39,116.23L183.12,111.59L183.51,108.87L184.41,103.11L184.41,101.34L184.39,100.92L184.31,100.87L184.24,100.38L184.22,99.96L184.15,99.90L183.27,96.23L184.06,93.38L184.38,95.48L185.02,98.04L185.52,98.68L196.19,97.09L196.81,96.75L197.84,95.54L200.07,81.60L200.07,76.74z"/><path style="fill:#ffffff" d="M187.12,75.07L187.00,75.09L187.04,74.60L187.11,74.66z"/><path style="fill:#ffffff" d="M186.16,75.40L186.07,74.93L186.14,74.99z"/><path style="fill:#ffffff" d="M187.29,76.04L187.20,76.06L187.12,75.89L187.20,75.56L187.27,75.62z"/><path style="fill:#ffffff" d="M186.32,76.70L186.24,75.88L186.30,75.94z"/><path style="fill:#ffffff" d="M187.45,77.00L187.36,77.01L187.28,76.84L187.36,76.52L187.43,76.58z"/><path style="fill:#ffffff" d="M187.61,78.13L187.52,77.49L187.59,77.54z"/><path style="fill:#ffffff" d="M186.39,78.30L186.39,77.64L186.46,77.71z"/><path style="fill:#ffffff" d="M101.15,82.00L101.09,82.18L100.45,82.52L99.63,82.56L99.63,82.03L101.00,81.86z"/><path style="fill:#ffffff" d="M186.63,85.77L186.51,85.38L186.65,85.34z"/><path style="fill:#ffffff" d="M120.50,104.92L120.47,105.08L120.02,105.10L118.19,104.47L118.19,104.29L118.74,104.27z"/><g id="Actor_.0"><g style="stroke:#282828;stroke-width:0.106"><path d="M131.11,40.73L122.04,-0.00"/><path d="M128.67,69.39L128.52,68.71"/></g><g style="stroke:#282828;stroke-width:0.353"><path d="M90.93,-0.00L103.22,57.23"/><path d="M154.54,45.52L144.44,-0.00"/></g></g><g id="Actor_.1"><g style="stroke:#282828;stroke-width:0.106"><path d="M169.00,89.39L171.95,96.77L172.14,97.20"/><path d="M169.00,58.80L169.35,58.04L169.90,58.84L170.10,58.45L170.41,58.33L169.80,57.45"/><path d="M170.19,89.20L172.73,95.57"/><path d="M169.63,60.86L169.90,58.84L170.85,59.49L170.65,60.96"/><path d="M170.41,58.33L170.90,58.62L170.86,59.07L170.85,59.49L174.89,59.82L174.17,64.96L173.18,64.86"/><path d="M174.31,88.99L173.37,84.91L172.89,84.54L171.18,84.41"/><path d="M171.46,82.45L171.71,82.47L171.76,82.15"/><path d="M171.71,82.47L172.95,82.55L173.03,82.01"/><path d="M170.90,58.62L175.67,59.13L177.72,58.85L176.32,58.48L176.08,58.46L171.21,58.15L170.84,57.47L170.73,57.37"/><path d="M171.95,96.77L172.24,96.32L172.66,96.12"/><path d="M172.66,73.87L173.14,73.79L174.41,74.63"/><path d="M173.71,91.56L173.55,92.24L173.37,92.49L173.38,92.49"/><path d="M173.55,92.24L173.92,91.69"/><path d="M172.89,84.54L172.97,83.43L172.95,82.55L174.79,84.04L174.93,84.63"/><path d="M173.37,84.91L174.34,84.55L174.79,84.04L175.14,81.64"/><path d="M173.18,74.13L173.14,73.79L173.61,70.45L175.55,74.37"/><path d="M173.61,70.45L174.27,65.73L174.83,65.39L173.27,65.26"/><path d="M174.17,64.96L175.42,65.09L177.28,66.61L176.69,67.14L176.57,67.26L174.27,65.73L173.37,65.68"/><path d="M174.28,94.03L176.20,80.66L176.82,81.04L174.97,93.94"/><path d="M174.83,65.39L175.42,65.09L176.14,59.95L174.89,59.82"/><path d="M183.21,95.72L184.75,88.53L185.42,80.34L177.48,82.15L175.79,93.82"/><path d="M176.20,80.66L176.23,78.26L175.86,75.07L176.13,74.96L176.45,74.90L176.86,78.41L176.82,81.04L177.66,80.93L177.65,77.77L184.94,76.40L184.27,73.24L183.59,70.19L181.85,70.27L181.71,70.28L181.00,72.91L178.94,73.19L179.43,72.97L179.23,72.73"/><path d="M176.69,67.14L176.11,65.94"/><path d="M175.59,59.90L175.67,59.13L176.22,59.19L176.14,59.95L178.03,61.38L180.21,70.75L180.47,70.52L180.78,70.44L179.43,72.97"/><path d="M181.00,72.91L180.78,73.13L179.87,73.74L179.01,74.14L177.31,74.96L177.65,77.77"/><path d="M176.45,74.90L176.72,74.28L178.94,73.19L178.74,72.94"/><path d="M176.72,74.28L176.51,73.99L176.40,74.03"/><path d="M177.20,70.21L176.62,70.20L176.61,73.45"/><path d="M176.62,70.20L177.20,69.38"/><path d="M176.57,67.26L176.44,68.20L177.09,69.24L177.66,69.15"/><path d="M177.28,66.61L178.03,61.38L178.20,61.14L178.58,61.01L180.78,70.44"/><path d="M178.58,61.01L176.22,59.19"/><path d="M177.48,82.15L177.66,80.93L185.38,79.47L184.94,76.40L185.12,76.31L185.22,76.21L184.57,73.18L183.89,70.26L185.56,71.62L183.43,62.52L182.86,60.64"/><path d="M177.57,69.68L177.45,70.15"/><path d="M177.72,58.85L179.52,60.91L181.39,60.78L181.38,60.75L181.56,60.79L181.70,60.88L183.89,70.26L183.59,70.19L181.39,60.78L181.70,60.89"/><path d="M179.52,60.91L181.71,70.28"/><path d="M180.36,56.92L180.76,58.27L181.38,60.75"/><path d="M183.48,62.63L183.43,62.52L181.70,60.88L181.12,58.48L180.76,57.16"/><path d="M182.56,59.96L182.54,59.99"/><path d="M185.22,76.21L185.69,79.17L185.38,79.47L185.42,80.34L185.72,80.07L185.03,88.27L183.34,96.28"/><path d="M185.03,89.63L185.02,89.65"/><path d="M185.52,86.96L186.46,78.24"/><path d="M185.72,80.07L185.69,79.17"/><path d="M186.43,78.47L186.42,77.76L185.69,79.24L185.38,79.53"/><path d="M186.11,74.74L185.56,71.62L185.61,71.72"/><path d="M186.42,77.76L186.45,77.59"/></g><g style="stroke:#282828;stroke-width:0.353"><path d="M171.62,97.28L168.61,89.44"/><path d="M182.53,59.97L182.56,59.96L182.85,60.62L182.37,59.65L180.76,57.16L180.36,56.92L176.55,57.03L170.72,57.37L169.80,57.45L169.33,57.70L169.00,58.80L168.73,60.77"/><path d="M173.98,91.30L173.71,91.56L173.37,92.49L173.13,94.19"/><path d="M173.92,91.69L175.13,83.24L175.14,80.08L175.86,75.07L176.40,74.03L177.03,73.74"/><path d="M173.80,69.09L176.44,68.20L177.02,69.23L177.60,69.71"/><path d="M174.83,65.39L176.43,66.08"/><path d="M176.50,73.98L178.74,72.94L179.23,72.73"/><path d="M177.09,69.24L178.08,70.16"/><path d="M177.66,69.15L178.41,70.94L178.70,72.97"/><path d="M180.21,70.75L179.14,72.77"/><path d="M185.45,87.24L185.03,89.63L183.66,95.17L183.35,96.32"/><path d="M183.67,95.11L185.52,86.96L185.92,84.12L186.22,81.71L186.46,78.24L186.45,77.59L186.29,75.91L186.13,74.94"/><path d="M186.43,77.76L186.11,74.74L185.61,71.72L184.61,67.09L183.48,62.63L182.85,60.62"/></g></g><g id="Actor_.2"><g style="stroke:#282828;stroke-width:0.106"><path d="M186.39,71.91L185.66,72.01"/></g><g style="stroke:#282828;stroke-width:0.353"><path d="M184.83,68.10L185.20,68.29L186.39,71.91L187.31,77.28L187.62,82.34L187.20,85.13L185.75,85.33"/></g></g><g id="Actor_.3"><g style="stroke:#282828;stroke-width:0.106"><path d="M101.32,93.82L102.49,97.53L105.76,100.08L110.01,100.63L109.98,100.68"/><path d="M156.79,54.02L157.24,53.15L155.87,47.97L150.54,44.11L142.04,42.17L131.67,42.49L121.05,45.01L111.84,49.35L105.48,54.81L102.92,60.55L104.16,61.63L106.63,56.10L112.77,50.84L121.65,46.66L131.88,44.23L141.88,43.92L150.06,45.78L155.21,49.50L155.50,50.57"/><path d="M103.58,77.78L103.74,81.37L106.06,84.39L109.81,85.87L111.85,85.85L111.88,86.06L111.88,86.30L110.01,100.63L113.42,98.74"/><path d="M116.48,83.30L117.61,81.59L117.89,81.78L117.94,82.08L116.67,83.65L116.62,83.49L116.48,83.30L113.80,85.32L111.85,85.85L111.83,85.64L111.83,85.41L109.86,85.42L107.95,84.94L104.90,82.68L103.66,79.35L104.62,76.00L107.46,73.71"/><path d="M103.58,77.75L104.64,75.71L104.39,75.78"/><path d="M104.64,75.71L106.35,73.94L106.04,73.82L105.88,73.89"/><path d="M104.38,62.65L106.12,58.12L110.46,53.64L111.79,61.50L111.22,65.81L110.48,67.57L110.30,67.89L109.77,68.75"/><path d="M106.35,73.94L109.66,69.64L115.66,74.85L112.66,73.23L109.21,72.97L107.19,73.52L106.35,73.94"/><path d="M109.82,83.20L109.44,83.12"/><path d="M109.04,81.51L109.11,80.92"/><path d="M109.21,72.97L109.23,73.10L109.28,73.21"/><path d="M109.33,73.20L110.59,73.47"/><path d="M110.46,53.64L116.75,49.80L116.95,54.75L115.60,59.77L115.42,60.19L114.80,61.57L114.06,63.01L113.69,63.68L112.60,65.47L111.88,66.57L111.08,67.73L109.66,69.64L109.48,69.55L109.20,69.56"/><path d="M111.83,85.41L116.28,82.95L117.38,78.36L116.18,76.66"/><path d="M115.27,75.39L114.50,74.32L113.16,74.03"/><path d="M116.67,83.65L114.85,97.25"/><path d="M117.61,81.59L117.98,80.26L117.61,77.60L115.66,74.85L118.85,77.64L117.98,80.26L118.31,80.39L117.89,81.78L120.08,79.10L120.26,79.45L117.94,82.08"/><path d="M117.50,87.94L118.58,90.83L118.55,91.33L117.29,90.95L117.26,88.75L118.06,85.50"/><path d="M117.35,90.49L118.58,90.83L118.64,90.82L118.67,90.94L118.68,91.07L118.61,91.31L118.55,91.33"/><path d="M116.75,49.80L124.13,46.97L132.11,45.26L135.76,61.64L135.81,61.91L135.09,62.02L134.38,62.17L133.69,62.35L132.91,62.60L132.29,62.83L131.41,63.19L129.93,63.92L128.07,65.12L127.48,65.62L125.79,67.39L125.44,67.84L124.42,69.32L122.93,71.96L122.26,73.09L121.25,74.73L120.65,75.64L119.83,76.82L119.06,77.83L120.08,79.10L123.30,74.24L126.38,69.13L130.61,65.59L136.03,63.55L136.05,64.00L136.01,64.39L133.53,65.34"/><path d="M118.38,93.01L118.61,91.31L120.99,89.82L124.01,87.77L124.58,87.72L128.29,88.76L133.20,89.38L133.21,89.27L133.13,88.67L127.96,87.81L124.02,87.06L121.25,88.76L120.87,89.13L118.77,90.78L118.64,90.82"/><path d="M118.31,80.39L119.06,77.83L118.85,77.64L119.62,76.62L120.37,75.53L121.25,74.15L122.09,72.74L123.46,70.32L124.39,68.74L125.21,67.60L129.27,63.95L129.80,63.65L130.61,63.24L131.20,62.97L131.77,62.72L132.82,62.32L133.49,62.11L134.64,61.81L135.14,61.77L135.34,61.78L135.76,61.64L142.71,61.11L143.26,61.11L149.11,62.41L150.24,63.13L152.41,65.19L153.31,66.74L153.84,68.72L153.65,68.76L153.80,69.26L153.93,69.56L153.86,69.58L153.17,69.55L151.44,69.62L150.90,70.09L150.72,70.02L150.58,69.91L150.50,69.78L150.49,69.88"/><path d="M123.00,75.83L120.01,81.09L120.22,79.50L120.04,79.15"/><path d="M120.26,79.45L123.48,74.67L126.52,69.62L128.21,68.16"/><path d="M124.39,88.26L128.15,89.19L133.16,89.75L141.77,87.81L141.50,87.39L141.39,87.12L141.31,86.82L140.46,87.08L133.13,88.67L130.09,74.85L124.30,75.27L123.42,75.21"/><path d="M124.57,73.25L129.69,73.07L130.09,74.85"/><path d="M126.22,70.52L129.83,67.30"/><path d="M129.69,73.07L138.76,70.92L146.66,67.24L148.25,65.92"/><path d="M132.11,45.26L139.83,44.82L146.70,45.66L148.49,51.08L151.96,55.95L157.10,59.63L163.54,61.18L164.87,60.38"/><path d="M133.16,89.75L133.20,89.38L141.55,87.48L145.63,87.27"/><path d="M144.15,64.08L144.33,64.02L144.64,63.61L136.05,64.00"/><path d="M151.45,70.77L151.66,70.69L153.17,69.55L153.14,68.98L151.40,69.05L151.44,69.62L151.30,69.49L151.20,69.34L151.13,69.18L151.40,69.05L151.31,68.66L151.04,68.80L148.70,65.20L144.64,63.61L144.77,63.18L136.03,63.55L135.81,61.91L141.22,61.40"/><path d="M139.80,88.25L141.79,87.81"/><path d="M150.40,69.45L150.50,69.25L148.22,65.59L144.33,64.02L140.01,64.02"/><path d="M141.31,86.82L145.64,86.63L147.31,87.67L148.13,89.48L148.22,89.89L148.21,90.30L148.37,90.56L148.22,90.51"/><path d="M144.77,63.18L148.90,64.82L151.31,68.66"/><path d="M146.70,45.66L149.41,46.46L150.70,50.65L150.85,50.98L152.67,53.95L153.85,55.34"/><path d="M148.12,90.41L148.11,90.40"/><path d="M160.62,90.09L151.18,91.39L150.44,91.36L149.18,90.63L149.01,90.37L149.02,89.97L148.21,89.90L148.09,89.97L148.00,90.07L147.98,90.17L148.05,90.34"/><path d="M147.90,89.67L148.13,89.48"/><path d="M147.99,90.20L148.00,90.22"/><path d="M148.19,90.48L148.37,90.56L148.80,90.83"/><path d="M148.37,90.56L149.18,90.63L149.63,90.54L154.46,87.52L155.66,86.37"/><path d="M155.35,85.65L153.97,86.97L149.24,89.92L149.40,90.29L149.63,90.54L151.12,91.39L150.94,91.45"/><path d="M149.02,89.97L149.24,89.92"/><path d="M150.50,69.78L150.52,69.74L150.60,69.65L150.50,69.24L151.04,68.80L151.13,69.18L150.60,69.65L150.66,69.81L150.76,69.96L150.90,70.09L151.66,70.69L152.08,70.92L151.97,70.98"/><path d="M150.70,70.18L150.90,70.09"/><path d="M156.58,77.59L158.69,76.57L164.96,75.71L164.92,75.88L164.81,76.24L164.85,76.45L156.58,77.59L157.37,76.76L158.16,75.96L158.34,76.34L158.69,76.57L159.12,75.29L156.35,72.74L152.08,70.92L153.86,69.58L153.73,69.28L153.61,68.90L153.14,68.98"/><path d="M172.58,62.28L172.10,62.08L163.54,61.18L153.84,68.72L153.86,68.83L153.61,68.90"/><path d="M163.53,68.24L153.93,69.56L153.93,69.25L153.86,68.83L163.61,67.50"/><path d="M156.23,77.71L156.26,77.68L156.48,77.61"/><path d="M156.40,74.84L156.57,77.53"/><path d="M158.16,75.96L158.50,75.05"/><path d="M159.12,75.29L158.73,75.27"/><path d="M165.84,75.75L165.84,75.73L165.34,75.70L165.44,74.97L165.40,74.97L163.20,74.71L162.77,73.96"/><path d="M167.46,75.83L167.48,75.84L167.62,74.79L167.95,74.58L168.65,73.62L167.14,71.02L166.67,71.68L164.93,72.33L163.31,72.14L163.07,71.71"/><path d="M163.79,65.60L167.96,65.03L167.14,71.02"/><path d="M164.91,87.44L165.26,84.85"/><path d="M164.98,84.96L165.59,84.35L165.54,80.82L164.85,76.45L165.24,76.49L165.33,76.65"/><path d="M164.96,75.71L165.34,75.70"/><path d="M166.53,82.79L166.47,83.24L166.05,83.14"/><path d="M166.23,75.75L165.84,75.73"/><path d="M165.44,74.97L167.62,74.79"/><path d="M166.44,89.74L167.21,84.15L166.75,83.37L167.14,84.04"/><path d="M166.47,83.24L166.75,83.37"/><path d="M168.65,73.62L169.44,67.90L173.23,67.38L173.64,66.85L173.16,66.65L169.22,67.19L167.96,65.03"/><path d="M169.44,67.90L169.22,67.19"/><path d="M170.17,89.22L171.17,82.06"/><path d="M172.13,75.19L173.23,67.38L173.16,66.65L172.10,62.08L171.86,61.08"/></g><g style="stroke:#282828;stroke-width:0.353"><path d="M109.76,68.77L109.20,69.56L105.88,73.89L104.39,75.78L103.41,77.78L103.07,79.42L101.32,93.82L101.78,96.14L102.50,97.53L104.12,99.20L105.76,100.08L107.91,100.69L109.98,100.68L111.94,100.13L113.30,99.10"/><path d="M105.11,66.12L104.51,65.67L102.92,60.55L102.53,58.76L105.09,53.02L111.45,47.55L120.65,43.22L131.27,40.69L141.63,40.38L150.13,42.32L155.46,46.19L156.84,51.37L157.24,53.15L156.80,54.06"/><path d="M103.07,79.42L103.57,81.48L104.26,83.16L105.94,84.57L107.57,85.75L109.78,86.08L111.88,86.30L113.86,85.52L116.67,83.65"/><path d="M104.16,61.63L105.54,68.21L106.19,73.49"/><path d="M111.44,73.24L109.33,73.20L107.46,73.71"/><path d="M109.70,82.77L109.75,82.79"/><path d="M124.39,88.26L121.52,89.76L118.41,92.98L116.00,96.37L115.63,96.84"/><path d="M117.35,90.49L117.35,88.55L118.14,85.32L118.21,85.16L118.06,85.50"/><path d="M124.33,73.63L120.01,81.09L118.21,85.16L118.35,84.84"/><path d="M123.00,75.83L126.22,70.52"/><path d="M141.79,87.81L133.16,89.75L133.09,89.76L128.03,89.25L124.19,88.37"/><path d="M130.21,67.10L125.70,71.38"/><path d="M127.16,68.57L126.38,69.13L136.05,64.00L135.20,64.32"/><path d="M133.23,65.50L136.01,64.39L140.01,64.02"/><path d="M143.80,61.51L141.22,61.40L135.82,61.63L135.94,61.63"/><path d="M144.33,64.02L139.97,64.08L138.99,64.11"/><path d="M145.63,87.27L145.90,87.58L141.77,87.81"/><path d="M142.71,61.11L150.13,63.83"/><path d="M150.50,69.24L148.11,65.73L144.15,64.08L143.25,64.03"/><path d="M145.90,87.58L147.93,89.82"/><path d="M149.88,63.49L146.47,61.61L146.28,61.59"/><path d="M146.47,61.61L146.46,61.61"/><path d="M147.90,89.67L147.98,90.16L148.05,90.34L148.22,90.51L148.66,90.78L150.44,91.36L150.94,91.45L151.18,91.39L160.61,90.13L161.22,85.58"/><path d="M148.22,90.51L148.05,90.34"/><path d="M149.11,62.41L153.65,68.76L153.49,68.45"/><path d="M149.41,46.45L152.07,47.52L155.23,50.24L155.97,51.15L156.99,54.70L157.97,58.54"/><path d="M150.06,68.59L150.40,69.45L150.49,69.88L150.70,70.18L151.45,70.77L151.96,70.98L156.30,72.84"/><path d="M159.84,59.42L159.08,59.12L157.52,58.30L154.86,56.33L153.85,55.34"/><path d="M154.55,55.57L156.07,57.22"/><path d="M157.55,74.15L157.30,74.38L156.40,74.84L155.72,74.94"/><path d="M155.32,74.92L155.51,74.94"/><path d="M158.73,75.27L156.05,72.73"/><path d="M159.03,59.26L164.87,60.38L171.86,61.08L172.32,61.52L172.58,62.28L173.64,66.85L172.55,74.67L172.13,75.20L167.48,75.84L166.60,75.84L165.84,75.75L165.23,75.86L165.23,76.15L165.67,78.35L165.91,80.17L166.05,81.89L166.05,83.29L165.93,84.22L165.79,84.64L164.98,84.96L157.22,86.24"/><path d="M160.90,88.00L164.91,87.44L166.16,89.58L166.44,89.74L170.17,89.22L170.58,88.71L171.53,81.91"/><path d="M163.79,65.60L163.53,68.24L162.77,73.96"/><path d="M166.05,83.18L166.75,83.37"/><path d="M165.23,76.12L165.24,76.21"/></g></g><g id="Actor_.4"><g style="stroke:#282828;stroke-width:0.106"><path d="M186.12,92.12L184.61,92.33L184.48,92.26L184.57,94.37L185.06,96.47L185.46,96.46"/><path d="M185.48,96.36L185.15,96.36L184.69,94.35L184.61,92.33L184.99,89.77"/><path d="M184.48,92.26L184.65,91.17"/><path d="M185.67,98.74L185.96,98.15L197.08,96.59L199.36,82.47L200.17,81.42"/><path d="M185.56,98.65L185.84,98.07L185.96,98.15L188.12,84.02L199.36,82.47L199.49,79.66L199.22,75.85L198.60,71.81L199.51,72.03"/><path d="M185.84,98.07L187.99,83.95L188.12,84.02L188.24,81.22L187.96,77.40L187.34,73.37L187.22,73.41L187.07,72.42L187.00,71.47L187.03,70.78L187.15,70.85L187.13,71.52L187.19,72.42L187.34,73.37L198.60,71.81L198.45,70.87L198.39,69.97L198.42,69.30L199.24,68.26"/><path d="M186.63,69.29L186.30,69.32L185.83,67.30L185.75,65.24L185.62,65.16L185.71,67.31L186.20,69.42L186.61,69.39"/><path d="M185.53,68.78L185.41,68.91"/><path d="M187.27,65.03L185.75,65.24L187.12,56.01L186.99,55.94L185.62,65.16"/><path d="M187.22,73.41L187.83,77.40L188.11,81.18L187.99,83.95"/><path d="M186.99,53.56L187.45,54.11L187.95,55.72L188.07,56.40L188.35,57.96L188.56,60.22L188.50,61.89L199.84,60.34L198.42,69.30L187.15,70.85L188.50,61.89L188.38,61.81L187.03,70.78"/><path d="M186.99,55.94L187.16,55.58"/><path d="M187.44,55.97L187.12,56.01L187.26,55.71"/><path d="M186.61,54.31L187.35,54.22L188.23,57.97L188.38,61.81"/><path d="M187.95,55.72L199.30,54.17L200.25,54.58"/><path d="M198.32,52.02L198.79,52.57L199.30,54.17L199.50,55.30L199.70,56.41L199.91,58.66L199.84,60.34L200.67,59.29"/></g><g style="stroke:#282828;stroke-width:0.353"><path d="M184.15,93.19L184.26,94.37L184.64,96.51L185.12,98.08L185.56,98.65L185.67,98.74L196.57,97.04L197.08,96.59L197.89,95.56L200.17,81.42L200.29,78.95L200.05,75.58L199.29,70.60L199.19,69.26L199.24,68.26L200.67,59.29L200.72,58.01L200.56,56.28L200.25,54.58L199.86,53.35L199.50,52.93L198.32,52.02L186.99,53.56L186.61,54.31L184.67,67.39"/><path d="M186.69,85.20L186.73,85.42L186.84,86.65L186.82,87.55L185.46,96.46"/><path d="M187.45,83.46L187.80,83.14L187.77,78.33L186.82,72.37L185.53,68.78"/><path d="M186.61,69.39L187.99,60.18L188.02,59.26L187.91,58.01L187.69,56.78L187.41,55.89L187.16,55.58"/></g></g><g id="Actor_.5"><g style="stroke:#282828;stroke-width:0.106"><path d="M166.19,82.44L166.12,81.00L165.77,78.86L165.70,78.61"/><path d="M165.25,76.22L165.81,77.65L166.30,79.88L166.52,81.82L166.43,82.65"/><path d="M165.81,75.76L166.37,77.03L166.21,77.05L166.87,80.20L167.06,82.75L166.78,83.17"/><path d="M166.21,77.05L165.65,75.79"/><path d="M166.07,75.83L166.66,77.14L167.18,79.25L167.46,81.29L167.45,82.43"/><path d="M166.94,83.15L167.23,82.72L167.03,80.18L166.37,77.03"/><path d="M167.60,82.36L167.80,82.20L167.73,80.70L167.36,78.51L166.79,76.54L166.32,75.81"/><path d="M168.07,82.99L168.36,82.57L168.16,80.03L167.50,76.87L167.05,75.84"/><path d="M167.22,75.84L167.66,76.85L167.50,76.87"/><path d="M168.23,82.97L168.52,82.54L168.32,80.00L167.66,76.85"/><path d="M168.70,82.34L168.78,81.51L168.57,79.62L168.10,77.45L167.51,75.87"/><path d="M167.79,75.79L168.36,77.20L168.86,79.41L169.10,81.39L169.03,82.29"/><path d="M169.36,82.81L169.65,82.39L169.45,79.85L168.79,76.69L168.36,75.71"/><path d="M169.81,82.37L169.61,79.82L168.95,76.67L168.79,76.69"/><path d="M169.93,82.15L170.07,81.66L169.94,79.98L169.53,77.79L168.95,75.99"/><path d="M168.52,75.69L168.95,76.67"/><path d="M169.01,75.63L169.34,76.11L169.92,78.04L170.30,80.25L170.39,81.80L170.20,82.03"/><path d="M170.65,82.63L170.94,82.21L170.75,79.67L170.08,76.52L170.25,76.49L170.91,79.65L171.10,82.19"/><path d="M170.08,76.52L169.65,75.54"/><path d="M170.25,76.49L169.82,75.51"/><path d="M171.35,81.73L171.29,80.31L170.95,78.17L170.40,76.19L169.99,75.49"/><path d="M170.36,75.44L170.92,76.75L171.43,78.95L171.68,80.95L171.62,81.92"/><path d="M171.94,82.46L172.23,82.03L172.04,79.49L171.38,76.34L171.54,76.32L172.20,79.47L172.39,82.01L172.10,82.43"/><path d="M171.54,76.32L171.11,75.34"/><path d="M171.38,76.34L170.95,75.36"/><path d="M172.79,81.70L172.98,81.40L172.88,79.80L172.48,77.58L171.90,75.68L171.59,75.27"/><path d="M172.63,80.59L172.35,78.56L171.84,76.45L171.32,75.31"/><path d="M172.61,81.73L172.63,80.59"/><path d="M173.39,82.26L173.69,81.83L173.49,79.29L172.83,76.14L172.67,76.16L173.33,79.31L173.52,81.85L173.23,82.28"/><path d="M172.67,76.16L172.20,75.11"/><path d="M172.83,76.14L172.31,74.97"/><path d="M173.86,81.63L173.95,80.82L173.74,78.94L173.27,76.76L172.68,75.17"/><path d="M174.35,77.58L173.96,75.98L173.12,74.08L172.57,74.52"/><path d="M172.87,74.92L173.48,76.31L174.00,78.49L174.26,80.52L174.21,81.55"/><path d="M173.96,75.98L174.05,75.97"/><path d="M173.02,73.95L173.71,74.78"/><path d="M174.13,76.35L175.54,76.16L175.63,76.63"/><path d="M174.99,74.60L175.54,76.16L175.71,76.11"/><path d="M175.99,74.18L176.13,74.56"/><path d="M176.62,73.45L176.79,73.85"/><path d="M186.50,72.55L186.84,72.50"/></g><g style="stroke:#282828;stroke-width:0.353"><path d="M166.19,82.44L166.05,82.69"/><path d="M166.09,82.61L166.43,82.65L166.78,83.17L166.94,83.15L167.45,82.43L167.60,82.36L168.07,82.99L168.23,82.97L168.70,82.34L169.03,82.29L169.65,82.39"/><path d="M166.07,75.83L166.03,75.77"/><path d="M167.51,75.87L167.48,75.84"/><path d="M171.35,81.73L171.10,82.19L170.81,82.61L170.65,82.63L170.20,82.03L169.93,82.15L169.81,82.37L169.52,82.79L169.36,82.81L169.06,82.29"/><path d="M168.95,75.99L168.73,75.66"/><path d="M171.27,81.88L171.62,81.92L171.94,82.46L172.10,82.43L172.61,81.73L172.79,81.70L173.23,82.28L173.39,82.26L173.86,81.63L174.21,81.55"/><path d="M172.86,74.92L172.45,74.86"/><path d="M172.68,75.17L172.43,74.83"/><path d="M174.13,81.57L174.23,81.68L174.55,80.89L174.57,80.10L174.36,77.66L174.26,77.02L174.16,76.48L174.05,75.97L173.94,75.54L173.83,75.14L173.72,74.79L173.70,74.75L173.02,73.94L172.57,74.48"/><path d="M175.99,74.18L174.99,74.60L173.64,74.68"/><path d="M175.14,81.33L174.31,81.48"/><path d="M177.60,73.47L177.60,73.47L177.40,73.34L176.62,73.45L175.93,74.21"/><path d="M185.45,69.05L185.62,69.03"/></g></g><g id="Actor_.6"><g style="stroke:#282828;stroke-width:0.106"><path d="M177.24,70.18L177.58,70.47L178.18,70.39"/><path d="M177.58,70.47L177.67,70.69L177.74,71.05L177.79,71.46L177.91,73.33"/><path d="M177.79,71.46L178.47,71.36"/></g><g style="stroke:#282828;stroke-width:0.353"><path d="M177.99,70.07L177.24,70.18L176.96,70.36L176.76,70.99L176.63,72.73L176.66,73.44"/></g></g><g id="Actor_.7"><g style="stroke:#282828;stroke-width:0.106"><path d="M153.65,82.48L153.82,82.68"/><path d="M153.47,82.07L153.80,82.02"/><path d="M153.67,80.62L154.19,80.35L154.90,80.08L155.78,79.79L155.05,76.70L154.39,75.93"/><path d="M153.18,80.29L153.62,80.23"/><path d="M155.61,86.29L155.97,86.64L156.24,86.27L156.37,85.22L156.36,83.62L156.21,81.66L155.92,79.59L155.02,75.75L154.20,74.80L153.96,77.11"/><path d="M155.11,74.57L155.43,74.93"/><path d="M156.09,86.73L156.36,86.35L156.50,85.28L156.49,83.66L156.33,81.67L156.04,79.55L156.87,79.44L156.93,79.43L156.96,79.44"/><path d="M155.78,79.79L156.14,83.41L155.93,85.41L155.27,84.63"/><path d="M156.04,79.55L155.98,79.56L155.92,79.59"/><path d="M155.59,75.11L155.95,75.53L156.32,77.09"/><path d="M156.91,86.61L157.19,86.24L157.33,85.17L157.32,83.54L157.16,81.55L156.87,79.44L156.56,78.11"/></g><g style="stroke:#282828;stroke-width:0.353"><path d="M155.27,84.63L153.65,82.48L153.54,82.28L153.47,82.07L153.39,81.78L153.32,81.48L153.27,81.19L153.23,80.89L153.20,80.59L153.18,80.29L153.15,79.90L153.17,79.51L153.24,79.11L153.30,79.32L153.42,79.52L153.58,79.72L153.60,80.02L153.63,80.32L153.67,80.62L153.73,80.92L153.79,81.21L153.87,81.50L153.80,81.90L153.79,82.29L153.82,82.68"/><path d="M153.24,79.11L154.39,75.93"/><path d="M156.04,79.55L155.53,77.37L155.12,75.65L154.59,74.75L154.29,74.69L154.23,74.71L154.20,74.80L154.00,75.60L153.95,77.15"/><path d="M154.29,74.69L155.11,74.57L155.56,74.62L156.06,75.60L156.51,77.24L156.96,79.44L157.24,81.52L157.40,83.48L157.41,85.08L157.27,86.12L157.24,86.21L156.97,86.58L156.91,86.61L156.09,86.73L156.02,86.72L155.65,86.36L155.61,86.29L155.19,85.26L154.88,84.12"/></g></g><g id="Actor_.8"><g style="stroke:#282828;stroke-width:0.106"><path d="M107.85,84.38L107.92,83.90L105.68,82.28L104.42,79.97L104.39,77.43"/><path d="M110.66,85.00L110.72,84.52L109.79,82.51L111.94,82.47L114.25,80.93L114.81,79.73L114.48,79.68L113.94,79.74L113.70,79.98L113.75,78.99L113.41,78.04L112.73,77.24L111.79,76.69L110.71,76.45L109.71,76.54L109.61,76.56L108.62,76.99L107.88,77.70L107.46,78.61L107.29,78.28L106.80,77.99L106.48,77.89L107.04,80.75L109.68,82.49L107.92,83.90"/><path d="M106.48,77.89L107.04,76.68L108.03,75.74L109.34,75.16L110.81,75.02L111.66,75.21L112.25,75.34L113.51,76.07L114.41,77.14L114.86,78.41L114.81,79.73"/><path d="M109.83,81.98L109.68,82.49L109.61,83.07"/><path d="M110.72,84.52L113.48,84.00L115.69,82.45L116.89,80.18"/></g><g style="stroke:#282828;stroke-width:0.353"><path d="M109.62,82.97L107.86,84.38L105.62,82.76L104.36,80.45L104.33,77.92L104.39,77.43L107.19,73.93L112.00,73.28L116.01,75.87L116.89,80.18L116.83,80.67L115.62,82.93L113.42,84.48L110.66,85.00L109.73,83.00L109.71,83.10"/><path d="M107.46,78.61L107.88,80.74L109.72,81.96"/><path d="M108.66,81.81L109.83,81.98L109.85,82.05L109.79,82.50"/><path d="M108.67,81.27L109.05,80.91L112.16,81.60L112.17,81.62"/><path d="M109.73,83.00L109.79,82.51L109.93,82.00L111.55,82.03L113.28,80.89L113.70,79.98"/></g></g><g id="Actor_.9"><g style="stroke:#282828;stroke-width:0.353"><path d="M92.35,6.63L91.92,35.14"/></g></g><g id="Actor_.10"><g style="stroke:#282828;stroke-width:0.106"><path d="M81.35,98.54L81.49,83.11L81.74,82.46L82.40,81.88L83.30,81.52L82.88,80.42"/><path d="M81.49,83.11L81.08,82.01"/><path d="M84.42,85.10L84.40,86.87L84.08,86.94"/><path d="M84.07,87.31L84.53,87.21L84.40,86.87"/><path d="M83.30,81.52L103.76,77.07"/><path d="M84.53,87.21L84.55,85.40L85.38,87.03L85.85,86.92L86.73,84.92"/><path d="M85.38,87.03L85.25,86.68L84.44,85.10"/><path d="M85.25,86.68L85.60,86.61"/><path d="M84.55,85.40L84.43,85.10"/><path d="M85.48,86.37L85.48,86.36"/><path d="M85.85,86.92L85.72,86.58L85.65,86.60"/><path d="M85.72,86.58L86.58,84.63"/><path d="M87.61,86.17L87.73,86.14L87.86,86.49L87.38,86.59"/><path d="M86.72,86.36L87.03,86.29L87.16,86.64L86.71,86.74"/><path d="M87.03,86.29L87.06,84.53"/><path d="M87.16,86.64L87.19,84.50"/><path d="M87.86,86.49L88.24,85.75L88.11,85.40L87.73,86.14"/><path d="M88.24,85.75L89.61,85.45L89.96,86.03L90.45,85.92"/><path d="M88.11,85.40L88.33,85.35"/><path d="M88.25,85.13L88.58,84.46L88.71,84.80L88.38,85.47"/><path d="M88.58,84.46L88.74,84.16"/><path d="M89.61,85.45L89.48,85.10L89.43,85.11"/><path d="M89.96,86.03L89.83,85.68L89.48,85.10"/><path d="M89.47,85.23L89.17,84.74L89.04,84.39L88.88,84.13"/><path d="M88.85,84.13L88.94,84.36L88.71,84.80"/><path d="M88.94,84.36L89.17,84.74"/><path d="M89.20,84.05L89.20,84.06"/><path d="M89.04,84.39L89.34,84.89"/><path d="M90.83,85.47L91.15,85.40L91.28,85.74L90.83,85.84"/><path d="M90.23,85.60L89.83,85.68"/><path d="M91.15,85.40L91.18,83.63"/><path d="M91.28,85.74L91.31,83.60"/><path d="M92.03,85.20L92.35,85.14L92.48,85.48L92.02,85.58"/><path d="M92.48,85.48L92.50,83.88L94.01,85.14L93.88,84.80L94.36,84.70L94.39,82.93"/><path d="M92.35,85.14L92.37,83.54L93.88,84.80"/><path d="M92.50,83.88L92.37,83.54"/><path d="M98.24,88.88L96.69,92.36L95.86,92.54L94.43,89.71L94.38,92.87L93.58,93.04"/><path d="M94.38,92.87L94.25,92.52L93.59,92.67"/><path d="M94.01,85.14L94.49,85.04L94.36,84.70"/><path d="M94.25,92.52L94.30,89.37L95.73,92.20L96.56,92.02L96.69,92.36"/><path d="M94.43,89.71L94.30,89.37"/><path d="M94.49,85.04L94.53,82.90"/><path d="M95.73,92.20L95.86,92.54"/><path d="M96.56,92.02L98.11,88.53"/><path d="M96.47,84.61L96.92,84.51L96.79,84.17L96.47,84.24"/><path d="M96.79,84.17L96.80,83.21L96.90,83.19"/><path d="M96.92,84.51L96.94,83.55L96.80,83.21"/><path d="M96.81,82.96L96.82,82.40"/><path d="M96.94,83.30L96.95,82.61L96.86,82.39"/><path d="M96.94,83.55L98.38,83.23L98.29,83.01"/><path d="M96.95,82.61L98.64,82.25L98.64,82.00"/><path d="M98.18,92.03L98.97,91.86L99.04,88.13"/><path d="M98.19,91.66L98.84,91.52L98.97,91.86"/><path d="M98.38,82.99L98.38,83.23"/><path d="M98.55,82.02L98.64,82.25"/><path d="M98.84,91.52L98.91,88.16"/><path d="M99.18,84.02L99.63,83.92L99.50,83.57L99.19,83.64"/><path d="M99.50,83.57L99.52,82.61L99.65,82.96L100.11,82.86L100.03,82.63"/><path d="M99.65,82.96L99.63,83.92"/><path d="M99.52,82.61L99.61,82.59"/><path d="M99.52,82.37L99.53,81.81"/><path d="M99.65,82.71L99.67,82.02L99.58,81.79"/><path d="M99.67,82.02L100.62,81.81L100.54,81.59"/><path d="M100.64,91.50L101.43,91.32L101.30,90.98L100.65,91.12"/><path d="M100.11,82.86L100.34,82.82L100.73,82.94L101.00,83.17L101.39,83.53L101.91,83.42"/><path d="M100.34,82.82L100.25,82.58"/><path d="M100.82,82.68L101.43,82.37L101.61,82.15L101.68,81.91L101.60,81.67"/><path d="M100.42,82.54L100.60,82.60L100.87,82.83L101.00,83.17"/><path d="M100.62,81.81L101.05,81.80L101.22,82.02"/><path d="M101.43,91.32L101.46,89.65L101.84,89.57"/><path d="M101.30,90.98L101.33,89.31L101.46,89.65"/><path d="M101.34,88.88L101.36,87.68L101.50,88.02L101.47,89.22"/><path d="M101.33,89.31L101.88,89.19"/><path d="M101.50,88.02L102.04,87.90"/><path d="M101.36,87.68L102.09,87.52"/><path d="M102.18,82.99L102.29,82.97L102.43,83.31L101.95,83.41"/><path d="M101.39,83.53L101.26,83.19L101.58,83.12"/><path d="M101.26,83.19L100.87,82.83"/><path d="M101.68,81.91L101.58,81.66"/><path d="M101.53,81.62L101.48,81.80L101.29,82.03L101.18,82.08"/><path d="M101.09,81.68L100.99,81.54"/><path d="M102.29,82.97L102.67,82.23L102.73,82.21"/><path d="M102.43,83.31L102.65,82.87"/><path d="M102.67,82.23L102.72,82.34"/></g><g style="stroke:#282828;stroke-width:0.353"><path d="M104.43,75.74L82.88,80.42L81.98,80.78L81.32,81.36L81.08,82.01L80.93,97.44L81.35,98.54L81.58,99.08L82.22,99.36L83.12,99.33L101.61,95.27"/><path d="M84.07,87.31L84.10,85.17L84.78,85.02L85.62,86.65L86.51,84.64L87.19,84.50"/><path d="M87.38,86.59L88.69,84.17L89.20,84.06L90.45,85.92"/><path d="M86.71,86.74L86.73,84.92L86.62,84.62"/><path d="M88.25,85.13L88.38,85.47L89.47,85.23L89.34,84.89"/><path d="M90.83,85.84L90.86,83.70L91.31,83.60"/><path d="M92.02,85.58L92.05,83.44L92.53,83.33L94.05,84.59L94.07,83.00L94.53,82.90"/><path d="M93.58,93.04L93.64,89.31L94.84,89.05L96.05,91.39L96.29,91.89L96.58,91.23L97.86,88.39L99.04,88.13"/><path d="M96.47,84.61L96.50,82.47L98.64,82.00"/><path d="M98.38,82.99L96.94,83.30L96.81,82.96"/><path d="M98.18,92.03L98.24,88.88L98.11,88.53"/><path d="M99.18,84.02L99.22,81.87L100.61,81.57L101.37,81.52L101.60,81.67"/><path d="M99.52,82.37L99.65,82.71L100.51,82.52L101.00,82.35L101.22,82.02L101.09,81.68"/><path d="M100.64,91.50L100.71,87.76L102.09,87.46"/><path d="M101.91,83.42L101.40,82.95L101.06,82.73L100.81,82.68L100.73,82.45"/><path d="M101.34,88.88L101.47,89.22L101.89,89.13"/><path d="M101.95,83.41L102.77,81.90"/><path d="M120.11,91.21L128.74,89.32"/></g></g><g id="Actor_.11"><g style="stroke:#282828;stroke-width:0.106"><path d="M160.12,57.16L160.15,57.06L158.90,52.95"/><path d="M160.15,57.06L297.00,27.38"/></g><g style="stroke:#282828;stroke-width:0.353"><path d="M152.75,35.89L297.00,4.92"/><path d="M297.00,27.48L160.12,57.16L160.07,57.15L160.00,57.02L158.84,54.19"/></g></g><g id="Actor_.12"><g style="stroke:#282828;stroke-width:0.106"><path d="M73.53,17.99L73.53,17.99"/><path d="M73.54,16.95L73.67,16.61"/></g><g style="stroke:#282828;stroke-width:0.353"><path d="M73.57,16.35L73.54,16.95L73.53,17.99L74.81,21.33"/></g></g><g id="Actor_.13"><g style="stroke:#282828;stroke-width:0.106"><path d="M151.05,29.80L290.26,-0.00"/></g><g style="stroke:#282828;stroke-width:0.353"><path d="M146.33,8.50L186.45,-0.00"/><path d="M290.72,-0.00L151.08,29.90"/></g></g><g id="Actor_.14"><g style="stroke:#282828;stroke-width:0.106"><path d="M84.22,44.33L84.27,38.87L83.56,36.30L83.36,33.69"/><path d="M101.94,51.26L101.10,51.15L97.78,50.31L94.67,49.11L91.82,47.57L89.30,45.73L87.18,43.64L85.49,41.33L84.27,38.87L84.72,38.47L84.02,35.95L83.83,33.40L84.14,30.85L84.95,28.38L86.24,26.03L87.98,23.86L90.13,21.92L92.14,20.57"/><path d="M84.72,38.47L85.91,40.88L87.57,43.14L89.65,45.20L92.11,47.00L94.91,48.50L97.96,49.68L101.21,50.50L101.79,50.58"/><path d="M92.43,37.13L91.99,36.92L91.46,34.84L91.44,32.73L91.93,30.66L91.99,30.55"/><path d="M91.90,33.07L91.96,32.81"/><path d="M91.99,36.92L93.02,38.89L94.52,40.69L96.42,42.26L98.68,43.54L100.42,44.20"/></g><g style="stroke:#282828;stroke-width:0.353"><path d="M92.14,20.41L89.80,21.98L87.60,23.96L85.83,26.18L84.51,28.57L83.68,31.10L83.36,33.69L83.31,39.16L83.51,41.77L84.22,44.33L85.43,46.80L87.11,49.10L89.23,51.19L91.74,53.03L94.58,54.57L97.69,55.77L100.99,56.61L103.14,56.89"/><path d="M91.90,33.07L91.92,35.11L92.43,37.12L93.43,39.04L94.88,40.79L96.73,42.31L98.91,43.55L100.40,44.11"/></g></g><g id="Actor_.15"><g style="stroke:#282828;stroke-width:0.106"><path d="M82.31,18.89L86.10,17.20L90.02,15.78L92.22,15.15"/></g><g style="stroke:#282828;stroke-width:0.353"><path d="M75.03,-0.00L82.31,18.89L82.36,19.03L82.52,19.11L82.74,19.10L92.01,17.14L92.19,17.14"/></g></g><g id="Actor_.16"><g style="stroke:#282828;stroke-width:0.106"><path d="M49.69,51.99L49.53,51.48L67.45,100.07L67.61,100.59"/><path d="M49.53,51.48L49.40,51.05"/><path d="M49.19,49.99L49.09,48.93"/><path d="M49.16,49.60L49.02,30.45L48.95,29.81"/><path d="M52.92,28.28L51.59,28.56L69.74,77.30L69.94,77.89L70.14,78.54L70.31,79.24L70.47,79.96L70.59,80.66L70.69,81.33L70.74,81.94L70.76,82.46L70.34,82.52L69.89,82.52L69.43,82.45L68.98,82.30L68.59,82.09L68.27,81.82L67.87,81.22L67.85,80.82L67.76,80.29L67.63,79.74L67.49,79.29L49.38,30.55L49.25,30.24L49.12,30.11L49.04,30.19L49.02,30.45"/><path d="M50.89,27.39L51.04,27.49L51.21,27.73L51.39,28.09L51.59,28.56L50.74,28.86L50.03,29.34L49.55,29.93L49.38,30.55"/><path d="M67.45,100.07L67.59,100.39L67.72,100.54L67.80,100.47L67.83,100.22L68.22,100.82L68.54,101.08L68.93,101.29L69.37,101.43L69.83,101.51L70.27,101.51L70.69,101.45L70.67,101.85L70.61,102.14L70.51,102.29"/><path d="M67.49,79.29L67.65,78.70L67.86,78.39L68.15,78.09L68.51,77.81L68.92,77.59L69.34,77.41L69.74,77.30L71.09,77.01"/><path d="M67.83,100.22L67.87,81.22"/><path d="M72.02,101.16L70.69,101.45L70.76,82.46L72.11,82.17"/></g><g style="stroke:#282828;stroke-width:0.353"><path d="M70.11,102.34L70.51,102.29L71.82,102.01L71.97,101.75L72.02,101.16L72.11,82.17L72.06,81.29L71.99,80.73L71.92,80.23L71.70,79.09L71.41,77.98L71.09,77.01L52.92,28.28L52.61,27.58L52.34,27.18L52.12,27.13L50.89,27.39L50.37,27.56L49.99,27.76L49.64,28.05L49.36,28.42L49.09,28.96L48.99,29.38L48.96,29.57L48.95,29.81L49.09,48.93L49.10,49.24L49.19,50.00L49.27,50.52L49.40,51.05L49.58,51.68L49.69,51.99L67.71,100.85L67.83,101.09L67.94,101.25L68.21,101.60L68.68,101.99L69.10,102.20L69.54,102.32L69.97,102.35L70.27,102.32"/><path d="M50.67,27.46L50.89,27.39"/></g></g><g id="Actor_.17"><g style="stroke:#282828;stroke-width:0.106"><path d="M65.07,37.67L65.07,37.23L64.59,36.84L63.79,35.98L63.22,35.01L62.90,33.98L62.85,32.92"/><path d="M75.22,29.24L74.70,28.90L74.15,28.60L73.56,28.34L72.94,28.12L71.63,27.82L70.93,27.76L70.27,27.71L68.91,27.80L67.60,28.08L66.38,28.54L65.30,29.17L64.39,29.94L63.70,30.82L63.24,31.79L63.03,32.81L63.08,33.84L63.39,34.84L63.95,35.79L64.73,36.63L65.20,37.01L65.72,37.36L66.27,37.66L66.87,37.92L67.49,38.14L68.13,38.32L68.80,38.45L69.48,38.52L70.16,38.55L70.85,38.54L71.53,38.47L72.20,38.35L72.85,38.19L73.47,37.98L74.07,37.72L74.63,37.43L75.15,37.09L75.63,36.72L76.06,36.32L76.43,35.89L76.75,35.43L77.01,34.95L77.20,34.46L77.34,33.95L77.40,33.44L77.41,32.92L77.35,32.41L77.22,31.90L77.03,31.40L76.78,30.92L76.47,30.46L76.10,30.03L75.68,29.62L75.22,29.24L75.32,29.21"/><path d="M66.21,37.92L65.07,37.23L65.10,37.14L65.20,37.01"/><path d="M77.60,33.17L77.48,34.26L77.09,35.30L76.43,36.27L75.53,37.13L74.42,37.83L73.16,38.36L71.78,38.69L70.34,38.82L68.89,38.72L67.50,38.42L66.21,37.92"/><path d="M68.30,33.54L70.86,33.00L70.86,31.18L68.30,31.72L68.30,33.54L68.14,34.02"/><path d="M68.30,31.72L67.66,33.67"/><path d="M70.86,33.00L72.29,34.05"/><path d="M70.86,31.18L72.78,32.58"/><path d="M77.43,32.09L77.43,32.09"/><path d="M76.98,31.05L76.99,31.07"/></g><g style="stroke:#282828;stroke-width:0.353"><path d="M62.84,33.70L62.85,32.92L63.06,31.88L63.53,30.88L63.56,30.82L64.27,29.92L65.19,29.13L66.30,28.49L67.54,28.02L68.88,27.74L70.27,27.65L71.66,27.76L72.99,28.07L74.23,28.56L75.32,29.21L76.23,30.01L76.92,30.93L76.98,31.05L77.37,31.93L77.43,32.09L77.60,33.17L77.59,33.60"/><path d="M72.78,32.58L72.13,34.52L69.57,35.07L67.66,33.67"/></g></g><g id="Actor_.18"><g style="stroke:#282828;stroke-width:0.106"><path d="M73.00,59.94L73.06,61.01L73.39,62.07L73.97,63.05L74.78,63.94L75.27,64.33L75.27,64.77"/><path d="M74.13,62.86L74.93,63.73L75.40,64.11L75.92,64.46L76.48,64.77L77.08,65.04L77.71,65.26L78.36,65.44L79.04,65.57L79.72,65.65L80.41,65.68L81.11,65.66L81.79,65.59L82.47,65.47L83.12,65.30L83.75,65.09L84.36,64.83L84.92,64.53L85.45,64.19L85.93,63.81L86.36,63.40L86.73,62.96L87.05,62.49L87.31,62.00L87.51,61.50L87.64,60.98L87.71,60.46L87.71,59.93L87.64,59.41L87.52,58.89L87.32,58.39L87.07,57.90L86.75,57.43L86.38,56.98L85.96,56.57L85.48,56.18L84.96,55.84L84.40,55.53L83.80,55.26L83.18,55.04L81.85,54.73L80.48,54.62L79.11,54.71L77.78,55.00L76.56,55.47L75.47,56.11L74.56,56.89L73.86,57.80L73.48,58.62L73.40,58.79L73.19,59.82L73.25,60.87L73.56,61.90L74.13,62.86"/><path d="M76.42,65.03L75.27,64.33L75.30,64.24L75.40,64.11"/><path d="M76.42,65.03L77.72,65.54L79.13,65.85L80.59,65.94L82.04,65.82L83.44,65.48L84.71,64.94L85.83,64.22L86.73,63.35L87.39,62.36L87.79,61.29L87.90,60.18"/><path d="M83.03,59.58L81.09,58.16L78.51,58.72L78.50,60.53L78.33,61.04"/><path d="M78.50,60.53L81.08,59.97L82.55,61.06"/><path d="M77.86,60.70L78.51,58.72"/><path d="M81.08,59.97L81.09,58.16"/><path d="M85.58,56.15L85.48,56.18"/><path d="M87.27,58.02L87.28,58.04"/><path d="M87.72,59.08L87.72,59.08"/></g><g style="stroke:#282828;stroke-width:0.353"><path d="M73.14,61.61L73.14,61.60"/><path d="M87.89,60.61L87.90,60.18L87.72,59.08L87.66,58.92L87.27,58.02L87.20,57.90L86.50,56.97L85.58,56.15L84.48,55.48L83.23,54.98L81.88,54.67L80.48,54.56L79.08,54.65L77.73,54.94L76.47,55.42L75.36,56.07L74.43,56.88L73.72,57.80L73.69,57.86L73.22,58.87L73.00,59.94L72.99,60.72"/><path d="M77.86,60.70L79.80,62.13L82.39,61.57L83.03,59.58"/></g></g><g id="Actor_.19"><g style="stroke:#282828;stroke-width:0.106"><path d="M54.27,27.99L52.92,28.28L55.53,35.28"/><path d="M52.92,28.28L52.61,27.58L52.34,27.18L52.12,27.13"/><path d="M65.60,62.28L58.28,42.65"/><path d="M68.40,69.80L71.09,77.01L105.70,69.50"/><path d="M71.82,102.01L71.97,101.75L72.03,101.15L72.05,94.97L80.97,93.02"/><path d="M105.00,75.02L72.11,82.17L72.06,81.29L71.92,80.23L71.70,79.09L71.41,77.98L71.09,77.01"/><path d="M72.03,101.15L81.57,99.06"/><path d="M72.06,92.96L80.99,91.01"/><path d="M81.01,89.52L72.07,91.47"/><path d="M72.08,88.48L72.11,82.17"/><path d="M72.08,88.44L81.04,86.49"/><path d="M146.32,8.49L186.36,-0.00"/><path d="M157.88,58.18L297.00,28.00"/><path d="M186.16,57.37L181.54,58.37"/><path d="M183.84,64.07L185.21,63.77"/><path d="M184.75,66.87L184.56,66.91"/><path d="M297.00,45.78L199.42,67.11"/><path d="M199.68,73.17L297.00,51.83"/><path d="M297.00,43.82L199.75,65.07"/><path d="M199.99,63.54L297.00,42.36"/><path d="M297.00,39.40L200.48,60.44"/><path d="M200.17,54.32L297.00,33.26"/></g><g style="stroke:#282828;stroke-width:0.353"><path d="M54.94,26.53L52.12,27.13"/><path d="M71.82,102.01L101.65,95.47"/><path d="M72.07,91.13L81.01,89.17"/><path d="M72.08,88.74L81.03,86.78"/><path d="M129.39,89.39L119.86,91.48"/><path d="M180.20,-0.00L146.05,7.23"/><path d="M183.91,64.35L185.16,64.08"/><path d="M184.80,66.52L184.48,66.59"/><path d="M297.00,52.62L199.80,73.94"/><path d="M296.99,42.03L200.05,63.19"/><path d="M297.00,39.69L200.44,60.74"/></g></g><g id="Actor_.20"><g style="stroke:#282828;stroke-width:0.106"><path d="M54.22,28.17L54.39,29.25L54.41,32.28"/><path d="M69.55,72.88L69.56,69.87L54.39,29.25"/><path d="M68.10,27.90L67.94,27.09L66.10,27.67L64.50,28.57L63.22,29.72L62.35,31.08L61.94,32.55L62.01,34.06L62.56,35.51L63.55,36.83L64.93,37.93L66.62,38.74L68.52,39.23L70.52,39.37L72.50,39.13L72.25,39.07"/><path d="M67.94,27.09L69.92,26.86L71.91,26.99L73.80,27.48L75.36,28.23L75.48,28.29L76.87,29.38L77.86,30.69L78.42,32.14L78.49,33.65L78.09,35.12L77.23,36.48L75.96,37.65L74.35,38.55L72.50,39.13"/><path d="M69.56,69.87L70.18,70.89L71.18,71.70L72.46,72.25L73.90,72.47L75.36,72.33L75.33,75.35"/><path d="M78.29,54.82L78.13,53.99L76.27,54.58L74.66,55.50L73.37,56.68L72.50,58.06L72.09,59.57L72.17,61.10L72.72,62.58L73.73,63.93L75.13,65.04L76.84,65.88L78.76,66.38L80.78,66.51L82.78,66.27L82.51,66.19"/><path d="M75.36,72.33L104.86,65.94"/><path d="M78.13,53.99L80.12,53.76L82.13,53.89L84.04,54.38L85.75,55.21L87.15,56.32L87.21,56.40L88.16,57.66L88.72,59.13L88.81,60.67L88.77,60.83L88.40,62.18L87.54,63.57L86.26,64.76L85.33,65.28L84.64,65.67L82.78,66.27"/><path d="M158.96,51.68L158.72,52.76L158.04,53.72L157.01,54.47L156.93,54.50"/></g><g style="stroke:#282828;stroke-width:0.353"><path d="M92.19,17.65L57.58,24.98L56.27,25.43L55.21,26.16L54.51,27.11L54.22,28.17L54.24,31.20L54.41,32.28L69.55,72.88L70.17,73.90L71.17,74.72L72.44,75.26L73.14,75.37L73.88,75.48L75.33,75.35L105.61,68.78"/><path d="M157.57,56.97L157.90,56.73L158.57,55.77L158.81,54.69L158.96,51.68L158.75,50.59L152.00,34.04"/></g></g><g id="Actor_.21"><g style="stroke:#282828;stroke-width:0.106"><path d="M62.40,-0.00L70.83,22.17"/><path d="M64.79,-0.00L73.06,21.70"/><path d="M74.69,21.35L66.53,-0.00"/><path d="M69.77,-0.00L77.71,20.72"/><path d="M74.49,-0.00L81.91,19.28L80.82,19.63L79.84,20.18L79.71,20.29"/><path d="M81.91,19.28L91.13,17.33L91.79,17.31L92.19,17.50"/></g><g style="stroke:#282828;stroke-width:0.353"><path d="M70.74,22.19L62.30,-0.00"/><path d="M67.33,-0.00L75.43,21.20"/><path d="M92.19,17.33L92.12,17.14"/></g></g><g id="Actor_.22"><g style="stroke:#282828;stroke-width:0.106"><path d="M152.95,127.14L161.85,167.00"/></g><g style="stroke:#282828;stroke-width:0.353"><path d="M129.07,167.00L124.22,144.14"/><path d="M185.13,167.00L177.74,135.38L176.78,131.78"/></g></g><g id="Actor_.23"><g style="stroke:#282828;stroke-width:0.106"><path d="M110.74,126.81L111.81,127.94L118.12,133.32L117.50,137.92L111.19,132.53L111.81,127.94L111.85,127.81L109.72,124.64L109.74,120.98L111.89,117.95L115.52,116.42L120.67,117.55"/><path d="M111.85,127.81L117.39,132.54"/><path d="M111.81,108.55L113.98,111.78L114.00,111.85"/><path d="M113.04,128.99L111.93,128.04"/><path d="M112.19,102.53L114.62,107.01L113.98,111.78L120.39,117.22L120.64,115.56L121.08,112.49L121.72,113.08L122.68,114.18L124.21,116.45L126.54,121.31L128.26,126.29L129.60,131.49L127.60,133.15L124.60,136.75L123.38,140.20L123.59,141.20"/><path d="M115.66,124.63L116.28,120.13L113.80,121.96"/><path d="M114.62,107.01L121.08,112.49L121.20,112.16L121.39,111.81L122.49,112.82L123.53,113.92L125.34,116.13L128.39,120.71L130.81,125.51L132.19,129.74L129.60,131.49"/><path d="M116.28,120.13L119.34,121.18L119.93,124.08"/><path d="M120.34,105.28L120.46,105.50L116.87,104.26L116.18,100.89L119.07,98.76L119.13,99.41L118.48,104.08"/><path d="M116.61,101.27L119.13,99.41L119.49,99.54L122.25,100.49L122.85,103.42"/><path d="M119.16,133.51L119.28,133.69L118.92,133.82L118.12,133.32L118.22,133.03L118.48,132.72L119.02,133.11L119.21,133.08"/><path d="M119.35,131.59L118.48,132.72L117.69,132.04"/><path d="M118.56,109.40L121.39,111.81L122.11,110.64L119.42,108.35"/><path d="M119.28,133.69L119.87,126.33L120.11,127.05L121.48,131.89L123.38,140.20L123.55,141.28"/><path d="M119.07,98.76L122.65,99.99L123.34,103.36L120.46,105.50"/><path d="M119.87,126.33L121.37,118.99L121.15,118.10"/><path d="M132.19,129.74L134.70,128.34L133.84,125.63L132.63,123.10L129.69,118.63L126.15,114.50L122.11,110.64L122.38,110.24L120.13,108.32"/><path d="M121.41,140.37L123.42,141.36"/><path d="M122.88,142.67L122.87,142.68"/><path d="M134.70,128.34L137.90,126.85L137.03,124.34L135.13,121.24L132.59,118.38L131.04,116.93L129.59,115.70L126.20,113.09L122.77,110.55L122.38,110.24L125.40,106.37"/><path d="M124.07,144.44L124.73,146.53"/><path d="M123.28,144.56L125.99,138.99L132.60,133.63L142.11,129.32L153.04,126.73L163.67,126.27L172.35,128.02L177.74,131.66L179.07,136.64"/><path d="M124.16,144.27L124.44,145.17"/><path d="M125.59,137.11L132.19,131.75L141.69,127.43L152.62,124.84L163.24,124.39L171.92,126.14L177.31,129.79"/><path d="M126.23,135.89L132.59,130.72L141.74,126.56L152.26,124.07L162.50,123.64L170.87,125.33L176.07,128.85"/><path d="M126.77,104.63L125.45,106.32"/><path d="M126.86,104.50L129.24,101.45L127.43,100.28L127.25,99.72L129.50,101.17L129.24,101.45L134.56,104.72L136.94,106.07L141.99,107.06L148.27,106.16L152.02,123.00L144.72,124.51L137.90,126.85"/><path d="M126.68,99.29L127.18,103.66"/><path d="M127.38,103.15L127.57,101.72L127.43,100.28"/><path d="M127.25,99.72L126.75,98.81"/><path d="M126.98,98.61L130.12,100.63L130.34,100.66"/><path d="M129.50,101.17L136.46,105.44L142.12,106.59L148.14,105.77L147.88,105.08L147.72,105.08"/><path d="M130.77,100.92L130.46,100.74"/><path d="M130.12,100.63L134.30,103.22"/><path d="M142.30,105.89L141.55,105.95L140.23,105.77"/><path d="M147.06,105.21L147.88,105.08L148.50,105.04L147.75,105.08"/><path d="M148.27,106.16L148.42,106.05L148.14,105.77L151.86,105.32L154.27,105.18L157.04,105.19L158.04,105.22L159.43,105.14L162.82,103.19"/><path d="M148.42,106.05L153.85,105.54L159.23,105.53L163.11,103.41"/><path d="M160.23,101.14L160.34,100.93L160.82,100.55L161.28,100.32L160.47,103.69L156.79,104.58L148.50,105.04"/><path d="M152.02,123.00L159.93,122.47L166.95,123.19L169.71,123.93L169.04,119.47L169.03,119.07L169.42,115.62L169.90,113.96L170.43,112.68L172.08,109.97L173.18,108.74L174.51,107.62L176.05,106.65L177.83,105.80L178.60,105.48L177.78,104.33L176.96,103.82L176.05,103.42L163.44,98.82L163.13,98.90L163.09,102.55"/><path d="M160.36,100.08L160.27,100.16L160.22,100.29L160.23,100.44L160.72,100.07L160.82,100.55L159.99,103.71"/><path d="M160.13,100.57L160.19,100.48L160.23,100.44L160.34,100.93L159.66,103.79"/><path d="M160.22,100.20L160.23,100.19"/><path d="M161.28,100.32L161.17,99.81L162.56,98.92L162.41,98.69"/><path d="M160.84,99.71L160.72,100.07L161.17,99.81L161.02,99.58"/><path d="M163.13,98.90L163.09,98.75L162.56,98.92L162.52,98.66"/><path d="M163.44,98.82L163.41,98.68L163.09,98.75L163.09,98.46"/><path d="M173.48,97.27L173.01,97.08L172.93,94.22L173.40,94.33L173.48,97.27L163.41,98.68L163.32,98.43"/><path d="M184.28,100.31L183.89,100.16L176.05,103.42L170.99,106.30L167.43,111.43L166.20,117.63L166.95,123.19"/><path d="M169.71,123.93L175.62,127.54"/><path d="M173.40,94.33L177.17,93.80L177.41,93.60"/><path d="M175.81,124.36L177.50,112.92L176.93,113.21L176.27,113.73L175.40,115.19L175.07,117.09L175.08,119.00L175.28,120.45"/><path d="M177.50,112.92L178.60,105.48L184.29,103.11L181.24,123.16L175.98,125.35"/><path d="M178.41,95.84L178.17,96.05L177.17,93.80"/><path d="M178.28,136.75L178.13,137.03"/><path d="M177.80,135.64L177.92,135.42"/><path d="M178.17,96.05L182.79,95.41L183.89,100.16L184.24,101.80L184.29,103.11L184.51,102.72"/><path d="M182.79,95.41L182.94,95.30"/></g><g style="stroke:#282828;stroke-width:0.353"><path d="M121.41,140.37L117.50,137.92L111.19,132.53L110.67,132.04L108.79,127.68L109.40,123.19L109.72,124.64L110.74,126.81"/><path d="M109.40,123.19L109.74,120.98L110.42,119.54L111.89,117.95L113.49,117.04L115.52,116.42L117.62,116.46L120.61,117.48"/><path d="M121.15,118.10L120.39,117.22L119.62,116.62L114.00,111.85L111.84,108.63L111.81,108.55L111.83,104.83L112.19,102.53L113.71,97.85L118.38,95.40L120.35,95.36L122.29,95.78L124.06,96.64L127.17,98.64"/><path d="M119.93,124.08L117.46,125.91L114.39,124.85L113.80,121.96"/><path d="M115.04,125.08L115.66,124.63L118.07,125.46"/><path d="M117.39,132.54L117.69,132.04L119.55,129.64"/><path d="M122.85,103.42L120.34,105.28L117.21,104.20L116.61,101.27"/><path d="M119.39,139.28L118.42,138.73L117.50,137.92"/><path d="M118.25,110.09L118.56,109.40L119.18,108.37L120.13,108.32L122.07,108.09L123.87,107.42L125.40,106.37L125.90,105.87L126.86,104.50L127.38,103.15"/><path d="M117.96,104.46L118.48,104.08L120.86,104.89"/><path d="M119.18,139.16L119.50,139.44L119.64,139.54L121.45,140.50L123.44,141.51"/><path d="M121.27,118.65L119.87,126.33L119.16,133.51"/><path d="M123.45,141.49L123.09,139.94L121.74,135.26"/><path d="M121.37,118.99L121.08,118.02"/><path d="M125.44,149.86L124.83,149.47L123.28,144.56L122.87,142.68L125.59,137.11L126.22,135.89"/><path d="M124.07,144.44L126.71,139.04L133.14,133.83L142.37,129.64L152.98,127.13L163.31,126.69L171.74,128.38L176.99,131.92L178.28,136.75"/><path d="M136.19,104.03L130.32,100.65L127.19,98.65L126.98,98.61L126.75,98.81L126.68,99.29"/><path d="M142.12,106.59L134.30,103.22"/><path d="M139.58,105.49L142.90,105.71L146.97,105.08L147.75,105.07L156.79,104.58"/><path d="M147.06,105.21L142.30,105.89"/><path d="M159.99,103.71L156.50,104.59"/><path d="M173.01,97.08L163.32,98.43L163.26,98.48L163.09,98.46L162.41,98.69L161.02,99.58L160.36,100.08L160.22,100.20L160.14,100.37L160.13,100.66L160.23,101.14L159.64,103.79"/><path d="M162.82,103.19L163.19,102.31"/><path d="M163.44,98.83L163.11,103.41L163.46,101.97"/><path d="M172.51,97.15L172.93,94.22L177.41,93.60L178.41,95.84L182.67,95.25L182.94,95.30L183.18,95.56L184.28,100.31L184.50,101.66L184.51,102.71L181.46,122.76L181.24,123.16L180.97,123.35L175.99,125.38"/><path d="M176.61,129.26L176.35,127.49L175.59,123.12L175.28,120.45L175.07,117.09"/><path d="M175.62,127.53L176.07,128.85L177.32,129.79L178.64,134.78L179.07,136.64L178.35,138.00"/><path d="M176.72,118.19L175.25,119.95"/></g></g><g id="Actor_.24"><g style="stroke:#282828;stroke-width:0.106"><path d="M115.30,154.23L116.48,153.34L118.22,153.38L118.46,153.78"/><path d="M117.48,164.51L118.67,163.63L120.41,163.66L120.65,164.06"/><path d="M118.22,153.38L118.36,151.10L119.58,149.02"/><path d="M120.17,148.87L119.82,148.78L119.01,148.11L118.24,147.18L122.92,142.88"/><path d="M124.81,165.75L124.21,166.25L124.27,166.66L128.58,164.67"/><path d="M124.27,166.66L124.40,167.00"/></g><g style="stroke:#282828;stroke-width:0.353"><path d="M118.90,167.00L117.48,164.51L115.30,154.23L115.78,150.64L115.77,150.58L117.59,146.90L118.35,146.59L118.24,147.18L118.21,147.84"/><path d="M118.66,167.00L118.37,166.64L117.75,164.98"/><path d="M118.36,151.10L118.46,153.78L120.65,164.06L120.89,164.78"/><path d="M119.59,149.01L119.81,148.80L118.36,151.25"/><path d="M118.35,146.59L123.42,141.56"/><path d="M119.58,149.02L119.82,148.78L119.81,148.80L120.17,148.87L123.63,145.68"/><path d="M128.42,163.93L124.81,165.75L124.29,165.95L123.24,166.10L122.26,165.92L121.41,165.43L120.78,164.65L120.41,163.66"/></g></g><g><g><path style="stroke:#000000;stroke-width:0.500;stroke-opacity:0.50;fill:#ff0000;fill-opacity:0.502" d="M144.71,85.07L147.70,84.27L138.63,74.22L135.73,87.45L138.72,86.66L142.76,101.92L148.75,100.33z"/></g></g><g/><g><g/><g><path style="stroke:#000000;stroke-width:0.250;fill:#ffffff" d="M283.63,156.86L292.71,156.86L292.71,163.07L283.63,163.07z"/><text xml:space="preserve" fill="#000000" stroke-width="0" x="284.41" y="161.13" font-size="3.66" opacity="1.00" font-family="MS Shell Dlg">Next</text></g></g><g><g/><g><path style="stroke:#000000;stroke-width:0.250;fill:#ffffff" d="M4.53,157.80L14.24,157.80L14.24,164.01L4.53,164.01z"/><text xml:space="preserve" fill="#000000" stroke-width="0" x="5.30" y="162.07" font-size="3.67" opacity="1.00" font-family="MS Shell Dlg">Back</text></g></g><g><g/><g><path style="stroke:#000000;stroke-width:0.250;fill:#ffffff" d="M9.30,12.12L180.26,12.12L180.26,20.02L9.30,20.02z"/><text xml:space="preserve" fill="#000000" stroke-width="0" x="10.29" y="17.55" font-size="4.85" opacity="1.00" font-family="MS Shell Dlg">With the MFF mounted BB down on the jig, take a FF and offer it up to the MFF</text></g></g><g id="paperID" visibility="hidden" opacity="0.00" transform="scale(0.000100)"><path style="stroke:#000000;stroke-width:0.500;fill:#e6e6e6;fill-rule:evenodd" d="M-2000.00,-2000.00L2297.00,-2000.00L2297.00,2167.00L-2000.00,2167.00zM0.00,0.00L297.00,0.00L297.00,167.00L0.00,167.00z"/><path style="fill:#000000;fill-opacity:0.118" d="M3.00,167.00L297.00,167.00L297.00,3.00L300.00,3.00L300.00,170.00L3.00,170.00z"/></g><g id="hotspot.0" ident="" onmouseover="ShowHotSpot(evt,&apos;0&apos;)" onmouseout="HideHotSpot(evt,&apos;0&apos;)" onmousemove="ShowToolTip(evt,&apos;0&apos;,&quot;2D Text 1&quot;)" opacity="0"><a xlink:href="v4.svg"><path style="fill:#00ff00;fill-rule:evenodd" d="M293.03,156.65L293.04,163.43L283.44,163.34L283.35,156.64z"/></a></g><g id="ToolTip" visibility="hidden" opacity="0" transform="translate(0,0)"><rect id="ToolTipShadow" opacity="0.20" fill="black" stroke="none" x="0" y="0" width="30" height="8"/><rect id="ToolTipBG" fill="#ffffe1" stroke="black" x="0" y="0" width="30" height="8"/><text xml:space="preserve" id="ToolTipText" fill="black" x="0" y="0" width="30" height="8">tooltip</text></g></g></svg>