<?xml version="1.0" encoding="UTF-8" standalone="yes"?><svg xmlns="http://www.w3.org/2000/svg" xmlns:xlink="http://www.w3.org/1999/xlink" width="297.000mm" height="167.000mm" viewBox="0.000000 0.000000 297.000000 167.000000" stroke-linejoin="round" stroke-linecap="round" fill="none" fill-rule="evenodd"><desc>Composer Export</desc><script type="text/ecmascript"><![CDATA[
if(typeof(top) != "undefined")
{
	top.ShowPaper = ShowPaper;
}
function ShowHotSpot(evt,hotspotid)
{
	var svgDocument = evt.target.ownerDocument;
	var strId = "hotspot."+hotspotid;
	var hotspot = svgDocument.getElementById(strId);
	if(hotspot)
		hotspot.setAttribute("opacity",".5");
}
function HideHotSpot(evt,hotspotid)
{
	var svgDocument = evt.target.ownerDocument;
	var strId = "hotspot."+hotspotid;
	var hotspot = svgDocument.getElementById(strId);
	if(hotspot)
		hotspot.setAttribute("opacity","0");

	var toolTip = svgDocument.getElementById('ToolTip');
	if(toolTip)
		toolTip.setAttribute("visibility","hidden");
}
function ShowToolTip(evt,hotspotid,strTooltip)
{
	if(strTooltip=="")
	return;

	// change text
	var svgDocument = evt.target.ownerDocument;
	var tiptext = svgDocument.getElementById('ToolTipText');
	if( !tiptext )
	return;
	tiptext.firstChild.nodeValue = " " + strTooltip + "  " ;

	// show tooltip before, else some refresh issue

	var toolTip = svgDocument.getElementById('ToolTip');
	if(!toolTip)
	return;

	toolTip.setAttribute("visibility","visible");
	toolTip.setAttribute("opacity",".95");

	// move tooltip
	// get viewbox

	var root = svgDocument.documentElement;
	var vbox = (root.getAttribute("viewBox")).split(' ');
	var x0 = parseFloat(vbox[0]);
	var y0 = parseFloat(vbox[1]);
	var vboxW = parseFloat(vbox[2]);
	var vboxH = parseFloat(vbox[3]);

	// get default width of svg

	var strW = root.getAttribute("width");
	var svgW = parseFloat(strW);
	if(strW.indexOf('mm') != -1)
	svgW *= 3.779;

	var strH = root.getAttribute("height");
	var svgH = parseFloat(strH);
	if(strH.indexOf('mm') != -1)
	svgH *= 3.779;  	// 96 dpi  -> 96/25.4 = 3.779

	// update the viewbox / width / height if svg is embedded in html with zoom fit all
	var realx0 = x0;
	var realy0 = y0;
	var realvboxW = vboxW;
	var realvboxH = vboxH;
	var realsvgW = svgW;
	var realsvgH = svgH;

	if ((typeof(top) == "undefined") || (typeof(top.svgctl1) != "undefined")) // embedded in html
	{
		// get window size in pxl

		svgW = window.innerWidth;
		svgH = window.innerHeight;

		// calculate real viewbox

		realsvgW = svgW;
		realsvgH = svgH;
		if((svgW / svgH) > (vboxW / vboxH))
		{
			realvboxW = (vboxH * svgW) / svgH;
			realvboxH = vboxH;
			realx0 = x0 - (realvboxW - vboxW)/2 ;
		}
		else
		{
			realvboxH = (vboxW * svgH) / svgW;
			realvboxW = vboxW;
			realy0 = y0 - (realvboxH - vboxH)/2 ;
		}
	}

	// get user zoom/pan

	var newScale = root.currentScale;
	var translation = root.currentTranslate;

	// transform pxl to user unit

	var xPos = (((evt.clientX+10- translation.x)/newScale) * realvboxW)/realsvgW  + realx0 ;
	var yPos = (((evt.clientY+5- translation.y)/newScale) * realvboxH)/ realsvgH  + realy0 ;
	var scaleForWidth = ( (1 / newScale) * realvboxH) / realsvgH;

	// move tooltip

	toolTip.setAttribute("transform", "translate(" + xPos + "," + yPos + ")" );

	// resize tooltip

	var fontsize = 12;
	tiptext.setAttribute("font-size",fontsize*scaleForWidth);
	tiptext.setAttribute("y", fontsize*scaleForWidth);
	var tipBG = svgDocument.getElementById('ToolTipBG');
	var outline = tiptext.getBBox();
	if(tipBG)
	{
		tipBG.setAttribute("stroke-width", 1*scaleForWidth);
		tipBG.setAttribute("width", Number(outline.width) );
		tipBG.setAttribute("height", Number(outline.height) + fontsize*.5*scaleForWidth );
	}
	var ToolTipShadow = svgDocument.getElementById('ToolTipShadow');
	if(ToolTipShadow)
	{
		ToolTipShadow.setAttribute("width", Number(outline.width) );
		ToolTipShadow.setAttribute("height", Number(outline.height) + fontsize*.5*scaleForWidth );
		ToolTipShadow.setAttribute("x", 3*scaleForWidth);
		ToolTipShadow.setAttribute("y", 3*scaleForWidth);
	}
}
function ShowPaper()
{
  var svgDocument = getDocument();
  var paper = svgDocument.getElementById("paperID");
  if(paper)
  {
    paper.setAttribute("transform","scale(1)");
    paper.setAttribute("opacity","1");
    paper.setAttribute("visibility","visible");
  }
  var svg = svgDocument.getRootElement();
  if(svg)
  {
    svg.setAttribute("width","307.000mm");
    svg.setAttribute("height","177.000mm");
    svg.setAttribute("viewBox","-5.000000 -5.000000 307.000000 177.000000");
  }
}
]]></script><defs/><g><path style="fill:#ffffff" d="M15.69,74.57L17.23,74.99L39.37,81.86L38.07,83.38L35.92,86.67L34.24,90.31L34.04,90.41L34.09,90.64L33.36,92.60L32.80,94.46L32.53,94.20L32.68,94.79L32.56,95.00L31.90,97.82L31.80,98.10L31.09,101.82L30.61,105.51L30.46,108.23L30.46,112.71L30.54,114.64L30.62,116.39L30.70,118.32L30.78,120.23L30.86,122.16L30.94,123.91L31.02,125.85L31.10,127.76L31.18,129.69L31.26,131.60L31.34,133.37L31.42,135.28L31.50,137.21L31.58,139.12L31.66,140.90L31.74,142.81L31.82,144.74L31.90,146.65L31.98,148.58L32.06,150.33L32.14,152.26L32.22,154.17L32.30,156.10L32.38,157.86L32.46,159.79L32.54,161.70L32.62,163.63L32.70,165.54L32.66,166.96L0.05,166.94L0.03,70.92z"/><path style="fill:#7f7f7f" d="M48.35,84.53L48.60,84.77L48.97,84.83L49.12,84.85L49.34,84.98L50.30,85.35L50.37,85.62L49.68,86.18L48.79,87.38L47.66,89.28L46.37,92.64L45.52,96.28L45.25,100.17L45.25,101.56L45.42,103.32L45.73,105.09L46.55,107.47L47.35,108.75L48.45,109.57L50.27,110.02L52.36,110.34L52.36,110.43L51.77,110.68L50.95,111.31L50.01,112.45L48.78,114.58L47.65,117.14L46.64,121.25L46.38,123.54L46.37,128.14L46.53,129.58L46.85,130.86L47.33,132.30L48.15,133.73L49.26,134.70L50.75,135.16L57.80,136.28L64.69,137.40L64.81,139.45L64.88,141.69L64.97,143.78L65.13,145.06L36.93,166.45L36.35,166.96L32.82,166.96L32.76,165.60L32.70,165.54L32.62,163.63L32.60,161.76L32.54,161.70L32.46,159.79L32.44,157.92L32.38,157.86L32.30,156.10L32.28,154.23L32.22,154.17L32.14,152.26L32.12,150.39L32.06,150.33L31.98,148.58L31.96,146.71L31.90,146.65L31.82,144.74L31.80,142.87L31.74,142.81L31.66,140.90L31.64,139.18L31.58,139.12L31.50,137.21L31.48,135.34L31.42,135.28L31.34,133.37L31.32,131.66L31.26,131.60L31.18,129.69L31.16,127.82L31.10,127.76L31.02,125.85L31.00,123.97L30.94,123.91L30.86,122.16L30.84,120.29L30.78,120.23L30.70,118.32L30.68,116.45L30.62,116.39L30.54,114.64L30.52,112.77L30.46,112.71L30.46,108.23L30.61,105.51L31.09,101.82L31.80,98.10L31.90,97.82L32.56,95.00L32.68,94.79L32.80,94.46L33.36,92.60L34.09,90.64L34.24,90.31L35.92,86.67L38.07,83.38L39.37,81.86z"/><path style="fill:#ffffff" d="M109.99,108.58L110.43,108.72L110.73,109.10L114.12,111.15L115.69,111.81L116.45,111.81L117.35,111.55L117.83,111.57L121.83,112.91L122.32,113.00L123.76,113.32L124.66,113.57L126.28,117.09L126.28,117.46L126.12,117.63L125.81,119.44L124.37,127.11L124.30,127.18L124.37,127.77L126.59,130.05L130.32,131.44L128.72,131.32L127.29,131.41L124.08,132.05L123.55,132.19L122.60,134.97L122.45,135.29L122.26,135.40L122.20,136.25L122.28,137.05L123.24,138.21L125.30,139.67L127.86,140.48L130.17,140.85L130.45,140.96L133.10,140.78L134.55,140.48L135.89,139.58L136.47,138.55L136.69,137.58L135.58,135.32L133.78,134.23L133.31,133.58L132.66,132.15L131.76,131.76L132.41,131.73L136.09,132.12L136.53,132.41L136.61,132.67L138.64,132.92L141.21,132.92L143.67,132.46L148.47,131.02L151.00,130.14L151.14,130.18L151.10,130.64L151.10,131.61L151.73,134.38L154.78,136.76L164.26,140.45L165.38,140.61L166.98,140.77L168.28,140.77L171.60,139.42L173.66,137.32L175.67,134.01L176.10,133.97L248.90,162.10L249.37,162.06L249.48,162.50L249.57,162.98L249.80,164.26L249.88,164.74L249.96,165.23L250.05,165.70L250.11,166.04L250.21,166.51L250.24,166.96L126.16,166.96L126.10,165.92L126.04,165.86L125.96,162.99L125.94,160.16L125.88,160.10L125.80,157.07L125.78,155.19L125.72,155.13L125.31,153.75L124.52,152.94L123.71,152.31L122.80,152.06L121.19,151.81L120.75,151.77L117.14,150.08L114.58,149.11L111.70,148.30L107.91,147.73L106.14,147.65L102.30,147.74L100.92,147.83L99.91,148.06L98.82,148.26L98.31,148.13L90.81,146.97L90.31,146.83L88.32,145.75L84.00,144.15L81.60,143.51L78.29,143.00L75.88,142.85L72.68,142.93L71.09,143.10L68.86,143.49L68.64,143.33L68.04,143.40L66.98,143.67L66.29,144.23L65.13,145.06L64.97,143.78L64.94,141.74L64.88,141.69L64.81,139.45L64.89,137.58L65.31,137.49L65.65,137.50L66.81,137.25L67.92,136.45L69.11,135.23L70.23,133.47L71.35,131.07L72.31,127.87L72.72,125.51L72.82,125.04L72.97,123.11L72.97,119.76L72.95,119.01L72.88,118.95L72.81,118.31L72.79,117.89L72.72,117.84L72.31,115.97L71.67,114.37L70.71,113.09L69.75,112.45L68.05,112.10L66.43,111.87L66.46,111.65L67.20,111.07L68.10,110.04L69.11,108.66L70.39,105.93L71.35,102.89L71.76,100.69L71.85,100.23L72.08,97.83L72.15,94.84L72.08,94.78L72.19,93.95z"/><path style="fill:#c8cfee" d="M67.41,144.22L37.31,166.96L36.35,166.96L36.93,166.45L65.13,145.06L66.29,144.23z"/><path style="fill:#4c4c4c" d="M78.29,143.00L81.60,143.51L84.00,144.15L88.32,145.75L90.31,146.83L90.54,147.05L90.78,147.09L91.20,147.36L91.27,147.72L90.98,147.83L67.19,166.29L66.45,166.96L37.31,166.96L67.41,144.22L68.53,143.58L68.86,143.49L71.09,143.10L72.68,142.93L75.88,142.85z"/><path style="fill:#c0c0c0" d="M130.32,131.44L130.76,131.61L131.12,131.73L131.76,131.76L132.66,132.15L133.31,133.58L133.78,134.23L135.58,135.32L136.69,137.58L136.47,138.55L135.89,139.58L134.55,140.48L133.10,140.78L130.45,140.96L130.17,140.85L127.86,140.48L125.30,139.67L123.24,138.21L122.28,137.05L122.32,136.24L122.48,135.92L122.44,135.82L122.32,136.24L122.20,136.25L122.26,135.40L122.45,135.29L122.60,135.39L122.60,134.97L123.55,132.19L124.08,132.05L127.29,131.41L128.72,131.32z"/><path style="fill:#ffffff" d="M0.16,20.69L0.03,20.66L0.05,0.05L296.94,0.05L296.96,132.25L296.87,132.26L296.79,131.76L296.78,131.34L296.70,131.29L296.63,130.95L296.62,130.54L296.54,130.49L296.47,130.00L296.46,129.58L296.38,129.53L296.31,129.04L296.30,128.62L296.22,128.57L296.15,128.08L296.14,127.66L296.06,127.61L295.99,127.12L295.97,126.70L295.90,126.64L295.67,125.36L295.66,124.94L295.58,124.88L295.51,124.39L295.50,123.98L295.42,123.92L295.35,123.43L295.34,123.02L295.26,122.96L295.19,122.47L295.18,122.06L295.10,122.00L295.03,121.51L295.02,121.10L294.94,121.05L294.87,120.71L294.86,120.30L294.78,120.24L294.71,119.75L294.70,119.33L294.62,119.28L294.55,118.79L294.54,118.37L294.46,118.32L294.39,117.83L294.38,117.41L294.30,117.36L294.23,116.87L294.21,116.45L294.14,116.40L293.91,115.12L293.90,114.69L293.82,114.64L293.75,114.15L293.74,113.73L293.66,113.68L293.59,113.19L293.58,112.77L293.50,112.72L293.43,112.23L293.42,111.81L293.34,111.76L293.27,111.27L293.26,110.85L293.18,110.80L293.11,110.46L293.09,110.05L293.02,110.00L292.95,109.50L292.93,109.09L292.86,109.03L292.79,108.54L292.77,108.13L292.70,108.07L292.63,107.58L292.61,107.17L292.54,107.11L292.47,106.62L292.45,106.21L292.38,106.15L292.15,104.87L292.13,104.44L292.06,104.39L291.99,103.90L291.97,103.48L291.90,103.43L291.83,102.94L291.81,102.52L291.74,102.47L291.67,101.98L291.65,101.56L291.58,101.51L291.51,101.02L291.50,100.60L291.42,100.55L291.35,100.21L291.33,99.80L291.26,99.75L291.19,99.26L291.17,98.84L291.10,98.79L291.03,98.30L291.01,97.88L290.94,97.83L290.87,97.34L290.85,96.92L290.78,96.87L290.71,96.38L290.69,95.96L290.62,95.90L290.39,94.62L290.37,94.20L290.30,94.15L290.23,93.65L290.21,93.24L290.14,93.18L290.07,92.69L290.05,92.28L289.98,92.22L289.57,90.67L288.92,89.08L286.84,88.28L284.19,87.37L278.57,86.97L277.30,86.90L275.53,86.90L267.05,87.54L265.14,87.86L260.01,88.83L256.69,89.39L248.10,92.00L241.17,95.31L238.18,98.25L238.10,98.62L238.20,99.10L238.27,99.59L238.36,100.05L238.43,100.39L238.52,100.86L238.59,101.35L238.68,101.82L238.76,102.31L238.69,102.63L187.58,83.47L186.32,82.61L186.62,80.96L186.31,76.89L184.56,73.52L184.02,73.11L183.27,69.21L181.68,67.28L181.13,66.65L182.95,53.85L182.79,52.24L181.51,50.16L180.07,49.20L179.26,49.05L177.92,49.04L171.10,53.11L170.28,55.01L169.29,61.86L168.53,61.85L167.73,61.70L166.24,61.70L164.97,62.02L162.24,63.14L159.42,64.64L158.46,65.60L158.02,66.73L154.55,67.46L148.09,67.44L142.65,66.48L135.76,64.37L135.46,64.04L132.19,61.85L130.91,61.36L129.25,61.70L128.50,61.54L72.31,40.40L59.18,35.76L32.18,27.66L31.70,27.57L7.04,21.97L3.85,21.26L0.64,20.78L0.58,20.71z"/><path style="fill:#c8cfee" d="M95.69,148.47L97.51,148.86L97.29,149.00L74.87,166.45L74.29,166.96L66.45,166.96L67.19,166.29L90.98,147.83L91.27,147.72z"/><path style="fill:#000020" d="M131.16,131.60L131.12,131.73L130.76,131.61L130.80,131.48z"/><path style="fill:#000020" d="M90.31,146.83L90.81,146.97L90.78,147.09L90.54,147.05z"/><path style="fill:#4c4c4c" d="M107.91,147.73L111.70,148.30L114.58,149.11L117.14,150.08L120.75,151.77L121.46,152.29L121.39,152.55L121.25,152.62L103.27,166.96L74.29,166.96L74.87,166.45L97.29,149.00L97.51,148.86L98.30,148.38L98.74,148.36L98.82,148.26L99.91,148.06L100.92,147.83L102.30,147.74L106.14,147.65z"/><path style="fill:#404040" d="M72.19,93.95L72.08,94.78L72.08,97.83L71.85,100.23L71.76,100.69L71.35,102.89L70.39,105.93L69.11,108.66L68.10,110.04L67.20,111.07L66.46,111.65L66.01,111.81L66.43,111.87L68.05,112.10L69.75,112.45L70.71,113.09L71.67,114.37L72.31,115.97L72.72,117.84L72.81,118.31L72.88,118.95L72.97,119.76L72.97,123.11L72.82,125.04L72.72,125.51L72.31,127.87L71.35,131.07L70.23,133.47L69.11,135.23L67.92,136.45L66.81,137.25L65.65,137.50L65.31,137.49L64.69,137.40L57.80,136.28L50.75,135.16L49.26,134.70L48.15,133.73L47.33,132.30L46.85,130.86L46.53,129.58L46.37,128.14L46.38,123.54L46.64,121.25L47.65,117.14L48.78,114.58L50.01,112.45L50.95,111.31L51.77,110.68L52.36,110.43L52.80,110.36L52.36,110.34L50.27,110.02L48.45,109.57L47.35,108.75L46.55,107.47L45.73,105.09L45.42,103.32L45.25,101.56L45.25,100.17L45.52,96.28L46.37,92.64L47.66,89.28L48.79,87.38L49.68,86.18L50.37,85.62L50.30,85.35z"/><path style="fill:#404040" d="M98.31,148.13L98.30,148.38L97.51,148.86L95.69,148.47L91.27,147.72L91.20,147.36L90.78,147.09L90.81,146.97z"/><path style="fill:#404040" d="M122.80,152.06L123.71,152.31L124.52,152.94L125.31,153.75L125.72,155.13L125.80,157.07L125.88,160.10L125.96,162.99L126.04,165.86L126.00,166.96L122.80,166.96L124.99,165.01L125.15,164.70L124.98,156.32L124.66,155.03L124.21,154.21L123.41,153.41L122.74,152.95L121.39,152.55L121.46,152.29L120.75,151.77L121.19,151.81z"/><path style="fill:#c0c0c0" d="M154.92,6.14L157.49,6.94L159.41,8.06L160.22,8.69L161.34,9.97L161.35,10.73L161.26,11.21L161.03,11.84L160.94,12.33L159.56,14.67L158.17,14.85L156.57,15.01L156.15,15.09L156.06,15.36L153.25,29.77L147.33,59.87L147.24,60.62L146.93,61.75L146.45,62.08L146.21,62.44L146.21,62.92L145.98,64.48L144.48,65.22L143.56,65.22L142.02,64.87L141.00,63.77L141.00,62.55L141.33,61.21L141.00,60.73L140.91,60.36L141.34,58.28L143.49,47.22L149.73,15.20L149.88,14.23L150.29,13.96L149.86,13.96L149.01,13.66L146.30,11.21L146.29,10.73L146.78,7.84L147.09,7.32L147.99,6.62L148.62,6.29L149.70,6.21L150.51,6.05L152.41,5.96z"/><path style="fill:#c0c0c0" d="M0.64,20.78L3.85,21.26L7.04,21.97L31.70,27.57L32.18,27.66L59.18,35.76L72.31,40.40L128.50,61.54L129.25,61.70L130.91,61.36L132.19,61.85L135.46,64.04L135.33,64.25L135.76,64.37L142.65,66.48L148.09,67.44L154.55,67.46L158.02,66.73L159.85,66.35L163.46,65.28L165.06,65.29L169.16,66.83L169.35,67.14L169.58,67.13L169.97,66.96L174.30,68.58L175.29,69.35L175.58,70.02L175.76,71.41L174.96,77.01L174.76,77.27L174.77,77.55L174.99,77.62L177.67,79.61L180.85,81.07L181.62,81.07L182.51,80.82L182.99,80.81L184.38,81.39L185.52,82.17L186.32,82.61L187.58,83.47L238.69,102.63L238.84,102.73L238.83,102.38L238.76,102.31L238.68,101.82L238.66,101.40L238.59,101.35L238.52,100.86L238.50,100.44L238.43,100.39L238.36,100.05L238.34,99.64L238.27,99.59L238.20,99.10L238.17,98.68L238.10,98.62L238.18,98.25L241.17,95.31L248.10,92.00L256.69,89.39L260.01,88.83L265.14,87.86L267.05,87.54L275.53,86.90L277.30,86.90L278.57,86.97L284.19,87.37L286.84,88.28L288.92,89.08L289.57,90.67L289.98,92.22L290.07,92.69L290.14,93.18L290.23,93.65L290.30,94.15L290.39,94.62L290.62,95.90L290.71,96.38L290.78,96.87L290.87,97.34L290.94,97.83L291.03,98.30L291.10,98.79L291.19,99.26L291.26,99.75L291.35,100.21L291.42,100.55L291.51,101.02L291.58,101.51L291.67,101.98L291.74,102.47L291.83,102.94L291.90,103.43L291.99,103.90L292.06,104.39L292.15,104.87L292.38,106.15L292.47,106.62L292.54,107.11L292.63,107.58L292.70,108.07L292.79,108.54L292.86,109.03L292.95,109.50L293.02,110.00L293.11,110.46L293.18,110.80L293.27,111.27L293.34,111.76L293.43,112.23L293.50,112.72L293.59,113.19L293.66,113.68L293.75,114.15L293.82,114.64L293.91,115.12L294.14,116.40L294.23,116.87L294.30,117.36L294.39,117.83L294.46,118.32L294.55,118.79L294.62,119.28L294.71,119.75L294.78,120.24L294.87,120.71L294.94,121.05L295.03,121.51L295.10,122.00L295.19,122.47L295.26,122.96L295.35,123.43L295.42,123.92L295.51,124.39L295.58,124.88L295.67,125.36L295.90,126.64L295.99,127.12L296.06,127.61L296.15,128.08L296.22,128.57L296.31,129.04L296.38,129.53L296.47,130.00L296.54,130.49L296.63,130.95L296.70,131.29L296.79,131.76L296.87,132.26L296.96,132.73L296.94,166.94L250.24,166.96L250.21,166.51L250.19,166.09L250.11,166.04L250.05,165.70L250.03,165.28L249.96,165.23L249.88,164.74L249.87,164.32L249.80,164.26L249.57,162.98L249.55,162.56L249.48,162.50L249.37,162.06L248.90,162.10L176.10,133.97L175.70,133.90L175.67,134.01L173.66,137.32L171.60,139.42L168.28,140.77L166.98,140.77L165.38,140.61L164.26,140.45L154.78,136.76L151.73,134.38L151.10,131.61L151.10,130.64L151.14,130.18L151.27,129.90L151.19,129.89L151.00,130.14L148.47,131.02L143.67,132.46L141.21,132.92L138.64,132.92L136.61,132.67L136.53,132.41L136.84,132.13L136.09,132.12L132.41,131.73L131.76,131.64L131.16,131.60L130.80,131.48L130.32,131.44L126.59,130.05L124.37,127.77L124.37,127.11L125.81,119.44L126.12,117.63L126.28,117.46L126.28,117.09L124.66,113.57L123.76,113.32L122.32,113.00L121.83,112.91L117.83,111.57L117.77,111.48L117.35,111.55L116.45,111.81L115.69,111.81L114.12,111.15L110.73,109.10L110.43,108.72L110.41,108.61L109.99,108.58L72.19,93.95L50.30,85.35L49.34,84.98L49.40,84.72L49.12,84.85L48.97,84.83L48.80,84.58L48.35,84.53L39.37,81.86L17.23,74.99L15.69,74.57L0.03,70.92L0.03,20.66L0.16,20.69z"/><path style="fill:#000000" d="M180.07,49.20L181.51,50.16L182.79,52.24L182.95,53.85L181.13,66.65L181.68,67.28L183.27,69.21L184.02,73.11L184.56,73.52L186.31,76.89L186.62,80.96L186.32,82.61L185.52,82.17L184.38,81.39L182.99,80.81L182.97,80.60L182.51,80.82L181.62,81.07L180.85,81.07L177.67,79.61L174.99,77.62L174.96,77.01L175.76,71.41L175.58,70.02L175.29,69.35L174.30,68.58L169.97,66.96L169.58,67.13L169.35,67.14L169.16,66.83L165.06,65.29L163.46,65.28L159.85,66.35L158.02,66.73L158.46,65.60L159.42,64.64L162.24,63.14L164.97,62.02L166.24,61.70L167.73,61.70L168.53,61.85L169.29,61.86L170.28,55.01L171.10,53.11L177.92,49.04L179.26,49.05z"/><path style="fill:#ffffff" d="M162.33,129.07L162.95,129.21L165.33,130.70L167.25,131.67L168.33,131.67L168.80,131.49L169.50,131.49L172.05,132.47L172.73,132.77L172.71,132.99L170.89,135.98L170.15,136.85L167.85,137.91L166.29,137.91L163.89,137.11L155.74,133.89L154.61,132.93L154.14,131.46L154.14,130.63L154.37,129.51L154.65,129.22L154.98,129.17L156.41,128.84L158.02,128.69L159.63,128.68z"/><path style="fill:#ffffff" d="M131.76,131.76L131.12,131.73L131.16,131.60L131.76,131.64z"/><path style="fill:#c8cfee" d="M122.74,152.95L123.41,153.41L124.21,154.21L124.66,155.03L124.98,156.32L125.15,164.70L124.99,165.01L122.80,166.96L103.27,166.96L121.25,152.62L121.39,152.55z"/><path style="fill:#000020" d="M146.30,11.21L146.22,10.79L146.29,10.73z"/><path style="fill:#000020" d="M149.88,14.23L149.86,13.96L150.29,13.96z"/><path style="fill:#000020" d="M0.64,20.78L0.16,20.69L0.58,20.71z"/><path style="fill:#000020" d="M146.21,62.92L146.21,62.44L146.28,62.50z"/><path style="fill:#000020" d="M135.76,64.37L135.33,64.25L135.46,64.04z"/><path style="fill:#000020" d="M134.90,64.14L134.70,64.08L134.93,63.95z"/><path style="fill:#000020" d="M159.57,76.09L159.37,76.14L159.42,75.94z"/><path style="fill:#000020" d="M174.76,77.27L174.96,77.01L174.99,77.62L174.77,77.55z"/><path style="fill:#000020" d="M182.99,80.81L182.51,80.82L182.97,80.60z"/><path style="fill:#000020" d="M48.97,84.83L48.60,84.77L48.35,84.53L48.80,84.58z"/><path style="fill:#000020" d="M49.34,84.98L49.12,84.85L49.40,84.72z"/><path style="fill:#000020" d="M34.09,90.64L34.04,90.41L34.24,90.31z"/><path style="fill:#000020" d="M290.07,92.69L289.98,92.22L290.05,92.28z"/><path style="fill:#000020" d="M290.23,93.65L290.14,93.18L290.21,93.24z"/><path style="fill:#000020" d="M32.80,94.46L32.68,94.79L32.53,94.20z"/><path style="fill:#000020" d="M290.39,94.62L290.30,94.15L290.37,94.20z"/><path style="fill:#000020" d="M290.71,96.38L290.62,95.90L290.69,95.96z"/><path style="fill:#000020" d="M290.87,97.34L290.78,96.87L290.85,96.92z"/><path style="fill:#000020" d="M72.08,97.83L72.08,94.78L72.15,94.84z"/><path style="fill:#000020" d="M291.03,98.30L290.94,97.83L291.01,97.88z"/><path style="fill:#000020" d="M238.20,99.10L238.10,98.62L238.17,98.68z"/><path style="fill:#000020" d="M291.19,99.26L291.10,98.79L291.17,98.84z"/><path style="fill:#000020" d="M238.36,100.05L238.27,99.59L238.34,99.64z"/><path style="fill:#000020" d="M291.35,100.21L291.26,99.75L291.33,99.80z"/><path style="fill:#000020" d="M238.52,100.86L238.43,100.39L238.50,100.44z"/><path style="fill:#000020" d="M291.51,101.02L291.42,100.55L291.50,100.60z"/><path style="fill:#000020" d="M238.68,101.82L238.59,101.35L238.66,101.40z"/><path style="fill:#000020" d="M291.67,101.98L291.58,101.51L291.65,101.56z"/><path style="fill:#000020" d="M238.84,102.73L238.69,102.63L238.76,102.31L238.83,102.38z"/><path style="fill:#000020" d="M291.83,102.94L291.74,102.47L291.81,102.52z"/><path style="fill:#000020" d="M291.99,103.90L291.90,103.43L291.97,103.48z"/><path style="fill:#000020" d="M292.15,104.87L292.06,104.39L292.13,104.44z"/><path style="fill:#000020" d="M292.47,106.62L292.38,106.15L292.45,106.21z"/><path style="fill:#000020" d="M292.63,107.58L292.54,107.11L292.61,107.17z"/><path style="fill:#000020" d="M292.79,108.54L292.70,108.07L292.77,108.13z"/><path style="fill:#000020" d="M110.43,108.72L109.99,108.58L110.41,108.61z"/><path style="fill:#000020" d="M292.95,109.50L292.86,109.03L292.93,109.09z"/><path style="fill:#000020" d="M293.11,110.46L293.02,110.00L293.09,110.05z"/><path style="fill:#000020" d="M52.36,110.43L52.36,110.34L52.80,110.36z"/><path style="fill:#000020" d="M293.27,111.27L293.18,110.80L293.26,110.85z"/><path style="fill:#000020" d="M117.83,111.57L117.35,111.55L117.77,111.48z"/><path style="fill:#000020" d="M66.43,111.87L66.01,111.81L66.46,111.65z"/><path style="fill:#000020" d="M293.43,112.23L293.34,111.76L293.42,111.81z"/><path style="fill:#000020" d="M293.59,113.19L293.50,112.72L293.58,112.77z"/><path style="fill:#000020" d="M293.75,114.15L293.66,113.68L293.74,113.73z"/><path style="fill:#000020" d="M30.54,114.64L30.46,112.71L30.52,112.77z"/><path style="fill:#000020" d="M293.91,115.12L293.82,114.64L293.90,114.69z"/><path style="fill:#000020" d="M241.11,115.55L241.24,116.19L241.05,116.51L241.05,115.48z"/><path style="fill:#000020" d="M140.70,116.57L140.47,116.67L140.53,116.39z"/><path style="fill:#000020" d="M294.23,116.87L294.14,116.40L294.21,116.45z"/><path style="fill:#000020" d="M294.39,117.83L294.30,117.36L294.38,117.41z"/><path style="fill:#000020" d="M72.81,118.31L72.72,117.84L72.79,117.89z"/><path style="fill:#000020" d="M30.70,118.32L30.62,116.39L30.68,116.45z"/><path style="fill:#000020" d="M294.55,118.79L294.46,118.32L294.54,118.37z"/><path style="fill:#000020" d="M294.71,119.75L294.62,119.28L294.70,119.33z"/><path style="fill:#000020" d="M72.97,119.76L72.88,118.95L72.95,119.01z"/><path style="fill:#000020" d="M241.88,119.72L241.70,119.88L241.68,119.52L241.88,119.33z"/><path style="fill:#000020" d="M241.81,120.27L242.01,120.28L242.04,120.66L241.86,120.63z"/><path style="fill:#000020" d="M294.87,120.71L294.78,120.24L294.86,120.30z"/><path style="fill:#000020" d="M295.03,121.51L294.94,121.05L295.02,121.10z"/><path style="fill:#000020" d="M30.86,122.16L30.78,120.23L30.84,120.29z"/><path style="fill:#000020" d="M295.19,122.47L295.10,122.00L295.18,122.06z"/><path style="fill:#000020" d="M295.35,123.43L295.26,122.96L295.34,123.02z"/><path style="fill:#000020" d="M295.51,124.39L295.42,123.92L295.50,123.98z"/><path style="fill:#000020" d="M295.67,125.36L295.58,124.88L295.66,124.94z"/><path style="fill:#000020" d="M31.02,125.85L30.94,123.91L31.00,123.97z"/><path style="fill:#000020" d="M295.99,127.12L295.90,126.64L295.97,126.70z"/><path style="fill:#000020" d="M124.37,127.77L124.30,127.18L124.37,127.11z"/><path style="fill:#000020" d="M296.15,128.08L296.06,127.61L296.14,127.66z"/><path style="fill:#000020" d="M159.63,128.68L158.02,128.69L158.56,128.44z"/><path style="fill:#000020" d="M296.31,129.04L296.22,128.57L296.30,128.62z"/><path style="fill:#000020" d="M162.95,129.21L162.33,129.07L162.64,128.93z"/><path style="fill:#000020" d="M154.65,129.22L154.37,129.51L154.44,129.08z"/><path style="fill:#000020" d="M31.18,129.69L31.10,127.76L31.16,127.82z"/><path style="fill:#000020" d="M296.47,130.00L296.38,129.53L296.46,129.58z"/><path style="fill:#000020" d="M151.14,130.18L151.00,130.14L151.19,129.89L151.27,129.90z"/><path style="fill:#000020" d="M296.63,130.95L296.54,130.49L296.62,130.54z"/><path style="fill:#000020" d="M296.79,131.76L296.70,131.29L296.78,131.34z"/><path style="fill:#000020" d="M132.41,131.73L131.76,131.76L131.76,131.64z"/><path style="fill:#000020" d="M136.09,132.12L136.84,132.13L136.53,132.41z"/><path style="fill:#000020" d="M296.96,132.73L296.87,132.26L296.96,132.25z"/><path style="fill:#000020" d="M31.34,133.37L31.26,131.60L31.32,131.66z"/><path style="fill:#000020" d="M176.10,133.97L175.67,134.01L175.70,133.90z"/><path style="fill:#000020" d="M122.60,135.39L122.45,135.29L122.60,134.97z"/><path style="fill:#000020" d="M122.48,135.92L122.32,136.24L122.44,135.82z"/><path style="fill:#000020" d="M122.28,137.05L122.20,136.25L122.32,136.24z"/><path style="fill:#000020" d="M31.50,137.21L31.42,135.28L31.48,135.34z"/><path style="fill:#000020" d="M292.35,136.55L292.12,137.32L292.10,136.43z"/><path style="fill:#000020" d="M292.29,137.45L292.47,137.43L292.47,137.78L292.29,137.76z"/><path style="fill:#000020" d="M65.31,137.49L64.89,137.58L64.81,139.45L64.69,137.40z"/><path style="fill:#000020" d="M31.66,140.90L31.58,139.12L31.64,139.18z"/><path style="fill:#000020" d="M68.86,143.49L68.53,143.58L68.04,143.40L68.64,143.33z"/><path style="fill:#000020" d="M64.97,143.78L64.88,141.69L64.94,141.74z"/><path style="fill:#000020" d="M31.82,144.74L31.74,142.81L31.80,142.87z"/><path style="fill:#000020" d="M98.82,148.26L98.74,148.36L98.30,148.38L98.31,148.13z"/><path style="fill:#000020" d="M31.98,148.58L31.90,146.65L31.96,146.71z"/><path style="fill:#000020" d="M32.14,152.26L32.06,150.33L32.12,150.39z"/><path style="fill:#000020" d="M32.30,156.10L32.22,154.17L32.28,154.23z"/><path style="fill:#000020" d="M125.80,157.07L125.72,155.13L125.78,155.19z"/><path style="fill:#000020" d="M32.46,159.79L32.38,157.86L32.44,157.92z"/><path style="fill:#000020" d="M249.57,162.98L249.48,162.50L249.55,162.56z"/><path style="fill:#000020" d="M125.96,162.99L125.88,160.10L125.94,160.16z"/><path style="fill:#000020" d="M32.62,163.63L32.54,161.70L32.60,161.76z"/><path style="fill:#000020" d="M249.88,164.74L249.80,164.26L249.87,164.32z"/><path style="fill:#000020" d="M250.05,165.70L249.96,165.23L250.03,165.28z"/><path style="fill:#000020" d="M250.21,166.51L250.11,166.04L250.19,166.09z"/><path style="fill:#000020" d="M126.16,166.96L126.00,166.96L126.04,165.86L126.10,165.92z"/><path style="fill:#000020" d="M32.82,166.96L32.66,166.96L32.70,165.54L32.76,165.60z"/><path style="fill:#404040" d="M68.53,143.58L67.41,144.22L66.29,144.23L66.98,143.67L68.04,143.40z"/><path style="fill:#ffffff" d="M174.94,63.94L174.74,63.99L174.77,63.61z"/><path style="fill:#ffffff" d="M143.25,113.59L142.76,114.58L140.70,116.57L140.53,116.39L140.91,115.30L143.25,113.41z"/><path style="fill:#ffffff" d="M130.76,131.61L130.32,131.44L130.80,131.48z"/><g id="Actor_.0"><g style="stroke:#282828;stroke-width:0.106"><path d="M0.01,22.57L26.36,28.58L54.83,37.19L68.44,42.06L62.98,46.65L57.90,54.04L54.02,63.08L51.93,72.36L51.95,80.44L54.08,86.06L57.96,88.39"/><path d="M125.08,63.32L68.44,42.06L70.46,41.21L72.00,40.94L72.35,40.88L74.09,41.09"/></g><g style="stroke:#282828;stroke-width:0.353"><path d="M-0.00,70.77L18.00,75.09L17.57,74.95"/><path d="M0.00,20.71L4.37,21.37L32.31,27.73L60.59,36.27L74.09,41.09L129.23,61.84"/><path d="M54.08,86.06L43.41,83.07L18.00,75.09L18.05,75.10"/><path d="M110.54,108.71L57.96,88.39L47.86,84.31"/></g></g><g id="Actor_.1"><g style="stroke:#282828;stroke-width:0.106"><path d="M160.70,66.12L160.91,64.63L158.99,65.65L158.51,66.70"/><path d="M159.63,64.59L159.65,64.58"/><path d="M160.04,64.29L161.35,63.78L164.77,62.44L164.94,62.38L166.12,62.13L165.12,62.72L165.36,62.99L165.43,63.38L164.93,63.53L162.11,64.53L160.91,64.63L160.91,64.19L161.03,64.01L158.92,65.13"/><path d="M166.12,62.13L168.94,62.40L177.72,65.66L179.29,67.03L178.30,67.62L178.42,67.41L177.30,65.95L168.46,62.66L165.51,62.61L165.12,62.72L161.69,63.86L161.99,64.09L162.11,64.53L161.93,65.78"/><path d="M161.69,63.86L161.03,64.01"/><path d="M164.94,63.53L164.69,65.26"/><path d="M167.74,66.29L168.17,63.27L165.81,63.26L165.50,65.45"/><path d="M165.43,63.38L165.81,63.26L165.74,62.87L165.51,62.61"/><path d="M167.16,61.58L169.79,62.10"/><path d="M178.42,67.41L178.04,67.45L177.84,67.74L176.95,66.54L168.17,63.27L168.27,62.90L168.46,62.66"/><path d="M169.87,62.12L169.88,62.13"/><path d="M169.81,62.10L168.94,62.40"/><path d="M175.92,77.41L176.38,77.94L177.58,69.61L177.14,68.97L177.37,68.67L177.79,68.68L178.04,69.09L180.05,71.74L180.50,74.91L179.68,80.54"/><path d="M176.38,77.94L176.50,78.68"/><path d="M176.04,76.61L175.71,75.17L176.17,75.70"/><path d="M175.71,75.17L176.95,66.54L177.13,66.12L177.30,65.95"/><path d="M179.04,80.26L179.82,74.90L179.41,72.02L177.58,69.61L177.85,69.25L178.04,69.09"/><path d="M177.72,67.95L177.92,67.66L178.30,67.62L177.79,68.68"/><path d="M177.72,65.66L177.79,65.63L178.62,65.38L181.21,66.76L183.26,68.99L180.23,71.02L180.91,74.66L184.04,72.61L183.26,68.99L183.27,68.94"/><path d="M179.29,67.03L179.33,67.18L179.23,67.70L179.01,68.10L178.57,68.95L180.23,71.02"/><path d="M179.82,74.90L180.50,74.91L180.91,74.66L180.03,80.68"/><path d="M180.61,76.71L183.88,74.08"/><path d="M183.97,72.22L184.01,72.38"/></g><g style="stroke:#282828;stroke-width:0.353"><path d="M159.65,64.58L158.92,65.13L158.30,66.02L158.05,66.80"/><path d="M159.64,64.59L160.04,64.29L163.93,62.39L166.07,61.76L165.14,61.95L164.47,62.23"/><path d="M166.07,61.76L167.16,61.58L167.36,61.61L169.78,62.10L169.87,62.12L169.88,62.13L169.81,62.10"/><path d="M169.88,62.13L178.62,65.38L181.20,66.72L183.27,68.94L184.01,72.38L184.04,72.61L183.87,74.08L182.97,80.83"/><path d="M177.84,67.74L177.56,68.22L177.14,68.97L175.92,77.41L176.10,78.38"/></g></g><g id="Actor_.2"><g style="stroke:#282828;stroke-width:0.106"><path d="M117.57,80.35L124.93,83.07L128.15,84.89L129.10,85.82L129.25,86.00L129.61,86.53L129.88,87.03L130.22,86.72L130.42,86.70L130.23,86.28L129.86,85.41L128.53,81.92L128.08,80.81L127.60,79.77L127.45,79.45L125.06,75.99L121.30,73.54L117.57,80.35L114.70,88.01L114.66,88.11L113.00,95.78L112.03,95.41L110.38,95.27L108.68,94.62"/><path d="M116.13,111.88L112.28,109.53L110.26,103.70L110.38,95.27L112.64,85.54L116.71,76.03L121.93,68.22L127.50,63.32L132.54,62.07"/><path d="M113.86,109.15L111.91,103.54L112.03,95.41L114.22,86.03L118.14,76.86L123.17,69.33L128.53,64.61L133.38,63.40"/><path d="M123.01,111.72L121.34,111.76L118.13,111.56L116.31,111.00L113.70,107.35L112.72,102.26L113.00,95.78"/><path d="M113.70,107.35L118.74,109.07L121.13,110.00L122.95,111.15L124.14,112.47L124.76,113.51"/><path d="M121.30,73.54L125.36,68.35L129.50,64.98L133.28,63.71"/><path d="M126.80,117.96L126.64,117.58L128.65,119.57L132.29,120.99L136.31,121.34L139.36,120.52L139.23,120.75"/><path d="M132.14,88.86L131.94,89.05L131.75,89.44L131.39,89.55L131.18,89.84L131.80,90.99L126.64,117.58L126.06,116.23L126.16,116.53"/><path d="M127.74,119.16L130.64,120.78L133.88,121.47L134.41,121.59L137.84,121.33"/><path d="M131.18,89.84L129.88,87.03"/><path d="M132.16,86.90L130.42,86.70L131.75,89.44L132.12,90.61L133.07,91.79L135.99,93.40L139.78,94.21L143.23,93.97L144.46,93.46L144.57,93.65L144.60,93.94L139.36,120.52L140.22,118.13"/><path d="M141.05,77.14L141.71,74.73L141.98,74.25L142.38,73.58L142.97,72.71L143.42,72.12L143.82,71.68L144.38,71.15L144.67,70.99L144.81,70.94L144.95,70.78L129.50,64.98"/><path d="M132.12,90.61L131.80,90.99L133.83,92.96L137.49,94.37L141.54,94.74L144.60,93.94"/><path d="M143.59,93.28L143.14,93.47L141.59,93.71L137.96,93.43L134.59,92.22L132.56,90.47L132.53,89.58"/><path d="M138.79,121.09L139.07,120.81"/><path d="M143.71,112.84L140.75,115.45"/><path d="M144.05,111.97L140.89,114.77"/><path d="M141.10,113.68L143.91,111.27L144.36,110.77L144.42,110.81"/><path d="M141.10,77.14L141.14,76.88L141.36,76.21L142.26,74.31L142.97,73.19L143.41,72.58L143.72,72.19L144.11,71.76L144.45,71.43L144.80,71.15L145.16,70.92L144.95,70.78L148.35,69.41L148.61,69.38L152.07,69.95L155.72,71.03L157.40,71.58L159.30,72.27L159.21,72.35L159.32,72.39L159.63,72.61L159.77,72.92L159.73,72.96L159.29,73.12L158.98,72.69L157.69,73.50L157.54,73.74L158.01,73.93L157.70,74.71L157.53,74.74L157.16,74.74L157.15,74.90L157.16,75.03L157.22,75.10L156.83,74.96L156.76,74.74L156.85,74.38L153.03,72.81L150.28,71.98L150.05,72.27"/><path d="M159.00,66.59L159.09,66.90L153.97,67.80L147.90,67.53L142.38,66.47"/><path d="M143.10,76.73L143.48,75.55L146.20,72.06L150.43,70.82L150.49,71.28L146.36,72.53L146.27,73.17L145.21,74.55"/><path d="M144.36,110.77L144.45,110.71"/><path d="M144.41,93.37L144.46,93.46L144.54,93.39"/><path d="M146.36,72.53L146.20,72.06L145.16,70.92L147.81,69.72"/><path d="M146.27,73.17L148.24,72.27L150.28,71.98L150.49,71.28L153.35,72.09L157.18,73.60L157.33,73.36L153.32,71.68L150.43,70.82"/><path d="M156.83,74.96L154.78,74.14L152.71,73.23"/><path d="M154.43,70.75L159.21,72.35"/><path d="M157.16,74.74L157.24,74.53L156.85,74.38L157.18,73.60L157.54,73.74L157.24,74.53L157.70,74.71L158.38,75.10L158.15,75.40L157.89,75.49L157.22,75.10L157.47,75.02L157.70,74.71"/><path d="M157.33,73.36L157.69,73.50L158.01,73.93L159.29,73.12L158.38,75.10L158.66,75.30L158.58,75.43L158.03,75.59L157.89,75.49"/><path d="M158.03,75.59L158.63,76.56"/><path d="M158.98,72.69L159.28,72.43L159.59,72.65L159.73,72.96L158.66,75.30L159.27,76.29"/><path d="M164.95,65.25L159.09,66.90L159.30,72.27L159.41,72.31L159.28,72.43"/><path d="M164.20,69.45L159.41,72.31L159.70,72.57L159.77,72.92L164.49,70.10"/><path d="M162.79,68.64L164.83,67.42L164.75,67.99"/><path d="M164.83,67.42L167.32,68.00L167.48,68.20"/><path d="M167.32,68.00L169.24,66.85L169.47,67.23"/></g><g style="stroke:#282828;stroke-width:0.353"><path d="M117.65,111.45L116.13,111.88L114.45,111.23L110.60,108.87L108.56,103.05L108.68,94.62L110.95,84.89L115.01,75.38L120.23,67.58L125.80,62.69L130.85,61.44L132.53,62.07L136.03,64.44"/><path d="M124.75,113.50L121.83,112.84L116.31,111.00L113.86,109.15"/><path d="M117.00,111.23L117.58,111.42"/><path d="M117.56,111.43L117.62,111.44"/><path d="M121.67,111.29L122.58,111.59L123.39,111.84"/><path d="M122.37,111.00L123.69,112.09"/><path d="M122.95,111.15L123.46,111.82L124.36,112.86L124.76,113.51L124.88,113.76L124.76,113.51"/><path d="M122.97,111.71L122.86,111.67"/><path d="M124.88,113.76L126.06,116.23"/><path d="M126.80,117.96L127.64,119.06L127.74,119.16L127.09,118.59L124.98,113.97L125.48,115.02"/><path d="M139.09,120.80L138.79,121.09L137.60,121.59L136.06,121.85L132.45,121.57L129.10,120.36L127.74,119.16"/><path d="M133.39,63.40L136.37,64.57"/><path d="M133.28,63.71L136.59,64.63L144.05,67.00"/><path d="M137.84,121.33L139.23,120.75L140.01,120.00L140.22,118.13L145.09,93.45"/><path d="M140.73,115.54L143.66,112.96"/><path d="M169.48,67.23L169.24,66.85L164.95,65.25L163.71,65.28L159.00,66.59L154.52,67.59L148.31,67.51L142.33,66.45"/><path d="M143.96,76.75L145.13,74.71L145.11,74.73"/><path d="M144.60,93.94L144.98,93.44"/><path d="M149.42,69.64L147.81,69.72L144.98,70.76L145.02,70.75"/><path d="M146.25,72.67L146.36,72.53L145.13,74.71L146.27,73.17"/><path d="M146.19,73.29L148.18,72.41"/><path d="M150.05,72.27L147.82,72.57"/><path d="M150.85,69.74L154.43,70.75L148.35,69.41"/><path d="M152.71,73.23L149.75,72.31"/><path d="M150.31,69.60L150.75,69.72"/><path d="M162.79,68.64L164.20,69.45L164.43,69.72L164.49,70.10L164.41,70.66"/></g></g><g id="Actor_.3"><g style="stroke:#282828;stroke-width:0.106"><path d="M170.40,54.82L170.43,54.88L169.41,62.02"/><path d="M173.29,54.05L172.49,54.53L172.09,55.44L171.95,55.44L170.94,62.52"/><path d="M170.43,54.88L172.65,52.32L176.16,53.61L177.45,57.48L177.59,57.48L183.05,54.23"/><path d="M171.07,62.57L172.09,55.44L174.29,54.14"/><path d="M171.95,55.44L172.37,54.49L172.50,54.41L173.21,53.99L174.24,54.08L175.20,54.73L175.81,55.76L175.93,56.91L175.89,56.85"/><path d="M172.67,52.19L174.54,52.35L176.26,53.52L177.38,55.40L177.59,57.48L176.56,64.61"/><path d="M174.24,54.08L174.28,54.14"/><path d="M175.93,56.91L174.91,64.00"/><path d="M174.54,52.35L180.01,49.12"/><path d="M177.45,57.48L176.43,64.56"/><path d="M178.14,48.97L178.10,48.99"/><path d="M185.06,81.77L186.74,80.74"/></g><g style="stroke:#282828;stroke-width:0.353"><path d="M181.23,66.75L183.05,54.23L182.84,52.16L182.25,51.17L181.73,50.29L180.01,49.12L178.14,48.97L172.67,52.19L171.15,53.10L170.40,54.82L169.37,62.02"/><path d="M173.29,54.05L174.28,54.14L175.19,54.76L175.78,55.75L175.89,56.85L174.87,63.98"/><path d="M184.00,72.99L184.79,73.71L186.48,77.13L186.74,80.74L186.44,82.74"/></g></g><g id="Actor_.4"><g style="stroke:#282828;stroke-width:0.106"><path d="M133.88,91.40L133.98,90.89"/></g><g style="stroke:#282828;stroke-width:0.353"><path d="M133.53,90.63L133.88,91.40L135.88,92.55L138.46,93.29L141.10,93.48L141.19,93.02"/></g></g><g id="Actor_.5"><g style="stroke:#282828;stroke-width:0.106"><path d="M130.09,120.72L129.97,121.34"/><path d="M138.79,121.18L138.81,121.07"/></g><g style="stroke:#282828;stroke-width:0.353"><path d="M127.37,118.83L127.31,119.15"/><path d="M137.46,121.62L137.37,122.06"/></g></g><g id="Actor_.6"><g style="stroke:#282828;stroke-width:0.106"><path d="M103.04,167.00L121.57,152.24"/><path d="M121.39,152.54L121.37,152.55"/></g><g style="stroke:#282828;stroke-width:0.353"><path d="M103.25,167.00L121.39,152.54L121.53,152.42L121.57,152.24L118.28,150.57L114.90,149.27L111.47,148.34L108.04,147.79L104.64,147.63L101.32,147.86L98.12,148.48L74.33,167.00"/></g></g><g id="Actor_.7"><g style="stroke:#282828;stroke-width:0.106"><path d="M30.56,112.31L39.62,113.71L41.64,162.92"/><path d="M39.62,113.71L39.60,110.51L39.78,107.22L40.16,103.89L40.74,100.58L41.51,97.35L42.45,94.26L43.55,91.36L44.78,88.71L46.13,86.34L47.62,84.25"/></g><g style="stroke:#282828;stroke-width:0.353"><path d="M32.88,167.00L30.56,112.31L30.53,109.11L30.71,105.82L31.09,102.50L31.67,99.20L32.44,95.98L33.39,92.89L34.49,90.00L35.73,87.35L37.08,84.98L38.53,82.95L39.52,81.84"/><path d="M64.76,137.36L65.05,145.24"/></g></g><g id="Actor_.8"><g style="stroke:#282828;stroke-width:0.106"><path d="M91.45,147.41L66.12,167.00"/><path d="M91.27,147.72L91.25,147.72"/></g><g style="stroke:#282828;stroke-width:0.353"><path d="M66.34,167.00L91.27,147.72L91.41,147.60L91.45,147.41L88.19,145.76L84.84,144.47L81.45,143.54L78.06,143.00L74.71,142.85L71.43,143.08L68.28,143.70L37.46,167.00"/></g></g><g id="Actor_.9"><g style="stroke:#282828;stroke-width:0.106"><path d="M64.49,112.18L63.43,111.81L62.48,110.98L61.68,109.70L61.06,108.03L60.65,106.07L60.64,106.03L60.44,103.77L60.46,101.35L60.72,98.86L61.19,96.39L61.85,94.05L62.69,91.92L63.45,90.51"/></g><g style="stroke:#282828;stroke-width:0.353"><path d="M72.04,93.83L72.17,95.33L72.14,97.73L71.89,100.20L71.42,102.64L70.77,104.96L69.94,107.08L68.97,108.91L67.90,110.39L66.77,111.45L65.62,112.05L64.49,112.18L49.41,109.85L48.34,109.49L47.38,108.66L46.57,107.38L45.93,105.71L45.50,103.71L45.30,101.47L45.32,99.05L45.57,96.57L45.69,95.91L46.04,94.11L46.71,91.77L47.55,89.65L48.54,87.82L49.63,86.36L50.65,85.44"/></g></g><g id="Actor_.10"><g style="stroke:#282828;stroke-width:0.106"><path d="M66.23,144.35L67.04,144.04L67.83,144.04"/><path d="M66.47,144.17L66.45,144.19"/><path d="M66.90,143.86L67.40,143.65L67.95,143.57L68.53,143.60L68.67,143.62"/><path d="M68.89,143.47L68.70,143.50L68.53,143.60L68.44,143.67"/><path d="M91.04,147.21L98.52,148.40"/><path d="M91.22,147.76L97.71,148.80"/><path d="M125.90,167.00L125.60,155.85L125.04,156.29L124.87,155.30L124.52,154.59L124.41,154.36L123.72,153.56L122.87,152.99L121.92,152.68L121.34,152.59"/><path d="M121.92,152.68L122.48,152.24L121.16,152.03"/><path d="M125.80,155.55L125.73,155.71L125.60,155.85L125.52,155.23L125.33,154.62L125.04,154.03L124.65,153.50L124.18,153.04L123.64,152.66L123.07,152.39L122.48,152.24L122.84,152.11"/><path d="M125.33,167.00L125.04,156.29"/></g><g style="stroke:#282828;stroke-width:0.353"><path d="M66.23,144.35L66.90,143.86L67.12,143.74L67.63,143.54L68.37,143.44L68.89,143.47L69.20,143.52"/><path d="M90.50,146.93L99.06,148.30"/><path d="M126.11,167.00L125.80,155.55L125.73,154.88L125.57,154.33L125.31,153.79L124.94,153.28L124.49,152.85L124.00,152.51L123.49,152.28L122.84,152.11L120.61,151.75"/></g></g><g id="Actor_.11"><g style="stroke:#282828;stroke-width:0.106"><path d="M29.30,167.00L29.39,166.86L29.66,166.54L29.94,166.27L30.22,166.06L30.50,165.91"/><path d="M31.05,165.80L30.78,165.82"/></g><g style="stroke:#282828;stroke-width:0.353"><path d="M30.60,165.87L30.40,165.92L29.84,166.27L29.30,166.86L29.21,166.98L29.19,167.00"/><path d="M30.50,165.91L30.78,165.82"/><path d="M31.05,165.80L30.95,165.80"/><path d="M30.95,165.80L30.78,165.82"/><path d="M32.84,166.09L31.31,165.84L31.05,165.80"/></g></g><g id="Actor_.12"><g style="stroke:#282828;stroke-width:0.106"><path d="M34.33,90.41L34.15,90.65L33.91,91.05L33.67,91.50L33.46,91.99L33.27,92.51L33.10,93.06L32.96,93.63L32.84,94.21L32.76,94.80L32.73,95.03"/></g><g style="stroke:#282828;stroke-width:0.353"><path d="M34.39,90.25L34.06,90.65L33.98,90.77L33.51,91.59L33.12,92.56L32.82,93.64L32.63,94.77L32.57,95.56"/></g></g><g id="Actor_.13"><g style="stroke:#282828;stroke-width:0.106"><path d="M46.52,122.43L61.61,124.79L61.40,127.26L61.41,129.64L61.65,131.84L62.11,133.76L62.76,135.34L63.59,136.52L64.55,137.24L65.62,137.49"/><path d="M61.61,124.79L62.04,122.32L62.67,119.95L63.48,117.78L64.43,115.88L65.50,114.33L66.62,113.19L67.77,112.50L68.90,112.29"/></g><g style="stroke:#282828;stroke-width:0.353"><path d="M52.48,110.33L51.56,110.86L50.43,112.00L49.36,113.54L48.40,115.44L47.59,117.60L46.95,119.97L46.52,122.43L46.38,124.12L46.31,124.89L46.33,127.27L46.58,129.46L46.65,129.76L47.04,131.38L47.70,132.95L48.54,134.13L49.52,134.85L50.59,135.10L65.62,137.49L66.75,137.26L67.89,136.55L69.01,135.40L70.06,133.84L71.00,131.95L71.80,129.79L72.42,127.44L72.80,125.25L72.85,124.99L73.06,122.55L73.05,120.19L72.82,118.00L72.37,116.08L71.73,114.50L70.92,113.31L69.96,112.56L68.90,112.29L66.01,111.84"/></g></g><g id="Actor_.14"><g style="stroke:#282828;stroke-width:0.106"><path d="M121.92,152.68L103.97,167.00"/><path d="M111.70,167.00L125.04,156.29"/><path d="M125.27,164.48L122.15,167.00"/><path d="M124.73,165.40L124.68,165.40"/></g><g style="stroke:#282828;stroke-width:0.353"><path d="M67.83,144.04L67.04,144.04L66.23,144.35L36.24,167.00"/><path d="M97.71,148.80L91.22,147.76"/><path d="M122.75,167.00L124.73,165.40L125.13,165.04L125.27,164.48L125.04,156.29L124.87,155.30L124.52,154.59L124.41,154.36L123.72,153.56L122.87,152.99L121.92,152.68L121.34,152.59"/></g></g><g id="Actor_.15"><g style="stroke:#282828;stroke-width:0.106"><path d="M295.14,139.66L293.25,138.94L292.64,135.41L292.61,135.25L293.87,132.30"/><path d="M293.38,138.62L295.07,139.27L294.54,138.78L295.49,136.54L295.01,133.74L293.71,133.24"/><path d="M293.94,132.69L295.63,133.35L296.19,136.64L295.07,139.27"/></g><g style="stroke:#282828;stroke-width:0.353"><path d="M292.50,137.21L292.16,135.25L293.42,132.30L293.87,132.30L295.76,133.04L296.39,136.72L295.14,139.67L294.69,139.66L292.80,138.93L292.50,137.21"/><path d="M293.38,138.62L292.82,135.33L293.94,132.69"/><path d="M293.33,138.32L294.54,138.78"/></g></g><g id="Actor_.16"><g style="stroke:#282828;stroke-width:0.106"><path d="M290.73,114.07L288.83,113.31L288.19,109.60L289.46,106.66"/><path d="M288.97,112.99L290.67,113.68L290.13,113.19L291.08,110.96L290.60,108.15L289.29,107.61"/><path d="M290.67,113.68L291.79,111.06L291.32,108.32L291.22,107.75L289.52,107.06"/></g><g style="stroke:#282828;stroke-width:0.353"><path d="M287.91,110.58L287.74,109.60L289.00,106.67L289.46,106.66L291.36,107.44L291.99,111.14L290.73,114.07L290.28,114.08L288.38,113.31L287.91,110.58"/><path d="M288.97,112.99L288.40,109.68L289.52,107.06"/><path d="M288.92,112.70L290.13,113.19"/></g></g><g id="Actor_.17"><g style="stroke:#282828;stroke-width:0.106"><path d="M238.21,98.46L238.97,101.12L243.58,102.86L251.35,103.43L261.12,102.71L271.35,100.82L280.44,98.05L286.96,94.84L289.00,106.67"/><path d="M243.70,102.13L242.49,95.31L239.50,98.29"/><path d="M242.49,95.31L248.71,92.31L257.20,89.74L266.72,87.98L275.84,87.29L283.21,87.77L287.72,89.37L288.65,91.85"/><path d="M286.96,94.84L289.95,91.68"/><path d="M293.42,132.30L290.28,114.08"/><path d="M297.00,153.09L294.69,139.66"/></g><g style="stroke:#282828;stroke-width:0.353"><path d="M240.94,113.80L238.21,98.46L241.36,95.32L247.91,92.17L256.85,89.46L265.50,87.86L266.86,87.61L276.46,86.88L284.22,87.39L288.97,89.07L289.95,91.68L297.00,132.72"/><path d="M239.50,98.29L240.23,100.81L244.60,102.47L252.00,103.01L261.27,102.33L270.98,100.53L279.61,97.90L285.81,94.85L288.65,91.85"/><path d="M242.65,123.39L241.14,114.90"/><path d="M250.41,167.00L249.35,161.05"/><path d="M249.28,160.67L249.31,160.82"/><path d="M288.19,112.50L287.71,111.54L287.80,110.26"/><path d="M288.56,107.70L287.90,108.75L287.87,109.30"/><path d="M289.41,113.73L288.75,113.64L288.63,113.41"/><path d="M292.61,138.13L292.14,137.18L292.22,135.90"/><path d="M292.98,133.33L292.33,134.39L292.29,134.95"/><path d="M293.82,139.33L293.16,139.26L293.05,139.03"/></g></g><g id="Actor_.18"><g style="stroke:#282828;stroke-width:0.106"><path d="M239.58,106.17L179.42,83.59"/><path d="M250.08,158.39L252.34,152.48L252.08,148.03L250.52,143.38L246.57,134.56L243.20,125.98L241.22,117.77L241.05,116.37L241.19,117.11L241.08,116.33"/><path d="M241.19,117.11L241.22,117.28"/><path d="M241.12,114.65L241.05,116.37"/><path d="M249.15,162.08L248.48,161.43"/><path d="M249.33,160.87L249.25,160.90"/><path d="M249.24,160.93L249.33,160.89"/><path d="M252.19,154.59L252.28,154.42"/></g><g style="stroke:#282828;stroke-width:0.353"><path d="M173.01,132.73L167.20,130.49"/><path d="M175.85,133.82L249.15,162.08L249.50,161.87"/><path d="M238.97,102.75L184.00,82.24"/><path d="M243.33,126.06L241.22,117.77"/><path d="M241.40,118.48L241.08,116.33L241.15,114.99"/><path d="M243.33,125.62L243.02,124.86"/><path d="M250.08,141.15L246.97,134.50L244.20,127.74"/><path d="M248.48,161.43L250.08,158.39"/><path d="M249.24,160.93L249.37,160.19"/><path d="M252.48,153.33L252.28,154.42L250.41,157.90L249.15,160.16"/><path d="M252.57,152.87L253.09,150.04L251.73,144.68L251.01,143.14"/></g></g><g id="Actor_.19"><g style="stroke:#282828;stroke-width:0.106"><path d="M133.60,122.93L133.59,122.94L137.25,123.34L133.60,122.93L133.62,122.75L129.89,121.83L127.09,120.17L126.08,118.27L126.59,117.50"/><path d="M136.79,132.68L137.16,132.65L137.38,132.22L131.89,131.63L133.59,122.94L132.08,122.70L128.48,121.39"/><path d="M139.49,92.83L139.53,92.67L135.74,91.75L132.91,90.09L131.87,88.20"/><path d="M133.62,122.75L140.62,123.51L140.57,123.01L141.57,123.12L141.57,123.81L137.25,123.34"/><path d="M147.38,93.76L147.55,93.56L139.53,92.67L141.26,83.83L136.37,82.42L133.70,80.00"/><path d="M137.16,132.65L139.65,132.92L139.88,132.49L145.14,131.30L150.51,128.55L151.75,127.96"/><path d="M137.38,132.22L139.88,132.49L141.57,123.81L142.63,123.59L143.28,122.74L143.07,122.68L142.79,122.45L142.33,122.98L141.62,123.13L141.57,123.12L140.04,119.76"/><path d="M143.16,81.83L143.24,80.61L140.63,79.46L137.94,79.72L137.63,79.14L137.52,80.76"/><path d="M137.63,79.14L140.73,78.85L143.71,80.17L143.61,81.79"/><path d="M139.31,132.95L139.65,132.92L140.24,132.96"/><path d="M140.62,123.51L139.33,120.65"/><path d="M139.44,120.54L140.57,123.01"/><path d="M143.28,122.74L146.04,108.58L145.77,108.38L142.79,122.45L140.40,117.21L143.11,114.38"/><path d="M140.40,117.21L140.64,116.79"/><path d="M141.26,83.83L145.79,84.34L145.47,83.65"/><path d="M142.75,132.65L145.55,131.77L150.84,129.58L151.47,129.36"/><path d="M142.43,77.20L142.62,77.60L146.56,79.57L147.44,81.41"/><path d="M142.62,77.60L142.79,76.73"/><path d="M143.98,76.75L144.57,76.87L145.75,77.47L146.73,78.14L147.45,78.86L146.55,76.97L144.57,76.87"/><path d="M145.24,132.01L151.00,130.03L151.35,129.93"/><path d="M155.02,126.64L155.76,126.38L158.22,126.09L160.35,126.50L159.29,123.59L158.78,118.94L159.18,113.36L151.44,110.45L146.76,108.81L146.04,108.58L148.76,95.08L148.25,94.85L145.77,108.38"/><path d="M167.86,131.76L164.19,129.46L162.32,123.64L162.58,115.17L160.85,114.51L160.17,113.74L159.18,113.36L160.42,107.34L162.51,100.94L163.76,97.96L165.29,94.81L161.66,92.71L157.84,89.45L154.04,86.15L151.92,84.73L150.70,84.18L149.36,83.86L145.82,83.46L145.79,84.34"/><path d="M145.79,84.32L149.33,84.72L150.12,84.89L151.30,85.46L153.20,87.09L156.43,91.17L159.66,95.09L163.76,97.96"/><path d="M145.82,83.46L145.70,82.49"/><path d="M145.86,82.37L149.22,82.75L149.36,83.86L149.38,84.24L149.33,84.72L148.20,90.43L147.55,93.56L148.49,94.03L148.76,95.08"/><path d="M146.53,93.61L146.37,93.65"/><path d="M165.29,94.81L166.71,92.27L168.46,89.54L166.06,88.60L157.96,85.28L156.46,84.68L153.11,83.44L149.60,82.49L149.14,82.43L146.33,82.12"/><path d="M146.43,76.86L146.55,76.97L150.30,77.17"/><path d="M147.88,80.84L148.00,80.02L149.14,82.43L149.22,82.75L153.83,84.50L157.88,87.10L161.96,89.82L164.24,91.14L166.71,92.27"/><path d="M148.00,80.02L147.92,79.68L147.45,78.86"/><path d="M153.57,77.49L157.06,77.65L159.70,76.32L158.68,76.53L158.29,76.78"/><path d="M156.61,128.38L154.53,128.99"/><path d="M154.69,128.21L156.07,127.72L161.18,127.71L161.99,128.47L162.39,128.67"/><path d="M168.46,89.54L172.04,85.14L175.65,82.17L160.15,76.36L160.02,76.44L157.45,77.74L154.33,77.65"/><path d="M160.09,75.95L160.07,75.86L160.16,75.50L160.44,74.83L160.01,74.66L159.73,74.58L159.43,75.24L159.41,75.63L159.68,75.91L159.63,75.82L159.61,75.71L159.63,75.55L159.51,75.44L159.44,75.33L159.43,75.24L159.47,75.25L159.70,75.33L159.63,75.55"/><path d="M159.95,76.01L159.68,75.91L159.55,75.99L159.54,75.97"/><path d="M160.15,76.36L160.16,76.27L159.87,76.28L159.70,76.32L161.47,75.39"/><path d="M160.74,75.69L160.16,75.50L159.70,75.33L160.01,74.66L160.23,74.24L160.61,73.22L160.23,73.36L160.19,73.38L159.81,74.40L160.23,74.24L160.70,74.41L160.44,74.83L161.74,75.30"/><path d="M159.73,74.58L159.81,74.40"/><path d="M159.43,75.24L159.30,75.33L159.26,75.50"/><path d="M160.35,126.50L161.18,127.71"/><path d="M161.73,127.52L159.93,121.91L160.17,113.74L162.44,104.29L166.38,95.01L171.37,87.37L176.64,82.54"/><path d="M162.46,128.80L160.59,122.98L160.85,114.51L163.20,104.69L167.29,95.06L172.47,87.13L177.94,82.12"/><path d="M164.83,74.39L165.13,74.92L162.76,75.10L160.16,76.27"/><path d="M160.70,74.41L162.68,75.01"/><path d="M160.18,73.39L160.19,73.38"/><path d="M160.89,72.91L161.04,72.77L161.18,72.82L161.02,72.96L160.89,72.91L160.61,73.22L160.32,73.22"/><path d="M160.72,72.79L161.04,72.77L165.92,69.85L163.56,68.70L163.24,68.90"/><path d="M161.02,72.96L164.19,74.29L164.44,74.43L164.76,74.87"/><path d="M161.18,72.82L172.25,71.69L173.04,71.71L173.74,71.97L174.36,73.24L173.94,76.16"/><path d="M162.58,115.17L164.94,105.35L169.03,95.72L174.21,87.78L179.67,82.77L184.56,81.43"/><path d="M163.56,68.70L165.39,67.61"/><path d="M164.43,69.73L165.29,70.15L165.92,69.85"/><path d="M168.10,131.05L168.41,130.95"/><path d="M167.74,68.27L169.96,66.94"/><path d="M174.32,68.57L172.25,71.69L171.52,74.02L173.44,76.89L177.58,79.65L181.26,81.21"/><path d="M173.62,75.06L173.77,74.31L174.16,73.55L175.86,70.98"/><path d="M175.65,82.17L179.34,80.85"/><path d="M184.33,82.15L184.99,82.61"/></g><g style="stroke:#282828;stroke-width:0.353"><path d="M137.38,132.22L131.89,131.63L131.20,131.54L126.70,130.02L124.40,127.63L126.11,118.42"/><path d="M126.52,117.33L126.27,117.59L126.08,118.27L126.31,119.48L128.47,121.39"/><path d="M150.52,77.20L150.75,77.22L150.30,77.17L146.43,76.86L143.98,76.75L142.79,76.73L142.65,76.74L142.43,77.20L139.01,77.05L137.30,77.08L135.81,77.35L134.65,77.82L133.70,80.00L131.87,88.20L131.88,88.39L132.91,90.27L135.72,91.91L139.49,92.83L146.53,93.61"/><path d="M136.49,132.13L136.68,132.56L136.79,132.68L139.31,132.95L140.24,132.96L140.68,132.95L141.16,132.92L141.69,132.85L142.75,132.65L145.24,132.01L145.17,132.02"/><path d="M137.52,80.76L140.51,82.08L143.61,81.79"/><path d="M137.85,80.91L137.94,79.72"/><path d="M140.24,132.96L140.98,132.75L142.35,132.28"/><path d="M140.73,116.70L140.51,116.66"/><path d="M140.64,116.79L143.11,114.38L144.30,111.33L145.26,107.39L145.93,103.19L146.27,98.70L146.10,93.56"/><path d="M143.17,114.22L142.96,114.53"/><path d="M150.36,130.30L148.12,131.09L145.24,132.01L145.25,132.00"/><path d="M145.47,83.65L145.70,82.49L145.87,82.37L147.32,81.56L147.88,80.85"/><path d="M148.25,94.85L147.43,93.77L146.37,93.65L146.34,93.59"/><path d="M151.33,130.04L149.86,130.43L149.88,130.42"/><path d="M157.06,77.65L150.75,77.22L152.07,77.36L154.32,77.65"/><path d="M152.19,77.37L153.55,77.49"/><path d="M163.03,129.15L159.12,128.57L156.66,128.78L154.47,129.28"/><path d="M161.99,128.47L156.61,128.38"/><path d="M158.29,76.78L156.70,77.63"/><path d="M164.98,74.88L164.06,74.84L162.60,75.02L161.47,75.39L158.68,76.53L158.12,76.87"/><path d="M159.49,128.62L158.78,128.60"/><path d="M160.89,72.91L160.51,72.98L160.19,73.38L159.30,75.34L159.26,75.50L159.29,75.70L159.55,75.99L159.64,76.14"/><path d="M165.29,70.15L160.72,72.79L160.62,72.96"/><path d="M161.73,127.52L162.46,128.80L166.14,131.10L167.86,131.77L169.33,131.31"/><path d="M161.96,73.16L161.18,72.82L163.82,74.07L164.83,74.40L161.96,73.16"/><path d="M168.10,131.05L164.53,128.81L162.72,123.16L162.97,114.93L165.26,105.39L169.24,96.03L174.27,88.32L179.57,83.45L184.33,82.15"/><path d="M165.16,67.75L163.24,68.90"/><path d="M165.18,67.74L165.39,67.61L167.74,68.27L169.96,66.94L174.32,68.57L175.52,69.53L175.86,70.98L174.92,77.52"/><path d="M178.15,79.88L174.58,77.28L172.91,74.35"/><path d="M173.77,74.31L173.69,75.67"/><path d="M173.70,75.73L173.62,75.06"/><path d="M176.64,82.54L177.94,82.12L182.84,80.78L184.56,81.43L187.73,83.63"/><path d="M181.27,81.21L178.02,79.83"/><path d="M179.34,80.85L181.22,81.22"/></g></g><g id="Actor_.20"><g style="stroke:#282828;stroke-width:0.106"><path d="M151.86,134.35L154.57,136.49L154.88,136.75"/><path d="M151.21,130.66L152.38,129.90L153.74,123.33"/><path d="M152.38,129.90L153.51,130.19L154.15,130.79"/><path d="M154.57,136.49L154.54,135.81L164.06,139.51L164.79,137.86L165.59,137.82"/><path d="M154.54,135.81L155.27,134.17L156.07,134.12"/><path d="M164.06,139.51L164.09,140.19L164.40,140.45"/><path d="M164.09,140.19L165.94,140.63L167.63,140.60L167.93,140.59L169.89,140.06L171.66,139.10L173.10,137.77L173.66,137.00L173.58,137.39"/><path d="M171.06,135.99L171.69,135.56L172.08,135.68L175.44,130.34"/><path d="M172.08,135.68L173.08,136.28L173.66,137.00"/></g><g style="stroke:#282828;stroke-width:0.353"><path d="M152.80,130.30L151.24,130.64L151.21,130.66L151.13,131.13L151.86,134.35L152.29,134.69L154.88,136.75L164.40,140.45L165.94,140.63L168.08,140.83L171.66,139.40L173.58,137.39L177.00,132.01L176.71,131.18L175.45,130.34L174.46,130.31L171.06,135.99L170.74,136.43L169.91,137.19L169.84,137.23"/><path d="M151.21,130.66L152.61,123.69L153.74,123.33L155.16,123.80L155.45,124.62L154.15,130.79L154.11,131.06L154.52,132.90L156.07,134.12L165.59,137.82L166.50,138.03L164.79,137.86"/><path d="M170.25,137.07L167.56,138.14L166.50,138.03L166.52,138.04"/><path d="M167.86,138.02L167.78,138.04L166.79,138.06"/></g></g><g id="Actor_.21"><g style="stroke:#282828;stroke-width:0.106"><path d="M140.97,63.43L141.95,64.65L142.28,62.93L141.56,62.43L141.30,61.72"/><path d="M141.69,61.46L141.64,61.47L141.45,61.75L141.70,62.42L142.37,62.89L142.42,62.86L142.57,62.60L141.96,62.17L141.94,61.69"/><path d="M141.74,61.53L141.75,61.54"/><path d="M142.08,64.83L141.95,64.65L144.44,65.18L145.95,64.50"/><path d="M142.51,62.05L142.66,62.15L142.57,62.60L144.13,63.03L145.53,62.87L145.82,62.40"/><path d="M144.48,62.55L144.22,62.58L142.66,62.15L142.65,62.09"/><path d="M146.02,62.33L146.16,62.59L146.14,62.75L145.95,63.03L145.32,63.32L144.72,63.39L144.38,63.39L143.33,63.24L142.37,62.89"/><path d="M142.28,62.93L143.30,63.30L144.42,63.46L144.78,63.46L145.42,63.38L145.85,63.19L146.09,63.08L146.29,62.78"/><path d="M151.50,14.30L142.20,61.91L145.20,62.55"/><path d="M147.20,9.54L148.20,10.51L149.68,11.40L149.23,13.68"/><path d="M149.68,11.40L149.72,11.28L149.77,11.21L146.94,8.67L148.33,6.54"/><path d="M160.29,9.31L159.14,11.10L155.14,11.49L150.61,10.27L149.39,9.54L148.19,7.94L148.93,6.60L151.36,5.93L151.38,5.94"/><path d="M157.91,7.19L157.62,7.19L153.50,6.07L149.84,6.43L148.78,8.06L150.95,10.00L150.61,10.27L149.77,11.21L151.59,11.94L153.45,12.41L153.62,12.45L155.69,12.72L157.64,12.71L159.29,12.44L160.53,11.91L161.25,11.18L161.39,10.30L160.95,9.35L159.95,8.40"/><path d="M159.50,8.58L159.84,9.31L159.75,9.86L159.73,9.98L159.18,10.54L158.23,10.94L156.96,11.15L155.48,11.16L153.89,10.95L152.34,10.56L150.95,10.00"/><path d="M155.06,9.37L155.20,8.66L155.86,8.55L155.53,8.28L155.06,8.05L154.50,7.89L153.90,7.81L153.36,7.82L152.93,7.93L152.66,8.12L152.59,8.36L152.73,8.63L152.88,8.72L152.87,8.76"/><path d="M152.93,7.93L153.51,8.30L153.36,9.05"/><path d="M152.88,8.72L153.00,8.77"/><path d="M153.73,9.19L153.90,8.29L153.73,8.46L153.51,8.30"/><path d="M153.90,8.29L154.50,7.89L154.86,8.49L154.68,9.38"/><path d="M155.20,8.66L154.94,8.72L154.81,9.37"/><path d="M154.86,8.49L154.94,8.72"/><path d="M154.70,6.15L154.68,6.15"/><path d="M155.53,9.29L155.53,9.28L155.42,9.29"/><path d="M155.53,9.28L155.66,9.26L155.92,9.07L155.99,8.82L155.86,8.55"/><path d="M158.74,7.85L157.62,7.19"/></g><g style="stroke:#282828;stroke-width:0.353"><path d="M141.64,61.38L141.51,61.42L141.30,61.72L140.97,63.43L141.22,63.77L142.08,64.83L144.27,65.30L145.60,64.70L145.95,64.50L146.29,62.78L145.98,62.92"/><path d="M141.43,60.96L141.03,60.46L141.74,61.53L142.20,61.91L141.43,60.96"/><path d="M141.69,61.46L141.64,61.47"/><path d="M141.03,60.46L150.10,13.92"/><path d="M142.28,62.93L142.88,63.06"/><path d="M145.20,62.55L145.98,62.36L147.02,61.73L145.20,62.55L144.95,62.56L144.32,62.55L142.46,62.03L142.20,61.91"/><path d="M144.38,63.39L144.42,63.39L144.78,63.46L145.06,63.34L145.32,63.32"/><path d="M145.06,63.34L144.91,63.35"/><path d="M144.60,63.37L144.42,63.39"/><path d="M146.13,62.27L146.31,62.61L146.29,62.78L146.15,62.61L146.12,62.68"/><path d="M146.11,62.55L146.13,62.58"/><path d="M145.99,62.35L146.08,62.57"/><path d="M145.95,63.03L146.06,62.80"/><path d="M146.15,62.61L146.16,62.59"/><path d="M147.02,61.73L156.18,15.02"/><path d="M147.19,9.53L147.20,9.54L146.79,8.52L146.88,7.90L146.37,11.10L149.23,13.68L154.71,15.17L159.57,14.68L160.95,12.51L161.17,11.40"/><path d="M146.88,7.90L146.91,7.69L146.97,7.59L147.72,6.86L148.33,6.54L149.63,6.28L148.96,6.33L148.33,6.54"/><path d="M149.68,11.39L151.97,12.17L153.87,12.60L155.16,12.88L157.86,12.81L160.02,12.40L160.57,11.98L161.32,11.26L161.44,10.36L161.38,10.12L160.92,9.30L159.95,8.40L157.91,7.19L156.39,6.58L154.70,6.15L151.36,5.93L149.63,6.28"/><path d="M152.73,8.63L153.05,8.90L153.52,9.13L154.09,9.30L154.68,9.38L155.22,9.36L155.66,9.26"/><path d="M152.93,7.93L152.93,8.54L153.00,8.77L152.98,8.85"/><path d="M155.86,8.55L155.58,9.10L155.42,9.29L155.41,9.32"/><path d="M157.91,7.19L158.74,7.85L159.50,8.58L160.29,9.31"/><path d="M158.49,7.53L158.48,7.53"/></g></g><g id="Actor_.22"><g style="stroke:#282828;stroke-width:0.106"><path d="M122.36,136.89L125.58,139.55L131.03,140.80L132.94,140.71L134.55,140.34L135.75,139.71L136.42,138.87"/><path d="M130.59,140.91L130.98,140.90L131.00,140.88L131.03,140.80L131.46,138.63L126.01,137.38L122.78,134.72"/><path d="M127.62,134.75L129.20,134.26L129.10,133.45L126.93,134.12L127.62,135.63"/><path d="M128.86,136.00L129.20,134.26L131.29,134.87L131.80,135.98"/><path d="M129.10,133.45L131.95,134.29L132.64,135.81L130.48,136.48"/><path d="M130.98,140.90L132.86,140.82"/><path d="M131.46,138.63L132.93,138.59L134.25,138.39L135.37,138.02"/><path d="M132.16,140.85L132.17,140.84"/><path d="M136.70,137.60L135.11,139.33"/></g><g style="stroke:#282828;stroke-width:0.353"><path d="M130.98,140.90L128.21,140.50L125.60,139.67L125.16,139.44L123.46,138.33L122.38,136.99L122.36,136.89L122.78,134.72L123.67,132.21L128.12,131.32L129.67,131.46L130.50,131.62L131.22,131.76L132.70,132.21L135.37,138.02L135.11,139.33"/><path d="M122.36,136.89L122.27,135.60L122.72,135.03"/><path d="M125.60,139.67L126.09,139.89L126.78,140.04"/><path d="M128.08,135.77L127.62,134.75"/><path d="M127.62,135.63L130.48,136.48"/><path d="M129.72,140.72L130.59,140.91L132.86,140.82L134.45,140.45L134.51,140.43L135.69,139.80L136.36,138.96L136.42,138.87L136.70,137.60L135.69,135.40L133.61,134.19"/><path d="M130.34,136.44L131.80,135.98"/></g></g><g><g><path style="stroke:#000000;stroke-width:0.500;stroke-opacity:0.50;fill:#ff0000;fill-opacity:0.502" d="M139.85,68.81L136.82,68.15L140.45,80.72L148.94,70.79L145.91,70.13L146.89,65.59L140.83,64.27z"/></g></g><g/><g><g/><g><path style="stroke:#000000;stroke-width:0.250;fill:#ffffff" d="M283.63,156.86L292.71,156.86L292.71,163.07L283.63,163.07z"/><text xml:space="preserve" fill="#000000" stroke-width="0" x="284.41" y="161.13" font-size="3.66" opacity="1.00" font-family="MS Shell Dlg">Next</text></g></g><g><g/><g><path style="stroke:#000000;stroke-width:0.250;fill:#ffffff" d="M4.53,157.80L14.24,157.80L14.24,164.01L4.53,164.01z"/><text xml:space="preserve" fill="#000000" stroke-width="0" x="5.30" y="162.07" font-size="3.67" opacity="1.00" font-family="MS Shell Dlg">Back</text></g></g><g><g/><g><path style="stroke:#000000;stroke-width:0.250;fill:#ffffff" d="M4.01,7.12L191.06,7.12L191.06,19.96L4.01,19.96z"/><text xml:space="preserve" fill="#000000" stroke-width="0" x="5.00" y="12.55" font-size="4.83" opacity="1.00" font-family="MS Shell Dlg">Insert Hinge Spindle from the upper side. It may be necessary to rock the hinge slightly</text><text xml:space="preserve" fill="#000000" stroke-width="0" x="5.00" y="17.49" font-size="4.84" opacity="1.00" font-family="MS Shell Dlg"> to allow the spindle to slide home, use a small mallet if it remains stuck .</text></g></g><g id="paperID" visibility="hidden" opacity="0.00" transform="scale(0.000100)"><path style="stroke:#000000;stroke-width:0.500;fill:#e6e6e6;fill-rule:evenodd" d="M-2000.00,-2000.00L2297.00,-2000.00L2297.00,2167.00L-2000.00,2167.00zM0.00,0.00L297.00,0.00L297.00,167.00L0.00,167.00z"/><path style="fill:#000000;fill-opacity:0.118" d="M3.00,167.00L297.00,167.00L297.00,3.00L300.00,3.00L300.00,170.00L3.00,170.00z"/></g><g id="hotspot.0" ident="" onmouseover="ShowHotSpot(evt,&apos;0&apos;)" onmouseout="HideHotSpot(evt,&apos;0&apos;)" onmousemove="ShowToolTip(evt,&apos;0&apos;,&quot;2D Text 1&quot;)" opacity="0"><a xlink:href="v6.svg"><path style="fill:#00ff00;fill-rule:evenodd" d="M293.03,156.65L293.04,163.43L283.44,163.34L283.35,156.64z"/></a></g><g id="ToolTip" visibility="hidden" opacity="0" transform="translate(0,0)"><rect id="ToolTipShadow" opacity="0.20" fill="black" stroke="none" x="0" y="0" width="30" height="8"/><rect id="ToolTipBG" fill="#ffffe1" stroke="black" x="0" y="0" width="30" height="8"/><text xml:space="preserve" id="ToolTipText" fill="black" x="0" y="0" width="30" height="8">tooltip</text></g></g></svg>