<?xml version="1.0" encoding="UTF-8" standalone="yes"?><svg xmlns="http://www.w3.org/2000/svg" xmlns:xlink="http://www.w3.org/1999/xlink" width="297.000mm" height="167.000mm" viewBox="0.000000 0.000000 297.000000 167.000000" stroke-linejoin="round" stroke-linecap="round" fill="none" fill-rule="evenodd"><desc>Composer Export</desc><script type="text/ecmascript"><![CDATA[
if(typeof(top) != "undefined")
{
	top.ShowPaper = ShowPaper;
}
function ShowHotSpot(evt,hotspotid)
{
	var svgDocument = evt.target.ownerDocument;
	var strId = "hotspot."+hotspotid;
	var hotspot = svgDocument.getElementById(strId);
	if(hotspot)
		hotspot.setAttribute("opacity",".5");
}
function HideHotSpot(evt,hotspotid)
{
	var svgDocument = evt.target.ownerDocument;
	var strId = "hotspot."+hotspotid;
	var hotspot = svgDocument.getElementById(strId);
	if(hotspot)
		hotspot.setAttribute("opacity","0");

	var toolTip = svgDocument.getElementById('ToolTip');
	if(toolTip)
		toolTip.setAttribute("visibility","hidden");
}
function ShowToolTip(evt,hotspotid,strTooltip)
{
	if(strTooltip=="")
	return;

	// change text
	var svgDocument = evt.target.ownerDocument;
	var tiptext = svgDocument.getElementById('ToolTipText');
	if( !tiptext )
	return;
	tiptext.firstChild.nodeValue = " " + strTooltip + "  " ;

	// show tooltip before, else some refresh issue

	var toolTip = svgDocument.getElementById('ToolTip');
	if(!toolTip)
	return;

	toolTip.setAttribute("visibility","visible");
	toolTip.setAttribute("opacity",".95");

	// move tooltip
	// get viewbox

	var root = svgDocument.documentElement;
	var vbox = (root.getAttribute("viewBox")).split(' ');
	var x0 = parseFloat(vbox[0]);
	var y0 = parseFloat(vbox[1]);
	var vboxW = parseFloat(vbox[2]);
	var vboxH = parseFloat(vbox[3]);

	// get default width of svg

	var strW = root.getAttribute("width");
	var svgW = parseFloat(strW);
	if(strW.indexOf('mm') != -1)
	svgW *= 3.779;

	var strH = root.getAttribute("height");
	var svgH = parseFloat(strH);
	if(strH.indexOf('mm') != -1)
	svgH *= 3.779;  	// 96 dpi  -> 96/25.4 = 3.779

	// update the viewbox / width / height if svg is embedded in html with zoom fit all
	var realx0 = x0;
	var realy0 = y0;
	var realvboxW = vboxW;
	var realvboxH = vboxH;
	var realsvgW = svgW;
	var realsvgH = svgH;

	if ((typeof(top) == "undefined") || (typeof(top.svgctl1) != "undefined")) // embedded in html
	{
		// get window size in pxl

		svgW = window.innerWidth;
		svgH = window.innerHeight;

		// calculate real viewbox

		realsvgW = svgW;
		realsvgH = svgH;
		if((svgW / svgH) > (vboxW / vboxH))
		{
			realvboxW = (vboxH * svgW) / svgH;
			realvboxH = vboxH;
			realx0 = x0 - (realvboxW - vboxW)/2 ;
		}
		else
		{
			realvboxH = (vboxW * svgH) / svgW;
			realvboxW = vboxW;
			realy0 = y0 - (realvboxH - vboxH)/2 ;
		}
	}

	// get user zoom/pan

	var newScale = root.currentScale;
	var translation = root.currentTranslate;

	// transform pxl to user unit

	var xPos = (((evt.clientX+10- translation.x)/newScale) * realvboxW)/realsvgW  + realx0 ;
	var yPos = (((evt.clientY+5- translation.y)/newScale) * realvboxH)/ realsvgH  + realy0 ;
	var scaleForWidth = ( (1 / newScale) * realvboxH) / realsvgH;

	// move tooltip

	toolTip.setAttribute("transform", "translate(" + xPos + "," + yPos + ")" );

	// resize tooltip

	var fontsize = 12;
	tiptext.setAttribute("font-size",fontsize*scaleForWidth);
	tiptext.setAttribute("y", fontsize*scaleForWidth);
	var tipBG = svgDocument.getElementById('ToolTipBG');
	var outline = tiptext.getBBox();
	if(tipBG)
	{
		tipBG.setAttribute("stroke-width", 1*scaleForWidth);
		tipBG.setAttribute("width", Number(outline.width) );
		tipBG.setAttribute("height", Number(outline.height) + fontsize*.5*scaleForWidth );
	}
	var ToolTipShadow = svgDocument.getElementById('ToolTipShadow');
	if(ToolTipShadow)
	{
		ToolTipShadow.setAttribute("width", Number(outline.width) );
		ToolTipShadow.setAttribute("height", Number(outline.height) + fontsize*.5*scaleForWidth );
		ToolTipShadow.setAttribute("x", 3*scaleForWidth);
		ToolTipShadow.setAttribute("y", 3*scaleForWidth);
	}
}
function ShowPaper()
{
  var svgDocument = getDocument();
  var paper = svgDocument.getElementById("paperID");
  if(paper)
  {
    paper.setAttribute("transform","scale(1)");
    paper.setAttribute("opacity","1");
    paper.setAttribute("visibility","visible");
  }
  var svg = svgDocument.getRootElement();
  if(svg)
  {
    svg.setAttribute("width","307.000mm");
    svg.setAttribute("height","177.000mm");
    svg.setAttribute("viewBox","-5.000000 -5.000000 307.000000 177.000000");
  }
}
]]></script><defs><mask id="mask0" x="0" y="0" height="100%" width="100%"><image x="196.102295" y="23.187279" height="96.672577" width="96.672577" xlink:href="DEMO FFF SVG_files/93c2a15c6c356171_mask_0.jpg"/></mask></defs><g><path style="fill:#ffffff" d="M1.12,56.32L16.00,59.86L38.42,66.82L38.37,67.00L36.30,68.97L34.30,71.76L32.55,74.98L31.68,77.02L31.42,77.34L31.23,77.63L31.13,77.70L30.64,78.83L30.21,80.38L30.13,80.86L30.13,81.16L30.05,81.26L29.97,81.98L29.68,82.99L28.95,86.46L28.53,88.69L28.14,92.05L27.98,94.94L27.98,98.79L28.05,100.70L28.14,102.47L28.21,104.38L28.30,106.31L28.37,108.06L28.46,110.00L28.53,111.91L28.62,113.68L28.69,115.59L28.78,117.52L28.85,119.43L28.94,121.20L29.01,123.11L29.10,125.04L29.18,126.80L29.26,128.73L29.34,130.64L29.42,132.41L29.50,134.32L29.58,136.25L29.66,138.00L29.74,139.93L29.82,141.85L29.90,143.78L29.98,145.53L30.06,147.46L30.14,149.37L30.22,151.14L30.20,152.53L29.96,152.62L28.98,152.45L27.79,152.51L26.63,153.59L25.56,155.72L25.33,156.74L25.10,158.02L25.02,159.79L16.12,166.45L15.53,166.96L0.05,166.94L0.03,56.19z"/><path style="fill:#c8cfee" d="M16.65,166.96L15.53,166.96L16.12,166.45L25.02,159.79L25.29,159.66L30.42,155.74L31.58,155.02L62.75,131.80L63.89,130.94L65.17,130.84z"/><path style="fill:#4c4c4c" d="M75.89,129.71L76.85,129.88L79.20,130.22L81.60,130.86L85.92,132.46L87.91,133.54L88.38,133.80L88.81,134.07L88.71,134.46L46.70,166.45L46.11,166.96L16.65,166.96L65.17,130.84L66.01,130.37L66.78,130.21L68.84,129.81L70.76,129.65L72.84,129.56z"/><path style="fill:#c8cfee" d="M94.41,135.34L94.94,135.57L54.70,166.45L54.12,166.96L46.11,166.96L46.70,166.45L88.71,134.46z"/><path style="fill:#4c4c4c" d="M106.47,134.52L109.04,134.93L112.50,135.82L116.88,137.58L116.13,137.74L114.96,140.89L114.75,141.04L114.75,142.08L114.83,142.18L114.76,142.48L114.52,142.54L83.41,166.96L54.12,166.96L54.70,166.45L94.94,135.57L95.76,135.11L97.02,134.85L98.15,134.61L99.26,134.45L101.50,134.29L103.27,134.29L105.02,134.36z"/><path style="fill:#c0c0c0" d="M0.63,5.80L1.28,5.89L27.38,11.72L28.44,11.90L56.62,20.23L68.94,24.56L126.01,45.81L126.42,45.90L126.49,45.83L127.60,45.59L128.09,45.59L129.31,46.00L130.10,46.49L132.41,48.15L132.01,48.10L131.97,48.27L132.89,48.48L139.93,50.63L145.37,51.59L150.66,51.68L152.36,51.50L153.54,51.27L154.97,50.95L155.15,50.88L156.84,50.53L161.05,49.43L162.03,49.43L166.13,50.96L166.46,51.29L166.72,51.30L167.11,51.13L171.26,52.73L172.38,53.52L172.62,53.80L172.72,54.27L172.88,55.55L172.07,61.16L172.00,61.22L172.08,61.64L172.91,62.24L173.04,62.28L173.19,62.50L175.26,63.94L178.03,65.04L178.52,65.04L179.90,64.72L181.18,65.22L183.64,66.73L184.38,67.30L234.81,86.03L235.78,86.27L235.81,85.99L235.78,85.55L235.71,85.49L235.48,84.21L235.46,83.79L235.39,83.74L235.32,83.25L235.30,82.83L235.23,82.77L235.07,82.02L238.12,78.98L244.85,75.78L253.76,73.13L262.41,71.53L263.42,71.30L272.81,70.57L274.26,70.57L281.25,70.98L285.88,72.59L286.69,74.50L287.09,76.37L287.19,76.84L287.26,77.33L287.35,77.80L287.42,78.30L287.51,78.77L287.58,79.26L287.67,79.73L287.74,80.22L287.83,80.68L287.90,81.02L287.99,81.49L288.06,81.98L288.15,82.45L288.22,82.94L288.31,83.41L288.38,83.90L288.47,84.37L288.54,84.86L288.63,85.34L288.86,86.62L288.95,87.09L289.02,87.58L289.11,88.05L289.18,88.54L289.27,89.01L289.34,89.50L289.43,89.97L289.50,90.46L289.59,90.93L289.66,91.27L289.75,91.73L289.82,92.22L289.91,92.69L289.98,93.18L290.07,93.65L290.14,94.15L290.23,94.62L290.30,95.11L290.39,95.58L290.62,96.87L290.71,97.34L290.78,97.83L290.87,98.30L290.94,98.79L291.03,99.26L291.10,99.75L291.19,100.22L291.26,100.71L291.35,101.18L291.42,101.51L291.51,101.98L291.58,102.47L291.67,102.94L291.74,103.43L291.83,103.90L291.90,104.39L291.99,104.86L292.06,105.35L292.15,105.83L292.38,107.11L292.47,107.58L292.54,108.07L292.63,108.54L292.70,109.03L292.79,109.50L292.86,110.00L292.95,110.47L293.02,110.96L293.11,111.42L293.18,111.76L293.27,112.23L293.34,112.72L293.43,113.19L293.50,113.68L293.59,114.15L293.66,114.64L293.75,115.11L293.82,115.60L293.91,116.08L294.14,117.36L294.23,117.83L294.30,118.32L294.39,118.79L294.46,119.28L294.55,119.75L294.62,120.24L294.71,120.71L294.78,121.20L294.87,121.67L294.94,122.01L295.03,122.47L295.10,122.96L295.19,123.43L295.26,123.92L295.35,124.39L295.42,124.89L295.51,125.36L295.58,125.85L295.67,126.32L295.90,127.61L295.99,128.08L296.06,128.57L296.15,129.04L296.22,129.53L296.31,130.00L296.38,130.49L296.47,130.96L296.54,131.45L296.63,131.91L296.70,132.25L296.79,132.72L296.87,133.22L296.96,133.69L296.94,166.94L250.25,166.95L250.12,166.51L250.04,166.02L250.03,165.60L249.95,165.55L249.88,165.06L249.87,164.65L249.79,164.59L249.72,164.26L249.71,163.84L249.63,163.79L249.56,163.30L249.55,162.88L249.48,162.82L249.25,161.54L249.23,161.12L249.15,161.07L249.08,160.58L249.07,160.16L248.99,160.11L248.92,159.77L248.91,159.36L248.83,159.31L248.76,158.82L248.75,158.40L248.68,158.34L248.45,157.06L248.43,156.64L248.35,156.59L248.28,156.09L248.27,155.68L248.19,155.63L248.12,155.29L248.11,154.88L248.03,154.82L247.96,154.33L247.95,153.92L247.87,153.86L247.80,153.37L247.79,152.96L247.71,152.91L247.64,152.57L247.63,152.16L247.55,152.10L247.48,151.61L247.47,151.19L247.40,151.13L247.17,149.85L247.15,149.43L247.07,149.38L247.00,148.89L246.99,148.47L246.91,148.42L246.84,148.09L246.83,147.67L246.75,147.62L246.68,147.13L246.67,146.71L246.60,146.65L246.35,145.77L245.86,145.77L172.80,117.87L171.02,120.59L169.92,121.89L168.79,123.16L165.24,124.60L164.26,124.60L162.50,124.44L161.38,124.28L157.48,122.86L151.74,120.60L148.80,118.25L148.38,116.40L148.37,115.97L148.29,115.91L148.19,115.64L148.14,114.64L148.22,114.04L148.06,114.13L143.99,115.49L140.63,116.45L138.17,116.91L135.92,116.91L134.48,116.75L133.62,116.61L133.53,116.27L133.97,116.12L133.36,116.10L129.85,115.72L129.04,115.63L128.02,115.50L124.89,114.50L123.71,114.04L121.46,111.81L121.38,111.44L123.00,102.80L123.17,101.55L123.40,101.29L123.22,100.76L121.80,97.67L121.78,97.56L121.19,97.54L118.58,96.92L114.96,95.70L114.47,95.70L113.74,95.96L112.81,95.96L110.91,95.14L107.72,93.05L69.35,78.29L69.15,78.17L51.82,71.46L50.46,70.96L45.95,69.13L45.89,68.89L45.60,69.00L45.19,68.75L38.42,66.82L16.00,59.86L1.12,56.32L0.03,56.19L0.02,5.61z"/><path style="fill:#7f7f7f" d="M45.19,68.75L45.60,69.00L45.95,69.13L50.46,70.96L50.38,71.19L49.36,71.29L48.45,71.66L46.95,73.05L45.68,74.82L44.29,77.91L43.28,81.55L42.85,84.96L42.85,88.75L43.01,90.35L43.33,91.80L43.97,93.72L44.95,95.30L45.74,95.95L47.07,96.42L49.64,96.83L49.77,96.99L49.25,97.29L47.83,98.58L46.38,100.97L45.20,103.64L44.29,107.21L43.76,111.32L43.97,115.17L44.13,116.29L44.45,117.57L45.09,119.34L46.07,120.76L47.00,121.42L49.15,121.87L57.32,123.15L61.48,123.79L62.27,123.96L62.32,124.22L62.40,126.49L62.48,128.56L62.56,130.65L62.75,131.80L31.58,155.02L30.42,155.74L30.38,154.98L30.37,153.10L30.31,153.04L29.96,152.62L30.20,152.53L30.22,151.14L30.20,149.43L30.14,149.37L30.06,147.46L30.04,145.59L29.98,145.53L29.90,143.78L29.88,141.90L29.82,141.85L29.74,139.93L29.72,138.06L29.66,138.00L29.58,136.25L29.56,134.38L29.50,134.32L29.42,132.41L29.40,130.70L29.34,130.64L29.26,128.73L29.24,126.86L29.18,126.80L29.10,125.04L29.08,123.17L29.01,123.11L28.94,121.20L28.92,119.49L28.85,119.43L28.78,117.52L28.76,115.65L28.69,115.59L28.62,113.68L28.60,111.97L28.53,111.91L28.46,110.00L28.44,108.12L28.37,108.06L28.30,106.31L28.28,104.44L28.21,104.38L28.14,102.47L28.12,100.76L28.05,100.70L27.98,98.79L27.98,94.94L28.14,92.05L28.53,88.69L28.95,86.46L29.68,82.99L29.97,81.98L30.21,81.23L30.13,81.16L30.13,80.86L30.38,80.96L30.39,80.71L31.30,78.02L31.31,77.70L31.23,77.63L31.42,77.34L31.69,77.16L31.68,77.02L32.55,74.98L34.30,71.76L36.30,68.97L38.37,67.00L38.42,66.82z"/><path style="fill:#ffffff" d="M0.02,5.61L0.05,0.05L296.94,0.05L296.96,133.21L296.87,133.22L296.79,132.72L296.78,132.30L296.70,132.25L296.63,131.91L296.62,131.50L296.54,131.45L296.47,130.96L296.46,130.54L296.38,130.49L296.31,130.00L296.30,129.58L296.22,129.53L296.15,129.04L296.14,128.62L296.06,128.57L295.99,128.08L295.97,127.66L295.90,127.61L295.67,126.32L295.66,125.90L295.58,125.85L295.51,125.36L295.50,124.94L295.42,124.89L295.35,124.39L295.34,123.98L295.26,123.92L295.19,123.43L295.18,123.02L295.10,122.96L295.03,122.47L295.02,122.06L294.94,122.01L294.87,121.67L294.86,121.26L294.78,121.20L294.71,120.71L294.70,120.29L294.62,120.24L294.55,119.75L294.54,119.33L294.46,119.28L294.39,118.79L294.38,118.37L294.30,118.32L294.23,117.83L294.21,117.41L294.14,117.36L293.91,116.08L293.90,115.65L293.82,115.60L293.75,115.11L293.74,114.69L293.66,114.64L293.59,114.15L293.58,113.73L293.50,113.68L293.43,113.19L293.42,112.77L293.34,112.72L293.27,112.23L293.26,111.81L293.18,111.76L293.11,111.42L293.09,111.01L293.02,110.96L292.95,110.47L292.93,110.05L292.86,110.00L292.79,109.50L292.77,109.09L292.70,109.03L292.63,108.54L292.61,108.13L292.54,108.07L292.47,107.58L292.45,107.17L292.38,107.11L292.15,105.83L292.13,105.40L292.06,105.35L291.99,104.86L291.97,104.44L291.90,104.39L291.83,103.90L291.81,103.48L291.74,103.43L291.67,102.94L291.65,102.52L291.58,102.47L291.51,101.98L291.50,101.56L291.42,101.51L291.35,101.18L291.33,100.76L291.26,100.71L291.19,100.22L291.17,99.80L291.10,99.75L291.03,99.26L291.01,98.84L290.94,98.79L290.87,98.30L290.85,97.88L290.78,97.83L290.71,97.34L290.69,96.92L290.62,96.87L290.39,95.58L290.37,95.16L290.30,95.11L290.23,94.62L290.21,94.20L290.14,94.15L290.07,93.65L290.05,93.24L289.98,93.18L289.91,92.69L289.89,92.28L289.82,92.22L289.75,91.73L289.74,91.32L289.66,91.27L289.59,90.93L289.57,90.52L289.50,90.46L289.43,89.97L289.41,89.55L289.34,89.50L289.27,89.01L289.25,88.59L289.18,88.54L289.11,88.05L289.09,87.63L289.02,87.58L288.95,87.09L288.93,86.67L288.86,86.62L288.63,85.34L288.61,84.91L288.54,84.86L288.47,84.37L288.45,83.95L288.38,83.90L288.31,83.41L288.29,82.99L288.22,82.94L288.15,82.45L288.13,82.03L288.06,81.98L287.99,81.49L287.97,81.07L287.90,81.02L287.83,80.68L287.81,80.27L287.74,80.22L287.67,79.73L287.65,79.31L287.58,79.26L287.51,78.77L287.49,78.35L287.42,78.30L287.35,77.80L287.33,77.39L287.26,77.33L287.19,76.84L287.17,76.43L287.09,76.37L286.69,74.50L285.88,72.59L281.25,70.98L274.26,70.57L272.81,70.57L263.42,71.30L262.41,71.53L253.76,73.13L244.85,75.78L238.12,78.98L235.07,82.02L235.23,82.77L235.32,83.25L235.39,83.74L235.48,84.21L235.71,85.49L235.81,85.99L235.78,86.27L234.81,86.03L184.38,67.30L183.64,66.73L183.74,63.94L183.59,61.69L181.69,57.82L181.18,57.53L180.39,53.36L179.60,52.39L178.46,51.12L178.46,50.06L180.06,39.01L179.91,36.39L178.81,34.61L177.18,33.51L176.54,33.36L175.04,33.35L168.17,37.37L167.52,38.96L166.45,46.23L164.36,45.84L162.23,46.15L157.59,48.24L156.32,49.05L155.49,49.99L155.15,50.88L154.97,50.95L153.54,51.27L152.36,51.50L150.66,51.68L145.37,51.59L139.93,50.63L132.89,48.48L132.69,48.25L132.41,48.15L130.10,46.49L129.31,46.00L128.09,45.59L127.60,45.59L126.49,45.83L126.01,45.81L68.94,24.56L56.62,20.23L28.44,11.90L27.38,11.72L1.28,5.89L0.63,5.80z"/><path style="fill:#ffffff" d="M107.72,93.05L110.91,95.14L112.81,95.96L113.74,95.96L114.47,95.70L114.96,95.70L118.58,96.92L121.19,97.54L121.80,97.67L123.22,100.76L123.40,101.29L123.17,101.55L123.00,102.80L121.38,111.44L121.46,111.81L123.71,114.04L124.89,114.50L124.97,114.85L125.94,116.13L127.92,116.53L128.46,116.46L129.65,115.87L129.69,115.79L129.85,115.72L133.36,116.10L133.53,116.27L133.62,116.61L134.48,116.75L135.92,116.91L138.17,116.91L140.63,116.45L143.99,115.49L148.06,114.13L148.14,114.64L148.19,115.64L148.29,115.91L148.38,116.40L148.80,118.25L151.74,120.60L157.48,122.86L161.38,124.28L162.50,124.44L164.26,124.60L165.24,124.60L168.79,123.16L169.92,121.89L171.02,120.59L172.80,117.87L245.86,145.77L246.35,145.77L246.60,146.65L246.68,147.13L246.75,147.62L246.84,148.09L246.91,148.42L247.00,148.89L247.07,149.38L247.17,149.85L247.40,151.13L247.48,151.61L247.55,152.10L247.64,152.57L247.71,152.91L247.80,153.37L247.87,153.86L247.96,154.33L248.03,154.82L248.12,155.29L248.19,155.63L248.28,156.09L248.35,156.59L248.45,157.06L248.68,158.34L248.76,158.82L248.83,159.31L248.92,159.77L248.99,160.11L249.08,160.58L249.15,161.07L249.25,161.54L249.48,162.82L249.56,163.30L249.63,163.79L249.72,164.26L249.79,164.59L249.88,165.06L249.95,165.55L250.04,166.02L250.12,166.51L250.08,166.95L124.08,166.96L124.02,165.28L123.96,165.22L123.88,162.35L123.86,159.36L123.80,159.30L123.72,156.42L123.70,153.59L123.64,153.53L123.56,150.66L123.54,147.83L123.48,147.77L123.43,146.53L123.60,146.45L125.37,146.37L127.18,145.91L128.17,145.30L128.83,144.52L129.16,143.02L128.04,140.78L126.12,139.65L125.16,137.73L123.87,137.26L121.67,136.92L120.88,136.85L120.40,136.85L116.88,137.58L112.50,135.82L109.04,134.93L106.47,134.52L105.02,134.36L103.27,134.29L101.50,134.29L99.26,134.45L98.15,134.61L97.02,134.85L95.89,134.84L88.41,133.68L87.91,133.54L85.92,132.46L81.60,130.86L79.20,130.22L76.85,129.88L75.89,129.71L72.84,129.56L70.76,129.65L68.84,129.81L66.78,130.21L65.16,130.29L64.72,130.37L63.89,130.94L62.75,131.80L62.56,130.65L62.54,128.62L62.48,128.56L62.40,126.49L62.38,124.29L62.32,124.22L62.27,123.96L62.92,124.05L64.41,123.81L65.52,123.00L66.82,121.58L68.10,119.49L69.11,117.14L69.91,114.42L70.00,113.67L70.41,111.27L70.57,109.34L70.57,106.63L70.55,106.04L70.48,105.98L70.41,105.19L70.39,104.60L70.32,104.54L69.91,102.52L68.79,100.28L67.83,99.32L67.35,99.00L65.65,98.66L64.03,98.43L63.90,98.19L64.56,97.70L65.84,96.42L67.51,93.61L68.47,91.04L69.04,88.70L69.36,86.94L69.61,84.69L69.61,81.02L69.58,80.11L69.52,80.05L69.28,78.61L69.35,78.29z"/><path style="fill:#000020" d="M87.91,133.54L88.41,133.68L88.38,133.80z"/><path style="fill:#000020" d="M25.29,159.66L25.02,159.79L25.10,158.02z"/><path style="fill:#c8cfee" d="M115.71,143.65L117.00,144.61L118.26,145.27L120.57,146.03L121.03,146.14L122.49,146.36L122.64,146.52L122.75,151.25L122.57,151.71L114.90,157.81L114.91,158.38L115.23,158.86L116.67,160.48L117.08,160.48L120.02,158.11L121.47,158.23L122.41,158.57L122.91,159.35L123.06,161.60L123.12,166.95L83.41,166.96L114.52,142.54L114.76,142.48z"/><path style="fill:#fffbf0" d="M138.50,58.56L139.39,58.82L141.16,59.45L143.10,60.55L144.21,61.52L144.92,62.60L144.93,63.25L144.85,63.68L144.51,64.00L144.53,64.62L144.36,65.11L143.74,65.61L142.86,66.00L142.62,66.28L142.53,66.77L142.39,67.15L138.86,67.62L137.94,67.63L132.84,66.17L130.11,63.62L130.04,63.39L130.36,61.31L130.58,60.29L131.50,59.29L132.57,58.73L133.52,58.64L134.65,58.40L136.57,58.40z"/><path style="fill:#fffbf0" d="M128.02,115.50L129.04,115.63L129.69,115.79L129.65,115.87L128.46,116.46L127.92,116.53L125.94,116.13L124.97,114.85L124.89,114.50z"/><path style="fill:#fffbf0" d="M123.87,137.26L125.16,137.73L126.12,139.65L128.04,140.78L129.16,143.02L128.83,144.52L128.17,145.30L127.18,145.91L125.37,146.37L123.60,146.45L123.43,146.53L122.96,146.45L122.49,146.36L121.03,146.14L120.57,146.03L118.26,145.27L117.00,144.61L115.71,143.65L114.76,142.48L114.83,142.18L114.91,141.76L114.75,141.04L114.96,140.89L115.07,141.32L115.05,140.95L114.96,140.89L116.13,137.74L116.88,137.58L120.40,136.85L120.88,136.85L121.67,136.92z"/><path style="fill:#404040" d="M51.82,71.46L69.15,78.17L69.28,78.61L69.52,80.05L69.61,81.02L69.61,84.69L69.36,86.94L69.04,88.70L68.47,91.04L67.51,93.61L65.84,96.42L64.56,97.70L63.90,98.19L63.45,98.36L64.03,98.43L65.65,98.66L67.35,99.00L67.83,99.32L68.79,100.28L69.91,102.52L70.32,104.54L70.41,105.19L70.48,105.98L70.57,106.63L70.57,109.34L70.41,111.27L70.00,113.67L69.91,114.42L69.11,117.14L68.10,119.49L66.82,121.58L65.52,123.00L64.41,123.81L62.92,124.05L62.27,123.96L61.48,123.79L57.32,123.15L49.15,121.87L47.00,121.42L46.07,120.76L45.09,119.34L44.45,117.57L44.13,116.29L43.97,115.17L43.76,111.32L44.29,107.21L45.20,103.64L46.38,100.97L47.83,98.58L49.25,97.29L49.77,96.99L49.64,96.83L47.07,96.42L45.74,95.95L44.95,95.30L43.97,93.72L43.33,91.80L43.01,90.35L42.85,88.75L42.85,84.96L43.28,81.55L44.29,77.91L45.68,74.82L46.95,73.05L48.45,71.66L49.36,71.29L50.38,71.19L50.46,70.96z"/><path style="fill:#404040" d="M95.89,134.84L95.76,135.11L94.94,135.57L94.41,135.34L88.71,134.46L88.81,134.07L88.38,133.80L88.41,133.68z"/><path style="fill:#404040" d="M122.64,146.52L122.96,146.45L123.43,146.53L123.48,147.77L123.56,150.66L123.64,153.53L123.72,156.42L123.80,159.30L123.88,162.35L123.96,165.22L123.92,166.96L123.12,166.95L123.06,161.60L122.91,159.35L122.41,158.57L121.47,158.23L120.02,158.11L117.08,160.48L116.67,160.48L115.23,158.86L114.91,158.38L114.90,157.81L122.57,151.71L122.75,151.25z"/><path style="fill:#fffe02" d="M29.96,152.62L30.31,153.04L30.38,154.98L30.42,155.74L25.29,159.66L25.10,158.02L25.33,156.74L25.56,155.72L26.63,153.59L27.79,152.51L28.98,152.45z"/><path style="fill:#000000" d="M177.18,33.51L178.81,34.61L179.91,36.39L180.06,39.01L178.46,50.06L178.46,51.12L179.60,52.39L180.39,53.36L181.18,57.53L181.69,57.82L183.59,61.69L183.74,63.94L183.64,66.73L181.18,65.22L179.90,64.72L178.52,65.04L178.03,65.04L175.26,63.94L173.19,62.50L173.04,62.28L173.02,61.84L172.91,62.24L172.08,61.64L172.07,61.16L172.88,55.55L172.72,54.27L172.70,53.84L172.62,53.80L172.38,53.52L171.26,52.73L167.11,51.13L166.72,51.30L166.46,51.29L166.13,50.96L162.03,49.43L161.05,49.43L156.84,50.53L155.15,50.88L155.49,49.99L156.32,49.05L157.59,48.24L162.23,46.15L164.36,45.84L166.45,46.23L167.52,38.96L168.17,37.37L175.04,33.35L176.54,33.36z"/><path style="fill:#ffffff" d="M160.10,113.16L162.45,114.69L164.36,115.65L165.45,115.66L165.92,115.49L166.78,115.48L169.66,116.62L169.68,116.98L168.16,119.49L166.96,120.85L164.81,121.74L163.41,121.74L162.12,121.42L153.01,117.88L151.55,116.63L151.18,114.70L151.50,113.37L151.78,113.24L153.53,112.83L155.13,112.68L156.74,112.67z"/><path style="fill:#000020" d="M126.42,45.90L126.01,45.81L126.49,45.83z"/><path style="fill:#000020" d="M132.41,48.15L132.69,48.25L132.89,48.48L131.97,48.27L132.01,48.10z"/><path style="fill:#000020" d="M131.56,48.14L131.51,47.93L131.69,47.90z"/><path style="fill:#000020" d="M172.72,54.27L172.62,53.80L172.70,53.84z"/><path style="fill:#000020" d="M170.59,59.41L170.76,59.45L170.80,59.82L170.59,59.62z"/><path style="fill:#000020" d="M172.08,61.64L172.00,61.22L172.07,61.16z"/><path style="fill:#000020" d="M144.93,63.25L144.92,62.60L145.00,62.65z"/><path style="fill:#000020" d="M45.95,69.13L45.60,69.00L45.89,68.89z"/><path style="fill:#000020" d="M287.19,76.84L287.09,76.37L287.17,76.43z"/><path style="fill:#000020" d="M31.69,77.16L31.42,77.34L31.68,77.02z"/><path style="fill:#000020" d="M142.71,77.37L143.23,77.36L143.08,78.89L142.89,77.55z"/><path style="fill:#000020" d="M287.35,77.80L287.26,77.33L287.33,77.39z"/><path style="fill:#000020" d="M69.35,78.29L69.28,78.61L69.15,78.17z"/><path style="fill:#000020" d="M287.51,78.77L287.42,78.30L287.49,78.35z"/><path style="fill:#000020" d="M287.67,79.73L287.58,79.26L287.65,79.31z"/><path style="fill:#000020" d="M287.83,80.68L287.74,80.22L287.81,80.27z"/><path style="fill:#000020" d="M30.39,80.71L30.38,80.96L30.13,80.86L30.21,80.38z"/><path style="fill:#000020" d="M69.61,81.02L69.52,80.05L69.58,80.11z"/><path style="fill:#000020" d="M287.99,81.49L287.90,81.02L287.97,81.07z"/><path style="fill:#000020" d="M29.97,81.98L30.05,81.26L30.13,81.16L30.21,81.23z"/><path style="fill:#000020" d="M288.15,82.45L288.06,81.98L288.13,82.03z"/><path style="fill:#000020" d="M235.32,83.25L235.23,82.77L235.30,82.83z"/><path style="fill:#000020" d="M288.31,83.41L288.22,82.94L288.29,82.99z"/><path style="fill:#000020" d="M235.48,84.21L235.39,83.74L235.46,83.79z"/><path style="fill:#000020" d="M288.47,84.37L288.38,83.90L288.45,83.95z"/><path style="fill:#000020" d="M288.63,85.34L288.54,84.86L288.61,84.91z"/><path style="fill:#000020" d="M235.81,85.99L235.71,85.49L235.78,85.55z"/><path style="fill:#000020" d="M288.95,87.09L288.86,86.62L288.93,86.67z"/><path style="fill:#000020" d="M289.11,88.05L289.02,87.58L289.09,87.63z"/><path style="fill:#000020" d="M289.27,89.01L289.18,88.54L289.25,88.59z"/><path style="fill:#000020" d="M289.43,89.97L289.34,89.50L289.41,89.55z"/><path style="fill:#000020" d="M289.59,90.93L289.50,90.46L289.57,90.52z"/><path style="fill:#000020" d="M289.75,91.73L289.66,91.27L289.74,91.32z"/><path style="fill:#000020" d="M289.91,92.69L289.82,92.22L289.89,92.28z"/><path style="fill:#000020" d="M290.07,93.65L289.98,93.18L290.05,93.24z"/><path style="fill:#000020" d="M290.23,94.62L290.14,94.15L290.21,94.20z"/><path style="fill:#000020" d="M290.39,95.58L290.30,95.11L290.37,95.16z"/><path style="fill:#000020" d="M290.71,97.34L290.62,96.87L290.69,96.92z"/><path style="fill:#000020" d="M121.80,97.67L121.19,97.54L121.78,97.56z"/><path style="fill:#000020" d="M290.87,98.30L290.78,97.83L290.85,97.88z"/><path style="fill:#000020" d="M64.03,98.43L63.45,98.36L63.90,98.19z"/><path style="fill:#000020" d="M291.03,99.26L290.94,98.79L291.01,98.84z"/><path style="fill:#000020" d="M137.88,99.56L137.72,99.73L137.79,99.32z"/><path style="fill:#000020" d="M291.19,100.22L291.10,99.75L291.17,99.80z"/><path style="fill:#000020" d="M137.81,100.57L137.59,100.67L137.64,100.07z"/><path style="fill:#000020" d="M238.18,100.99L238.13,100.45L238.23,100.37z"/><path style="fill:#000020" d="M291.35,101.18L291.26,100.71L291.33,100.76z"/><path style="fill:#000020" d="M291.51,101.98L291.42,101.51L291.50,101.56z"/><path style="fill:#000020" d="M28.14,102.47L28.05,100.70L28.12,100.76z"/><path style="fill:#000020" d="M291.67,102.94L291.58,102.47L291.65,102.52z"/><path style="fill:#000020" d="M238.83,103.07L238.66,103.23L238.64,102.87L238.84,102.68z"/><path style="fill:#000020" d="M291.83,103.90L291.74,103.43L291.81,103.48z"/><path style="fill:#000020" d="M238.97,103.86L238.77,103.87L238.82,103.51L239.00,103.48z"/><path style="fill:#000020" d="M239.15,104.41L239.14,105.15L238.91,104.28z"/><path style="fill:#000020" d="M291.99,104.86L291.90,104.39L291.97,104.44z"/><path style="fill:#000020" d="M70.41,105.19L70.32,104.54L70.39,104.60z"/><path style="fill:#000020" d="M292.15,105.83L292.06,105.35L292.13,105.40z"/><path style="fill:#000020" d="M28.30,106.31L28.21,104.38L28.28,104.44z"/><path style="fill:#000020" d="M70.57,106.63L70.48,105.98L70.55,106.04z"/><path style="fill:#000020" d="M292.47,107.58L292.38,107.11L292.45,107.17z"/><path style="fill:#000020" d="M292.63,108.54L292.54,108.07L292.61,108.13z"/><path style="fill:#000020" d="M292.79,109.50L292.70,109.03L292.77,109.09z"/><path style="fill:#000020" d="M28.46,110.00L28.37,108.06L28.44,108.12z"/><path style="fill:#000020" d="M292.95,110.47L292.86,110.00L292.93,110.05z"/><path style="fill:#000020" d="M293.11,111.42L293.02,110.96L293.09,111.01z"/><path style="fill:#000020" d="M293.27,112.23L293.18,111.76L293.26,111.81z"/><path style="fill:#000020" d="M293.43,113.19L293.34,112.72L293.42,112.77z"/><path style="fill:#000020" d="M151.78,113.24L151.50,113.37L151.55,112.76z"/><path style="fill:#000020" d="M28.62,113.68L28.53,111.91L28.60,111.97z"/><path style="fill:#000020" d="M293.59,114.15L293.50,113.68L293.58,113.73z"/><path style="fill:#000020" d="M148.14,114.64L148.06,114.13L148.22,114.04z"/><path style="fill:#000020" d="M293.75,115.11L293.66,114.64L293.74,114.69z"/><path style="fill:#000020" d="M129.85,115.72L129.69,115.79L129.04,115.63z"/><path style="fill:#000020" d="M293.91,116.08L293.82,115.60L293.90,115.65z"/><path style="fill:#000020" d="M133.53,116.27L133.36,116.10L133.97,116.12z"/><path style="fill:#000020" d="M148.38,116.40L148.29,115.91L148.37,115.97z"/><path style="fill:#000020" d="M28.78,117.52L28.69,115.59L28.76,115.65z"/><path style="fill:#000020" d="M294.23,117.83L294.14,117.36L294.21,117.41z"/><path style="fill:#000020" d="M289.24,118.26L289.21,117.89L289.39,117.85z"/><path style="fill:#000020" d="M294.39,118.79L294.30,118.32L294.38,118.37z"/><path style="fill:#000020" d="M294.55,119.75L294.46,119.28L294.54,119.33z"/><path style="fill:#000020" d="M294.71,120.71L294.62,120.24L294.70,120.29z"/><path style="fill:#000020" d="M289.40,120.99L289.19,120.94L289.44,120.62z"/><path style="fill:#000020" d="M28.94,121.20L28.85,119.43L28.92,119.49z"/><path style="fill:#000020" d="M294.87,121.67L294.78,121.20L294.86,121.26z"/><path style="fill:#000020" d="M295.03,122.47L294.94,122.01L295.02,122.06z"/><path style="fill:#000020" d="M295.19,123.43L295.10,122.96L295.18,123.02z"/><path style="fill:#000020" d="M295.35,124.39L295.26,123.92L295.34,123.98z"/><path style="fill:#000020" d="M29.10,125.04L29.01,123.11L29.08,123.17z"/><path style="fill:#000020" d="M295.51,125.36L295.42,124.89L295.50,124.94z"/><path style="fill:#000020" d="M295.67,126.32L295.58,125.85L295.66,125.90z"/><path style="fill:#000020" d="M62.40,126.49L62.32,124.22L62.38,124.29z"/><path style="fill:#000020" d="M295.99,128.08L295.90,127.61L295.97,127.66z"/><path style="fill:#000020" d="M29.26,128.73L29.18,126.80L29.24,126.86z"/><path style="fill:#000020" d="M296.15,129.04L296.06,128.57L296.14,128.62z"/><path style="fill:#000020" d="M296.31,130.00L296.22,129.53L296.30,129.58z"/><path style="fill:#000020" d="M62.56,130.65L62.48,128.56L62.54,128.62z"/><path style="fill:#000020" d="M296.47,130.96L296.38,130.49L296.46,130.54z"/><path style="fill:#000020" d="M296.63,131.91L296.54,131.45L296.62,131.50z"/><path style="fill:#000020" d="M29.42,132.41L29.34,130.64L29.40,130.70z"/><path style="fill:#000020" d="M296.79,132.72L296.70,132.25L296.78,132.30z"/><path style="fill:#000020" d="M296.96,133.69L296.87,133.22L296.96,133.21z"/><path style="fill:#000020" d="M95.76,135.11L95.89,134.84L97.02,134.85z"/><path style="fill:#000020" d="M29.58,136.25L29.50,134.32L29.56,134.38z"/><path style="fill:#000020" d="M29.74,139.93L29.66,138.00L29.72,138.06z"/><path style="fill:#000020" d="M115.07,141.32L114.96,140.89L115.05,140.95z"/><path style="fill:#000020" d="M114.91,141.76L114.83,142.18L114.75,142.08L114.75,141.04z"/><path style="fill:#000020" d="M29.90,143.78L29.82,141.85L29.88,141.90z"/><path style="fill:#000020" d="M122.96,146.45L122.64,146.52L122.49,146.36z"/><path style="fill:#000020" d="M246.68,147.13L246.60,146.65L246.67,146.71z"/><path style="fill:#000020" d="M30.06,147.46L29.98,145.53L30.04,145.59z"/><path style="fill:#000020" d="M246.84,148.09L246.75,147.62L246.83,147.67z"/><path style="fill:#000020" d="M247.00,148.89L246.91,148.42L246.99,148.47z"/><path style="fill:#000020" d="M247.17,149.85L247.07,149.38L247.15,149.43z"/><path style="fill:#000020" d="M123.56,150.66L123.48,147.77L123.54,147.83z"/><path style="fill:#000020" d="M30.22,151.14L30.14,149.37L30.20,149.43z"/><path style="fill:#000020" d="M247.48,151.61L247.40,151.13L247.47,151.19z"/><path style="fill:#000020" d="M247.64,152.57L247.55,152.10L247.63,152.16z"/><path style="fill:#000020" d="M247.80,153.37L247.71,152.91L247.79,152.96z"/><path style="fill:#000020" d="M247.96,154.33L247.87,153.86L247.95,153.92z"/><path style="fill:#000020" d="M30.38,154.98L30.31,153.04L30.37,153.10z"/><path style="fill:#000020" d="M248.12,155.29L248.03,154.82L248.11,154.88z"/><path style="fill:#000020" d="M248.28,156.09L248.19,155.63L248.27,155.68z"/><path style="fill:#000020" d="M123.72,156.42L123.64,153.53L123.70,153.59z"/><path style="fill:#000020" d="M248.45,157.06L248.35,156.59L248.43,156.64z"/><path style="fill:#000020" d="M248.76,158.82L248.68,158.34L248.75,158.40z"/><path style="fill:#000020" d="M248.92,159.77L248.83,159.31L248.91,159.36z"/><path style="fill:#000020" d="M249.08,160.58L248.99,160.11L249.07,160.16z"/><path style="fill:#000020" d="M249.25,161.54L249.15,161.07L249.23,161.12z"/><path style="fill:#000020" d="M123.88,162.35L123.80,159.30L123.86,159.36z"/><path style="fill:#000020" d="M249.56,163.30L249.48,162.82L249.55,162.88z"/><path style="fill:#000020" d="M249.72,164.26L249.63,163.79L249.71,163.84z"/><path style="fill:#000020" d="M249.88,165.06L249.79,164.59L249.87,164.65z"/><path style="fill:#000020" d="M250.04,166.02L249.95,165.55L250.03,165.60z"/><path style="fill:#000020" d="M250.25,166.95L250.08,166.95L250.12,166.51z"/><path style="fill:#000020" d="M124.08,166.96L123.92,166.96L123.96,165.22L124.02,165.28z"/><path style="fill:#404040" d="M66.01,130.37L65.17,130.84L63.89,130.94L64.72,130.37L65.16,130.29L66.78,130.21z"/><path style="fill:#fffe02" d="M31.30,78.02L30.39,80.71L30.21,80.38L30.64,78.83L31.13,77.70L31.23,77.63L31.31,77.70z"/><path style="fill:#ffffff" d="M173.04,62.28L172.91,62.24L173.02,61.84z"/><path style="fill:#ffffff" d="M140.16,98.03L137.81,100.57L137.64,100.07L137.72,99.73L137.88,99.56L140.21,97.72z"/><g id="Actor_.0"><g style="stroke:#282828;stroke-width:0.106"><path d="M-0.00,7.72L23.51,12.99L51.99,21.51L65.58,26.33L67.60,25.49L69.49,25.19"/><path d="M55.11,72.75L51.22,70.35L49.09,64.68L49.05,56.57L51.14,47.27L55.03,38.23L60.11,30.87L65.58,26.33L122.16,47.38"/><path d="M69.50,25.19L71.24,25.42"/></g><g style="stroke:#282828;stroke-width:0.353"><path d="M15.97,59.79L-0.00,56.02"/><path d="M-0.00,5.73L1.56,5.97L29.49,12.21L57.75,20.65L71.24,25.42L126.30,45.95"/><path d="M14.74,59.41L40.57,67.43L51.22,70.36"/><path d="M44.49,68.51L55.11,72.75L107.68,92.89"/></g></g><g id="Actor_.1"><g style="stroke:#282828;stroke-width:0.106"><path d="M156.04,49.34L158.16,48.21L158.03,48.39L158.04,48.83L156.12,49.86L155.66,50.86"/><path d="M156.77,48.80L156.76,48.80"/><path d="M159.06,49.97L159.23,48.73L158.04,48.83L157.83,50.30"/><path d="M157.17,48.50L158.47,47.99L161.90,46.66L162.07,46.61L163.25,46.36L162.25,46.94L158.81,48.06L158.16,48.21"/><path d="M162.64,49.65L162.94,47.48L162.87,47.09L162.63,46.83L165.59,46.89L165.40,47.13L165.30,47.49L162.94,47.48L162.06,47.75L159.23,48.73L159.11,48.29L158.81,48.06"/><path d="M161.83,49.45L162.07,47.74"/><path d="M162.56,47.60L162.49,47.20L162.25,46.94L162.63,46.83"/><path d="M163.25,46.36L166.07,46.63L166.94,46.34"/><path d="M164.29,45.83L166.92,46.34"/><path d="M164.88,50.48L165.30,47.49L174.08,50.73L174.96,51.92L175.16,51.62L175.55,51.59L175.42,51.80L176.42,51.22L174.85,49.86L174.92,49.83L175.75,49.59L178.34,50.97L180.39,53.19L177.35,55.18L178.03,58.83L177.17,64.71"/><path d="M165.59,46.89L174.42,50.14L175.55,51.59"/><path d="M166.07,46.63L174.85,49.86"/><path d="M167.01,46.37L166.99,46.36"/><path d="M176.19,64.29L176.94,59.07L176.53,56.17L174.70,53.77L173.50,62.12L173.60,62.71"/><path d="M173.50,62.12L173.05,61.60"/><path d="M173.16,60.81L172.84,59.39L173.29,59.90"/><path d="M172.84,59.39L174.08,50.73L174.25,50.31L174.42,50.14"/><path d="M174.49,52.83L174.91,52.84L175.15,53.25L174.97,53.40L174.70,53.77L174.26,53.13L174.49,52.83"/><path d="M180.40,53.14L180.39,53.19L181.16,56.82L178.03,58.83L177.62,59.07L177.17,55.89L175.15,53.25"/><path d="M176.42,51.22L176.45,51.37L176.35,51.87L176.13,52.28L175.69,53.11L177.35,55.18"/><path d="M174.91,52.84L175.42,51.80L175.04,51.83L174.84,52.13"/><path d="M176.94,59.07L177.62,59.07L176.83,64.56"/><path d="M177.73,60.88L181.00,58.30"/><path d="M181.13,56.58L181.14,56.60"/></g><g style="stroke:#282828;stroke-width:0.353"><path d="M161.72,46.43L162.28,46.21L163.21,46.00L161.06,46.63L157.16,48.50L156.04,49.34L155.43,50.23L155.20,50.96"/><path d="M163.21,46.00L164.29,45.83L164.49,45.87L166.91,46.34L167.01,46.37"/><path d="M166.99,46.36L175.75,49.59L178.33,50.93L180.40,53.14L181.14,56.60L181.16,56.82L181.00,58.30L180.14,64.81"/><path d="M174.96,51.92L174.68,52.40L174.26,53.13L173.05,61.60L173.19,62.42"/></g></g><g id="Actor_.2"><g style="stroke:#282828;stroke-width:0.106"><path d="M105.77,78.62L107.46,79.26L109.12,79.40L110.09,79.77L111.74,72.08L114.65,64.32L122.01,67.01L125.22,68.81L126.18,69.72L126.32,69.90L126.68,70.43L126.95,70.93L127.29,70.62L127.49,70.59L127.30,70.18L126.93,69.32L125.61,65.85L125.16,64.75L124.68,63.72L124.53,63.40L122.14,59.96L118.38,57.52L114.65,64.32"/><path d="M113.24,96.03L109.39,93.61L107.35,87.73L107.46,79.26L109.73,69.51L113.79,60.00L119.02,52.23L124.59,47.38L129.65,46.19"/><path d="M110.97,93.24L109.01,87.57L109.12,79.40L111.31,70.01L115.22,60.84L120.26,53.34L125.63,48.67L130.49,47.52"/><path d="M120.11,95.77L118.44,95.83L115.24,95.66L113.42,95.11L110.80,91.41L109.81,86.28L110.09,79.77"/><path d="M110.80,91.41L115.84,93.11L118.23,94.03L120.04,95.17L121.23,96.47L121.86,97.51"/><path d="M118.38,57.52L122.45,52.36L126.60,49.03L130.38,47.81"/><path d="M123.24,100.48L123.14,100.19L123.71,101.52L125.73,103.49L129.36,104.90L133.39,105.26L136.44,104.46L136.31,104.68"/><path d="M129.21,72.73L129.00,72.91L128.81,73.30L128.46,73.41L128.25,73.70L128.86,74.84L123.72,101.50L123.88,101.91"/><path d="M124.82,103.09L127.72,104.70L131.48,105.50L134.92,105.26L136.15,104.75L135.86,105.03"/><path d="M126.60,49.03L142.04,54.78L141.89,54.94L141.76,54.99L141.47,55.14L140.91,55.67L140.51,56.11L140.05,56.70L139.76,57.11L139.47,57.56L139.06,58.23L138.82,58.67"/><path d="M128.25,73.70L126.95,70.93"/><path d="M129.18,74.46L128.86,74.84L130.89,76.78L134.55,78.18L138.60,78.56L141.66,77.78L141.63,77.49L141.52,77.30L140.28,77.80L136.84,78.03L133.05,77.22L130.12,75.63L129.18,74.46L128.81,73.30L127.49,70.59L129.21,70.80"/><path d="M129.59,73.42L129.62,74.31L131.64,76.04L135.01,77.24L138.65,77.54L140.19,77.30L140.68,77.10"/><path d="M137.31,102.10L136.44,104.46L141.66,77.78"/><path d="M140.61,97.20L137.78,99.67"/><path d="M137.92,98.99L140.94,96.34"/><path d="M141.42,95.02L141.03,95.45L138.13,97.91"/><path d="M139.12,58.75L139.35,58.29L139.93,57.36L140.50,56.56L140.81,56.18L141.20,55.75L141.54,55.43L141.89,55.14L142.25,54.92L142.04,54.78L145.45,53.45L145.70,53.42L149.17,54.02L152.83,55.12L154.51,55.67L156.41,56.35L156.32,56.43L156.42,56.47L156.73,56.69L156.87,57.00L156.84,57.04L156.40,57.20L156.08,56.76L154.79,57.57L154.64,57.81L154.34,58.60L153.95,58.45L150.13,56.88L147.40,56.04L147.37,56.04L147.15,56.32"/><path d="M156.12,50.76L156.21,51.06L151.08,51.94L145.01,51.65L139.63,50.62"/><path d="M140.77,59.27L143.29,56.06L147.53,54.87L150.42,55.75L154.43,57.43L154.28,57.68L150.45,56.16L147.59,55.33L143.46,56.52L143.36,57.17L142.29,58.55"/><path d="M141.63,77.21L141.52,77.30L141.46,77.19"/><path d="M144.91,53.75L142.25,54.92L143.29,56.06L143.46,56.52"/><path d="M147.53,54.87L147.59,55.33L147.37,56.04L145.33,56.30L143.36,57.17"/><path d="M153.93,59.04L154.32,59.18L154.26,59.10L154.25,58.97L154.27,58.82L154.63,58.81L154.80,58.78L155.11,58.00L154.80,57.87L154.28,57.68L153.95,58.45L153.86,58.81L153.93,59.04L151.89,58.22L149.81,57.31"/><path d="M156.32,56.43L151.54,54.84"/><path d="M154.27,58.82L154.34,58.60L154.80,58.78L155.49,59.18L155.26,59.48L154.99,59.57L154.32,59.18L154.57,59.09L154.80,58.78"/><path d="M154.43,57.43L154.79,57.57L155.11,58.00L156.40,57.20L155.49,59.18L155.77,59.38L156.31,60.26"/><path d="M154.99,59.57L155.13,59.67L155.67,60.54"/><path d="M155.13,59.67L155.68,59.51L155.77,59.38L156.84,57.04L156.69,56.73L156.38,56.51L156.08,56.76"/><path d="M162.07,49.44L156.21,51.06L156.41,56.35L156.51,56.39L156.38,56.51"/><path d="M161.31,53.58L156.51,56.39L156.80,56.65L156.87,57.00L161.60,54.23"/><path d="M159.91,52.78L161.95,51.59L161.87,52.14"/><path d="M161.95,51.59L164.44,52.16L164.59,52.35"/><path d="M164.44,52.16L166.36,51.03L166.59,51.41"/></g><g style="stroke:#282828;stroke-width:0.353"><path d="M114.83,95.60L113.24,96.03L111.56,95.39L107.70,92.97L105.66,87.09L105.77,78.62L108.03,68.87L112.10,59.36L117.33,51.59L122.90,46.75L127.96,45.56L129.65,46.19L133.03,48.53"/><path d="M114.97,95.63L114.68,95.57L113.42,95.11L110.97,93.24"/><path d="M121.91,97.63L118.94,96.97L113.42,95.11"/><path d="M118.77,95.34L119.68,95.64L120.51,95.88"/><path d="M120.04,95.17L120.56,95.84L120.80,96.12L119.46,95.02"/><path d="M120.11,95.77L119.92,95.71"/><path d="M120.56,95.84L121.45,96.87L121.85,97.51L122.16,98.15L121.96,97.73"/><path d="M121.85,97.51L123.24,100.48L124.17,102.53L126.18,104.28L129.52,105.49L133.14,105.77L134.68,105.52L135.86,105.03L136.18,104.74"/><path d="M123.14,100.19L122.16,98.15"/><path d="M124.82,103.09L124.71,102.99L123.88,101.91"/><path d="M130.49,47.52L133.18,48.59"/><path d="M130.38,47.81L133.70,48.74L141.16,51.11"/><path d="M142.17,77.27L137.31,102.10L137.09,103.95L136.31,104.68L136.15,104.75"/><path d="M140.56,97.33L137.76,99.76"/><path d="M166.60,51.40L166.36,51.03L162.07,49.44L160.84,49.49L156.12,50.76L151.63,51.73L145.42,51.64L139.57,50.61"/><path d="M141.66,77.78L142.06,77.26"/><path d="M142.95,57.16L143.45,56.53L141.66,59.65"/><path d="M143.36,57.18L142.18,58.75"/><path d="M146.53,53.70L144.91,53.75L142.07,54.76L142.11,54.75"/><path d="M143.27,57.30L145.28,56.44"/><path d="M144.90,56.60L147.15,56.32"/><path d="M147.95,53.81L151.54,54.84L145.44,53.45"/><path d="M149.81,57.31L146.83,56.36"/><path d="M147.94,53.81L147.41,53.66"/><path d="M161.52,54.78L161.60,54.23L161.54,53.85L161.31,53.58L159.91,52.78"/></g></g><g id="Actor_.3"><g style="stroke:#282828;stroke-width:0.106"><path d="M167.54,39.08L167.57,39.14L166.56,46.27"/><path d="M171.46,38.41L169.23,39.70L169.09,39.70L168.09,46.77"/><path d="M167.57,39.14L169.78,36.56L173.29,37.85L174.59,41.72L174.72,41.72L180.19,38.53"/><path d="M168.22,46.81L169.23,39.70L169.62,38.79L170.42,38.30"/><path d="M169.09,39.70L169.51,38.74L170.34,38.24L171.38,38.32L171.41,38.38"/><path d="M169.80,36.44L171.67,36.59L173.39,37.76L174.51,39.64L174.72,41.72L173.70,48.83"/><path d="M171.38,38.32L172.33,38.97L172.95,40.01L173.06,41.16L173.03,41.10"/><path d="M173.06,41.16L172.05,48.23"/><path d="M171.67,36.59L177.15,33.42"/><path d="M173.57,48.79L174.59,41.72"/><path d="M175.28,33.28L175.27,33.28"/><path d="M182.46,65.95L183.89,65.09"/></g><g style="stroke:#282828;stroke-width:0.353"><path d="M178.39,50.99L180.19,38.53L179.98,36.46L179.63,35.87L178.87,34.58L177.15,33.42L175.28,33.28L169.80,36.44L168.29,37.35L167.54,39.08L166.52,46.26"/><path d="M170.42,38.30L171.41,38.38L172.33,39.00L172.92,39.99L173.03,41.10L172.01,48.21"/><path d="M181.11,57.30L181.94,58.05L183.63,61.47L183.89,65.09L183.64,66.79"/></g></g><g id="Actor_.4"><g style="stroke:#282828;stroke-width:0.106"><path d="M130.94,75.24L131.04,74.72"/></g><g style="stroke:#282828;stroke-width:0.353"><path d="M130.58,74.45L130.94,75.24L132.94,76.37L135.51,77.11L138.15,77.31L138.25,76.83"/></g></g><g id="Actor_.5"><g style="stroke:#282828;stroke-width:0.106"><path d="M127.16,104.64L127.04,105.27"/><path d="M135.87,105.13L135.89,105.01"/></g><g style="stroke:#282828;stroke-width:0.353"><path d="M124.45,102.78L124.39,103.10"/><path d="M134.54,105.55L134.45,105.99"/></g></g><g id="Actor_.6"><g style="stroke:#282828;stroke-width:0.106"><path d="M114.89,142.19L83.24,167.00"/></g><g style="stroke:#282828;stroke-width:0.353"><path d="M116.76,137.66L115.84,137.20L112.46,135.90L109.04,134.98L105.61,134.44L102.21,134.29L101.99,134.30L98.90,134.53L95.70,135.16L54.13,167.00"/><path d="M114.90,142.35L83.46,167.00"/></g></g><g id="Actor_.7"><g style="stroke:#282828;stroke-width:0.106"><path d="M28.09,98.75L37.15,100.13L39.19,149.43"/><path d="M37.15,100.13L37.12,96.92L37.30,93.62L37.63,90.79L37.69,90.29L38.27,86.98L39.04,83.76L39.98,80.68L41.08,77.79L42.32,75.14L43.67,72.78L45.11,70.76L46.44,69.29"/></g><g style="stroke:#282828;stroke-width:0.353"><path d="M30.53,155.86L28.09,98.75L28.06,95.55L28.24,92.25L28.62,88.93L29.21,85.63L29.58,84.06L29.98,82.41L30.92,79.33L32.02,76.45L33.26,73.80L34.62,71.45L36.07,69.43L37.58,67.77L38.71,66.86"/><path d="M62.34,123.90L62.65,131.99"/></g></g><g id="Actor_.8"><g style="stroke:#282828;stroke-width:0.106"><path d="M89.03,134.11L45.81,167.00"/><path d="M88.85,134.42L88.82,134.42"/></g><g style="stroke:#282828;stroke-width:0.353"><path d="M46.04,167.00L88.85,134.42L88.98,134.30L89.03,134.11L85.77,132.46L85.18,132.24L82.42,131.18L79.04,130.26L75.65,129.73L72.29,129.58L69.02,129.83L65.87,130.46L16.75,167.00"/></g></g><g id="Actor_.9"><g style="stroke:#282828;stroke-width:0.106"><path d="M48.32,71.82L55.39,72.85"/><path d="M62.03,98.66L60.97,98.28L60.02,97.44L59.22,96.15L58.59,94.46L58.28,92.98L58.17,92.45L57.97,90.19L57.99,87.77L58.24,85.28L58.71,82.81L59.38,80.47L60.22,78.35L61.21,76.52L62.04,75.40"/></g><g style="stroke:#282828;stroke-width:0.353"><path d="M69.22,78.15L69.53,79.63L69.72,81.88L69.69,84.28L69.44,86.75L68.98,89.19L68.32,91.51L67.49,93.62L66.52,95.44L65.45,96.91L64.31,97.96L63.16,98.55L62.03,98.66L46.95,96.38L45.88,96.00L44.92,95.15L44.11,93.87L43.47,92.19L43.04,90.18L42.83,87.93L42.85,85.51L43.10,83.02L43.57,80.57L44.24,78.23L45.09,76.12L46.08,74.30L47.17,72.85L48.32,71.82L49.49,71.25L50.63,71.17L51.46,71.29"/></g></g><g id="Actor_.10"><g style="stroke:#282828;stroke-width:0.106"><path d="M63.83,131.11L64.64,130.80L65.41,130.79"/><path d="M66.05,130.42L66.12,130.37L65.55,130.33L65.00,130.42L64.49,130.63L64.37,130.72"/><path d="M66.48,130.24L66.30,130.27L66.12,130.37L66.24,130.38"/><path d="M88.80,134.46L95.28,135.48"/><path d="M88.64,133.91L96.07,135.09"/><path d="M123.27,167.00L122.70,146.36"/><path d="M123.84,167.00L123.27,146.44"/></g><g style="stroke:#282828;stroke-width:0.353"><path d="M63.83,131.11L64.49,130.63L64.71,130.52L65.23,130.31L65.96,130.21L66.48,130.24L66.75,130.28"/><path d="M88.12,133.65L96.59,134.98"/><path d="M124.05,167.00L123.49,146.43"/></g></g><g id="Actor_.11"><g style="stroke:#282828;stroke-width:0.106"><path d="M25.14,159.68L25.18,159.76L25.26,159.78"/><path d="M28.07,152.54L27.78,152.69L27.50,152.89L27.23,153.16L26.96,153.48L26.70,153.85L26.45,154.27L26.23,154.73L26.02,155.23L25.83,155.76L25.66,156.32L25.53,156.89L25.42,157.47L25.33,158.06L25.28,158.64L25.26,159.22L25.27,159.77"/></g><g style="stroke:#282828;stroke-width:0.353"><path d="M28.16,152.51L27.97,152.55L27.41,152.90L26.87,153.49L26.77,153.60L26.29,154.37L25.86,155.29L25.53,156.34L25.29,157.45L25.16,158.58L25.14,159.68L25.16,159.85"/><path d="M28.07,152.54L28.34,152.46L28.62,152.43"/><path d="M30.40,152.72L28.62,152.43"/></g></g><g id="Actor_.12"><g style="stroke:#282828;stroke-width:0.106"><path d="M31.76,77.12L31.71,77.20L31.46,77.60L31.23,78.05L31.01,78.53L30.82,79.05L30.65,79.60L30.51,80.17L30.39,80.75L30.31,81.32"/></g><g style="stroke:#282828;stroke-width:0.353"><path d="M31.84,76.93L31.61,77.20L31.53,77.32L31.06,78.13L30.67,79.10L30.37,80.18L30.18,81.31L30.14,81.88"/></g></g><g id="Actor_.13"><g style="stroke:#282828;stroke-width:0.106"><path d="M44.07,108.94L59.15,111.26L58.94,113.73L58.95,116.12L59.19,118.32L59.65,120.25L60.30,121.84L61.13,123.03L62.10,123.77L63.17,124.03"/><path d="M59.15,111.26L59.58,108.79L60.21,106.43L61.02,104.26L61.98,102.37L63.04,100.83L64.17,99.70L65.32,99.02L66.45,98.82"/></g><g style="stroke:#282828;stroke-width:0.353"><path d="M63.49,98.38L66.45,98.82L67.51,99.11L68.47,99.87L69.29,101.07L69.93,102.67L70.38,104.60L70.61,106.79L70.62,109.15L70.41,111.60L70.33,112.08L69.99,114.04L69.36,116.39L68.56,118.54L67.62,120.43L66.57,121.97L65.45,123.12L64.30,123.81L63.17,124.03L48.15,121.68L47.07,121.42L46.09,120.68L45.26,119.50L44.59,117.91L44.12,115.98L43.88,113.78L43.86,111.41L44.07,108.94L44.50,106.48L45.13,104.12L45.51,103.11L45.95,101.96L46.91,100.07L47.98,98.54L49.12,97.42L50.09,96.85"/></g></g><g id="Actor_.14"><g style="stroke:#282828;stroke-width:0.106"><path d="M63.80,131.13L63.83,131.11"/><path d="M84.18,167.00L115.09,142.75"/><path d="M92.10,167.00L119.24,145.57"/><path d="M102.89,167.00L122.83,151.11"/><path d="M109.27,167.00L120.39,158.09"/><path d="M121.90,158.33L111.10,167.00"/><path d="M123.07,159.68L113.97,167.00"/></g><g style="stroke:#282828;stroke-width:0.353"><path d="M65.41,130.79L64.64,130.80L63.83,131.11L15.54,167.00"/><path d="M95.28,135.48L88.80,134.46"/><path d="M122.70,146.36L122.83,151.11L122.70,151.67L122.29,152.03L103.52,167.00"/><path d="M123.27,167.00L123.07,159.68L122.90,159.08L122.47,158.58L121.90,158.33L120.39,158.09L120.02,158.13L108.94,167.00"/><path d="M116.85,160.67L115.57,159.17L114.75,158.05"/></g></g><g id="Actor_.15"><g style="stroke:#282828;stroke-width:0.106"><path d="M292.14,123.18L290.25,122.42L289.62,118.81L289.61,118.73L290.87,115.80"/><path d="M290.70,116.74L292.01,117.26L292.49,120.07L291.54,122.29L292.07,122.78L290.38,122.11"/><path d="M292.07,122.78L293.19,120.16L292.63,116.87L290.94,116.19"/></g><g style="stroke:#282828;stroke-width:0.353"><path d="M289.79,122.43L291.69,123.18L292.14,123.18L293.40,120.24L292.76,116.56L290.87,115.80L290.42,115.80L289.16,118.73L289.79,122.43"/><path d="M290.38,122.11L289.81,118.81L290.94,116.19"/><path d="M291.54,122.29L290.33,121.81"/></g></g><g id="Actor_.16"><g style="stroke:#282828;stroke-width:0.106"><path d="M287.72,97.54L285.82,96.75L285.25,93.43L285.18,93.03L286.45,90.11"/><path d="M285.95,96.44L287.66,97.14L287.12,96.65L288.08,94.44L287.59,91.62L286.27,91.06"/><path d="M286.51,90.51L288.21,91.22L288.78,94.54L287.66,97.14"/></g><g style="stroke:#282828;stroke-width:0.353"><path d="M285.36,96.75L287.27,97.54L287.72,97.54L288.99,94.62L288.35,90.91L286.45,90.11L285.99,90.12L284.72,93.04L285.36,96.75"/><path d="M285.95,96.44L285.38,93.12L286.51,90.51"/><path d="M287.12,96.65L285.90,96.15"/></g></g><g id="Actor_.17"><g style="stroke:#282828;stroke-width:0.106"><path d="M235.22,82.03L235.97,84.61L240.56,86.30L248.33,86.81L258.09,86.07L268.32,84.17L277.41,81.43L283.95,78.26L285.99,90.12"/><path d="M236.51,81.86L239.51,78.94L240.69,85.58"/><path d="M285.64,75.35L284.73,72.93L280.23,71.40L272.87,70.96L263.75,71.68L254.24,73.44L245.74,75.99L239.51,78.94"/><path d="M283.95,78.26L286.94,75.18"/><path d="M290.42,115.80L287.27,97.54"/><path d="M297.00,154.01L291.69,123.18"/></g><g style="stroke:#282828;stroke-width:0.353"><path d="M297.00,133.68L286.94,75.18L285.98,72.64L281.24,71.02L273.49,70.56L263.89,71.32L253.89,73.17L244.94,75.85L238.38,78.96L235.22,82.03L237.96,97.40"/><path d="M285.64,75.35L282.80,78.28L276.58,81.28L267.95,83.89L258.24,85.69L248.97,86.40L241.59,85.91L237.23,84.31L236.51,81.86"/><path d="M239.66,106.94L238.15,98.50"/><path d="M250.35,167.00L246.38,144.74"/><path d="M246.31,144.34L246.34,144.50"/><path d="M286.41,97.18L285.73,97.09L285.62,96.86"/><path d="M284.79,93.70L284.70,94.98L285.17,95.95"/><path d="M285.55,91.14L284.89,92.19L284.85,92.74"/><path d="M289.22,119.39L289.13,120.67L289.60,121.62"/><path d="M290.82,122.84L290.16,122.76L290.05,122.53"/><path d="M289.98,116.83L289.32,117.88L289.28,118.44"/></g></g><g id="Actor_.18"><g style="stroke:#282828;stroke-width:0.106"><path d="M236.61,89.84L176.49,67.47"/><path d="M247.09,141.96L249.34,135.99L249.08,131.53L247.51,126.88L243.57,118.07L240.20,109.51L238.23,101.35L238.06,99.95L238.20,100.70L238.10,99.93"/><path d="M238.20,100.70L238.23,100.87"/><path d="M238.06,99.95L238.14,98.25"/><path d="M246.19,145.77L245.51,145.06"/><path d="M246.28,144.58L246.36,144.55"/><path d="M246.27,144.61L246.37,144.57"/></g><g style="stroke:#282828;stroke-width:0.353"><path d="M170.02,116.66L164.35,114.49"/><path d="M246.53,145.57L246.19,145.77L172.85,117.74"/><path d="M236.02,86.52L181.07,66.18"/><path d="M240.33,109.60L238.40,101.99L238.41,102.05"/><path d="M238.23,101.35L238.40,101.99L238.10,99.93L238.17,98.59"/><path d="M240.03,108.41L240.34,109.17"/><path d="M247.08,124.66L243.98,118.02L241.21,111.28"/><path d="M245.51,145.06L247.09,141.96"/><path d="M246.27,144.61L246.39,143.84"/><path d="M246.02,144.05L247.42,141.46L249.28,137.96L249.48,136.86"/><path d="M248.01,126.65L248.72,128.18L250.09,133.55L249.57,136.40"/></g></g><g id="Actor_.19"><g style="stroke:#282828;stroke-width:0.106"><path d="M123.68,101.46L123.16,102.22L124.17,104.11L126.96,105.76L130.70,106.66L130.67,106.85L134.49,107.28L130.67,106.86L130.67,106.85"/><path d="M125.49,105.26L123.44,103.47"/><path d="M148.81,111.91L147.59,112.50L142.22,115.26L136.96,116.45L128.97,115.58L130.67,106.86L129.15,106.62L125.55,105.31L125.52,105.29"/><path d="M144.43,77.58L144.61,77.38L136.58,76.48L132.80,75.56L129.96,73.92L128.93,72.05"/><path d="M130.70,106.66L137.70,107.44L137.64,106.94L138.65,107.05L138.64,107.74L134.49,107.28"/><path d="M136.39,116.92L136.73,116.89L134.24,116.61L133.88,116.65"/><path d="M134.24,116.61L134.46,116.18"/><path d="M137.64,106.94L136.52,104.49"/><path d="M137.70,107.44L136.40,104.60"/><path d="M136.54,76.64L138.29,67.69"/><path d="M137.12,103.72L138.65,107.05L138.69,107.06L139.41,106.91L139.87,106.37L140.15,106.61L140.35,106.66L139.71,107.52L138.64,107.74L136.96,116.45L136.73,116.89L137.32,116.92"/><path d="M137.85,107.65L136.73,107.53"/><path d="M140.19,98.30L137.49,101.20L139.87,106.37L142.84,92.25L143.11,92.45L140.35,106.66"/><path d="M137.49,101.20L137.72,100.78"/><path d="M142.52,67.45L142.84,68.12L138.78,67.66"/><path d="M139.83,116.61L142.63,115.74L147.93,113.54L148.52,113.32"/><path d="M142.32,115.98L148.08,114.00L148.40,113.91"/><path d="M142.84,92.25L145.31,78.68L145.82,78.90L143.11,92.45L143.82,92.68L148.50,94.30L156.24,97.19L155.85,102.80L156.36,107.47L157.43,110.42L158.26,111.64L159.07,112.42L159.49,112.64"/><path d="M143.42,77.47L143.58,77.43"/><path d="M158.80,111.44L156.99,105.77L157.23,97.57L156.24,97.19L157.48,91.15L159.57,84.75L160.81,81.77L162.35,78.63L158.72,76.53L154.89,73.27L151.09,69.95L148.97,68.53L147.75,67.97L146.41,67.64L146.43,68.02L146.38,68.51L142.84,68.11L142.84,68.12"/><path d="M142.84,68.11L142.87,67.25L146.41,67.64L146.27,66.54L146.19,66.23L143.38,65.91"/><path d="M142.91,66.16L146.27,66.54L150.89,68.31L154.93,70.92L159.01,73.65L161.29,74.97L163.77,76.09L162.35,78.63"/><path d="M142.87,67.25L142.75,66.27"/><path d="M144.44,65.12L144.48,65.22"/><path d="M147.37,61.04L143.62,60.83"/><path d="M143.49,60.72L143.54,60.77"/><path d="M160.81,81.77L156.71,78.91L153.48,74.98L150.25,70.89L148.35,69.25L147.17,68.68L146.38,68.51L145.25,74.23L144.61,77.38L145.54,77.85L145.82,78.90"/><path d="M144.94,63.46L144.97,63.51L145.05,63.84L146.19,66.23L146.65,66.29L150.16,67.25"/><path d="M144.94,64.66L145.05,63.84"/><path d="M150.17,67.25L153.51,68.49L155.02,69.10L159.92,71.14L163.12,72.44L165.52,73.37L163.77,76.09"/><path d="M155.37,60.73L155.76,60.48L156.78,60.27L154.14,61.57L150.64,61.38"/><path d="M158.26,111.64L153.15,111.67L151.75,112.17"/><path d="M151.58,112.97L153.69,112.34"/><path d="M152.09,110.58L152.84,110.32L155.30,110.01L157.43,110.42"/><path d="M151.40,61.54L154.53,61.65L157.10,60.38L157.23,60.30L172.72,66.07L169.10,69.00L165.52,73.37"/><path d="M157.71,59.70L157.25,59.56L156.57,59.31L156.53,59.31L156.54,59.39L156.61,59.50L156.73,59.61L156.80,59.39L157.11,58.73L157.54,58.89L157.25,59.56L157.17,59.92"/><path d="M156.51,59.68L156.53,59.31L156.83,58.64L157.11,58.73L157.33,58.30L157.71,57.29L157.42,57.29"/><path d="M156.52,59.69L156.78,59.97L156.91,60.02"/><path d="M156.64,60.04L156.65,60.06L156.78,59.97L156.73,59.88L156.71,59.77L156.73,59.61"/><path d="M156.53,59.31L156.40,59.39L156.36,59.57"/><path d="M157.23,60.30L157.24,60.22L156.95,60.23L156.78,60.27L158.55,59.36"/><path d="M156.83,58.64L156.91,58.47L157.33,58.30L157.80,58.47L157.54,58.89L158.72,59.31"/><path d="M156.91,58.47L157.29,57.45L157.71,57.29L157.99,56.98L158.15,56.84L158.28,56.89L158.13,57.03L157.99,56.98"/><path d="M159.53,112.71L157.66,106.83L157.90,98.32L157.23,97.57L159.49,88.09L163.43,78.82L168.43,71.21L173.70,66.44"/><path d="M164.94,115.74L161.26,113.37L159.39,107.49L159.64,98.98L157.90,98.32L160.25,88.48L164.34,78.86L169.53,70.96L175.01,66.00"/><path d="M157.24,60.22L159.84,59.08L162.22,58.93L161.93,58.45"/><path d="M157.80,58.47L159.65,59.02"/><path d="M157.83,56.86L158.15,56.84L163.03,53.98L162.40,54.28L161.54,53.87"/><path d="M158.28,56.89L169.36,55.80L170.15,55.83L170.85,56.09L171.47,57.37L171.06,60.25"/><path d="M158.13,57.03L161.29,58.34L161.54,58.48L161.85,58.88"/><path d="M159.64,98.98L161.99,89.14L166.08,79.51L171.27,71.61L176.74,66.65L181.64,65.37"/><path d="M160.68,52.84L163.03,53.98"/><path d="M165.18,115.02L165.50,114.93"/><path d="M171.44,52.73L169.36,55.80L168.62,58.10L170.53,60.93L174.67,63.66L178.25,65.16"/><path d="M170.73,59.16L170.88,58.42L171.27,57.68L172.98,55.14"/><path d="M172.72,66.07L176.41,64.79"/><path d="M182.03,66.53L181.40,66.09"/></g><g style="stroke:#282828;stroke-width:0.353"><path d="M134.46,116.18L128.97,115.58L128.28,115.49L123.78,113.98L121.48,111.61L123.19,102.39"/><path d="M123.39,103.43L123.16,102.22L123.35,101.56L123.61,101.30"/><path d="M130.69,64.10L128.93,72.05L128.94,72.24L129.96,74.09L132.78,75.73L136.54,76.64L143.58,77.43"/><path d="M133.56,116.08L133.77,116.54L133.88,116.65L136.39,116.92L137.32,116.92L138.07,116.72L139.43,116.24"/><path d="M137.32,116.92L137.76,116.92L138.24,116.88L138.78,116.82L139.83,116.61L142.32,115.99L145.20,115.06L147.57,114.24"/><path d="M137.59,100.65L137.82,100.69"/><path d="M143.16,77.38L143.33,82.57L142.99,87.06L142.33,91.27L141.37,95.23L140.19,98.30L137.72,100.78"/><path d="M140.05,98.44L140.24,98.16"/><path d="M145.31,78.68L144.48,77.59L143.42,77.47L143.39,77.41"/><path d="M144.94,64.66L144.37,65.36L142.91,66.16L142.75,66.27L142.52,67.45"/><path d="M151.39,61.54L149.14,61.23L147.37,61.04L143.47,60.72"/><path d="M148.38,114.02L146.94,114.40L146.96,114.39"/><path d="M147.99,61.11L154.14,61.57"/><path d="M149.35,61.26L150.62,61.38"/><path d="M155.76,112.59L155.78,112.59L153.75,112.77L151.51,113.28"/><path d="M153.69,112.34L159.07,112.42"/><path d="M155.37,60.73L153.80,61.54"/><path d="M162.07,58.90L161.15,58.84L159.69,59.00L158.55,59.36L155.78,60.47L155.25,60.79"/><path d="M156.68,112.62L155.78,112.59L156.20,112.55L160.20,113.14"/><path d="M157.97,56.99L157.99,56.98L157.62,57.06L157.29,57.45L156.40,59.39L156.36,59.57L156.39,59.78L156.65,60.06L156.68,60.11"/><path d="M162.40,54.28L157.83,56.86L157.72,57.04"/><path d="M158.80,111.44L159.53,112.71L163.23,115.08L164.94,115.74L166.45,115.29"/><path d="M159.15,57.26L158.28,56.89L160.92,58.13L161.93,58.45L159.15,57.26"/><path d="M165.18,115.02L161.60,112.72L159.78,107.01L160.03,98.74L162.31,89.18L166.29,79.83L171.33,72.15L176.64,67.33L181.40,66.09"/><path d="M172.05,61.59L172.98,55.14L172.63,53.69L171.44,52.73L167.08,51.12L164.85,52.42L162.51,51.77L160.35,53.03"/><path d="M170.01,58.44L171.68,61.32L175.22,63.89L178.25,65.16L176.41,64.79"/><path d="M170.88,58.42L170.80,59.78"/><path d="M170.80,59.80L170.73,59.16"/><path d="M184.63,67.50L181.64,65.37L179.92,64.73L175.01,66.00L173.71,66.43"/><path d="M175.22,63.89L175.11,63.84L175.13,63.85"/></g></g><g id="Actor_.20"><g style="stroke:#282828;stroke-width:0.106"><path d="M148.92,118.21L151.63,120.34L151.95,120.61"/><path d="M148.31,114.52L149.45,113.77L150.81,107.23"/><path d="M149.45,113.77L150.58,114.06L151.22,114.67"/><path d="M151.63,120.34L151.60,119.65L152.33,118.02L153.14,117.98"/><path d="M151.60,119.65L161.11,123.32L161.14,124.01L161.46,124.27"/><path d="M161.14,124.01L162.99,124.45L164.98,124.40L166.94,123.87L168.71,122.91L170.16,121.58L170.72,120.82L170.14,120.09L169.13,119.49L168.74,119.38L168.12,119.82"/><path d="M161.11,123.32L161.84,121.68L162.65,121.64"/><path d="M169.13,119.49L172.50,114.17"/><path d="M170.64,121.21L170.72,120.82"/></g><g style="stroke:#282828;stroke-width:0.353"><path d="M166.98,121.01L167.79,120.26L168.11,119.82L171.52,114.15L172.50,114.17L173.77,115.02L174.06,115.85L170.64,121.21L168.72,123.21L165.14,124.64L162.99,124.45L161.46,124.27L151.95,120.61L149.35,118.56L148.92,118.21L148.20,115.01L148.27,114.54L149.69,107.59L150.81,107.23L151.30,107.39L152.23,107.70L152.52,108.53L151.22,114.67L151.17,114.94L151.59,116.77L153.14,117.98L162.65,121.64L163.49,121.84"/><path d="M148.27,114.54L148.31,114.52L149.86,114.17"/><path d="M161.84,121.68L164.61,121.95L167.30,120.88"/><path d="M164.83,121.86L163.95,121.89"/></g></g><g id="Actor_.21"><g style="stroke:#282828;stroke-width:0.106"><path d="M124.99,114.66L126.08,116.08"/><path d="M129.92,115.71L128.41,116.43L125.95,115.91L126.16,114.78"/><path d="M130.93,62.09L131.91,63.08L133.37,63.98L132.94,66.22"/><path d="M133.37,63.98L133.41,63.87L133.46,63.80L130.69,61.20L132.10,58.98"/><path d="M138.41,58.56L135.10,58.37L132.68,59.08L131.93,60.47L133.09,62.11L134.29,62.86L133.46,63.80L135.25,64.54L136.73,64.92L137.25,65.05L139.30,65.31L141.23,65.28L142.88,64.98L144.11,64.43L144.83,63.66L144.99,62.77L144.99,62.75L144.56,61.77L143.59,60.80"/><path d="M143.90,61.78L142.74,63.64L138.76,64.08L134.29,62.86L134.63,62.59L132.51,60.59L133.59,58.90L137.22,58.50L141.29,59.61L141.57,59.60"/><path d="M143.13,61.04L143.45,61.79L143.33,62.48L142.78,63.07L141.83,63.49L140.57,63.72L139.10,63.74L137.53,63.54L136.01,63.15L134.63,62.59"/><path d="M138.72,61.89L138.87,61.14L139.52,61.04L139.20,60.77L138.73,60.53L138.18,60.37L137.59,60.29L137.05,60.31L136.62,60.43L136.36,60.62L136.28,60.87L136.41,61.16L136.57,61.22L136.56,61.28"/><path d="M136.57,61.22L136.68,61.27"/><path d="M136.62,60.43L137.20,60.78L137.04,61.59"/><path d="M137.40,61.73L137.59,60.77L137.41,60.94L137.20,60.78"/><path d="M137.59,60.77L138.18,60.37L138.53,60.97L138.35,61.91"/><path d="M138.47,61.90L138.61,61.20L138.87,61.14"/><path d="M138.53,60.97L138.61,61.20"/><path d="M139.18,61.81L139.18,61.78L139.08,61.78"/><path d="M139.18,61.78L139.31,61.77L139.57,61.57L139.65,61.32L139.52,61.04"/><path d="M142.38,60.29L141.29,59.61"/></g><g style="stroke:#282828;stroke-width:0.353"><path d="M129.93,115.68L129.92,115.71L129.57,115.91L128.25,116.55L126.08,116.08L124.99,114.66L125.04,114.41"/><path d="M142.56,67.23L138.34,67.71L132.94,66.22L130.13,63.57L130.63,60.52L130.55,61.04L130.93,62.09L130.93,62.08"/><path d="M130.63,60.52L130.68,60.18L130.74,60.08L131.50,59.31L132.10,58.98L135.10,58.37L136.85,58.45L138.41,58.56L140.08,58.99L141.57,59.60L142.38,60.29L143.13,61.04L143.90,61.78"/><path d="M132.10,58.98L132.73,58.76L133.55,58.68"/><path d="M133.37,63.98L135.63,64.77L137.50,65.20L138.78,65.47L141.45,65.38L143.60,64.93L144.15,64.50L144.76,63.89L144.71,64.17"/><path d="M136.62,60.43L136.62,61.04L136.68,61.27L136.66,61.37"/><path d="M136.41,61.16L136.73,61.43L137.19,61.66L137.75,61.83L138.34,61.91L138.88,61.89L139.31,61.77"/><path d="M139.52,61.04L139.24,61.60L139.08,61.78L139.07,61.84"/><path d="M141.57,59.60L142.16,59.91L143.59,60.80L144.54,61.72L144.98,62.56L145.04,62.81L144.90,63.74L144.76,63.89"/><path d="M144.24,65.43L144.44,65.10"/></g></g><g id="Actor_.22"><g style="stroke:#282828;stroke-width:0.106"><path d="M114.90,142.43L118.10,145.09L123.52,146.33L125.42,146.25L127.03,145.88L128.22,145.24L128.90,144.40"/><path d="M115.32,140.28L118.51,142.94L123.94,144.18L123.52,146.33L123.49,146.42L123.46,146.43"/><path d="M120.14,140.30L121.72,139.81L121.62,139.01L119.46,139.68L120.13,141.19"/><path d="M121.38,141.56L121.72,139.81L123.80,140.43L124.30,141.53"/><path d="M121.62,139.01L124.45,139.85L125.13,141.36L122.97,142.03"/><path d="M123.08,146.45L123.09,146.45"/><path d="M123.94,144.18L125.40,144.14L126.65,143.95L126.72,143.94L127.83,143.57"/><path d="M127.58,144.87L129.18,143.14"/></g><g style="stroke:#282828;stroke-width:0.353"><path d="M122.27,146.26L123.08,146.45L123.46,146.43L120.70,146.04L118.12,145.21L117.67,144.98L115.99,143.87L114.92,142.54L114.90,142.43L115.32,140.28L116.21,137.77L120.66,136.87L122.20,137.01L123.74,137.31L125.21,137.77L127.83,143.57L127.58,144.87"/><path d="M114.90,142.43L114.82,141.14L115.25,140.60"/><path d="M119.24,145.57L118.61,145.42L118.12,145.21"/><path d="M120.59,141.32L120.14,140.30"/><path d="M120.13,141.19L122.97,142.03"/><path d="M122.83,141.99L124.30,141.53"/><path d="M123.46,146.43L125.34,146.35L126.93,145.98L126.98,145.96L128.17,145.33L128.84,144.49L128.90,144.40L129.18,143.14L128.18,140.94L126.10,139.72"/></g></g><g><g><path style="stroke:#000000;stroke-width:0.500;stroke-opacity:0.50;fill:#ff0000;fill-opacity:0.502" d="M127.89,120.33L129.26,120.60L127.46,115.19L123.76,119.51L125.14,119.78L121.45,138.81L124.18,139.35z"/></g></g><g/><g><g/><g><path style="stroke:#000000;stroke-width:0.250;fill:#ffffff" d="M283.63,156.86L292.71,156.86L292.71,163.07L283.63,163.07z"/><text xml:space="preserve" fill="#000000" stroke-width="0" x="284.41" y="161.13" font-size="3.66" opacity="1.00" font-family="MS Shell Dlg">Next</text></g></g><g><g/><g><path style="stroke:#000000;stroke-width:0.250;fill:#ffffff" d="M4.53,157.80L14.24,157.80L14.24,164.01L4.53,164.01z"/><text xml:space="preserve" fill="#000000" stroke-width="0" x="5.30" y="162.07" font-size="3.67" opacity="1.00" font-family="MS Shell Dlg">Back</text></g></g><g><g><path style="stroke:#000000;stroke-width:0.500;fill:#ffff00" d="M212.09,75.39L208.18,75.07L204.27,74.94L200.35,75.00L196.44,75.26L192.55,75.71L188.68,76.36L184.86,77.20L181.08,78.23L177.35,79.45L173.70,80.86L170.11,82.44L166.61,84.20L163.21,86.14L159.90,88.24L156.70,90.50L153.62,92.92L150.67,95.50L147.84,98.21L145.16,101.07L142.62,104.05L140.24,107.16L138.01,110.38L135.95,113.72L134.38,116.52L134.38,116.52L136.50,113.27L138.77,110.12L141.20,107.10L143.78,104.20L146.50,101.43L149.35,98.80L152.33,96.32L155.43,93.99L158.65,91.82L161.97,89.81L165.38,87.97L168.88,86.30L172.46,84.81L176.12,83.50L179.83,82.37L183.59,81.43L187.40,80.69L191.24,80.13L195.10,79.76L198.98,79.59L202.86,79.61L206.73,79.83L210.59,80.24L211.46,80.36z"/></g><g><image x="196.102295" y="23.187279" height="96.672577" width="96.672577" xlink:href="DEMO FFF SVG_files/93c2a15c6c356171_image_0.jpg" mask="url(#mask0)"/><path style="stroke:#000000;stroke-width:0.250" d="M292.77,71.52L292.53,76.34L291.82,81.10L290.63,85.77L288.98,90.30L286.89,94.64L284.38,98.75L281.47,102.59L278.19,106.13L274.58,109.31L270.66,112.13L266.49,114.54L262.10,116.52L257.53,118.05L252.83,119.13L248.05,119.72L243.23,119.84L238.43,119.48L233.68,118.65L229.04,117.34L224.56,115.58L220.27,113.38L216.22,110.77L212.46,107.77L209.01,104.40L205.91,100.71L203.19,96.73L200.89,92.50L199.02,88.06L197.60,83.45L196.64,78.73L196.16,73.93L196.16,69.11L196.64,64.32L197.60,59.60L199.02,54.99L200.89,50.55L203.19,46.32L205.91,42.34L209.01,38.65L212.46,35.28L216.22,32.28L220.27,29.66L224.56,27.46L229.04,25.70L233.68,24.40L238.43,23.56L243.23,23.20L248.05,23.32L252.83,23.92L257.53,24.99L262.10,26.53L266.49,28.51L270.66,30.92L274.58,33.73L278.19,36.92L281.47,40.45L284.38,44.29L286.89,48.41L288.98,52.75L290.63,57.28L291.82,61.95L292.53,66.71L292.77,71.52z"/></g></g><g><g/><g><path style="stroke:#000000;stroke-width:0.250;fill:#ffffff" d="M4.93,7.12L284.29,7.12L284.29,19.96L4.93,19.96z"/><text xml:space="preserve" fill="#000000" stroke-width="0" x="5.92" y="12.55" font-size="4.84" opacity="1.00" font-family="MS Shell Dlg">Offer a Hinge Spindle nut to the underside of the hinge. Align the flat side of the nut with the flat feature on the hinge. Hold the nut </text><text xml:space="preserve" fill="#000000" stroke-width="0" x="5.92" y="17.49" font-size="4.82" opacity="1.00" font-family="MS Shell Dlg">in place with your off-hand.</text></g></g><g id="paperID" visibility="hidden" opacity="0.00" transform="scale(0.000100)"><path style="stroke:#000000;stroke-width:0.500;fill:#e6e6e6;fill-rule:evenodd" d="M-2000.00,-2000.00L2297.00,-2000.00L2297.00,2167.00L-2000.00,2167.00zM0.00,0.00L297.00,0.00L297.00,167.00L0.00,167.00z"/><path style="fill:#000000;fill-opacity:0.118" d="M3.00,167.00L297.00,167.00L297.00,3.00L300.00,3.00L300.00,170.00L3.00,170.00z"/></g><g id="hotspot.0" ident="" onmouseover="ShowHotSpot(evt,&apos;0&apos;)" onmouseout="HideHotSpot(evt,&apos;0&apos;)" onmousemove="ShowToolTip(evt,&apos;0&apos;,&quot;2D Text 1&quot;)" opacity="0"><a xlink:href="v7.svg"><path style="fill:#00ff00;fill-rule:evenodd" d="M293.03,156.65L293.04,163.43L283.44,163.34L283.35,156.64z"/></a></g><g id="ToolTip" visibility="hidden" opacity="0" transform="translate(0,0)"><rect id="ToolTipShadow" opacity="0.20" fill="black" stroke="none" x="0" y="0" width="30" height="8"/><rect id="ToolTipBG" fill="#ffffe1" stroke="black" x="0" y="0" width="30" height="8"/><text xml:space="preserve" id="ToolTipText" fill="black" x="0" y="0" width="30" height="8">tooltip</text></g></g></svg>