<?xml version="1.0" encoding="UTF-8" standalone="yes"?><svg xmlns="http://www.w3.org/2000/svg" xmlns:xlink="http://www.w3.org/1999/xlink" width="297.000mm" height="167.000mm" viewBox="0.000000 0.000000 297.000000 167.000000" stroke-linejoin="round" stroke-linecap="round" fill="none" fill-rule="evenodd"><desc>Composer Export</desc><script type="text/ecmascript"><![CDATA[
if(typeof(top) != "undefined")
{
	top.ShowPaper = ShowPaper;
}
function ShowHotSpot(evt,hotspotid)
{
	var svgDocument = evt.target.ownerDocument;
	var strId = "hotspot."+hotspotid;
	var hotspot = svgDocument.getElementById(strId);
	if(hotspot)
		hotspot.setAttribute("opacity",".5");
}
function HideHotSpot(evt,hotspotid)
{
	var svgDocument = evt.target.ownerDocument;
	var strId = "hotspot."+hotspotid;
	var hotspot = svgDocument.getElementById(strId);
	if(hotspot)
		hotspot.setAttribute("opacity","0");

	var toolTip = svgDocument.getElementById('ToolTip');
	if(toolTip)
		toolTip.setAttribute("visibility","hidden");
}
function ShowToolTip(evt,hotspotid,strTooltip)
{
	if(strTooltip=="")
	return;

	// change text
	var svgDocument = evt.target.ownerDocument;
	var tiptext = svgDocument.getElementById('ToolTipText');
	if( !tiptext )
	return;
	tiptext.firstChild.nodeValue = " " + strTooltip + "  " ;

	// show tooltip before, else some refresh issue

	var toolTip = svgDocument.getElementById('ToolTip');
	if(!toolTip)
	return;

	toolTip.setAttribute("visibility","visible");
	toolTip.setAttribute("opacity",".95");

	// move tooltip
	// get viewbox

	var root = svgDocument.documentElement;
	var vbox = (root.getAttribute("viewBox")).split(' ');
	var x0 = parseFloat(vbox[0]);
	var y0 = parseFloat(vbox[1]);
	var vboxW = parseFloat(vbox[2]);
	var vboxH = parseFloat(vbox[3]);

	// get default width of svg

	var strW = root.getAttribute("width");
	var svgW = parseFloat(strW);
	if(strW.indexOf('mm') != -1)
	svgW *= 3.779;

	var strH = root.getAttribute("height");
	var svgH = parseFloat(strH);
	if(strH.indexOf('mm') != -1)
	svgH *= 3.779;  	// 96 dpi  -> 96/25.4 = 3.779

	// update the viewbox / width / height if svg is embedded in html with zoom fit all
	var realx0 = x0;
	var realy0 = y0;
	var realvboxW = vboxW;
	var realvboxH = vboxH;
	var realsvgW = svgW;
	var realsvgH = svgH;

	if ((typeof(top) == "undefined") || (typeof(top.svgctl1) != "undefined")) // embedded in html
	{
		// get window size in pxl

		svgW = window.innerWidth;
		svgH = window.innerHeight;

		// calculate real viewbox

		realsvgW = svgW;
		realsvgH = svgH;
		if((svgW / svgH) > (vboxW / vboxH))
		{
			realvboxW = (vboxH * svgW) / svgH;
			realvboxH = vboxH;
			realx0 = x0 - (realvboxW - vboxW)/2 ;
		}
		else
		{
			realvboxH = (vboxW * svgH) / svgW;
			realvboxW = vboxW;
			realy0 = y0 - (realvboxH - vboxH)/2 ;
		}
	}

	// get user zoom/pan

	var newScale = root.currentScale;
	var translation = root.currentTranslate;

	// transform pxl to user unit

	var xPos = (((evt.clientX+10- translation.x)/newScale) * realvboxW)/realsvgW  + realx0 ;
	var yPos = (((evt.clientY+5- translation.y)/newScale) * realvboxH)/ realsvgH  + realy0 ;
	var scaleForWidth = ( (1 / newScale) * realvboxH) / realsvgH;

	// move tooltip

	toolTip.setAttribute("transform", "translate(" + xPos + "," + yPos + ")" );

	// resize tooltip

	var fontsize = 12;
	tiptext.setAttribute("font-size",fontsize*scaleForWidth);
	tiptext.setAttribute("y", fontsize*scaleForWidth);
	var tipBG = svgDocument.getElementById('ToolTipBG');
	var outline = tiptext.getBBox();
	if(tipBG)
	{
		tipBG.setAttribute("stroke-width", 1*scaleForWidth);
		tipBG.setAttribute("width", Number(outline.width) );
		tipBG.setAttribute("height", Number(outline.height) + fontsize*.5*scaleForWidth );
	}
	var ToolTipShadow = svgDocument.getElementById('ToolTipShadow');
	if(ToolTipShadow)
	{
		ToolTipShadow.setAttribute("width", Number(outline.width) );
		ToolTipShadow.setAttribute("height", Number(outline.height) + fontsize*.5*scaleForWidth );
		ToolTipShadow.setAttribute("x", 3*scaleForWidth);
		ToolTipShadow.setAttribute("y", 3*scaleForWidth);
	}
}
function ShowPaper()
{
  var svgDocument = getDocument();
  var paper = svgDocument.getElementById("paperID");
  if(paper)
  {
    paper.setAttribute("transform","scale(1)");
    paper.setAttribute("opacity","1");
    paper.setAttribute("visibility","visible");
  }
  var svg = svgDocument.getRootElement();
  if(svg)
  {
    svg.setAttribute("width","307.000mm");
    svg.setAttribute("height","177.000mm");
    svg.setAttribute("viewBox","-5.000000 -5.000000 307.000000 177.000000");
  }
}
]]></script><defs/><g><path style="fill:#ffffff" d="M17.78,73.68L17.77,73.92L16.06,75.46L15.01,76.65L13.25,79.05L11.47,82.08L10.19,84.64L9.43,86.46L9.15,86.75L8.90,87.04L7.95,89.28L7.56,90.93L7.49,91.42L7.41,91.49L7.49,92.06L7.31,92.64L6.12,97.66L5.48,101.34L5.00,105.51L4.84,108.39L4.84,114.31L4.93,116.24L5.00,118.15L5.09,119.92L5.16,121.83L5.25,123.76L5.32,125.68L5.41,127.45L5.48,129.36L5.57,131.29L5.64,133.20L5.73,134.97L5.80,136.88L5.89,138.81L5.96,140.73L6.05,142.50L6.12,144.41L6.21,146.34L6.28,148.09L6.37,150.02L6.44,151.93L6.53,153.86L6.60,155.61L6.69,157.55L6.76,159.46L6.85,161.39L6.92,163.14L7.01,165.07L7.04,166.96L0.05,166.94L0.04,68.20z"/><path style="fill:#7f7f7f" d="M25.89,75.94L26.26,76.18L26.58,76.32L26.71,76.37L26.92,76.49L33.14,78.96L33.08,79.02L31.43,79.30L30.47,79.78L29.35,80.59L28.22,81.85L26.63,84.27L25.40,87.04L24.59,89.43L23.75,93.07L23.32,97.13L23.32,100.44L23.48,102.20L24.11,105.57L24.94,107.63L25.73,108.91L27.00,110.05L28.12,110.53L29.46,110.82L31.54,111.15L32.15,111.27L31.48,111.69L30.06,112.99L28.86,114.51L27.80,116.34L26.63,119.01L25.55,122.41L24.92,125.79L24.60,128.99L24.60,132.46L24.92,135.18L25.39,137.27L26.19,139.35L27.33,140.93L28.59,141.92L30.42,142.37L35.55,143.17L47.70,145.09L47.75,146.97L47.83,149.06L47.91,151.29L47.99,153.38L48.05,154.97L47.98,155.10L32.18,166.96L7.04,166.96L7.01,165.07L6.99,163.20L6.92,163.14L6.85,161.39L6.83,159.52L6.76,159.46L6.69,157.55L6.67,155.67L6.60,155.61L6.53,153.86L6.51,151.99L6.44,151.93L6.37,150.02L6.35,148.15L6.28,148.09L6.21,146.34L6.18,144.47L6.12,144.41L6.05,142.50L6.02,140.78L5.96,140.73L5.89,138.81L5.86,136.94L5.80,136.88L5.73,134.97L5.70,133.26L5.64,133.20L5.57,131.29L5.54,129.42L5.48,129.36L5.41,127.45L5.38,125.73L5.32,125.68L5.25,123.76L5.22,121.89L5.16,121.83L5.09,119.92L5.06,118.21L5.00,118.15L4.93,116.24L4.90,114.37L4.84,114.31L4.84,108.39L5.00,105.51L5.48,101.34L6.12,97.66L7.31,92.64L7.49,92.06L7.65,91.87L7.66,91.57L8.75,88.16L9.27,86.79L9.43,86.46L10.19,84.64L11.47,82.08L13.25,79.05L15.01,76.65L16.06,75.46L17.77,73.92L18.11,73.77z"/><path style="fill:#c8cfee" d="M33.46,166.96L32.18,166.96L47.98,155.10L48.05,154.97L49.51,153.91L49.79,153.83L51.24,153.74z"/><path style="fill:#4c4c4c" d="M64.52,152.29L65.49,152.45L68.79,152.95L72.31,153.91L76.15,155.36L80.06,157.24L80.96,157.77L80.86,158.17L80.74,158.22L69.91,166.45L69.33,166.96L33.46,166.96L51.24,153.74L51.75,153.41L52.40,153.11L53.17,152.94L56.19,152.38L58.27,152.22L61.31,152.13z"/><path style="fill:#c8cfee" d="M88.69,159.49L78.93,166.96L69.33,166.96L69.91,166.45L80.74,158.22L80.86,158.17L80.94,158.23z"/><path style="fill:#4c4c4c" d="M101.51,158.14L106.42,158.87L109.94,159.84L113.77,161.28L115.86,162.24L117.98,163.19L118.14,163.44L118.59,163.69L118.46,164.12L118.35,164.16L114.79,166.96L78.93,166.96L88.69,159.49L89.81,158.95L90.31,158.86L93.17,158.31L97.18,157.99L97.83,157.99z"/><path style="fill:#ffffff" d="M0.03,4.00L0.05,0.05L296.94,0.05L296.96,79.73L286.90,81.61L276.23,84.75L268.39,88.43L267.11,89.23L263.63,92.66L263.72,93.18L263.81,93.66L263.88,94.15L263.97,94.62L264.04,95.11L264.13,95.57L264.20,95.91L264.29,96.38L264.36,96.87L264.45,97.34L264.54,97.83L264.46,98.16L200.28,74.42L200.07,74.19L199.96,74.17L199.17,73.60L199.43,72.15L199.27,67.78L199.12,66.81L197.02,62.67L196.23,61.99L196.07,62.56L196.07,60.89L195.11,56.57L192.70,54.00L192.82,52.57L194.79,39.17L194.79,37.20L194.64,35.75L193.17,33.37L191.26,32.08L190.79,31.91L188.49,31.91L180.02,36.89L179.09,39.00L177.82,47.99L175.90,47.61L174.09,47.61L172.48,47.92L171.21,48.41L166.61,50.53L164.79,51.76L164.14,52.71L163.77,53.75L162.99,53.99L159.31,54.79L151.13,54.64L144.74,53.51L143.94,53.34L135.76,50.72L135.57,50.49L135.43,50.46L131.55,47.76L129.79,47.12L129.26,47.12L127.60,47.60L127.11,47.43L71.03,26.48L56.30,21.03L41.24,15.75L5.71,5.18z"/><path style="fill:#000020" d="M7.66,91.57L7.65,91.87L7.49,92.06L7.41,91.49L7.49,91.42z"/><path style="fill:#000020" d="M118.63,163.26L118.14,163.44L117.98,163.19z"/><path style="fill:#404040" d="M33.34,79.09L33.37,79.19L33.78,79.22L56.15,87.79L56.50,88.03L56.38,88.37L56.48,88.85L56.55,89.19L56.64,89.65L56.72,90.29L56.80,91.26L56.87,92.21L56.87,94.79L56.71,97.03L56.56,98.62L56.07,101.18L55.19,104.66L54.33,106.68L53.05,109.25L51.35,111.55L49.50,113.08L50.11,113.23L52.20,113.55L53.90,113.88L55.04,114.67L56.31,116.28L57.10,118.21L57.67,120.72L57.77,121.19L57.83,121.99L57.92,122.81L58.00,123.43L57.99,126.97L57.77,129.69L57.19,132.89L56.78,134.59L55.82,137.47L54.65,139.98L53.26,142.28L51.51,144.05L50.07,145.01L48.35,145.18L47.70,145.09L35.55,143.17L30.42,142.37L28.59,141.92L27.33,140.93L26.19,139.35L25.39,137.27L24.92,135.18L24.60,132.46L24.60,128.99L24.92,125.79L25.55,122.41L26.63,119.01L27.80,116.34L28.86,114.51L30.06,112.99L31.48,111.69L32.15,111.27L32.14,111.17L31.54,111.15L29.46,110.82L28.12,110.53L27.00,110.05L25.73,108.91L24.94,107.63L24.11,105.57L23.48,102.20L23.32,100.44L23.32,97.13L23.75,93.07L24.59,89.43L25.40,87.04L26.63,84.27L28.22,81.85L29.35,80.59L30.47,79.78L31.43,79.30L33.08,79.02L33.14,78.96z"/><path style="fill:#404040" d="M88.54,158.54L89.67,158.69L89.81,158.95L88.69,159.49L80.94,158.23L80.86,158.17L80.96,157.77L80.06,157.24L80.53,157.25z"/><path style="fill:#404040" d="M120.99,163.67L121.95,164.16L123.08,165.26L123.91,166.96L122.47,166.96L121.64,165.75L120.50,164.80L118.46,164.12L118.59,163.69L118.14,163.44L118.63,163.26z"/><path style="fill:#c0c0c0" d="M5.71,5.18L41.24,15.75L56.30,21.03L71.03,26.48L127.11,47.43L127.18,47.66L127.60,47.60L129.26,47.12L129.79,47.12L131.55,47.76L135.43,50.46L135.33,50.64L135.76,50.72L143.94,53.34L144.74,53.51L151.13,54.64L159.31,54.79L162.99,53.99L163.77,53.75L165.01,53.58L170.82,51.99L172.43,52.01L177.65,54.02L177.83,54.33L178.08,54.35L178.41,54.15L178.77,54.16L183.90,56.09L185.35,57.20L185.82,58.81L185.85,59.72L184.89,66.44L184.78,66.93L184.86,67.30L188.40,69.85L191.98,71.42L192.07,71.63L192.32,71.57L194.84,71.09L195.10,71.32L196.39,71.78L199.17,73.60L199.96,74.17L200.03,74.39L200.28,74.42L264.46,98.16L264.62,98.25L264.54,97.83L264.45,97.34L264.44,96.92L264.36,96.87L264.29,96.38L264.28,95.96L264.20,95.91L264.13,95.57L264.12,95.16L264.04,95.11L263.97,94.62L263.96,94.20L263.88,94.15L263.81,93.66L263.80,93.23L263.72,93.18L263.63,92.66L267.11,89.23L268.39,88.43L276.23,84.75L286.90,81.61L296.96,79.73L296.94,166.94L262.89,166.95L185.75,137.41L182.94,141.80L180.64,144.13L176.70,145.80L175.80,145.98L171.78,145.57L171.09,145.43L159.57,140.95L155.90,138.05L155.56,137.11L155.10,134.97L155.09,134.54L155.01,134.50L154.94,134.17L154.94,133.52L155.03,133.04L155.09,132.78L154.66,132.83L148.15,135.03L143.94,136.05L143.13,136.21L142.50,136.29L139.60,136.28L137.85,136.12L136.99,135.98L136.38,135.32L136.25,135.26L131.12,134.68L130.00,134.52L124.36,132.61L121.62,129.89L121.56,129.36L121.64,128.87L121.67,128.37L121.84,128.10L121.81,127.93L123.31,119.91L123.57,118.48L123.69,117.45L124.05,116.61L122.12,112.43L121.20,112.04L119.28,111.63L116.98,111.01L113.52,109.79L112.86,109.79L112.02,110.10L111.06,110.22L108.99,109.39L104.19,106.30L104.19,105.88L103.90,106.19L56.50,88.03L56.15,87.79L33.78,79.22L33.34,79.09L33.14,78.96L26.92,76.49L26.98,76.24L26.71,76.37L26.58,76.32L26.51,76.10L26.26,76.18L25.89,75.94L18.11,73.77L17.78,73.68L0.04,68.20L0.03,4.00z"/><path style="fill:#000000" d="M191.26,32.08L193.17,33.37L194.64,35.75L194.79,37.20L194.79,39.17L192.82,52.57L192.70,54.00L195.11,56.57L196.07,60.89L196.07,62.56L196.23,61.99L197.02,62.67L199.12,66.81L199.27,67.78L199.43,72.15L199.17,73.60L196.39,71.78L195.10,71.32L194.84,71.09L195.01,70.59L194.95,70.49L194.84,71.09L192.32,71.57L191.98,71.42L188.40,69.85L184.86,67.30L184.78,66.93L184.89,66.44L185.85,59.72L185.82,58.81L185.35,57.20L183.90,56.09L178.77,54.16L178.41,54.15L178.08,54.35L177.83,54.33L177.65,54.02L172.43,52.01L170.82,51.99L165.01,53.58L163.77,53.75L164.14,52.71L164.79,51.76L166.61,50.53L171.21,48.41L172.48,47.92L174.09,47.61L175.90,47.61L177.82,47.99L179.09,39.00L180.02,36.89L188.49,31.91L190.79,31.91z"/><path style="fill:#ffffff" d="M103.90,106.19L104.19,106.30L108.99,109.39L111.06,110.22L112.02,110.10L112.86,109.79L113.52,109.79L116.98,111.01L119.28,111.63L121.20,112.04L122.12,112.43L124.05,116.61L123.69,117.45L123.57,118.48L123.31,119.91L121.81,127.93L121.67,128.37L121.64,128.87L121.38,129.02L120.68,131.12L120.56,131.57L120.18,131.87L120.12,132.71L120.19,133.69L120.35,134.06L121.78,135.67L122.76,136.28L124.82,137.43L127.76,138.20L129.36,138.45L130.32,138.69L131.29,138.69L133.04,138.62L134.37,138.39L134.64,138.29L135.67,138.07L137.16,137.16L137.80,136.35L137.85,136.12L139.60,136.28L142.50,136.29L143.13,136.21L143.94,136.05L148.15,135.03L154.66,132.83L155.03,133.04L154.94,133.52L154.94,134.17L155.01,134.50L155.10,134.97L155.56,137.11L155.90,138.05L159.57,140.95L171.09,145.43L171.78,145.57L175.80,145.98L176.70,145.80L180.64,144.13L182.94,141.80L185.75,137.41L262.89,166.95L123.91,166.96L123.08,165.26L121.95,164.16L120.99,163.67L118.63,163.26L117.98,163.19L115.86,162.24L113.77,161.28L109.94,159.84L106.42,158.87L101.51,158.14L97.83,157.99L97.18,157.99L93.17,158.31L90.31,158.86L90.09,158.70L89.67,158.69L88.54,158.54L80.53,157.25L80.06,157.24L76.15,155.36L72.31,153.91L68.79,152.95L65.49,152.45L64.52,152.29L61.31,152.13L58.27,152.22L56.19,152.38L53.17,152.94L51.23,153.02L50.38,153.32L49.79,153.83L49.51,153.91L48.05,154.97L47.99,153.38L47.97,151.35L47.91,151.29L47.83,149.06L47.81,147.03L47.75,146.97L47.70,145.09L48.35,145.18L50.07,145.01L51.51,144.05L53.26,142.28L54.65,139.98L55.82,137.47L56.78,134.59L57.19,132.89L57.77,129.69L57.99,126.97L58.06,123.49L58.00,123.43L57.92,122.81L57.90,122.05L57.83,121.99L57.77,121.19L57.74,120.78L57.67,120.72L57.10,118.21L56.31,116.28L55.04,114.67L53.90,113.88L52.20,113.55L50.11,113.23L49.50,113.08L51.35,111.55L53.05,109.25L54.33,106.68L55.19,104.66L56.07,101.18L56.56,98.62L56.71,97.03L56.87,94.79L56.94,92.27L56.87,92.21L56.80,91.26L56.78,90.35L56.72,90.29L56.64,89.65L56.63,89.24L56.55,89.19L56.48,88.85L56.45,88.43L56.38,88.37L56.50,88.03z"/><path style="fill:#ffffff" d="M169.07,131.49L169.55,131.55L169.98,131.66L173.36,133.88L175.25,134.70L176.01,134.88L177.23,134.46L177.71,134.30L181.99,135.99L182.01,136.18L179.74,139.87L178.72,141.09L175.95,142.36L175.31,142.46L173.87,142.37L170.29,141.11L160.86,137.41L159.25,136.14L159.10,135.77L159.09,135.34L159.02,135.29L158.69,133.69L158.79,133.20L159.19,131.82L159.31,131.74L162.66,131.09L165.70,131.00z"/><path style="fill:#fffbf0" d="M142.82,63.36L144.84,63.93L146.44,64.58L148.89,65.99L149.23,66.17L150.30,67.28L150.93,68.41L150.94,69.16L150.84,69.80L150.78,69.93L150.13,71.68L149.59,72.10L148.07,73.01L147.97,73.49L147.72,74.23L142.98,74.81L142.49,74.81L135.72,72.90L133.47,70.66L132.51,69.86L132.44,68.85L132.92,65.79L133.04,65.35L133.89,64.41L135.07,63.82L136.24,63.52L137.22,63.37L138.02,63.21L139.12,63.12z"/><path style="fill:#fffbf0" d="M8.75,88.16L7.66,91.57L7.49,91.42L7.56,90.93L7.95,89.28L8.90,87.04L9.15,86.75L9.27,86.79z"/><path style="fill:#fffbf0" d="M121.56,129.36L121.62,129.89L124.36,132.61L130.00,134.52L131.12,134.68L136.25,135.26L136.38,135.32L136.99,135.98L137.85,136.12L137.80,136.35L137.16,137.16L135.67,138.07L134.64,138.29L134.37,138.39L133.04,138.62L131.29,138.69L130.32,138.69L129.36,138.45L127.76,138.20L124.82,137.43L122.76,136.28L121.78,135.67L120.35,134.06L120.19,133.69L120.34,132.78L120.12,132.71L120.18,131.87L120.56,131.57L120.72,131.29L120.68,131.12L121.38,129.02z"/><path style="fill:#000020" d="M127.60,47.60L127.18,47.66L127.11,47.43z"/><path style="fill:#000020" d="M135.76,50.72L135.33,50.64L135.43,50.46L135.57,50.49z"/><path style="fill:#000020" d="M134.90,50.53L134.70,50.47L134.93,50.34z"/><path style="fill:#000020" d="M132.92,65.79L132.94,65.38L133.04,65.35z"/><path style="fill:#000020" d="M149.23,66.17L148.89,65.99L149.50,66.01z"/><path style="fill:#000020" d="M191.98,71.42L192.32,71.57L192.07,71.63z"/><path style="fill:#000020" d="M18.11,73.77L17.77,73.92L17.78,73.68z"/><path style="fill:#000020" d="M200.28,74.42L200.03,74.39L199.96,74.17L200.07,74.19z"/><path style="fill:#000020" d="M26.26,76.18L26.51,76.10L26.58,76.32z"/><path style="fill:#000020" d="M26.92,76.49L26.71,76.37L26.98,76.24z"/><path style="fill:#000020" d="M33.78,79.22L33.37,79.19L33.34,79.09z"/><path style="fill:#000020" d="M9.27,86.79L9.15,86.75L9.43,86.46z"/><path style="fill:#000020" d="M56.48,88.85L56.38,88.37L56.45,88.43z"/><path style="fill:#000020" d="M56.64,89.65L56.55,89.19L56.63,89.24z"/><path style="fill:#000020" d="M56.80,91.26L56.72,90.29L56.78,90.35z"/><path style="fill:#000020" d="M263.81,93.66L263.72,93.18L263.80,93.23z"/><path style="fill:#000020" d="M263.97,94.62L263.88,94.15L263.96,94.20z"/><path style="fill:#000020" d="M56.87,94.79L56.87,92.21L56.94,92.27z"/><path style="fill:#000020" d="M264.13,95.57L264.04,95.11L264.12,95.16z"/><path style="fill:#000020" d="M264.29,96.38L264.20,95.91L264.28,95.96z"/><path style="fill:#000020" d="M264.45,97.34L264.36,96.87L264.44,96.92z"/><path style="fill:#000020" d="M264.62,98.25L264.46,98.16L264.54,97.83z"/><path style="fill:#000020" d="M104.19,106.30L103.90,106.19L104.19,105.88z"/><path style="fill:#000020" d="M32.15,111.27L31.54,111.15L32.14,111.17z"/><path style="fill:#000020" d="M141.87,114.94L141.90,114.69L142.15,114.65z"/><path style="fill:#000020" d="M4.93,116.24L4.84,114.31L4.90,114.37z"/><path style="fill:#000020" d="M5.09,119.92L5.00,118.15L5.06,118.21z"/><path style="fill:#000020" d="M268.59,120.67L268.39,120.68L268.43,120.32L268.62,120.29z"/><path style="fill:#000020" d="M57.77,121.19L57.67,120.72L57.74,120.78z"/><path style="fill:#000020" d="M268.55,121.07L268.75,121.08L268.78,121.46L268.59,121.43z"/><path style="fill:#000020" d="M57.92,122.81L57.83,121.99L57.90,122.05z"/><path style="fill:#000020" d="M5.25,123.76L5.16,121.83L5.22,121.89z"/><path style="fill:#000020" d="M57.99,126.97L58.00,123.43L58.06,123.49z"/><path style="fill:#000020" d="M5.41,127.45L5.32,125.68L5.38,125.73z"/><path style="fill:#000020" d="M121.84,128.10L121.67,128.37L121.81,127.93z"/><path style="fill:#000020" d="M121.38,129.02L121.64,128.87L121.56,129.36z"/><path style="fill:#000020" d="M5.57,131.29L5.48,129.36L5.54,129.42z"/><path style="fill:#000020" d="M169.55,131.55L169.07,131.49L169.52,131.36z"/><path style="fill:#000020" d="M120.72,131.29L120.56,131.57L120.68,131.12z"/><path style="fill:#000020" d="M154.66,132.83L155.09,132.78L155.03,133.04z"/><path style="fill:#000020" d="M120.19,133.69L120.12,132.71L120.34,132.78z"/><path style="fill:#000020" d="M177.71,134.30L177.23,134.46L177.45,134.19z"/><path style="fill:#000020" d="M155.10,134.97L155.01,134.50L155.09,134.54z"/><path style="fill:#000020" d="M5.73,134.97L5.64,133.20L5.70,133.26z"/><path style="fill:#000020" d="M159.10,135.77L159.02,135.29L159.09,135.34z"/><path style="fill:#000020" d="M5.89,138.81L5.80,136.88L5.86,136.94z"/><path style="fill:#000020" d="M6.05,142.50L5.96,140.73L6.02,140.78z"/><path style="fill:#000020" d="M6.21,146.34L6.12,144.41L6.18,144.47z"/><path style="fill:#000020" d="M47.83,149.06L47.75,146.97L47.81,147.03z"/><path style="fill:#000020" d="M6.37,150.02L6.28,148.09L6.35,148.15z"/><path style="fill:#000020" d="M47.99,153.38L47.91,151.29L47.97,151.35z"/><path style="fill:#000020" d="M6.53,153.86L6.44,151.93L6.51,151.99z"/><path style="fill:#000020" d="M6.69,157.55L6.60,155.61L6.67,155.67z"/><path style="fill:#000020" d="M90.31,158.86L89.81,158.95L89.67,158.69L90.09,158.70z"/><path style="fill:#000020" d="M6.85,161.39L6.76,159.46L6.83,159.52z"/><path style="fill:#000020" d="M7.01,165.07L6.92,163.14L6.99,163.20z"/><path style="fill:#404040" d="M52.40,153.11L51.75,153.41L51.24,153.74L49.79,153.83L50.38,153.32L51.23,153.02L53.17,152.94z"/><path style="fill:#c8cfee" d="M120.50,164.80L121.64,165.75L122.47,166.96L114.79,166.96L118.35,164.16L118.46,164.12z"/><path style="fill:#ffffff" d="M184.69,50.39L184.49,50.35L184.71,49.84z"/><path style="fill:#ffffff" d="M195.01,70.59L194.84,71.09L194.95,70.49z"/><path style="fill:#ffffff" d="M144.96,112.78L142.04,115.81L141.75,115.83L141.87,114.94L142.15,114.65L145.02,112.29z"/><g id="Actor_.0"><g style="stroke:#282828;stroke-width:0.106"><path d="M38.69,81.11L33.83,78.12L31.16,71.03L31.12,60.89L33.73,49.27L38.59,37.98L44.94,28.79L51.77,23.11L34.79,17.09L-0.00,6.69"/><path d="M122.48,49.42L51.77,23.11L54.30,22.07L55.33,21.91L56.67,21.69L58.85,21.98"/></g><g style="stroke:#282828;stroke-width:0.353"><path d="M-0.00,68.09L20.53,74.47L33.83,78.12"/><path d="M-0.00,3.99L6.69,5.48L41.99,16.02L58.85,21.98L127.64,47.63"/><path d="M25.42,75.81L38.69,81.11L104.37,106.28"/></g></g><g id="Actor_.1"><g style="stroke:#282828;stroke-width:0.106"><path d="M172.03,52.00L172.33,49.86L168.79,51.10L167.30,51.22L164.90,52.51L164.33,53.76"/><path d="M167.04,53.06L167.30,51.22L167.29,50.67L167.45,50.45L164.81,51.86"/><path d="M165.71,51.19L165.71,51.19"/><path d="M166.21,50.81L167.84,50.17L172.12,48.51L172.33,48.44L173.81,48.14L172.56,48.86L168.27,50.26L167.45,50.45"/><path d="M168.27,50.26L168.64,50.55L168.79,51.10L168.58,52.64"/><path d="M172.33,49.86L173.43,49.54L176.37,49.55L187.34,53.59L187.56,53.07L187.77,52.86L189.18,54.67L189.02,54.93L190.27,54.20L188.31,52.51L188.39,52.48L189.41,52.17L189.43,52.17L192.67,53.89L195.23,56.67L196.20,61.21L192.27,63.72L191.43,59.15L189.36,56.57L189.91,55.53L190.19,55.02L190.31,54.39L190.27,54.20"/><path d="M172.95,49.68L172.86,49.19L172.56,48.86L173.04,48.72L176.74,48.80L187.77,52.86"/><path d="M173.04,52.25L173.43,49.54L173.34,49.05L173.04,48.72"/><path d="M173.81,48.14L177.34,48.47L178.42,48.11"/><path d="M176.74,48.80L176.50,49.09L176.37,49.55L175.85,53.28"/><path d="M175.11,47.48L178.40,48.11"/><path d="M188.31,52.51L177.34,48.47"/><path d="M178.50,48.14L178.51,48.15"/><path d="M186.06,67.18L186.62,67.83L186.75,68.57"/><path d="M186.20,66.18L185.79,64.41L187.34,53.59L188.45,55.08L188.70,54.71L189.18,54.67"/><path d="M185.79,64.41L186.36,65.06"/><path d="M186.62,67.83L188.12,57.39L190.41,60.40L190.92,64.01L191.77,64.02L190.78,70.88"/><path d="M188.12,57.39L187.57,56.59L187.86,56.22L188.38,56.23L188.69,56.74L188.45,56.94L188.12,57.39"/><path d="M188.38,56.23L189.02,54.93L188.54,54.97L188.29,55.34"/><path d="M188.69,56.74L191.20,60.05L191.77,64.02L192.27,63.72L191.21,71.06"/><path d="M190.92,64.01L189.98,70.54"/><path d="M191.91,66.28L196.00,63.05"/><path d="M191.43,59.15L195.23,56.67L195.24,56.61"/><path d="M196.16,60.91L196.16,60.93"/></g><g style="stroke:#282828;stroke-width:0.353"><path d="M163.75,53.88L164.04,52.97L164.81,51.86L166.21,50.81L171.08,48.47L173.76,47.69L172.60,47.94L171.91,48.23"/><path d="M173.76,47.69L175.11,47.48L175.36,47.52L178.39,48.11L178.51,48.15"/><path d="M178.43,48.12L189.43,52.17L192.65,53.84L195.24,56.61L196.16,60.93L196.20,61.21L196.00,63.05L194.92,71.19"/><path d="M188.45,55.08L188.09,55.68L187.57,56.59L186.06,67.18L186.24,68.20"/></g></g><g id="Actor_.2"><g style="stroke:#282828;stroke-width:0.106"><path d="M101.99,88.45L104.10,89.25L103.96,99.83L106.50,107.19L111.32,110.21"/><path d="M119.90,109.88L117.82,109.96L113.81,109.74L111.55,109.06L108.27,104.43L107.04,98.02L107.38,89.89L106.17,89.43L104.10,89.25L106.93,77.07L112.01,65.18L118.57,55.44L125.51,49.41L131.82,47.93"/><path d="M132.88,49.58L126.81,51.02L120.09,56.86L113.80,66.23L108.90,77.68L106.17,89.43L106.03,99.63L108.48,106.72"/><path d="M108.27,104.43L114.57,106.55L117.55,107.70L119.82,109.13L121.30,110.75L122.08,112.05"/><path d="M107.38,89.89L109.45,80.28L113.08,70.58L122.28,73.94L126.29,76.19L127.49,77.33L127.67,77.56L128.12,78.21L128.45,78.83L128.88,78.45L129.13,78.41L128.89,77.90L128.39,76.73L126.78,72.49L126.21,71.12L125.62,69.83L125.43,69.44L122.44,65.14L117.75,62.09L113.08,70.58"/><path d="M132.74,49.95L128.01,51.47L122.83,55.64L117.75,62.09"/><path d="M123.81,115.77L123.70,115.40L124.41,117.06L126.92,119.53L131.46,121.29L136.49,121.74L140.31,120.74L140.14,121.02"/><path d="M128.45,78.83L130.07,82.30L130.83,83.72L131.23,83.24L132.42,84.71L136.07,86.69L140.80,87.70L145.11,87.42L146.66,86.80L146.80,87.03L146.83,87.40L143.01,88.37L137.95,87.90L133.37,86.15L130.83,83.72L124.41,117.05L124.62,117.55"/><path d="M125.79,119.03L129.41,121.03L134.12,122.04L138.41,121.73L139.95,121.10L139.59,121.46"/><path d="M128.01,51.47L147.31,58.65L147.57,58.83L147.12,59.11L146.68,59.47L146.25,59.87L145.77,60.40L145.38,60.89L144.67,61.87L143.94,63.04L143.66,63.61"/><path d="M130.07,82.30L130.33,81.94L130.78,81.80L129.13,78.41L131.28,78.67"/><path d="M131.28,81.09L131.02,81.32L130.78,81.80L131.23,83.24"/><path d="M131.75,81.95L131.78,83.06L134.32,85.22L138.53,86.73L143.07,87.09L145.00,86.79L145.61,86.55"/><path d="M141.39,117.79L140.31,120.74L146.83,87.40"/><path d="M141.99,114.75L145.52,111.67"/><path d="M145.94,110.60L142.15,113.90"/><path d="M142.42,112.55L146.05,109.48L146.53,108.94"/><path d="M164.91,53.64L165.02,54.01L165.26,60.62L162.89,59.76L160.79,59.08L156.22,57.71L151.89,56.96L151.56,56.99L147.35,58.63L147.31,58.65L147.13,58.86L146.96,58.92L146.60,59.11L145.89,59.77L145.48,60.22L144.83,61.05L144.46,61.57L144.09,62.13L143.59,62.96L143.28,63.51"/><path d="M172.34,51.99L165.02,54.01L158.61,55.11L151.02,54.75L144.29,53.46"/><path d="M146.58,86.66L146.66,86.80L146.79,86.68"/><path d="M145.72,64.27L148.87,60.25L147.57,58.83L150.89,57.37"/><path d="M147.62,63.37L148.96,61.65L149.07,60.84L154.25,59.35L153.97,60.22L153.69,60.59"/><path d="M148.96,61.65L151.42,60.55L153.97,60.22L157.42,61.28L162.19,63.24L162.08,63.69L162.16,63.98L162.62,64.14L162.64,64.15L162.58,64.06L162.56,63.90L162.59,63.70L163.04,63.69L163.25,63.66L162.97,64.05L162.64,64.15L163.50,64.64L163.82,64.53L164.11,64.15L164.46,64.40L164.35,64.56L163.67,64.76L163.50,64.64"/><path d="M149.07,60.84L148.87,60.25L154.16,58.77L154.25,59.35L157.82,60.39L162.60,62.28L163.26,62.52L163.64,62.68L163.25,63.66L162.87,63.49L162.19,63.24L162.60,62.28L162.79,61.97L163.25,62.14L164.85,61.14L165.28,60.77L165.15,60.72L165.26,60.62L165.39,60.67L165.28,60.77L165.66,61.04L165.85,61.43L165.80,61.48L165.25,61.68L164.85,61.14"/><path d="M154.16,58.77L157.79,59.87L162.79,61.97"/><path d="M162.16,63.98L159.61,62.95L157.02,61.82"/><path d="M159.17,58.73L165.15,60.72"/><path d="M162.59,63.70L162.64,63.51L163.06,62.45L163.25,62.14L163.64,62.68L165.25,61.68L164.11,64.15L163.25,63.66"/><path d="M163.67,64.76L164.34,65.85"/><path d="M165.23,60.82L165.62,61.09L165.80,61.48L164.46,64.40L165.14,65.51"/><path d="M171.75,57.97L165.85,61.43L165.76,60.99L165.39,60.67L171.39,57.16"/><path d="M169.63,56.16L172.19,54.66L172.09,55.36"/><path d="M172.19,54.66L175.30,55.38L177.70,53.97L177.99,54.44"/><path d="M175.30,55.38L175.48,55.62"/></g><g style="stroke:#282828;stroke-width:0.353"><path d="M113.31,109.67L111.32,110.21L109.22,109.41L104.40,106.38L101.85,99.03L101.99,88.44L104.81,76.26L109.89,64.39L109.94,64.32L116.43,54.67L123.39,48.63L129.71,47.14L131.82,47.93L136.05,50.85"/><path d="M108.48,106.72L111.55,109.06L113.11,109.64L113.47,109.71"/><path d="M111.80,109.15L118.44,111.38L122.15,112.21"/><path d="M118.23,109.34L119.36,109.72L120.40,110.02"/><path d="M119.09,108.95L120.76,110.31L120.46,109.97L119.82,109.13"/><path d="M119.71,109.82L119.90,109.88"/><path d="M120.46,109.97L121.57,111.25L122.08,112.05L123.70,115.40"/><path d="M125.79,119.03L125.66,118.90L124.62,117.55L123.81,115.77L122.08,112.05"/><path d="M122.46,112.84L122.21,112.32"/><path d="M124.62,117.55L124.98,118.33L127.49,120.52L131.67,122.03L136.18,122.38L138.11,122.07L139.59,121.46L139.98,121.08"/><path d="M136.23,50.93L132.88,49.58"/><path d="M132.74,49.95L136.88,51.11L146.21,54.08"/><path d="M139.95,121.10L140.14,121.02L141.13,120.11L141.39,117.79L147.47,86.76"/><path d="M141.96,114.87L145.46,111.83"/><path d="M177.99,54.44L177.70,53.97L172.34,51.99L170.80,52.04L164.91,53.63L159.29,54.85L151.53,54.74L144.22,53.44"/><path d="M147.33,86.74L146.83,87.40"/><path d="M146.84,64.74L149.06,60.85L149.00,60.93"/><path d="M148.96,61.65L147.48,63.61"/><path d="M152.92,57.30L150.89,57.37L147.35,58.63L147.40,58.62"/><path d="M153.69,60.59L150.88,60.93L148.84,61.81"/><path d="M150.88,60.93L151.35,60.73"/><path d="M153.58,57.21L154.06,57.26L159.17,58.73L151.56,56.99"/><path d="M153.30,60.63L157.02,61.82"/><path d="M171.65,58.65L171.75,57.97L171.68,57.50L171.39,57.16L169.63,56.16"/></g></g><g id="Actor_.3"><g style="stroke:#282828;stroke-width:0.106"><path d="M179.17,39.04L179.21,39.12L177.95,48.02"/><path d="M179.21,39.12L181.97,35.89L186.36,37.50L187.98,42.33L188.15,42.33L194.98,38.35"/><path d="M179.86,48.64L181.11,39.81L181.28,39.82L180.02,48.70"/><path d="M181.11,39.81L181.63,38.62L182.67,37.99L183.97,38.09L184.01,38.17"/><path d="M184.07,38.20L181.28,39.82L181.78,38.67L182.78,38.07"/><path d="M182.00,35.74L184.33,35.92L186.27,37.24L186.49,37.38L187.88,39.73L188.15,42.33L186.87,51.23"/><path d="M183.97,38.09L185.16,38.90L185.20,38.97L185.93,40.19L186.07,41.63L186.03,41.56"/><path d="M186.07,41.63L184.81,50.47"/><path d="M184.33,35.92L191.18,31.97"/><path d="M186.71,51.17L187.98,42.33"/><path d="M188.85,31.78L188.83,31.79"/><path d="M197.82,72.62L199.61,71.54"/></g><g style="stroke:#282828;stroke-width:0.353"><path d="M192.74,53.93L194.98,38.35L194.72,35.76L193.33,33.42L191.18,31.97L188.85,31.79L182.00,35.74L180.11,36.88L179.17,39.04L177.90,48.01"/><path d="M182.78,38.07L184.01,38.16L185.15,38.94L185.89,40.18L186.03,41.56L184.76,50.45"/><path d="M199.30,73.67L199.61,71.54L199.28,67.02L197.17,62.74L196.13,61.81"/></g></g><g id="Actor_.4"><g style="stroke:#282828;stroke-width:0.106"><path d="M133.56,83.57L133.44,84.22"/></g><g style="stroke:#282828;stroke-width:0.353"><path d="M142.57,86.21L142.45,86.81L139.15,86.56L135.93,85.63L133.44,84.22L132.99,83.24"/></g></g><g id="Actor_.5"><g style="stroke:#282828;stroke-width:0.106"><path d="M128.72,120.96L128.56,121.75"/><path d="M139.60,121.58L139.63,121.42"/></g><g style="stroke:#282828;stroke-width:0.353"><path d="M125.33,118.63L125.25,119.04"/><path d="M137.83,122.66L137.94,122.10"/></g></g><g id="Actor_.6"><g style="stroke:#282828;stroke-width:0.106"><path d="M118.69,163.72L114.51,167.00"/><path d="M118.46,164.11L118.43,164.11"/></g><g style="stroke:#282828;stroke-width:0.353"><path d="M114.78,167.00L118.46,164.11L118.63,163.96L118.69,163.72L114.57,161.65L110.34,160.03L106.06,158.88L101.78,158.20L97.53,158.02L93.39,158.32L89.39,159.11L79.09,167.00"/></g></g><g id="Actor_.7"><g style="stroke:#282828;stroke-width:0.106"><path d="M4.93,113.60L16.24,115.32L18.37,167.00"/><path d="M16.24,115.32L16.21,111.32L16.25,110.58L16.44,107.20L16.92,103.03L17.65,98.90L18.61,94.87L19.79,91.02L21.16,87.40L22.70,84.10L24.39,81.15L26.19,78.62L27.85,76.79"/></g><g style="stroke:#282828;stroke-width:0.353"><path d="M7.20,167.00L4.93,113.60L4.89,109.60L5.02,107.20L5.11,105.48L5.59,101.33L6.32,97.20L7.28,93.18L8.46,89.34L9.84,85.73L11.39,82.43L13.09,79.49L14.89,76.97L16.79,74.90L18.20,73.75"/><path d="M47.72,145.04L48.09,155.14"/></g></g><g id="Actor_.8"><g style="stroke:#282828;stroke-width:0.106"><path d="M81.06,157.79L68.96,167.00"/><path d="M80.84,158.18L80.80,158.18"/></g><g style="stroke:#282828;stroke-width:0.353"><path d="M69.25,167.00L80.84,158.18L81.01,158.02L81.06,157.79L77.09,155.79L76.94,155.72L72.81,154.13L68.57,152.98L64.34,152.32L60.15,152.14L56.06,152.44L52.12,153.23L33.61,167.00"/></g></g><g id="Actor_.9"><g style="stroke:#282828;stroke-width:0.106"><path d="M30.20,79.95L39.03,81.24"/><path d="M47.33,113.49L46.01,113.02L44.82,111.96L43.81,110.35L43.03,108.25L42.58,106.07L42.51,105.73L42.25,102.91L42.29,99.88L42.57,97.04L42.60,96.76L43.19,93.68L44.02,90.76L45.08,88.11L46.30,85.82L47.34,84.43"/></g><g style="stroke:#282828;stroke-width:0.353"><path d="M56.32,87.87L56.70,89.71L56.94,92.52L56.91,95.52L56.59,98.61L56.01,101.65L55.19,104.55L54.15,107.20L52.95,109.45L51.60,111.30L50.18,112.61L48.74,113.35L47.33,113.49L28.49,110.64L27.15,110.17L25.95,109.11L24.94,107.50L24.14,105.40L23.61,102.89L23.34,100.08L23.37,97.05L23.68,93.95L24.27,90.88L25.11,87.96L26.17,85.32L27.40,83.05L28.76,81.23L30.20,79.95L31.66,79.24L33.08,79.14L34.12,79.29"/></g></g><g id="Actor_.10"><g style="stroke:#282828;stroke-width:0.106"><path d="M49.57,154.04L50.58,153.66L51.55,153.65"/><path d="M52.58,153.14L52.44,153.11L51.72,153.07L51.03,153.18L50.40,153.44L50.25,153.55"/><path d="M52.34,153.18L52.44,153.11L52.65,152.99L52.88,152.96"/><path d="M88.87,159.51L80.77,158.23"/><path d="M80.58,157.55L89.86,159.01"/><path d="M122.54,167.00L122.23,166.38L121.37,165.38L120.30,164.66L119.13,164.28L118.39,164.16"/><path d="M119.13,164.28L119.82,163.73L118.20,163.48"/><path d="M120.27,163.57L119.82,163.73L120.56,163.93L121.28,164.26L121.94,164.73L122.53,165.30L123.02,165.97L123.38,166.70L123.48,167.00"/></g><g style="stroke:#282828;stroke-width:0.353"><path d="M49.57,154.04L50.40,153.44L50.67,153.30L51.32,153.05L52.24,152.92L52.88,152.96L53.22,153.01"/><path d="M90.51,158.88L79.92,157.22"/><path d="M123.87,167.00L123.69,166.35L123.35,165.68L122.90,165.04L122.34,164.50L121.72,164.08L121.08,163.79L120.27,163.57L117.53,163.14"/></g></g><g id="Actor_.11"><g style="stroke:#282828;stroke-width:0.106"><path d="M7.70,91.82L7.81,91.11L7.95,90.38L8.13,89.67L8.34,88.99L8.58,88.34L8.85,87.73L9.14,87.17L9.45,86.67L9.52,86.57"/></g><g style="stroke:#282828;stroke-width:0.353"><path d="M9.61,86.34L9.33,86.68L9.22,86.82L8.64,87.84L8.16,89.05L7.78,90.40L7.54,91.81L7.48,92.53"/></g></g><g id="Actor_.12"><g style="stroke:#282828;stroke-width:0.106"><path d="M48.75,145.20L47.41,144.87L46.20,143.95L45.17,142.47L44.35,140.47L43.78,138.06L43.48,135.31L43.46,132.33L43.73,129.24L24.88,126.33"/><path d="M43.73,129.24L44.27,126.15L45.06,123.20L46.07,120.48L47.26,118.12L48.59,116.20L50.00,114.78L51.44,113.94L52.85,113.70"/></g><g style="stroke:#282828;stroke-width:0.353"><path d="M49.15,113.14L52.85,113.70L54.18,114.05L55.38,115.00L56.40,116.50L57.20,118.50L57.76,120.91L58.05,123.64L58.06,126.60L57.80,129.66L57.27,132.71L56.85,134.28L56.49,135.64L55.49,138.34L54.31,140.70L53.00,142.63L51.59,144.05L50.16,144.92L48.75,145.20L29.99,142.26L28.64,141.93L27.41,141.01L26.37,139.53L25.53,137.54L24.95,135.13L24.65,132.39L24.62,129.42L24.84,126.80L24.88,126.33L25.42,123.26L26.22,120.31L26.48,119.61L27.23,117.61L28.43,115.25L29.77,113.34L31.19,111.94L32.41,111.23"/></g></g><g id="Actor_.13"><g style="stroke:#282828;stroke-width:0.106"><path d="M115.66,167.00L119.12,164.28"/></g><g style="stroke:#282828;stroke-width:0.353"><path d="M51.55,153.65L50.58,153.66L49.57,154.04L32.14,167.00"/><path d="M88.87,159.51L80.77,158.23"/><path d="M118.39,164.16L119.13,164.28L120.30,164.66L121.37,165.38L122.23,166.38L122.53,167.00"/></g></g><g id="Actor_.14"><g style="stroke:#282828;stroke-width:0.106"><path d="M263.76,92.71L264.70,95.94L270.44,98.04L280.15,98.68L292.35,97.75L297.00,96.89"/><path d="M265.37,92.50L269.12,88.85L270.60,97.14"/><path d="M297.00,80.22L287.53,81.97L276.90,85.16L269.12,88.85"/></g><g style="stroke:#282828;stroke-width:0.353"><path d="M267.19,111.92L263.76,92.71L267.72,88.87L275.91,84.98L287.09,81.64L297.00,79.80"/><path d="M265.37,92.50L266.27,95.56L271.73,97.56L280.95,98.17L292.53,97.28L297.00,96.45"/><path d="M267.43,113.29L269.31,123.84"/></g></g><g id="Actor_.15"><g style="stroke:#282828;stroke-width:0.106"><path d="M265.50,102.47L190.36,74.51"/><path d="M278.84,167.00L281.43,160.15L281.09,154.57L279.14,148.76L274.21,137.76L269.99,127.06L267.53,116.85L267.32,115.10L267.53,116.25"/><path d="M267.32,115.10L267.41,112.98"/><path d="M267.36,115.08L267.50,116.04"/></g><g style="stroke:#282828;stroke-width:0.353"><path d="M182.27,135.98L175.19,133.28"/><path d="M185.81,137.34L263.40,167.00"/><path d="M264.76,98.32L196.08,72.90"/><path d="M267.53,116.85L270.16,127.17"/><path d="M267.45,113.41L267.36,115.08L267.76,117.73"/><path d="M269.78,125.68L270.17,126.63"/><path d="M278.59,145.99L274.71,137.69L271.25,129.27"/><path d="M279.03,167.00L281.35,162.61L281.60,161.25"/><path d="M281.71,160.66L282.36,157.11L280.65,150.39L279.76,148.48"/></g></g><g id="Actor_.16"><g style="stroke:#282828;stroke-width:0.106"><path d="M155.77,130.05L154.25,130.78L147.54,134.23L140.96,135.73L130.98,134.64L133.13,123.50L128.46,122.36L124.98,120.30L123.72,117.94L124.36,116.99"/><path d="M126.63,121.74L124.07,119.51"/><path d="M126.70,121.81L131.20,123.43L133.10,123.74L137.77,124.26L133.10,123.72"/><path d="M130.93,80.24L132.22,82.58L135.77,84.63L140.49,85.77L140.44,85.97"/><path d="M133.13,123.50L141.88,124.46L140.26,120.91"/><path d="M137.77,124.26L143.06,124.85L140.96,135.73L140.67,136.27L137.56,135.93L137.11,135.97"/><path d="M137.56,135.93L137.83,135.39"/><path d="M140.25,136.32L140.67,136.27L141.41,136.32"/><path d="M141.16,119.82L143.07,123.98L143.13,123.99L144.02,123.80L144.59,123.13L144.94,123.42L145.20,123.49L144.39,124.56L143.06,124.85L143.07,123.98L141.81,123.84L140.41,120.77"/><path d="M150.30,87.15L150.52,86.90L140.49,85.77L142.62,74.79"/><path d="M141.88,124.46L141.81,123.84"/><path d="M145.20,123.49L148.64,105.73L148.31,105.48L144.59,123.13L141.62,116.66L144.99,113.05"/><path d="M141.62,116.66L141.91,116.14"/><path d="M147.91,74.48L148.31,75.32L143.23,74.75"/><path d="M144.55,135.93L148.05,134.83L154.66,132.09L155.41,131.82"/><path d="M147.66,135.14L154.85,132.67L155.26,132.55"/><path d="M175.93,134.84L171.32,131.88L168.98,124.53L169.30,113.89L167.13,113.07L166.29,112.13L155.38,108.05L149.53,106.02L148.64,105.73L152.03,88.80L151.39,88.52L148.31,105.48"/><path d="M149.04,87.01L149.24,86.96"/><path d="M148.40,72.88L152.60,73.35L152.77,74.73L152.80,75.21L152.74,75.81L148.31,75.31L148.31,75.32"/><path d="M148.31,75.31L148.35,74.23L148.19,73.02"/><path d="M148.35,74.23L152.77,74.73L154.44,75.13L155.97,75.83L158.61,77.61L163.37,81.76L168.15,85.84L172.68,88.46L170.77,92.39L169.21,96.11L166.60,104.10L165.05,111.66L164.56,118.66L165.20,124.51L166.54,128.18L163.88,127.68L160.80,128.06L159.86,128.39"/><path d="M172.68,88.46L174.46,85.29L171.37,83.88L168.52,82.23L163.42,78.83L158.36,75.56L152.60,73.35L152.50,72.96L148.98,72.56"/><path d="M153.96,66.48L149.28,66.21"/><path d="M149.12,66.08L149.18,66.14"/><path d="M152.03,88.80L151.68,87.48L150.52,86.90L151.32,82.97L152.74,75.81L153.72,76.02L155.20,76.74L157.57,78.79L161.61,83.90L165.64,88.81L170.77,92.39"/><path d="M150.30,71.58L150.36,71.70"/><path d="M150.94,69.50L150.97,69.57L151.07,69.98L150.93,71.00"/><path d="M151.07,69.98L152.50,72.96L153.07,73.04L157.46,74.24L161.64,75.79L163.53,76.55L169.65,79.09L173.65,80.72L176.65,81.88L174.46,85.29"/><path d="M163.75,66.22L164.46,65.78L165.73,65.51L162.43,67.14L158.03,66.90"/><path d="M159.00,67.10L162.92,67.24L166.13,65.66L166.29,65.56L185.65,72.76L181.12,76.43L176.65,81.88"/><path d="M161.87,130.59L159.23,131.37"/><path d="M166.54,128.18L167.57,129.72L161.19,129.75L159.44,130.37"/><path d="M186.88,73.22L180.29,79.19L174.04,88.70L169.11,100.28L166.29,112.13L165.99,122.38L168.26,129.46"/><path d="M167.94,64.38L165.73,65.51L165.94,65.46L166.30,65.46L166.29,65.56"/><path d="M165.59,64.35L165.47,64.32L165.41,64.32L165.42,64.42L165.51,64.56L165.67,64.69L165.75,64.42L165.59,64.35"/><path d="M165.20,64.64L165.25,64.43L165.41,64.32L165.39,64.78"/><path d="M165.41,64.32L165.79,63.48L166.14,63.59L166.68,63.79L166.32,64.63L166.21,65.08"/><path d="M166.89,64.80L166.32,64.63L165.75,64.42L166.14,63.59L166.42,63.06L166.89,61.80L167.24,61.40L167.41,61.47L167.61,61.30L167.44,61.24L167.24,61.40"/><path d="M165.40,64.80L165.72,65.15L165.88,65.21"/><path d="M165.67,64.69L165.64,64.89L165.66,65.03L165.72,65.15L165.56,65.25L165.55,65.23"/><path d="M165.79,63.48L166.36,61.99L166.89,61.80L166.53,61.79"/><path d="M165.89,63.26L166.42,63.06L167.00,63.27L166.68,63.79L168.15,64.32"/><path d="M169.17,131.05L166.83,123.70L167.13,113.07L170.07,100.77L175.18,88.75L181.67,78.88L188.50,72.68"/><path d="M166.30,65.46L169.56,64.03L172.52,63.84L172.16,63.24"/><path d="M167.00,63.27L169.31,63.95"/><path d="M167.04,61.26L167.44,61.24L173.54,57.66L172.75,58.03L171.68,57.51"/><path d="M169.12,130.96L168.59,130.69L167.57,129.72"/><path d="M167.61,61.30L181.44,59.93L180.53,62.80L182.91,66.35L188.09,69.75L192.55,71.63"/><path d="M167.41,61.47L171.36,63.11L171.68,63.28L172.06,63.78"/><path d="M169.30,113.89L172.24,101.59L177.35,89.56L183.83,79.69L190.67,73.49L196.80,71.89"/><path d="M169.39,63.93L169.36,63.93"/><path d="M173.54,57.66L170.60,56.23"/><path d="M176.23,133.94L176.63,133.82"/><path d="M183.57,65.50L184.09,61.89L183.31,60.29L182.44,59.97L181.44,59.93L184.04,56.10"/><path d="M183.16,64.13L183.35,63.20L183.84,62.27L185.97,59.11"/><path d="M185.65,72.76L190.26,71.17"/><path d="M196.50,72.79L197.29,73.34"/></g><g style="stroke:#282828;stroke-width:0.353"><path d="M137.83,135.39L130.98,134.64L130.11,134.52L124.49,132.64L121.62,129.68L123.76,118.16"/><path d="M124.27,116.79L123.95,117.11L123.72,117.94L124.00,119.45"/><path d="M133.12,70.30L130.93,80.24L130.94,80.47L132.22,82.79L135.73,84.83L140.44,85.97L149.24,86.96"/><path d="M136.71,135.27L136.97,135.83L137.11,135.97L140.25,136.32L141.41,136.32L141.96,136.31L142.56,136.27L143.23,136.18L144.55,135.93L147.68,135.13"/><path d="M144.04,135.46L142.34,136.06L141.41,136.32"/><path d="M141.75,115.98L142.03,116.03"/><path d="M141.91,116.14L144.99,113.05L146.47,109.21L147.67,104.26L148.50,99.00L148.92,93.38L148.71,86.90"/><path d="M145.06,112.87L144.82,113.22"/><path d="M147.66,135.14L151.26,133.99L154.22,132.96"/><path d="M147.91,74.48L148.19,73.02L148.40,72.88L150.22,71.88L150.93,71.00"/><path d="M151.39,88.52L150.36,87.16L149.04,87.01L149.00,86.93"/><path d="M158.99,67.10L156.18,66.72L153.96,66.48L149.09,66.08"/><path d="M153.44,133.16L155.23,132.69"/><path d="M162.43,67.14L154.74,66.56"/><path d="M156.44,66.75L158.03,66.90"/><path d="M170.01,131.59L165.01,130.85L161.94,131.12L159.15,131.76"/><path d="M161.87,130.59L168.59,130.69"/><path d="M163.96,66.10L162.01,67.11"/><path d="M165.60,130.94L164.45,130.90"/><path d="M172.33,63.80L171.19,63.73L169.36,63.93L167.94,64.38L164.45,65.78L163.82,66.17"/><path d="M167.24,61.40L166.77,61.51L166.36,61.99L165.26,64.42L165.20,64.64L165.24,64.90L165.56,65.25L165.60,65.32"/><path d="M172.75,58.03L167.04,61.26L166.90,61.48"/><path d="M168.26,129.46L169.17,131.05L173.79,134.01L175.93,134.84L177.81,134.28"/><path d="M171.48,63.03L170.90,62.84L167.61,61.30L172.04,63.20L172.16,63.24L171.65,63.08"/><path d="M176.23,133.94L171.75,131.06L169.48,123.92L169.79,113.59L172.64,101.65L177.61,89.96L183.91,80.37L190.55,74.34L196.50,72.79"/><path d="M184.82,67.17L185.97,59.11L185.54,57.29L184.04,56.10L178.60,54.08L175.82,55.71L172.88,54.90L170.19,56.48"/><path d="M182.26,63.23L184.35,66.83L188.77,70.04"/><path d="M183.35,63.20L183.25,64.91"/><path d="M183.25,64.93L183.16,64.13"/><path d="M186.88,73.22L188.50,72.68L194.64,71.09L196.80,71.89L200.54,74.55"/><path d="M188.66,69.99L188.64,69.98L192.56,71.63L190.26,71.17"/></g></g><g id="Actor_.17"><g style="stroke:#282828;stroke-width:0.106"><path d="M158.78,133.50L157.98,132.74L156.57,132.38L155.14,133.31"/><path d="M155.91,137.93L159.29,140.59L159.69,140.92"/><path d="M156.57,132.38L158.27,124.20"/><path d="M171.57,145.50L171.18,145.18L171.14,144.31L159.25,139.73L159.29,140.59"/><path d="M159.25,139.73L160.17,137.68L161.17,137.64"/><path d="M171.18,145.18L173.49,145.72L175.98,145.66L178.43,145.00L180.65,143.79L182.45,142.14L183.15,141.19L183.05,141.68"/><path d="M171.14,144.31L172.06,142.26L173.06,142.22"/><path d="M179.90,139.94L180.68,139.38L181.16,139.53L185.38,132.88"/><path d="M181.16,139.53L182.42,140.27L183.15,141.19"/></g><g style="stroke:#282828;stroke-width:0.353"><path d="M178.47,141.42L179.50,140.48L179.90,139.94L184.15,132.86L185.38,132.88L186.97,133.94L187.32,134.97L183.05,141.68L180.65,144.18L176.17,145.97L173.49,145.72L171.57,145.50L159.69,140.92L156.45,138.36L155.91,137.93L155.00,133.93L155.10,133.34L155.14,133.31L157.08,132.88"/><path d="M155.10,133.34L156.86,124.66L158.27,124.20L160.04,124.79L160.41,125.83L158.78,133.50L158.72,133.84L159.24,136.12L161.17,137.64L173.06,142.22L174.11,142.46"/><path d="M172.06,142.26L175.52,142.60L178.88,141.26"/><path d="M175.79,142.49L174.69,142.52"/></g></g><g id="Actor_.18"><g style="stroke:#282828;stroke-width:0.106"><path d="M135.93,72.95L136.47,70.16L136.53,70.01L136.59,69.93L133.13,66.67L134.89,63.91"/><path d="M136.47,70.16L134.65,69.03L133.43,67.79"/><path d="M142.77,63.38L138.63,63.14L135.61,64.03L134.68,65.77L136.12,67.82L137.63,68.75L143.20,70.28"/><path d="M149.25,66.18L150.46,67.39L150.94,68.50L150.99,68.62L150.80,69.75L149.90,70.71L148.35,71.40L146.29,71.78L143.89,71.81L141.33,71.49L138.83,70.85L136.59,69.93L137.63,68.75L138.05,68.41L135.40,65.92L136.75,63.81L141.29,63.30L146.36,64.70L146.72,64.68"/><path d="M148.67,66.47L149.07,67.41L148.92,68.28L148.23,69.01L147.05,69.54L145.47,69.83L143.63,69.85L141.68,69.61L139.76,69.12L138.05,68.41"/><path d="M143.16,67.54L143.34,66.60L144.15,66.48L143.76,66.14L143.18,65.85L142.48,65.64L141.75,65.54L141.08,65.57L140.54,65.71L141.26,66.16L141.06,67.16"/><path d="M140.54,65.71L140.21,65.96L140.11,66.27L140.27,66.62L140.47,66.71L140.46,66.78"/><path d="M140.47,66.71L140.62,66.77"/><path d="M141.51,67.34L141.74,66.14L141.53,66.36L141.26,66.16"/><path d="M141.74,66.14L142.48,65.64L142.92,66.39L142.70,67.56"/><path d="M143.21,70.28L148.18,69.72"/><path d="M143.34,66.60L143.02,66.68L142.92,66.39"/><path d="M143.02,66.68L142.85,67.56"/><path d="M143.73,67.44L143.74,67.40L143.89,67.39L144.22,67.15L144.32,66.83L144.15,66.48"/><path d="M143.74,67.40L143.61,67.40"/><path d="M147.74,65.54L146.36,64.70"/><path d="M148.18,69.72L149.63,67.40"/></g><g style="stroke:#282828;stroke-width:0.353"><path d="M147.96,74.21L142.69,74.81L135.93,72.95L132.43,69.64L133.11,65.45L132.95,66.48L133.43,67.79"/><path d="M133.11,65.45L133.11,65.40L133.19,65.28L134.13,64.32L134.89,63.91L138.63,63.14L140.82,63.25L142.77,63.38L144.85,63.92L146.72,64.68L147.45,65.07L149.25,66.18L150.43,67.33L150.99,68.38L151.05,68.69L150.89,69.86L149.95,70.80L149.26,71.34L146.57,71.90L143.23,72.02L141.64,71.68L139.29,71.15L136.47,70.16"/><path d="M136.69,63.54L135.67,63.63L134.89,63.91"/><path d="M140.54,65.71L140.54,66.48L140.62,66.77L140.59,66.90"/><path d="M143.89,67.39L143.35,67.54L142.68,67.56L141.95,67.47L141.25,67.26L140.67,66.97L140.27,66.62"/><path d="M144.15,66.48L143.80,67.18L143.61,67.40L143.59,67.47"/><path d="M146.72,64.68L147.74,65.54L148.67,66.47L149.63,67.40"/><path d="M150.05,71.97L150.31,71.55"/><path d="M150.71,70.03L150.64,70.38"/></g></g><g id="Actor_.19"><g style="stroke:#282828;stroke-width:0.106"><path d="M130.60,138.69L131.09,138.65L131.12,138.63L131.15,138.52L124.34,136.97L120.31,133.68"/><path d="M120.83,130.95L124.86,134.24L131.69,135.80L131.15,138.52L133.54,138.43L135.56,137.98L137.06,137.21L137.90,136.18"/><path d="M131.09,138.65L133.44,138.56"/><path d="M131.69,135.80L133.53,135.76L135.19,135.51L136.15,135.20"/><path d="M137.03,135.90L136.26,136.71"/></g><g style="stroke:#282828;stroke-width:0.353"><path d="M121.95,127.87L121.95,127.87L120.83,130.95L120.31,133.68L120.33,133.81L121.68,135.46L123.80,136.83L124.36,137.12L124.98,137.41L126.04,137.65"/><path d="M120.31,133.68L120.20,132.10L120.74,131.43"/><path d="M124.36,137.12L127.62,138.15L131.09,138.65"/><path d="M137.93,136.06L137.90,136.18L137.83,136.29L136.99,137.32L135.50,138.09L135.44,138.12L133.44,138.56L132.58,138.61L130.60,138.69L129.30,138.39"/><path d="M136.26,136.71L136.55,135.25"/></g></g><g><g><path style="stroke:#000000;stroke-width:0.500;stroke-opacity:0.50;fill:#ff0000;fill-opacity:0.502" d="M157.85,64.62L156.36,65.30L154.60,65.82L152.61,66.19L150.42,66.39L148.08,66.42L145.64,66.27L143.16,65.96L140.67,65.48L138.24,64.85L135.92,64.08L133.75,63.19L131.78,62.19L130.05,61.11L128.59,59.97L127.44,58.79L126.62,57.60L126.14,56.42L126.02,55.27L126.25,54.19L126.83,53.18L127.74,52.28L128.98,51.50L130.51,50.85L132.29,50.36L134.31,50.02L136.50,49.84L138.83,49.84L141.25,50.00L143.71,50.33L143.81,48.38L151.26,53.57L143.40,56.24L143.51,54.27L142.29,54.10L141.10,54.02L139.96,54.03L138.88,54.11L137.89,54.28L137.01,54.53L136.26,54.84L135.66,55.23L135.21,55.67L134.93,56.17L134.82,56.70L134.88,57.26L135.12,57.84L135.53,58.43L136.09,59.01L136.81,59.57L137.66,60.10L138.63,60.58L139.69,61.02L140.83,61.40L142.02,61.71L143.23,61.94L144.45,62.09L145.65,62.16L146.79,62.15L147.87,62.05L148.84,61.88L149.71,61.62L150.44,61.29L151.03,60.90L159.04,63.82z"/></g></g><g/><g><g/><g><path style="stroke:#000000;stroke-width:0.250;fill:#ffffff" d="M283.63,156.86L292.71,156.86L292.71,163.07L283.63,163.07z"/><text xml:space="preserve" fill="#000000" stroke-width="0" x="284.41" y="161.13" font-size="3.66" opacity="1.00" font-family="MS Shell Dlg">Next</text></g></g><g><g/><g><path style="stroke:#000000;stroke-width:0.250;fill:#ffffff" d="M4.53,157.80L14.24,157.80L14.24,164.01L4.53,164.01z"/><text xml:space="preserve" fill="#000000" stroke-width="0" x="5.30" y="162.07" font-size="3.67" opacity="1.00" font-family="MS Shell Dlg">Back</text></g></g><g><g/><g><path style="stroke:#000000;stroke-width:0.250;fill:#ffffff" d="M2.43,5.87L259.38,5.87L259.38,13.77L2.43,13.77z"/><text xml:space="preserve" fill="#000000" stroke-width="0" x="3.42" y="11.30" font-size="4.83" opacity="1.00" font-family="MS Shell Dlg">Use a torque driver to screw the Hinge Spindle into the Hinge Spindle Nut, holding the trigger until the light goes green .</text></g></g><g id="paperID" visibility="hidden" opacity="0.00" transform="scale(0.000100)"><path style="stroke:#000000;stroke-width:0.500;fill:#e6e6e6;fill-rule:evenodd" d="M-2000.00,-2000.00L2297.00,-2000.00L2297.00,2167.00L-2000.00,2167.00zM0.00,0.00L297.00,0.00L297.00,167.00L0.00,167.00z"/><path style="fill:#000000;fill-opacity:0.118" d="M3.00,167.00L297.00,167.00L297.00,3.00L300.00,3.00L300.00,170.00L3.00,170.00z"/></g><g id="hotspot.0" ident="" onmouseover="ShowHotSpot(evt,&apos;0&apos;)" onmouseout="HideHotSpot(evt,&apos;0&apos;)" onmousemove="ShowToolTip(evt,&apos;0&apos;,&quot;2D Text 1&quot;)" opacity="0"><a xlink:href="v8.svg"><path style="fill:#00ff00;fill-rule:evenodd" d="M293.03,156.65L293.04,163.43L283.44,163.34L283.35,156.64z"/></a></g><g id="ToolTip" visibility="hidden" opacity="0" transform="translate(0,0)"><rect id="ToolTipShadow" opacity="0.20" fill="black" stroke="none" x="0" y="0" width="30" height="8"/><rect id="ToolTipBG" fill="#ffffe1" stroke="black" x="0" y="0" width="30" height="8"/><text xml:space="preserve" id="ToolTipText" fill="black" x="0" y="0" width="30" height="8">tooltip</text></g></g></svg>