<?xml version="1.0" encoding="UTF-8" standalone="yes"?><svg xmlns="http://www.w3.org/2000/svg" xmlns:xlink="http://www.w3.org/1999/xlink" width="297.000mm" height="167.000mm" viewBox="0.000000 0.000000 297.000000 167.000000" stroke-linejoin="round" stroke-linecap="round" fill="none" fill-rule="evenodd"><desc>Composer Export</desc><script type="text/ecmascript"><![CDATA[
if(typeof(top) != "undefined")
{
	top.ShowPaper = ShowPaper;
}
function ShowHotSpot(evt,hotspotid)
{
	var svgDocument = evt.target.ownerDocument;
	var strId = "hotspot."+hotspotid;
	var hotspot = svgDocument.getElementById(strId);
	if(hotspot)
		hotspot.setAttribute("opacity",".5");
}
function HideHotSpot(evt,hotspotid)
{
	var svgDocument = evt.target.ownerDocument;
	var strId = "hotspot."+hotspotid;
	var hotspot = svgDocument.getElementById(strId);
	if(hotspot)
		hotspot.setAttribute("opacity","0");

	var toolTip = svgDocument.getElementById('ToolTip');
	if(toolTip)
		toolTip.setAttribute("visibility","hidden");
}
function ShowToolTip(evt,hotspotid,strTooltip)
{
	if(strTooltip=="")
	return;

	// change text
	var svgDocument = evt.target.ownerDocument;
	var tiptext = svgDocument.getElementById('ToolTipText');
	if( !tiptext )
	return;
	tiptext.firstChild.nodeValue = " " + strTooltip + "  " ;

	// show tooltip before, else some refresh issue

	var toolTip = svgDocument.getElementById('ToolTip');
	if(!toolTip)
	return;

	toolTip.setAttribute("visibility","visible");
	toolTip.setAttribute("opacity",".95");

	// move tooltip
	// get viewbox

	var root = svgDocument.documentElement;
	var vbox = (root.getAttribute("viewBox")).split(' ');
	var x0 = parseFloat(vbox[0]);
	var y0 = parseFloat(vbox[1]);
	var vboxW = parseFloat(vbox[2]);
	var vboxH = parseFloat(vbox[3]);

	// get default width of svg

	var strW = root.getAttribute("width");
	var svgW = parseFloat(strW);
	if(strW.indexOf('mm') != -1)
	svgW *= 3.779;

	var strH = root.getAttribute("height");
	var svgH = parseFloat(strH);
	if(strH.indexOf('mm') != -1)
	svgH *= 3.779;  	// 96 dpi  -> 96/25.4 = 3.779

	// update the viewbox / width / height if svg is embedded in html with zoom fit all
	var realx0 = x0;
	var realy0 = y0;
	var realvboxW = vboxW;
	var realvboxH = vboxH;
	var realsvgW = svgW;
	var realsvgH = svgH;

	if ((typeof(top) == "undefined") || (typeof(top.svgctl1) != "undefined")) // embedded in html
	{
		// get window size in pxl

		svgW = window.innerWidth;
		svgH = window.innerHeight;

		// calculate real viewbox

		realsvgW = svgW;
		realsvgH = svgH;
		if((svgW / svgH) > (vboxW / vboxH))
		{
			realvboxW = (vboxH * svgW) / svgH;
			realvboxH = vboxH;
			realx0 = x0 - (realvboxW - vboxW)/2 ;
		}
		else
		{
			realvboxH = (vboxW * svgH) / svgW;
			realvboxW = vboxW;
			realy0 = y0 - (realvboxH - vboxH)/2 ;
		}
	}

	// get user zoom/pan

	var newScale = root.currentScale;
	var translation = root.currentTranslate;

	// transform pxl to user unit

	var xPos = (((evt.clientX+10- translation.x)/newScale) * realvboxW)/realsvgW  + realx0 ;
	var yPos = (((evt.clientY+5- translation.y)/newScale) * realvboxH)/ realsvgH  + realy0 ;
	var scaleForWidth = ( (1 / newScale) * realvboxH) / realsvgH;

	// move tooltip

	toolTip.setAttribute("transform", "translate(" + xPos + "," + yPos + ")" );

	// resize tooltip

	var fontsize = 12;
	tiptext.setAttribute("font-size",fontsize*scaleForWidth);
	tiptext.setAttribute("y", fontsize*scaleForWidth);
	var tipBG = svgDocument.getElementById('ToolTipBG');
	var outline = tiptext.getBBox();
	if(tipBG)
	{
		tipBG.setAttribute("stroke-width", 1*scaleForWidth);
		tipBG.setAttribute("width", Number(outline.width) );
		tipBG.setAttribute("height", Number(outline.height) + fontsize*.5*scaleForWidth );
	}
	var ToolTipShadow = svgDocument.getElementById('ToolTipShadow');
	if(ToolTipShadow)
	{
		ToolTipShadow.setAttribute("width", Number(outline.width) );
		ToolTipShadow.setAttribute("height", Number(outline.height) + fontsize*.5*scaleForWidth );
		ToolTipShadow.setAttribute("x", 3*scaleForWidth);
		ToolTipShadow.setAttribute("y", 3*scaleForWidth);
	}
}
function ShowPaper()
{
  var svgDocument = getDocument();
  var paper = svgDocument.getElementById("paperID");
  if(paper)
  {
    paper.setAttribute("transform","scale(1)");
    paper.setAttribute("opacity","1");
    paper.setAttribute("visibility","visible");
  }
  var svg = svgDocument.getRootElement();
  if(svg)
  {
    svg.setAttribute("width","307.000mm");
    svg.setAttribute("height","177.000mm");
    svg.setAttribute("viewBox","-5.000000 -5.000000 307.000000 177.000000");
  }
}
]]></script><defs/><g><path style="fill:#ffffff" d="M175.63,37.66L174.93,37.51L173.87,37.65L173.38,37.81L173.22,37.82L172.96,37.82L172.74,37.97L172.01,38.16L170.72,38.96L169.90,39.90L169.67,40.50L169.67,41.64L169.85,42.24L169.73,42.57L169.16,44.28L168.78,45.94L167.82,51.23L166.77,54.38L165.66,55.67L165.40,56.17L164.58,56.32L163.99,56.41L163.19,56.88L162.07,58.32L136.99,74.08L136.51,74.20L131.39,71.46L125.95,69.85L119.44,69.21L113.98,69.76L113.56,69.86L109.94,71.52L108.17,74.22L106.66,81.80L101.22,108.70L96.51,132.08L96.50,132.56L96.58,132.90L96.67,133.36L96.74,133.70L96.83,134.17L97.13,135.66L97.46,135.97L100.02,138.69L103.37,140.63L105.29,141.59L111.26,143.33L116.23,143.81L117.67,143.90L123.02,143.19L126.77,141.34L128.52,138.44L128.85,136.57L133.40,114.95L133.52,114.52L134.06,114.55L179.32,85.79L180.45,85.70L181.76,84.90L182.82,83.53L183.31,83.26L184.97,82.51L188.27,81.61L192.60,81.63L196.09,82.71L196.16,81.81L196.55,85.39L196.70,86.04L197.36,87.14L198.65,87.93L200.71,89.08L202.43,89.08L203.93,88.18L204.08,87.62L204.40,90.99L204.55,91.80L204.89,92.42L209.53,95.63L210.27,95.64L211.08,95.49L212.34,94.50L213.04,92.48L212.38,84.16L212.81,83.29L214.81,80.96L215.61,79.37L215.92,77.27L215.60,72.42L214.81,63.77L214.56,63.10L214.65,63.15L215.05,63.14L246.29,43.28L250.99,40.45L266.03,31.96L279.91,25.19L290.97,20.55L296.97,18.42L296.96,82.14L296.35,82.26L295.60,82.51L294.55,83.24L293.20,83.79L291.60,84.91L290.14,86.49L288.76,88.95L288.47,90.46L288.22,92.06L287.20,102.79L286.91,103.13L286.59,103.07L285.29,103.07L284.24,103.32L261.87,116.66L260.05,117.88L259.82,118.79L256.05,121.09L255.65,121.64L255.16,122.79L253.80,138.17L253.86,139.19L254.20,139.82L255.16,140.43L296.96,165.06L296.94,166.94L0.05,166.94L0.05,0.05L259.53,0.03L249.97,4.70L233.81,13.67L232.89,14.35L231.87,15.25L226.33,18.20L195.77,37.27L194.22,38.15L193.39,38.22L192.97,38.32L192.38,38.68L190.89,40.39L187.37,42.32L184.34,43.61L181.40,44.32L180.12,44.39L179.19,44.35L179.12,43.86L179.10,43.45L179.03,43.39L178.96,42.90L178.94,42.48L178.87,42.42L178.84,42.13L178.96,41.85L178.80,40.98L178.78,40.56L178.71,40.50L178.16,38.77L177.34,38.16L176.12,37.75L176.06,37.68z"/><path style="fill:#404040" d="M259.73,120.08L259.64,120.39L257.65,121.57L256.91,122.58L256.42,123.70L255.90,129.46L259.54,131.63L259.49,132.24L259.41,132.29L258.61,133.59L258.36,133.60L257.24,132.93L256.70,132.93L255.80,133.64L255.46,134.26L255.15,137.63L255.16,140.43L254.20,139.82L253.86,139.19L253.80,138.17L255.16,122.79L255.65,121.64L256.05,121.09L259.82,118.79z"/><path style="fill:#c8cfee" d="M259.78,121.42L260.45,122.20L296.96,143.45L296.96,165.06L255.16,140.43L255.15,137.63L255.46,134.26L255.80,133.64L256.70,132.93L257.24,132.93L258.36,133.60L258.61,133.59L259.41,132.29L259.49,132.24L259.57,132.73L259.50,133.69L259.29,133.94L259.40,134.48L258.92,139.78L258.98,141.60L259.64,142.37L288.63,159.50L293.73,162.42L294.16,162.43L294.41,162.30L294.85,162.13L295.03,161.70L295.19,161.49L295.58,157.54L295.80,155.99L295.76,155.77L295.91,154.51L296.31,149.21L296.30,148.46L295.68,147.66L295.58,147.62L261.73,127.81L261.48,127.75L261.03,127.64L260.51,127.93L260.21,128.13L259.96,128.55L259.65,131.60L259.54,131.63L255.90,129.46L256.42,123.70L256.91,122.58L257.65,121.57L259.64,120.39z"/><path style="fill:#ffffff" d="M260.96,128.11L288.63,144.29L295.06,147.96L295.66,148.78L295.74,149.53L294.60,161.85L294.41,162.30L294.16,162.43L293.73,162.42L288.63,159.50L259.64,142.37L258.98,141.60L258.92,139.78L259.40,134.48L259.50,133.69L259.57,132.73L259.65,131.60L259.96,128.55L260.21,128.13L260.51,127.93z"/><path style="fill:#868c8c" d="M287.10,103.58L286.78,106.79L286.72,106.96L285.20,107.00L283.80,107.37L282.84,108.01L282.19,108.80L282.20,110.37L282.37,110.84L282.86,111.31L284.06,112.08L283.12,112.77L281.98,113.71L281.08,114.89L280.39,116.29L280.22,117.68L279.83,122.00L279.82,122.48L279.89,122.96L279.98,123.44L280.44,124.78L281.08,125.74L282.70,127.49L284.79,128.92L287.01,130.06L289.25,130.86L291.97,131.50L294.85,131.82L296.96,131.92L296.96,143.45L260.45,122.20L259.78,121.42L259.64,120.39L259.73,120.08L259.82,118.79L260.05,117.88L261.87,116.66L284.24,103.32L285.29,103.07L286.59,103.07L286.91,103.13z"/><path style="fill:#000000" d="M290.74,148.88L290.59,148.93L290.48,148.95L290.48,149.48L290.59,149.50L291.18,149.65L291.23,149.22L291.34,149.28L291.25,150.02L290.68,149.72L290.47,149.75L290.54,150.22L290.75,150.51L290.34,150.40L290.16,150.23L290.32,148.61L290.53,148.59z"/><path style="fill:#404040" d="M286.31,111.75L285.82,116.56L285.88,119.34L286.21,119.97L287.02,121.08L287.67,121.56L289.89,122.86L292.67,123.79L293.79,123.95L295.22,124.12L296.96,124.24L296.96,131.92L294.85,131.82L291.97,131.50L289.25,130.86L287.01,130.06L284.79,128.92L282.70,127.49L281.08,125.74L280.44,124.78L279.98,123.44L279.97,123.02L279.89,122.96L279.82,122.48L279.83,122.00L280.22,117.68L280.39,116.29L281.08,114.89L281.98,113.71L283.12,112.77L284.06,112.08L285.67,111.32L286.10,111.23z"/><path style="fill:#000020" d="M261.89,133.39L261.68,133.50L261.56,133.22L261.63,133.07L261.76,133.09z"/><path style="fill:#000020" d="M290.59,149.50L290.48,149.48L290.48,148.95L290.59,148.93z"/><path style="fill:#c0c0c0" d="M170.47,43.43L172.12,44.21L173.18,44.41L173.92,44.40L175.89,43.97L177.84,43.03L178.61,42.36L178.84,42.13L178.87,42.42L178.96,42.90L179.03,43.39L179.12,43.86L179.19,44.35L179.25,44.94L179.37,44.57L180.12,44.39L181.40,44.32L184.34,43.61L187.37,42.32L190.89,40.39L192.38,38.68L192.97,38.32L193.39,38.22L194.22,38.15L195.77,37.27L226.33,18.20L231.87,15.25L232.89,14.35L233.81,13.67L249.97,4.70L259.53,0.03L296.94,0.05L296.97,18.42L290.97,20.55L279.91,25.19L266.03,31.96L250.99,40.45L246.29,43.28L215.05,63.14L214.65,63.15L214.56,63.10L214.32,62.80L209.52,59.61L209.06,59.46L208.03,59.77L207.45,60.31L207.12,59.93L205.52,58.81L205.04,58.65L204.35,58.65L204.21,58.84L204.16,59.39L204.25,60.35L204.25,60.53L204.24,61.49L204.42,61.97L204.40,62.09L202.17,63.53L200.13,64.72L199.01,64.88L198.35,64.88L197.35,64.57L196.82,64.57L196.35,64.75L195.26,66.38L195.04,67.40L194.97,68.04L194.97,68.85L195.04,69.64L195.13,70.61L195.20,71.40L195.29,72.37L195.36,73.16L195.45,73.97L195.52,74.92L195.61,75.73L195.68,76.68L195.77,77.50L195.84,78.44L195.93,79.26L196.00,80.04L196.09,81.02L196.16,81.81L196.09,82.71L192.60,81.63L188.27,81.61L184.97,82.51L183.31,83.26L183.02,83.14L182.82,83.53L181.76,84.90L180.45,85.70L179.58,85.55L179.32,85.79L134.06,114.55L133.52,114.52L133.42,114.52L133.40,114.95L128.85,136.57L128.52,138.44L126.77,141.34L123.02,143.19L117.67,143.90L116.23,143.81L111.26,143.33L105.29,141.59L103.37,140.63L100.02,138.69L97.46,135.97L97.13,135.66L96.83,134.17L96.81,133.75L96.74,133.70L96.67,133.36L96.65,132.95L96.58,132.90L96.50,132.56L96.51,132.08L101.22,108.70L106.66,81.80L108.17,74.22L109.94,71.52L113.56,69.86L113.98,69.76L119.44,69.21L125.95,69.85L131.39,71.46L136.51,74.20L136.99,74.08L162.07,58.32L163.19,56.88L163.99,56.41L164.58,56.32L165.49,56.25L165.40,56.17L165.66,55.67L166.77,54.38L167.82,51.23L168.78,45.94L169.16,44.28L169.73,42.57L170.01,42.42z"/><path style="fill:#c0c0c0" d="M294.27,83.76L294.16,83.81L294.22,84.20L294.20,85.56L294.38,86.02L295.03,86.66L296.95,87.58L296.96,124.08L295.22,124.12L293.79,123.95L292.67,123.79L289.89,122.86L287.67,121.56L287.02,121.08L286.21,119.97L285.88,119.34L285.82,116.56L286.31,111.75L286.39,110.95L286.62,108.40L286.72,106.96L286.78,106.79L287.10,103.58L287.20,102.79L288.22,92.06L288.47,90.46L288.76,88.95L290.14,86.49L291.60,84.91L293.20,83.79L294.55,83.24z"/><path style="fill:#c4c4d0" d="M296.95,87.58L295.03,86.66L294.38,86.02L294.20,85.56L294.22,84.20L294.27,83.76L294.55,83.24L295.60,82.51L296.35,82.26L296.96,82.14z"/><path style="fill:#000000" d="M205.52,58.81L207.12,59.93L207.45,60.31L208.03,59.77L209.06,59.46L209.52,59.61L214.32,62.80L214.56,63.10L214.81,63.77L215.60,72.42L215.92,77.27L215.61,79.37L214.81,80.96L212.81,83.29L212.38,84.16L213.04,92.48L212.34,94.50L211.08,95.49L210.27,95.64L209.53,95.63L204.89,92.42L204.55,91.80L204.40,90.99L204.08,87.62L203.93,88.18L202.43,89.08L200.71,89.08L198.65,87.93L197.36,87.14L196.70,86.04L196.55,85.39L196.16,81.81L196.09,81.02L196.07,80.10L196.00,80.04L195.93,79.26L195.91,78.50L195.84,78.44L195.77,77.50L195.75,76.74L195.68,76.68L195.61,75.73L195.59,74.98L195.52,74.92L195.45,73.97L195.43,73.22L195.36,73.16L195.29,72.37L195.27,71.46L195.20,71.40L195.13,70.61L195.10,69.70L195.04,69.64L194.97,68.85L194.97,68.04L195.04,67.40L195.26,66.38L196.35,64.75L196.82,64.57L197.35,64.57L198.35,64.88L199.01,64.88L200.13,64.72L202.17,63.53L204.40,62.09L204.42,61.97L204.40,61.21L204.33,61.16L204.25,60.53L204.25,60.35L204.23,59.45L204.16,59.39L204.21,58.84L204.35,58.65L205.04,58.65z"/><path style="fill:#000000" d="M262.52,132.27L262.44,133.87L262.36,133.97L262.20,132.93L261.89,133.39L261.76,133.09L262.37,132.12z"/><path style="fill:#000000" d="M261.17,132.74L261.07,133.17L261.03,131.97L261.12,131.91z"/><path style="fill:#000000" d="M265.88,135.40L266.05,134.62L266.13,135.45L266.04,136.04L265.71,135.67L265.23,134.37L265.08,135.55L264.92,135.52L265.08,133.72z"/><path style="fill:#000000" d="M264.60,134.48L264.42,135.08L264.46,133.66z"/><path style="fill:#000000" d="M269.73,136.62L269.70,137.14L269.51,137.28L269.73,138.28L269.58,138.24L269.07,137.11L268.76,136.92L268.60,137.65L268.61,136.07L268.79,136.70L269.24,136.96L269.52,136.95L269.57,136.77L269.13,136.23L269.41,136.29z"/><path style="fill:#000000" d="M273.10,138.51L273.11,138.96L273.03,139.03L273.10,139.45L272.91,140.04L272.76,139.01L272.42,139.74L272.24,139.75L272.16,139.47L272.85,138.37z"/><path style="fill:#000000" d="M272.16,139.47L271.86,138.61L271.80,138.05L271.73,138.64L271.64,139.41L271.64,137.77L271.96,137.72z"/><path style="fill:#000000" d="M265.96,139.62L266.05,140.09L266.13,140.57L266.21,141.05L266.47,142.30L266.66,142.30L267.43,140.62L267.80,140.60L268.10,140.77L267.89,142.66L267.82,143.72L267.42,143.55L267.49,141.58L266.69,143.07L266.31,142.92L265.82,140.41L265.71,139.97L265.64,140.74L265.57,141.52L265.41,142.36L265.19,142.29L265.38,139.53L265.57,139.33z"/><path style="fill:#000000" d="M276.02,140.25L275.93,140.31L275.72,140.74L275.72,141.04L275.62,141.65L275.44,141.61L275.65,139.96z"/><path style="fill:#000000" d="M277.88,141.40L278.32,142.59L278.57,142.66L278.70,143.31L278.66,143.43L278.50,143.42L277.81,141.84L277.73,141.73L277.73,142.15L277.55,142.76L277.55,141.45L277.74,141.25z"/><path style="fill:#000000" d="M270.71,142.39L270.69,142.60L270.38,142.55L269.41,141.89L269.26,141.99L269.19,142.92L269.30,142.94L270.37,143.52L270.38,143.87L269.24,143.17L269.09,143.59L269.10,144.52L268.71,144.36L268.91,141.61L269.09,141.42z"/><path style="fill:#000000" d="M277.10,142.35L277.05,142.47L276.89,142.47L276.88,141.75L276.98,141.69z"/><path style="fill:#000000" d="M280.66,144.58L280.55,144.52L280.56,143.99L280.66,143.93z"/><path style="fill:#000000" d="M275.33,145.09L275.89,147.45L275.98,147.94L276.14,148.67L275.80,148.47L275.66,147.66L275.18,147.17L274.37,146.70L274.03,147.25L273.67,147.25L273.70,146.92L274.85,144.99L275.17,144.92z"/><path style="fill:#000000" d="M287.98,147.19L287.66,147.21L287.21,147.01L287.11,147.04L287.11,147.38L287.22,147.42L287.54,147.76L287.10,147.83L287.21,148.43L286.95,148.36L287.01,146.74L287.18,146.70z"/><path style="fill:#000000" d="M278.39,146.85L278.14,148.74L278.00,149.44L277.25,149.43L276.77,148.95L276.77,148.13L277.21,149.00L277.57,149.15L277.73,148.86L277.99,146.69L278.21,146.67z"/><path style="fill:#000000" d="M288.78,147.64L288.83,148.25L288.72,148.24L288.60,147.97L288.55,148.75L288.44,149.18L288.44,147.69L288.63,147.49z"/><path style="fill:#000000" d="M285.80,147.66L285.94,147.61L286.21,147.56L286.37,147.17L286.45,147.27L286.46,147.79L286.37,147.90L286.04,147.85z"/><path style="fill:#000000" d="M289.81,149.88L289.74,149.98L289.69,149.11L289.79,149.04z"/><path style="fill:#000000" d="M292.02,149.67L291.87,151.14L291.76,151.08L291.80,149.95L291.98,149.58z"/><path style="fill:#000000" d="M285.07,151.41L285.21,151.01L285.45,150.99L285.49,151.46L285.51,151.89L285.90,152.03L286.16,151.47L286.38,151.50L286.37,152.29L286.55,152.48L286.55,152.84L286.22,152.63L286.03,152.82L286.04,153.26L286.38,153.45L286.40,153.79L285.90,153.58L285.55,154.15L285.36,154.14L285.41,153.28L285.10,153.10L284.75,153.67L284.56,153.66L284.60,152.82L284.40,152.66L284.45,152.30L284.78,152.53L284.77,151.83L284.44,151.65L284.38,151.35z"/><path style="fill:#000000" d="M287.25,153.15L287.25,152.97L287.91,152.78L288.09,152.60L288.28,152.61L288.31,153.37L288.15,154.98L288.15,155.73L287.75,155.56L287.99,153.27z"/><path style="fill:#ffffff" d="M290.86,149.10L291.23,149.22L291.18,149.65L290.59,149.50L290.59,148.93L290.74,148.88z"/><path style="fill:#fffbf0" d="M175.63,37.66L176.12,37.75L177.34,38.16L178.16,38.77L178.71,40.50L178.80,40.98L178.96,41.85L178.84,42.13L178.61,42.36L177.84,43.03L175.89,43.97L173.92,44.40L173.18,44.41L172.12,44.21L170.47,43.43L170.01,42.42L169.85,42.24L169.67,41.64L169.67,40.50L169.90,39.90L170.72,38.96L172.01,38.16L172.74,37.97L173.02,38.07L173.22,37.82L173.38,37.81L173.66,37.91L173.87,37.65L174.93,37.51z"/><path style="fill:#fffe02" d="M282.19,108.80L282.84,108.01L283.80,107.37L285.20,107.00L286.72,106.96L286.62,108.40L286.39,110.95L286.10,111.23L285.67,111.32L284.06,112.08L282.86,111.31L282.37,110.84L282.20,110.37z"/><path style="fill:#fffe02" d="M272.44,116.45L274.20,117.09L275.18,117.88L275.88,118.81L275.98,119.26L275.81,120.35L275.65,120.67L274.70,121.49L273.62,121.87L272.66,122.04L270.89,122.04L269.93,121.87L268.12,121.25L267.17,120.76L266.51,119.50L266.51,118.58L266.76,117.87L267.10,117.40L268.43,116.65L269.45,116.36L271.54,116.27z"/><path style="fill:#404040" d="M295.58,147.62L295.06,147.96L288.63,144.29L260.96,128.11L261.48,127.75L261.73,127.81z"/><path style="fill:#404040" d="M295.91,154.51L295.76,155.77L295.80,155.99L295.58,157.54L295.19,161.49L295.03,161.70L294.60,161.85L295.74,149.53L296.31,149.21z"/><path style="fill:#000020" d="M176.12,37.75L175.63,37.66L176.06,37.68z"/><path style="fill:#000020" d="M173.66,37.91L173.38,37.81L173.87,37.65z"/><path style="fill:#000020" d="M173.02,38.07L172.74,37.97L172.96,37.82L173.22,37.82z"/><path style="fill:#000020" d="M178.80,40.98L178.71,40.50L178.78,40.56z"/><path style="fill:#000020" d="M170.01,42.42L169.73,42.57L169.85,42.24z"/><path style="fill:#000020" d="M178.96,42.90L178.87,42.42L178.94,42.48z"/><path style="fill:#000020" d="M179.12,43.86L179.03,43.39L179.10,43.45z"/><path style="fill:#000020" d="M179.37,44.57L179.25,44.94L179.19,44.35L180.12,44.39z"/><path style="fill:#000020" d="M186.40,48.41L187.13,48.43L187.15,48.59z"/><path style="fill:#000020" d="M164.58,56.32L165.40,56.17L165.49,56.25z"/><path style="fill:#000020" d="M192.13,56.19L191.97,56.52L192.08,56.09z"/><path style="fill:#000020" d="M191.91,56.63L190.88,56.57L191.97,56.52z"/><path style="fill:#000020" d="M204.33,61.16L204.24,61.49L204.25,60.53z"/><path style="fill:#000020" d="M183.31,83.26L182.82,83.53L183.02,83.14z"/><path style="fill:#000020" d="M294.22,84.20L294.16,83.81L294.27,83.76z"/><path style="fill:#000020" d="M180.45,85.70L179.32,85.79L179.58,85.55z"/><path style="fill:#000020" d="M286.91,103.13L287.20,102.79L287.10,103.58z"/><path style="fill:#000020" d="M286.10,111.23L286.39,110.95L286.31,111.75z"/><path style="fill:#000020" d="M133.40,114.95L133.42,114.52L133.52,114.52z"/><path style="fill:#000020" d="M275.98,119.26L275.88,118.81L275.97,118.85z"/><path style="fill:#000020" d="M279.98,123.44L279.89,122.96L279.97,123.02z"/><path style="fill:#000020" d="M296.96,124.24L295.22,124.12L296.96,124.08z"/><path style="fill:#000020" d="M261.35,132.23L261.17,132.74L261.12,131.91z"/><path style="fill:#000020" d="M259.57,132.73L259.49,132.24L259.54,131.63L259.65,131.60z"/><path style="fill:#000020" d="M96.67,133.36L96.58,132.90L96.65,132.95z"/><path style="fill:#000020" d="M259.29,133.94L259.50,133.69L259.40,134.48z"/><path style="fill:#000020" d="M96.83,134.17L96.74,133.70L96.81,133.75z"/><path style="fill:#000020" d="M264.60,134.48L264.46,133.66L264.60,133.56z"/><path style="fill:#000020" d="M263.96,134.92L263.81,134.48L263.88,134.33L263.96,134.39z"/><path style="fill:#000020" d="M266.13,135.45L266.05,134.62L266.20,134.36z"/><path style="fill:#000020" d="M269.13,136.23L268.86,136.30L268.79,136.70L268.61,136.07L268.92,135.94z"/><path style="fill:#000020" d="M267.33,136.85L267.18,136.75L267.21,136.24L267.33,136.24z"/><path style="fill:#000020" d="M271.86,138.61L271.73,138.64L271.80,138.05z"/><path style="fill:#000020" d="M273.10,139.45L273.03,139.03L273.11,138.96z"/><path style="fill:#000020" d="M266.05,140.09L265.96,139.62L266.05,139.66z"/><path style="fill:#000020" d="M273.73,140.48L273.40,140.47L273.34,140.16L273.44,140.05L273.56,140.07z"/><path style="fill:#000020" d="M265.82,140.41L265.64,140.74L265.71,139.97z"/><path style="fill:#000020" d="M276.01,141.04L275.72,141.04L275.72,140.74z"/><path style="fill:#000020" d="M266.21,141.05L266.13,140.57L266.20,140.63z"/><path style="fill:#000020" d="M277.81,141.84L277.73,142.15L277.73,141.73z"/><path style="fill:#000020" d="M277.10,142.35L276.98,141.69L277.10,141.68z"/><path style="fill:#000020" d="M265.57,142.45L265.41,142.36L265.57,141.52z"/><path style="fill:#000020" d="M269.30,142.94L269.19,142.92L269.26,141.99z"/><path style="fill:#000020" d="M278.70,143.31L278.57,142.66L278.70,142.66z"/><path style="fill:#000020" d="M280.80,144.56L280.66,144.58L280.66,143.93L280.78,143.93z"/><path style="fill:#000020" d="M284.95,145.53L284.83,145.57L284.62,145.35L284.67,145.24L284.79,145.26z"/><path style="fill:#000020" d="M284.63,145.88L284.83,146.33L284.14,145.68L284.20,145.55z"/><path style="fill:#000020" d="M284.50,146.81L284.35,146.85L283.95,146.38L283.97,146.05z"/><path style="fill:#000020" d="M287.22,147.42L287.11,147.38L287.11,147.04L287.21,147.01z"/><path style="fill:#000020" d="M285.94,147.61L285.80,147.66L285.59,147.44L285.65,147.30z"/><path style="fill:#000020" d="M286.46,147.79L286.45,147.27L286.54,147.34z"/><path style="fill:#000020" d="M275.98,147.94L275.89,147.45L275.96,147.51z"/><path style="fill:#000020" d="M288.72,148.24L288.55,148.75L288.60,147.97z"/><path style="fill:#000020" d="M289.81,149.88L289.79,149.04L289.90,149.05z"/><path style="fill:#000020" d="M285.64,151.14L285.49,151.46L285.45,150.99z"/><path style="fill:#000020" d="M293.47,151.91L293.58,151.95L293.59,152.21L293.41,152.17z"/><path style="fill:#c0c0c0" d="M202.42,76.57L203.77,73.61L206.15,71.34L206.65,71.25L206.74,71.58L206.48,72.15L204.65,74.33L203.46,76.53L203.37,77.17L203.20,78.92L203.15,79.59L202.64,79.14z"/><path style="fill:#000000" d="M260.51,127.93L261.03,127.64L261.48,127.75L260.96,128.11z"/><path style="fill:#000000" d="M261.40,131.63L261.46,132.24L261.35,132.23L261.12,131.91L261.25,131.47z"/><path style="fill:#000000" d="M263.64,132.91L263.88,134.33L263.81,134.48L263.54,134.00L263.65,133.76L263.48,133.10L263.30,133.29L263.32,133.72L263.54,134.00L263.16,133.90L262.92,134.05L262.62,134.07L263.41,132.76z"/><path style="fill:#000000" d="M261.63,133.07L261.56,133.22L261.46,132.24L261.54,132.30z"/><path style="fill:#000000" d="M268.29,135.66L267.96,135.68L267.53,135.27z"/><path style="fill:#000000" d="M267.53,135.27L267.43,135.34L267.47,135.98L267.53,136.09L267.33,136.24L267.21,136.24L267.27,135.15z"/><path style="fill:#000000" d="M268.13,136.33L268.15,136.49L267.64,136.28L267.53,136.09z"/><path style="fill:#000000" d="M267.18,136.75L267.10,136.31L267.21,136.24z"/><path style="fill:#000000" d="M271.31,139.04L271.13,139.09L271.01,138.53L270.52,138.21L270.42,138.00L270.87,138.10L270.74,137.49L270.63,137.43L270.42,138.00L270.04,138.45L270.02,137.94L270.63,137.06L270.82,137.09z"/><path style="fill:#000000" d="M274.09,139.12L273.65,139.19L273.66,139.54L274.38,139.98L274.04,140.00L273.73,139.81L273.56,140.07L273.44,140.05L273.56,138.69z"/><path style="fill:#000000" d="M274.54,139.34L274.22,139.35L274.09,139.12L274.40,139.18z"/><path style="fill:#000000" d="M276.61,140.50L276.64,140.66L276.13,140.44L276.02,140.25z"/><path style="fill:#000000" d="M274.54,140.94L274.19,140.94L274.15,140.76L274.37,140.76z"/><path style="fill:#000000" d="M276.46,141.26L276.14,141.27L276.01,141.04L276.31,141.10z"/><path style="fill:#000000" d="M277.10,141.68L276.98,141.69L277.08,140.77z"/><path style="fill:#000000" d="M278.70,142.66L278.57,142.66L278.68,141.73z"/><path style="fill:#000000" d="M279.87,142.79L279.66,142.70L279.01,143.74L278.99,143.23L279.60,142.35L279.80,142.37z"/><path style="fill:#000000" d="M273.43,143.99L273.41,144.20L273.10,144.15L272.11,143.48L271.91,143.49L271.96,144.46L273.09,145.12L273.10,145.47L271.97,144.78L271.79,144.97L271.64,145.98L271.32,145.92L271.64,142.85z"/><path style="fill:#000000" d="M280.28,144.38L280.09,144.38L279.81,143.64L279.87,142.79z"/><path style="fill:#000000" d="M280.78,143.93L280.66,143.93L280.74,143.01L280.90,142.99z"/><path style="fill:#000000" d="M283.66,146.44L283.50,146.41L283.34,145.73L282.84,145.41L282.63,145.42L282.36,145.65L282.37,145.17L282.96,144.27L283.15,144.30z"/><path style="fill:#000000" d="M281.42,144.95L281.09,144.97L280.77,144.79L280.66,144.58L280.80,144.56z"/><path style="fill:#000000" d="M284.67,145.24L284.62,145.35L284.25,145.43L284.20,145.55L284.14,145.68L284.07,145.09L284.45,145.07z"/><path style="fill:#000000" d="M285.12,145.76L285.11,145.96L284.94,145.93L284.83,145.57L284.95,145.53z"/><path style="fill:#000000" d="M286.05,146.07L285.70,146.22L285.74,146.60L285.58,146.57L285.56,145.95L285.75,145.90z"/><path style="fill:#000000" d="M286.55,146.54L286.55,146.76L286.38,146.72L286.38,146.37z"/><path style="fill:#000000" d="M285.00,146.49L285.05,146.87L284.35,146.85L284.50,146.81L284.78,146.77L284.83,146.33z"/><path style="fill:#000000" d="M285.65,147.30L285.59,147.44L285.38,147.20L285.41,146.85z"/><path style="fill:#000000" d="M296.30,148.46L296.31,149.21L295.74,149.53L295.66,148.78L295.06,147.96L295.58,147.62L295.68,147.66z"/><path style="fill:#000000" d="M287.99,147.98L287.67,148.00L287.54,147.76z"/><path style="fill:#000000" d="M280.45,148.15L281.24,151.53L280.94,151.52L280.62,150.38L279.64,149.73L279.43,149.72L279.10,150.24L278.67,150.24L278.68,149.98L280.05,147.82z"/><path style="fill:#000000" d="M289.90,148.28L289.90,149.05L289.79,149.04L289.74,148.62L289.23,149.66L289.05,149.67L288.97,149.23L289.26,149.01L289.75,148.13z"/><path style="fill:#000000" d="M287.67,148.62L287.35,148.64L287.21,148.43L287.52,148.46z"/><path style="fill:#000000" d="M291.23,149.22L290.86,149.10L290.74,148.88L291.03,148.93z"/><path style="fill:#000000" d="M288.97,149.23L288.83,148.25L288.92,148.31z"/><path style="fill:#000000" d="M293.26,150.36L293.31,150.82L293.07,150.55L293.10,150.21z"/><path style="fill:#000000" d="M290.75,150.51L291.18,150.45L291.25,150.02L291.28,150.73L291.00,150.74z"/><path style="fill:#000000" d="M293.72,151.11L294.01,150.85L294.39,150.92L293.74,151.40L293.58,151.95L293.47,151.91L293.31,150.82L293.39,150.91z"/><path style="fill:#000000" d="M292.31,151.34L291.98,151.37L291.87,151.14z"/><path style="fill:#000000" d="M294.85,162.13L294.41,162.30L294.60,161.85L295.03,161.70z"/><path style="fill:#ffffff" d="M204.25,60.35L204.16,59.39L204.23,59.45z"/><path style="fill:#ffffff" d="M204.42,61.97L204.24,61.49L204.33,61.16L204.40,61.21z"/><path style="fill:#ffffff" d="M195.13,70.61L195.04,69.64L195.10,69.70z"/><path style="fill:#ffffff" d="M206.74,71.58L206.65,71.25L206.80,70.48z"/><path style="fill:#ffffff" d="M195.29,72.37L195.20,71.40L195.27,71.46z"/><path style="fill:#ffffff" d="M195.45,73.97L195.36,73.16L195.43,73.22z"/><path style="fill:#ffffff" d="M195.61,75.73L195.52,74.92L195.59,74.98z"/><path style="fill:#ffffff" d="M195.77,77.50L195.68,76.68L195.75,76.74z"/><path style="fill:#ffffff" d="M195.93,79.26L195.84,78.44L195.91,78.50z"/><path style="fill:#ffffff" d="M203.29,79.69L203.15,79.59L203.20,78.92L203.27,78.98z"/><path style="fill:#ffffff" d="M196.09,81.02L196.00,80.04L196.07,80.10z"/><path style="fill:#ffffff" d="M263.65,133.76L263.54,134.00L263.32,133.72L263.30,133.29L263.48,133.10z"/><path style="fill:#ffffff" d="M269.57,136.77L269.52,136.95L269.24,136.96L268.79,136.70L268.86,136.30L269.13,136.23z"/><path style="fill:#ffffff" d="M270.74,137.49L270.87,138.10L270.42,138.00L270.63,137.43z"/><path style="fill:#ffffff" d="M283.07,144.69L283.19,145.31L282.79,145.16L282.83,144.82L283.01,144.63z"/><path style="fill:#ffffff" d="M275.33,146.77L275.00,146.73L274.67,146.54L274.67,146.12L275.10,145.40L275.17,145.42z"/><path style="fill:#ffffff" d="M280.29,148.60L280.45,149.81L280.15,149.75L279.75,149.47L279.79,149.00L280.15,148.45z"/><path style="fill:#ffffff" d="M291.25,150.02L291.18,150.45L290.75,150.51L290.54,150.22L290.47,149.75L290.68,149.72z"/><path style="fill:#ffffff" d="M285.74,152.44L285.56,152.85L285.24,152.81L285.24,152.35L285.59,152.29z"/><g id="Actor_.0"><g style="stroke:#282828;stroke-width:0.106"><path d="M201.00,40.17L232.92,20.11L234.53,21.31L236.12,22.75L237.66,24.41L239.12,26.25L240.46,28.22L241.66,30.28L242.68,32.40L243.50,34.50L244.11,36.55L244.48,38.51L244.62,40.32L244.52,41.95L244.18,43.36L243.61,44.52L242.82,45.41"/><path d="M225.68,18.68L228.91,18.33L232.92,20.11L240.61,15.41L256.71,6.42L269.90,-0.00"/></g><g style="stroke:#282828;stroke-width:0.353"><path d="M194.59,38.16L225.68,18.68L231.68,15.52L233.52,13.94L249.39,5.10L259.89,-0.00"/><path d="M214.70,63.32L242.82,45.41L249.86,41.05L264.62,32.68L279.21,25.44"/><path d="M230.69,16.59L230.16,16.91"/><path d="M297.00,18.38L290.85,20.53L278.89,25.60"/></g></g><g id="Actor_.1"><g style="stroke:#282828;stroke-width:0.106"><path d="M196.65,85.74L196.73,85.86L195.05,68.37L195.39,68.61L195.86,66.46L196.84,65.06L197.81,65.32L198.31,65.46L198.94,65.56L199.13,65.56L200.87,65.03L201.64,65.71L200.21,66.90L199.19,68.55L198.98,70.87L199.15,71.76L200.18,79.45L200.59,86.83L196.94,84.77L197.07,86.09L200.57,87.90L200.88,87.94L200.88,87.87L202.01,87.24L201.94,86.58L201.49,79.39L200.61,71.59L200.61,71.01L199.25,70.96L199.40,71.77L199.15,71.76L195.49,69.70L196.94,84.77"/><path d="M195.49,69.70L195.39,68.61L198.98,70.89L199.24,70.89L199.25,70.96L198.99,70.95"/><path d="M195.05,68.37L195.39,66.53L196.58,64.75L196.47,64.70"/><path d="M195.86,66.46L199.18,68.55L199.32,68.60L199.45,68.64L199.24,70.89"/><path d="M197.90,87.41L197.33,86.91L197.07,86.09L196.73,85.86"/><path d="M196.58,64.75L196.97,64.62L198.30,64.99L199.13,65.56"/><path d="M196.97,64.62L197.12,64.50"/><path d="M205.32,61.58L205.46,61.61L200.48,64.78L198.58,65.08L198.30,64.99L198.43,64.91"/><path d="M198.58,65.08L198.72,65.00"/><path d="M204.19,88.11L203.80,88.37L202.47,89.09L201.40,89.14L201.14,89.20L200.69,88.70L200.57,87.90L200.58,87.83L200.88,87.87L200.88,86.87L200.43,79.47L199.40,71.77"/><path d="M199.45,68.64L200.43,67.06L201.79,65.91L202.81,67.99L206.42,65.70"/><path d="M200.58,87.83L200.59,86.83L200.88,86.87"/><path d="M201.94,86.58L202.04,86.54L201.84,81.91L201.67,79.74L201.54,78.36L201.41,76.97L201.17,74.78L200.76,71.54L200.61,71.59"/><path d="M200.76,71.54L200.74,70.99L200.61,71.01L201.03,70.11"/><path d="M206.05,59.03L205.84,58.92L205.13,58.83L206.38,60.34L206.57,60.84L205.83,61.88L200.87,65.03"/><path d="M200.48,64.78L200.36,64.73"/><path d="M204.13,87.42L202.83,87.93L202.01,87.24L202.10,87.19L202.07,86.99L202.04,86.54"/><path d="M201.54,78.36L202.24,77.93L202.49,77.81L202.57,77.79"/><path d="M201.13,69.88L201.42,69.27L202.81,67.99L202.86,68.11L205.28,66.52L206.43,65.81"/><path d="M206.20,63.11L201.79,65.91L201.64,65.71L206.25,62.78"/><path d="M202.10,87.19L202.82,87.87L204.13,87.39"/><path d="M203.42,79.82L203.17,79.76L202.57,79.06L202.24,77.93L202.33,76.52L202.74,75.18L204.00,73.05L205.90,71.31L206.90,70.94"/><path d="M204.15,87.67L203.80,88.37L203.73,88.42"/><path d="M205.36,61.43L205.31,61.59"/><path d="M205.58,60.81L205.27,60.39L205.36,61.42"/><path d="M205.27,60.39L204.27,59.13L204.37,58.88L204.63,58.75L205.74,60.27L206.57,60.84"/><path d="M205.88,58.91L204.74,58.60L204.63,58.75"/><path d="M204.74,58.60L204.60,58.57"/><path d="M205.83,61.88L206.32,62.29"/><path d="M205.46,61.61L205.87,60.46L205.66,60.60"/><path d="M205.45,60.63L205.52,60.41L205.74,60.27"/><path d="M205.74,60.27L205.87,60.46"/></g><g style="stroke:#282828;stroke-width:0.353"><path d="M196.73,85.86L197.33,86.91L197.48,87.13L197.29,86.94L196.65,85.74L195.05,68.37L195.08,68.07L195.13,67.81"/><path d="M195.05,68.37L195.32,66.41L196.47,64.70L197.13,64.51L198.43,64.91L198.72,65.00L200.36,64.73L205.31,61.59L205.66,60.60"/><path d="M197.48,87.13L197.90,87.41L199.51,88.42L201.14,89.20L202.25,89.16L202.40,89.15L203.73,88.42L204.19,88.12"/><path d="M200.88,87.94L201.10,88.88L201.40,89.14"/><path d="M200.74,70.99L202.86,68.11L201.09,69.93L200.74,70.99"/><path d="M204.54,62.07L204.27,59.13L204.36,58.68L204.60,58.57L204.73,58.56L205.88,58.91L206.05,59.02L207.56,60.27"/><path d="M205.31,61.59L205.32,61.58"/></g></g><g id="Actor_.2"><g style="stroke:#282828;stroke-width:0.106"><path d="M206.75,71.86L206.75,71.86L206.61,72.00L204.43,74.17L203.14,77.15L203.38,79.66"/><path d="M206.07,71.40L206.75,71.86"/></g><g style="stroke:#282828;stroke-width:0.353"><path d="M203.41,79.68L202.70,79.19L202.47,76.68L203.75,73.70L206.07,71.40L206.92,71.14"/></g></g><g id="Actor_.3"><g style="stroke:#282828;stroke-width:0.106"><path d="M187.54,48.34L189.17,48.62L189.14,48.28L189.23,48.00L187.08,47.58L185.00,48.45L182.14,49.88L179.95,50.42"/><path d="M179.21,49.59L179.75,49.54L180.52,49.38L181.42,49.11L182.27,48.78L183.04,48.42L185.19,47.36L187.36,46.48L187.57,46.45L187.89,46.42L188.13,46.42L188.36,46.45L188.72,46.52L189.05,46.62L189.52,46.83L189.68,46.96L189.74,47.02L189.95,47.11L189.84,47.22L189.55,47.03L189.26,46.88L189.16,46.83L188.99,46.76L188.67,46.66L188.42,46.60L188.07,46.56L187.98,46.56L187.49,46.58L186.70,46.79L186.40,46.91L185.40,47.39L183.56,48.32L182.84,48.68L182.18,48.97L181.39,49.27L181.17,49.35L180.57,49.52L179.73,49.68L179.32,49.72"/><path d="M179.38,48.27L179.53,47.82L179.41,48.00"/><path d="M180.59,44.41L180.59,44.48L179.53,47.82L179.51,46.96"/><path d="M190.60,40.76L192.75,39.73L190.13,41.35L187.34,42.81L187.08,42.92L186.25,43.26L185.35,43.59L184.92,43.72L183.78,44.03L182.93,44.20L182.46,44.28L181.76,44.38L181.10,44.44L180.59,44.48L179.26,44.55"/><path d="M187.02,48.37L184.88,49.46L181.78,50.84L181.00,51.33"/><path d="M185.88,48.41L184.98,48.83L182.14,50.24L180.19,50.69"/><path d="M188.15,56.90L190.33,55.26L191.08,56.64"/><path d="M190.33,55.26L188.99,51.75L188.36,48.60"/><path d="M192.15,56.18L190.41,52.59L189.51,48.89"/><path d="M192.64,51.71L192.61,51.63L192.68,51.37L189.14,48.28"/><path d="M192.04,48.93L189.84,47.22L189.23,48.00L192.83,51.16L193.87,53.52L192.74,55.65L192.54,55.78L192.45,55.80"/><path d="M190.80,49.88L192.61,51.63L193.57,53.86"/><path d="M192.39,56.69L192.71,56.38L192.91,56.61L192.94,56.61L192.94,56.37L193.08,56.19L193.14,56.15L193.22,56.18L194.22,55.49L194.79,54.74L195.06,53.27L194.96,52.57L193.02,49.63L192.79,49.41L189.95,47.11L198.59,41.68L195.47,40.07L192.75,39.73"/><path d="M191.98,39.80L195.07,39.51"/><path d="M192.14,56.19L192.16,56.27L192.34,56.06L192.54,55.78L192.92,56.11L193.06,56.18L192.92,56.37L192.91,56.61L192.66,56.84"/><path d="M193.06,56.18L193.16,56.22L192.99,56.40L192.94,56.61L196.80,59.27"/><path d="M192.38,55.87L192.34,55.96L192.34,56.06L192.71,56.38L192.92,56.11"/><path d="M202.74,58.62L201.98,57.64L200.88,57.26L193.22,56.18L193.16,56.22L197.09,58.93L196.88,59.08L196.82,59.26"/><path d="M192.74,55.65L192.65,55.67L193.70,53.67L192.68,51.37L192.83,51.16"/><path d="M192.16,56.27L192.16,56.17"/><path d="M211.38,60.76L211.95,60.69L210.68,55.28L207.90,49.53L204.06,44.33L199.74,40.48L195.61,38.57L192.31,38.88"/><path d="M195.16,39.50L199.13,41.34L203.30,45.05L207.01,50.07L209.68,55.61L210.81,60.37"/><path d="M197.09,58.93L198.28,58.49L199.97,59.66"/><path d="M198.28,58.49L198.32,58.87"/><path d="M198.59,41.68L201.78,44.36L204.78,47.89L206.04,49.72L203.92,51.23L203.77,51.36L202.55,52.71L202.09,53.43L201.81,54.00L201.47,55.34L201.47,56.04L201.62,56.74"/><path d="M201.11,64.26L200.91,62.11L200.68,61.72L199.08,60.62"/><path d="M204.78,47.89L202.10,49.88L200.29,52.25L199.73,54.82L200.88,57.26L203.10,60.19L200.68,61.72L200.54,61.98"/><path d="M200.57,62.12L200.91,62.11L203.33,60.58L203.10,60.19L203.85,60.06"/><path d="M204.27,62.24L204.14,60.83L204.22,60.58"/><path d="M204.14,60.83L203.88,60.46L203.33,60.58"/><path d="M212.90,60.09L211.95,60.69L211.91,61.13"/></g><g style="stroke:#282828;stroke-width:0.353"><path d="M182.46,44.28L182.05,44.26L181.25,44.38L179.25,44.48"/><path d="M181.19,51.46L184.42,49.82L185.06,49.54L187.28,48.49L189.26,48.70"/><path d="M184.60,43.65L183.54,43.91L182.21,44.27"/><path d="M191.98,39.80L190.60,40.76L186.49,42.89L185.12,43.42L183.76,44.01"/><path d="M185.00,48.45L189.14,48.28L188.80,48.22"/><path d="M189.17,48.62L190.80,49.88"/><path d="M190.37,49.55L190.80,49.94L192.61,51.63"/><path d="M189.98,47.12L192.04,48.93L193.05,49.98"/><path d="M212.74,61.70L212.90,60.09L211.62,54.68L208.85,48.93L205.01,43.73L200.69,39.88L196.56,37.98L193.26,38.29L192.31,38.88L191.09,40.42"/><path d="M192.16,56.27L192.20,56.61"/><path d="M192.17,56.15L192.14,56.19L192.16,56.30"/><path d="M192.16,56.16L192.20,56.08L192.38,55.87L192.45,55.80L192.65,55.67"/><path d="M193.57,53.86L192.56,55.73"/><path d="M194.96,52.57L193.14,56.15L193.26,56.00"/><path d="M193.55,53.89L192.64,51.71L192.32,51.36"/><path d="M194.57,53.34L192.79,49.41"/><path d="M193.96,50.87L194.21,51.19L194.67,53.14"/><path d="M199.97,59.66L199.08,60.62L198.98,60.90"/><path d="M204.37,62.18L204.22,60.58L203.85,60.06L202.61,58.45L202.39,58.16L201.93,57.45L201.62,56.74"/><path d="M210.17,59.94L209.70,56.99L209.01,55.60L207.44,51.91L206.04,49.72"/></g></g><g id="Actor_.4"><g style="stroke:#282828;stroke-width:0.106"><path d="M209.83,95.78L209.11,94.73L210.01,94.72L208.84,81.91L207.93,81.92L203.32,78.71L203.57,76.63L204.61,74.45L206.23,72.61L206.20,72.62"/><path d="M203.32,78.65L203.32,78.66"/><path d="M204.51,91.51L209.11,94.73L207.93,81.92L208.19,79.84L208.82,78.52L209.24,77.65L210.86,75.81L206.23,72.61L206.61,72.18L206.86,71.66L206.92,71.17L211.55,74.37L210.83,66.38L206.19,63.19L206.37,61.99L207.01,60.83L207.05,60.76L208.04,59.84L212.68,63.03L213.15,63.81L212.39,64.51L211.88,65.45L211.74,66.37L212.45,74.36L211.55,74.37L211.49,74.86L211.24,75.38L210.86,75.81L211.42,76.52L209.99,78.15L209.06,80.08L208.84,81.91"/><path d="M206.20,63.11L206.20,63.14"/><path d="M209.70,86.36L210.43,94.45L210.44,94.39"/><path d="M210.43,94.45L210.63,94.91L211.08,95.05L211.65,94.84L211.61,94.76L212.13,94.28L212.48,93.64L212.58,93.01L210.16,91.32"/><path d="M212.39,84.85L213.09,92.73L212.44,94.56L210.90,95.56L210.01,94.72"/><path d="M211.61,94.76L211.06,94.97L210.63,94.83"/><path d="M214.54,62.94L213.73,62.66L212.68,63.03L211.69,63.95L211.01,65.18L210.83,66.38L211.74,66.37"/><path d="M211.12,84.41L211.85,84.92L212.58,93.01L212.67,93.01L212.57,93.66L212.20,94.33L211.65,94.84"/><path d="M212.67,93.01L211.94,84.92L211.85,84.92L211.78,84.77"/><path d="M211.42,76.52L211.99,75.87L212.36,75.10L212.45,74.36"/><path d="M212.17,66.10L212.90,74.30L212.91,74.24"/><path d="M212.90,74.30L213.10,74.77L213.55,74.92L214.12,74.71L214.08,74.63L214.60,74.14L214.96,73.50L215.06,72.86L215.15,72.86L215.05,73.52L214.67,74.20L214.12,74.71"/><path d="M212.63,71.19L215.06,72.86L214.33,64.66L213.59,64.15"/><path d="M214.08,74.63L213.53,74.83L213.10,74.69"/><path d="M213.15,63.81L213.95,63.52L214.57,63.74L214.85,64.39L215.99,77.33"/><path d="M215.15,72.86L214.42,64.66L214.33,64.66L214.27,64.51"/><path d="M214.85,64.39L214.90,63.79"/></g><g style="stroke:#282828;stroke-width:0.353"><path d="M212.45,84.36L213.15,92.13L213.09,92.73L212.68,93.94L212.44,94.56L211.31,95.45L210.90,95.56L209.83,95.78L204.87,92.34L204.51,91.51L203.32,78.71L203.32,78.65L203.57,76.60L204.60,74.44L206.60,72.17L206.86,71.63L206.92,71.16"/><path d="M206.92,71.17L206.19,63.19L206.37,61.99L207.03,60.76L208.04,59.84L209.08,59.47L209.89,59.75L214.54,62.94L214.90,63.79L216.05,76.73L215.99,77.33L215.76,79.16L215.30,80.13L214.84,81.08L212.85,83.35L212.48,84.12L212.39,84.85"/><path d="M209.70,86.36L210.17,85.03L210.35,84.91L211.29,84.31L211.94,84.92"/><path d="M209.71,86.33L210.44,94.39L210.63,94.83"/><path d="M211.24,84.34L211.37,84.38"/><path d="M213.10,74.69L212.91,74.24L212.18,66.07"/><path d="M212.17,66.10L212.64,64.75L212.82,64.64L213.77,64.04L214.42,64.66"/><path d="M213.72,64.07L213.85,64.11"/></g></g><g id="Actor_.5"><g style="stroke:#282828;stroke-width:0.106"><path d="M297.00,97.50L296.06,97.38L294.48,97.02L293.00,96.50L291.66,95.85L289.03,122.45"/><path d="M288.42,91.44L288.54,92.39L288.93,93.33L289.42,94.01L289.60,94.24L290.52,95.09L291.66,95.85"/><path d="M292.89,84.11L293.86,83.66"/><path d="M294.55,83.53L293.87,83.66"/></g><g style="stroke:#282828;stroke-width:0.353"><path d="M285.79,118.34L288.42,91.44L288.73,89.75L288.96,88.97L289.47,87.86L289.86,87.10L291.14,85.51L291.87,84.87L292.89,84.11L293.67,83.69L294.70,83.31"/></g></g><g id="Actor_.6"><g style="stroke:#282828;stroke-width:0.106"><path d="M260.24,128.15L260.59,127.99L261.05,128.12L261.68,127.74"/><path d="M261.27,133.06L261.23,133.03L261.36,131.53"/><path d="M261.23,133.03L261.03,133.15L261.25,133.28"/><path d="M261.91,133.66L261.68,133.53L261.39,131.82"/><path d="M261.03,133.15L261.19,131.43"/><path d="M295.71,147.62L295.08,148.01L261.05,128.12"/><path d="M262.91,134.25L262.67,134.11L262.87,133.99L263.00,134.07"/><path d="M262.67,134.11L263.46,132.76"/><path d="M262.47,132.46L262.34,133.91L262.56,134.04"/><path d="M262.34,133.91L262.53,133.79L262.58,133.82"/><path d="M262.38,132.13L261.92,133.11L262.12,132.99L262.02,133.22"/><path d="M262.12,132.99L262.49,132.19"/><path d="M261.68,133.53L261.87,133.41L261.86,133.31"/><path d="M261.87,133.41L262.00,133.48"/><path d="M261.82,133.33L261.92,133.11"/><path d="M262.53,133.79L262.66,132.34"/><path d="M263.81,133.35L263.65,133.44L263.77,133.98"/><path d="M262.87,133.99L263.55,132.81"/><path d="M263.14,133.82L263.82,134.22L263.95,134.86L264.19,135.00"/><path d="M263.82,134.22L263.99,134.12"/><path d="M263.79,133.97L263.98,134.08"/><path d="M263.65,133.44L263.57,133.03"/><path d="M265.22,135.37L265.17,135.34L264.97,135.46L265.13,133.74"/><path d="M264.97,135.46L265.20,135.59"/><path d="M264.60,135.24L264.38,135.11L264.57,134.99L264.62,135.02"/><path d="M264.57,134.99L264.71,133.49"/><path d="M264.38,135.11L264.54,133.39"/><path d="M264.13,134.75L263.95,134.86"/><path d="M265.62,142.48L265.23,142.25L265.42,142.13L265.64,142.25"/><path d="M265.23,142.25L265.51,139.24"/><path d="M265.42,142.13L265.68,139.34"/><path d="M266.78,143.16L266.36,142.91L265.86,139.93"/><path d="M266.86,142.97L266.56,142.79L266.05,139.81"/><path d="M265.31,134.31L265.96,136.03L266.16,135.92L266.22,135.95"/><path d="M265.96,136.03L266.20,136.17"/><path d="M265.17,135.34L265.30,133.84"/><path d="M266.01,135.61L266.13,134.32"/><path d="M266.04,135.59L266.16,135.92"/><path d="M266.56,142.79L266.36,142.91"/><path d="M266.81,142.46L266.99,142.06L266.80,142.18L267.61,140.47"/><path d="M266.99,142.06L267.72,140.54"/><path d="M266.80,142.18L266.61,142.58"/><path d="M267.40,136.88L267.18,136.75L267.38,136.63L267.43,136.66"/><path d="M267.18,136.75L267.34,135.03"/><path d="M266.21,135.49L266.31,134.43"/><path d="M267.94,143.60L267.72,143.47L267.52,143.59L267.92,143.83"/><path d="M267.52,143.59L267.76,141.05"/><path d="M267.72,143.47L267.95,140.93"/><path d="M267.38,136.63L267.52,135.13"/><path d="M268.19,136.53L267.48,136.11"/><path d="M267.55,135.36L268.39,135.85"/><path d="M269.14,144.55L268.75,144.32L268.95,144.20L269.16,144.33"/><path d="M268.95,144.20L269.20,141.41"/><path d="M268.75,144.32L269.03,141.31"/><path d="M269.27,143.20L270.53,143.94"/><path d="M269.39,141.89L270.87,142.75"/><path d="M268.76,137.67L268.53,137.54L268.69,135.82"/><path d="M268.53,137.54L268.73,137.42L268.78,137.45"/><path d="M269.63,137.61L269.47,137.71L269.35,137.39L269.17,137.11L269.06,137.04L269.24,136.93"/><path d="M268.73,137.42L268.87,135.93"/><path d="M269.52,136.34L269.38,136.43L268.90,136.15"/><path d="M269.38,136.43L269.58,136.62L269.65,136.88L269.52,137.05"/><path d="M268.83,136.90L269.06,137.04"/><path d="M269.17,137.11L269.37,136.99L269.48,137.18"/><path d="M269.37,136.99L269.36,136.99"/><path d="M269.47,143.08L270.55,143.72"/><path d="M269.59,141.77L270.89,142.53"/><path d="M270.71,137.00L269.91,138.35L270.15,138.49"/><path d="M269.91,138.35L270.11,138.23L270.25,138.31"/><path d="M269.89,138.34L269.63,138.19L269.47,137.71"/><path d="M270.11,138.23L270.80,137.06"/><path d="M270.38,138.07L271.07,138.47L271.24,138.36"/><path d="M269.73,137.26L269.41,137.22"/><path d="M269.80,138.09L269.63,138.19"/><path d="M269.61,137.10L269.84,137.13"/><path d="M269.72,136.93L269.85,136.76L269.85,136.75"/><path d="M269.85,136.76L269.65,136.88"/><path d="M271.77,146.10L271.38,145.86L271.57,145.74L271.80,145.87"/><path d="M271.38,145.86L271.66,142.85"/><path d="M271.57,145.74L271.84,142.96"/><path d="M271.79,139.45L271.57,139.32L271.73,137.60"/><path d="M271.57,139.32L271.76,139.20L271.90,137.70"/><path d="M271.23,138.33L271.04,138.22"/><path d="M271.07,138.47L271.20,139.10L271.44,139.25"/><path d="M271.38,138.99L271.20,139.10"/><path d="M271.02,138.23L270.90,137.69L271.06,137.59"/><path d="M270.90,137.69L270.82,137.28"/><path d="M273.18,145.26L272.10,144.63"/><path d="M271.90,144.75L273.16,145.49"/><path d="M272.02,143.43L273.50,144.30"/><path d="M272.22,143.31L273.52,144.08"/><path d="M272.40,139.49L272.41,139.58L272.54,139.66"/><path d="M272.41,139.58L272.22,139.70L272.45,139.84"/><path d="M272.36,139.51L272.47,139.28L272.66,139.16L272.56,139.39"/><path d="M272.22,139.70L271.93,138.00"/><path d="M272.47,139.28L272.93,138.31"/><path d="M271.76,139.20L271.81,139.23"/><path d="M272.66,139.16L273.04,138.37"/><path d="M274.15,147.25L273.82,147.07L273.63,147.19L275.03,144.83"/><path d="M273.63,147.19L274.05,147.43"/><path d="M274.61,141.10L273.44,140.42L273.60,138.69"/><path d="M273.74,139.75L274.58,140.25"/><path d="M273.68,140.33L273.63,140.30L273.44,140.42"/><path d="M273.63,140.30L273.77,138.80"/><path d="M273.02,138.64L272.88,140.09L273.11,140.22"/><path d="M272.88,140.09L273.08,139.97L273.13,140.00"/><path d="M273.08,139.97L273.22,138.52"/><path d="M273.81,139.03L274.71,139.56"/><path d="M275.12,144.89L273.82,147.07"/><path d="M274.65,146.57L275.85,147.28L275.65,147.40L275.89,148.51L276.08,148.39L276.25,148.49"/><path d="M274.46,146.69L275.65,147.40"/><path d="M275.89,148.51L276.31,148.76"/><path d="M276.08,148.39L275.85,147.28"/><path d="M275.76,146.86L275.57,145.91L275.37,146.03L275.57,146.98"/><path d="M275.37,146.03L275.22,145.31"/><path d="M275.57,145.91L275.42,145.19"/><path d="M275.76,141.78L275.53,141.65L275.73,141.53L275.78,141.56"/><path d="M275.53,141.65L275.70,139.92"/><path d="M275.83,141.01L276.55,141.43"/><path d="M275.87,140.03L275.73,141.53"/><path d="M275.91,140.26L276.75,140.75"/><path d="M276.73,148.12L276.73,148.48L276.84,148.86L277.08,149.20L277.39,149.44L277.74,149.57L278.03,149.51"/><path d="M277.39,149.44L277.58,149.32L277.28,149.08L277.04,148.74L276.93,148.36L276.93,148.21"/><path d="M277.08,140.73L276.91,142.45L277.14,142.59"/><path d="M276.91,142.45L277.11,142.33L277.25,140.83"/><path d="M277.11,142.33L277.16,142.36"/><path d="M277.58,149.32L277.93,149.45L278.09,149.42"/><path d="M277.77,149.07L277.86,148.68L278.06,146.61"/><path d="M277.86,148.68L278.06,148.56L277.97,148.95"/><path d="M278.06,148.56L278.23,146.71"/><path d="M277.68,141.08L277.51,142.80L277.71,142.68L277.76,142.71"/><path d="M277.51,142.80L277.74,142.94"/><path d="M277.71,142.68L277.85,141.18"/><path d="M278.75,143.53L278.51,143.39L277.86,141.65"/><path d="M279.11,150.41L278.69,150.16L280.10,147.81"/><path d="M280.19,147.86L278.89,150.04L279.21,150.23"/><path d="M278.89,150.04L278.69,150.16"/><path d="M279.14,143.76L278.90,143.62L279.70,142.27"/><path d="M278.90,143.62L279.10,143.50L279.80,142.32"/><path d="M279.10,143.50L279.24,143.58"/><path d="M278.59,142.95L278.71,143.27L278.77,143.31"/><path d="M278.76,142.84L278.86,141.78"/><path d="M278.56,142.96L278.69,141.67"/><path d="M278.71,143.27L278.51,143.39"/><path d="M279.52,149.67L280.73,150.38L280.96,151.50L281.38,151.74"/><path d="M279.72,149.55L280.92,150.26L281.15,151.37L281.32,151.47"/><path d="M280.49,148.17L280.64,148.89L280.44,149.01L280.29,148.29"/><path d="M280.43,144.52L280.19,144.38L280.38,144.26"/><path d="M280.19,144.38L280.06,143.74L279.37,143.34"/><path d="M280.06,142.86L279.90,142.95L279.81,142.54"/><path d="M280.06,143.74L280.23,143.63"/><path d="M280.23,143.60L280.03,143.49"/><path d="M279.90,142.95L280.01,143.50"/><path d="M280.96,151.50L281.15,151.37"/><path d="M280.92,150.26L280.73,150.38"/><path d="M280.84,149.84L280.64,148.89"/><path d="M280.64,149.96L280.44,149.01"/><path d="M281.60,145.20L280.61,144.62L280.80,144.50L280.85,144.53"/><path d="M280.61,144.62L280.77,142.89"/><path d="M280.80,144.50L280.95,143.00"/><path d="M282.49,145.72L282.24,145.58L282.44,145.46L282.58,145.54"/><path d="M282.44,145.46L283.15,144.28"/><path d="M282.24,145.58L283.05,144.23"/><path d="M282.72,145.30L283.41,145.70L283.54,146.34L283.72,146.22"/><path d="M283.54,146.34L283.78,146.48"/><path d="M283.58,145.59L283.41,145.70"/><path d="M283.58,145.56L283.38,145.45"/><path d="M283.16,144.50L283.36,145.46"/><path d="M283.25,144.92L283.41,144.82"/><path d="M284.86,153.79L284.49,153.57L284.69,153.45L284.92,152.73L284.59,152.53L284.39,152.66L284.73,152.85L284.49,153.57"/><path d="M284.69,153.45L284.93,153.59"/><path d="M284.73,152.85L284.92,152.73"/><path d="M284.43,152.27L284.39,152.66"/><path d="M284.60,152.37L284.59,152.53"/><path d="M284.84,152.51L285.03,151.93L285.23,151.81L285.04,152.39"/><path d="M285.23,151.81L284.69,151.49L284.49,151.61L284.53,151.23"/><path d="M284.49,151.61L285.03,151.93"/><path d="M284.69,151.49L284.70,151.33"/><path d="M284.43,145.70L284.26,145.81L284.80,146.33L284.96,146.23"/><path d="M284.80,146.33L284.92,146.48L284.95,146.66L285.14,146.55L285.01,146.70"/><path d="M285.11,146.97L284.96,147.06L284.55,146.95L284.30,146.77L284.09,146.53L283.96,146.23L283.93,145.93"/><path d="M284.55,146.95L284.74,146.83L284.68,146.78"/><path d="M284.19,146.18L284.15,146.10L284.15,146.06"/><path d="M284.74,146.83L284.95,146.92L285.12,146.93"/><path d="M284.81,146.82L284.95,146.66"/><path d="M284.26,145.81L284.10,145.56L284.06,145.29L284.26,145.17L284.30,145.04"/><path d="M284.42,145.27L284.66,145.35L284.80,145.27"/><path d="M284.66,145.35L284.90,145.57L284.99,145.88L285.21,146.01"/><path d="M284.26,145.17L284.29,145.40"/><path d="M284.62,145.15L284.70,145.18"/><path d="M284.13,145.12L284.06,145.29"/><path d="M285.69,154.28L285.32,154.06L285.56,153.34L285.10,153.07"/><path d="M285.32,154.06L285.51,153.94L285.75,154.08"/><path d="M285.51,153.94L285.75,153.22L285.56,153.34"/><path d="M285.92,153.56L286.53,153.91"/><path d="M285.75,153.22L285.29,152.95"/><path d="M285.86,152.88L286.06,152.29L285.60,152.03"/><path d="M285.67,153.00L285.86,152.42L285.40,152.15"/><path d="M285.14,151.59L285.37,150.90"/><path d="M285.86,152.42L286.06,152.29"/><path d="M285.34,151.47L285.50,150.98"/><path d="M285.42,146.81L285.45,147.10L285.58,147.40L285.79,147.65L286.04,147.82L286.45,147.93L286.60,147.84"/><path d="M285.79,146.28L285.75,146.05L285.55,146.17L285.59,146.43L285.75,146.68L285.93,146.57"/><path d="M285.75,146.68L286.30,147.20L286.45,147.10"/><path d="M285.75,146.05L285.80,145.92"/><path d="M285.91,146.14L286.15,146.23L286.29,146.14"/><path d="M285.55,146.17L285.62,145.99"/><path d="M285.68,147.06L285.64,146.98L285.64,146.94"/><path d="M285.18,145.76L284.99,145.88"/><path d="M286.42,152.51L286.66,152.65"/><path d="M286.23,152.63L286.63,152.87"/><path d="M286.12,153.44L286.55,153.69"/><path d="M286.17,151.95L286.33,151.46"/><path d="M285.97,152.07L286.20,151.39"/><path d="M287.28,146.70L287.13,148.21L286.94,148.33L287.11,146.60"/><path d="M286.94,148.33L288.12,149.02"/><path d="M286.04,147.82L286.23,147.70L286.45,147.80L286.62,147.81"/><path d="M286.30,147.20L286.41,147.36L286.45,147.53L286.30,147.69"/><path d="M286.45,147.53L286.63,147.42L286.50,147.57"/><path d="M286.23,147.70L286.17,147.65"/><path d="M286.71,146.88L286.48,146.75L286.39,146.44L286.15,146.23"/><path d="M286.11,146.02L286.19,146.05"/><path d="M286.48,146.75L286.68,146.63"/><path d="M287.59,152.88L287.57,153.13L287.93,153.14L288.27,153.07L288.03,155.42L287.84,155.54L288.07,153.19L287.74,153.26L287.37,153.25L287.41,152.90"/><path d="M287.84,155.54L288.20,155.76"/><path d="M288.03,155.42L288.22,155.53"/><path d="M288.07,153.19L288.27,153.07"/><path d="M287.57,153.13L287.37,153.25"/><path d="M287.89,152.85L288.17,152.67L288.08,152.72"/><path d="M287.13,148.21L287.19,148.24"/><path d="M288.23,147.47L287.32,146.94"/><path d="M287.24,147.67L288.09,148.16"/><path d="M288.17,152.67L288.27,152.60L288.17,152.67"/><path d="M288.62,149.31L288.39,149.18L288.56,147.45"/><path d="M289.19,149.37L289.30,149.15L289.50,149.02L289.39,149.25"/><path d="M288.76,147.85L289.05,149.56L289.24,149.44L289.37,149.52"/><path d="M289.05,149.56L289.29,149.70"/><path d="M289.24,149.44L289.23,149.35"/><path d="M288.74,147.56L288.59,149.06L288.64,149.09"/><path d="M288.59,149.06L288.39,149.18"/><path d="M290.45,148.56L290.28,150.29L290.89,150.64L291.08,150.52L291.48,150.65"/><path d="M290.28,150.29L290.47,150.16L290.53,150.20"/><path d="M289.97,149.87L289.91,149.84L290.06,148.38"/><path d="M289.86,148.50L289.72,149.96L289.95,150.09"/><path d="M289.72,149.96L289.91,149.84"/><path d="M289.30,149.15L289.78,148.17"/><path d="M289.50,149.02L289.88,148.23"/><path d="M290.89,150.64L291.31,150.79L291.46,150.69"/><path d="M291.23,150.52L291.31,150.36L291.29,150.20L291.21,150.04L290.94,149.83L291.14,149.71"/><path d="M290.94,149.83L290.59,149.62"/><path d="M291.31,150.36L291.49,150.25"/><path d="M291.27,149.91L291.46,149.86"/><path d="M290.47,150.16L290.63,148.66"/><path d="M291.47,149.78L291.50,149.78"/><path d="M291.14,149.71L291.34,149.86"/><path d="M291.42,150.40L291.49,150.26"/><path d="M291.46,149.57L291.52,149.44L291.32,149.56L291.30,149.41L291.22,149.26L290.97,149.07L291.13,148.98"/><path d="M291.27,149.69L291.32,149.56"/><path d="M290.97,149.07L290.66,148.89"/><path d="M292.12,149.54L291.97,151.04L291.78,151.16L291.95,149.44"/><path d="M291.78,151.16L292.77,151.75"/><path d="M291.97,151.04L292.03,151.07"/><path d="M291.51,149.43L291.52,149.44"/><path d="M293.46,152.15L293.66,152.03L293.73,151.30L293.54,151.42L293.46,152.15L293.69,152.28"/><path d="M293.66,152.03L293.71,152.06"/><path d="M293.54,151.42L293.01,150.06"/><path d="M293.67,151.28L293.87,151.10L294.06,150.98L293.87,151.16"/><path d="M296.52,149.11L295.89,149.50L294.62,161.96L295.25,161.57"/><path d="M294.62,161.96L294.45,162.36"/><path d="M294.06,150.98L294.26,150.79"/><path d="M293.87,151.10L294.22,150.77"/><path d="M293.73,151.30L293.71,151.25"/><path d="M295.89,149.50L295.82,148.95L295.52,148.40L295.08,148.01"/></g><g style="stroke:#282828;stroke-width:0.353"><path d="M259.33,142.04L259.76,142.43L293.62,162.38L294.08,162.52L294.45,162.36L295.08,161.97L295.25,161.57L296.52,149.11L296.44,148.56L296.15,148.01L295.71,147.62L294.81,147.09L261.68,127.74L261.22,127.61L260.87,127.77L260.24,128.15L260.08,128.56L258.96,140.96L259.03,141.50L259.33,142.04"/><path d="M261.25,133.28L261.39,131.82L261.54,131.73"/><path d="M261.19,131.43L261.52,131.63L261.82,133.34L262.02,133.22L262.01,133.21"/><path d="M262.56,134.04L262.72,132.32L262.38,132.13"/><path d="M261.91,133.66L262.47,132.46L262.66,132.34"/><path d="M262.91,134.25L263.14,133.82L263.31,133.72"/><path d="M263.72,132.94L263.57,133.03L263.22,133.67L263.77,133.98L263.93,133.88"/><path d="M264.19,135.00L263.71,132.91L263.46,132.76"/><path d="M264.54,133.39L264.76,133.52L264.60,135.24"/><path d="M265.62,142.48L265.86,139.93L266.05,139.81"/><path d="M266.81,142.46L266.61,142.58L266.10,139.59L265.50,139.24"/><path d="M266.21,135.49L266.01,135.61L265.37,133.88L265.13,133.74"/><path d="M265.20,135.59L265.31,134.30L265.49,134.20"/><path d="M266.78,143.16L267.76,141.05L267.95,140.93"/><path d="M266.20,136.18L266.36,134.46L266.13,134.32"/><path d="M267.92,143.83L268.20,140.82L267.61,140.47"/><path d="M267.72,135.25L267.55,135.36L267.49,135.91L268.21,136.33L268.19,136.53"/><path d="M267.65,136.00L267.48,136.11L267.41,136.88"/><path d="M268.39,135.85L268.40,135.65L267.34,135.03"/><path d="M269.14,144.55L269.27,143.20L269.47,143.08"/><path d="M269.59,141.77L269.39,141.89L269.30,142.85L270.56,143.59L270.53,143.94"/><path d="M269.03,141.31L270.90,142.41L270.87,142.75"/><path d="M269.00,136.80L268.83,136.90L268.76,137.67"/><path d="M269.72,136.93L269.52,137.05L269.28,136.96L268.85,136.70L268.90,136.15L269.07,136.05"/><path d="M269.73,137.26L269.83,137.17L269.88,137.01L269.86,136.78L269.76,136.54L269.39,136.23L268.69,135.82"/><path d="M270.15,138.49L270.38,138.07L270.56,137.96"/><path d="M269.89,138.34L269.67,137.71L269.53,137.38L269.41,137.22L269.61,137.10"/><path d="M271.18,138.13L271.02,138.23L270.47,137.91L270.82,137.28L270.97,137.18"/><path d="M270.71,137.00L270.96,137.15L271.44,139.25"/><path d="M271.77,146.10L271.90,144.75L272.10,144.63"/><path d="M272.22,143.31L272.02,143.43L271.93,144.40L273.19,145.14L273.16,145.49"/><path d="M273.50,144.30L273.53,143.95L271.66,142.85"/><path d="M271.79,139.45L271.93,138.00L272.09,137.90"/><path d="M272.56,139.39L272.36,139.51L272.07,137.80L271.73,137.60"/><path d="M272.45,139.84L273.02,138.64L273.22,138.52"/><path d="M273.98,138.92L273.81,139.03L273.76,139.56L274.60,140.05L274.58,140.25"/><path d="M274.61,141.10L274.63,140.90L273.68,140.35L273.74,139.75L273.91,139.65"/><path d="M273.11,140.22L273.27,138.50L272.93,138.31"/><path d="M273.60,138.70L274.73,139.36L274.71,139.56"/><path d="M274.05,147.43L274.46,146.70L274.65,146.57"/><path d="M275.76,146.86L275.57,146.98L274.61,146.42L275.22,145.31L275.42,145.19"/><path d="M276.31,148.76L275.48,145.09L275.03,144.83"/><path d="M275.76,141.78L275.83,141.01L276.01,140.90"/><path d="M276.08,140.15L275.91,140.26L275.85,140.81L276.57,141.23L276.56,141.43"/><path d="M275.70,139.92L276.77,140.55L276.75,140.75"/><path d="M276.73,148.12L277.13,148.31L277.16,148.73L277.27,148.95L277.44,149.10L277.63,149.16L277.97,148.95"/><path d="M277.08,140.73L277.31,140.86L277.14,142.59"/><path d="M278.03,149.51L278.20,149.24L278.26,148.89L278.46,146.84L278.06,146.61"/><path d="M277.74,142.94L277.86,141.65L278.04,141.54"/><path d="M278.76,142.84L278.56,142.96L277.92,141.22L277.68,141.08"/><path d="M279.11,150.41L279.52,149.67L279.72,149.55"/><path d="M279.14,143.76L279.37,143.34L279.55,143.23"/><path d="M278.75,143.53L278.91,141.81L278.69,141.67"/><path d="M280.84,149.84L280.64,149.96L279.68,149.40L280.29,148.29L280.49,148.17"/><path d="M280.10,147.81L280.55,148.07L281.38,151.74"/><path d="M280.43,144.52L279.96,142.42L279.70,142.27"/><path d="M279.97,142.45L279.81,142.54L279.46,143.18L280.01,143.50L280.18,143.40"/><path d="M280.77,142.89L281.00,143.03L280.85,144.55L281.62,145.00L281.60,145.20"/><path d="M282.49,145.72L282.72,145.30L282.90,145.19"/><path d="M283.78,146.48L283.31,144.38L283.05,144.23"/><path d="M283.53,145.36L283.36,145.46L282.81,145.14L283.16,144.50L283.32,144.41"/><path d="M284.43,152.27L284.84,152.51L285.04,152.39"/><path d="M284.53,151.23L285.14,151.59L285.34,151.47"/><path d="M283.93,145.93L284.16,146.07L284.26,146.46L284.56,146.74L284.81,146.82L285.01,146.70"/><path d="M285.11,146.97L285.18,146.78L285.13,146.48L284.94,146.20L284.33,145.60L284.29,145.41L284.42,145.27L284.62,145.15"/><path d="M284.13,145.12L284.27,145.04L284.67,145.15L285.06,145.51L285.18,145.76L285.21,146.01"/><path d="M286.12,153.44L285.92,153.56L285.69,154.28"/><path d="M284.86,153.79L285.10,153.07L285.29,152.95"/><path d="M285.86,152.88L285.67,153.00L285.21,152.73L285.40,152.15L285.60,152.03"/><path d="M286.17,151.95L285.97,152.07L285.51,151.80L285.74,151.12L285.37,150.90"/><path d="M286.50,147.57L286.30,147.69L286.05,147.62L285.75,147.33L285.65,146.94L285.42,146.81"/><path d="M286.11,146.02L285.91,146.14L285.78,146.28L285.82,146.47L286.44,147.07L286.62,147.36L286.67,147.66L286.60,147.84"/><path d="M285.62,145.99L285.77,145.91L286.16,146.02L286.55,146.38L286.68,146.63L286.71,146.88"/><path d="M286.53,153.91L286.57,153.53L286.04,153.22L286.23,152.63L286.42,152.51"/><path d="M286.63,152.87L286.67,152.48L286.34,152.29L286.57,151.60L286.20,151.39"/><path d="M287.41,152.90L287.89,152.85L288.08,152.72"/><path d="M288.12,149.02L288.14,148.82L287.18,148.26L287.24,147.67L287.42,147.56"/><path d="M288.23,147.47L288.25,147.27L287.11,146.60"/><path d="M288.09,148.16L288.11,147.96L287.26,147.47L287.32,146.94L287.49,146.83"/><path d="M288.20,155.76L288.50,152.74L288.27,152.60"/><path d="M288.56,147.45L288.90,147.65L289.19,149.37L289.39,149.25L289.39,149.25"/><path d="M288.92,147.75L288.76,147.85L288.62,149.31"/><path d="M289.95,150.09L290.12,148.37L289.78,148.17"/><path d="M289.29,149.70L289.86,148.50L290.06,148.38"/><path d="M291.46,150.69L291.53,150.50L291.48,150.18L291.27,149.91L291.47,149.78"/><path d="M290.76,149.51L290.59,149.62L290.53,150.22L290.91,150.44L291.05,150.52L291.23,150.52L291.42,150.40"/><path d="M291.46,149.86L291.55,149.68L291.52,149.45L291.42,149.23L291.06,148.92L290.45,148.56"/><path d="M291.46,149.57L291.27,149.69L291.14,149.71L290.94,149.62L290.61,149.42L290.66,148.89L290.84,148.78"/><path d="M292.77,151.75L292.79,151.55L292.02,151.10L292.18,149.57L291.95,149.44"/><path d="M293.87,151.16L293.67,151.28L293.28,150.22L293.01,150.06"/><path d="M293.69,152.29L293.77,151.55L294.49,150.92L294.22,150.77"/></g></g><g id="Actor_.7"><g style="stroke:#282828;stroke-width:0.106"><path d="M297.00,127.51L296.79,127.52L294.56,127.41L292.34,127.11L290.19,126.62L288.15,125.95L286.27,125.12L284.60,124.15L283.16,123.06L281.99,121.87L281.12,120.62L280.57,119.32L280.44,118.59L280.34,118.02L280.44,116.73"/><path d="M297.00,127.09L296.78,127.10L294.60,126.99L292.42,126.70L290.32,126.22L288.32,125.57L286.48,124.75L284.83,123.80L283.42,122.73L282.28,121.57L281.42,120.34L280.88,119.07L280.66,117.79L280.76,116.53L281.19,115.31L281.92,114.16L282.95,113.11L284.26,112.19L284.01,112.30"/><path d="M284.17,128.49L285.85,129.46L287.72,130.29L289.76,130.96L291.91,131.45L294.12,131.75L296.35,131.85L297.00,131.83"/><path d="M284.26,112.19L285.80,111.40"/><path d="M286.01,116.10L285.62,116.93L285.50,117.97L285.70,119.03L286.23,120.06L287.06,121.05L288.17,121.95"/><path d="M285.77,118.23L285.89,117.23L285.90,117.20"/></g><g style="stroke:#282828;stroke-width:0.353"><path d="M297.00,131.89L296.29,131.92L294.11,131.81L291.94,131.52L289.84,131.04L287.84,130.38L286.00,129.57L284.36,128.62L284.17,128.49L282.74,127.39L281.57,126.21L280.70,124.95L280.15,123.65L279.92,122.34L280.03,121.05L280.44,116.73L280.88,115.48L281.63,114.31L282.68,113.24L284.01,112.30L285.59,111.50L285.80,111.40L286.50,111.15"/><path d="M288.26,122.00L287.29,121.21L286.48,120.26L285.97,119.25L285.77,118.23"/><path d="M297.00,124.18L296.34,124.22L294.54,124.13L292.77,123.84L291.08,123.37L289.53,122.73L288.17,121.95"/></g></g><g id="Actor_.8"><g style="stroke:#282828;stroke-width:0.106"><path d="M253.91,138.39L253.96,138.57L254.07,138.74L254.22,138.90L254.40,139.02L255.75,123.78L256.41,124.16L255.06,139.41L254.40,139.02L254.40,139.37L254.46,139.68L254.57,139.92L254.74,140.09"/><path d="M253.93,138.21L253.93,138.21"/><path d="M255.57,140.55L255.26,140.34L255.09,139.95L255.06,139.41"/><path d="M255.28,122.97L255.26,123.15L255.31,123.33L255.42,123.50L255.57,123.65L255.75,123.78L255.82,123.38L255.94,122.97L256.11,122.55L256.33,122.15L256.59,121.76L256.88,121.42L257.19,121.14L257.50,120.92L258.16,121.30L257.67,121.69L257.20,122.22L256.87,122.76L256.82,122.86L256.54,123.53L256.41,124.16"/><path d="M256.69,120.81L256.88,120.76L257.09,120.76L257.30,120.82L257.50,120.92L259.91,119.47"/><path d="M256.53,120.92L256.52,120.93"/><path d="M258.16,121.30L259.84,120.30"/></g><g style="stroke:#282828;stroke-width:0.353"><path d="M255.57,140.55L254.74,140.09L254.56,139.95L254.38,139.77L254.22,139.59L254.11,139.37L254.01,139.14L253.95,138.91L253.91,138.66L253.91,138.39L253.94,138.08L255.28,122.97L255.32,122.71L255.40,122.42L255.53,122.11L255.69,121.80L255.89,121.52L256.10,121.27L256.32,121.07L256.69,120.81L259.97,118.85"/></g></g><g id="Actor_.9"><g style="stroke:#282828;stroke-width:0.106"><path d="M282.18,109.44L282.27,109.98L282.54,110.51L282.97,111.01L283.56,111.47L284.27,111.86L284.62,111.99"/><path d="M284.81,111.89L284.58,111.81L284.21,111.64L283.87,111.46L283.55,111.27L283.27,111.05L283.02,110.83L282.80,110.60L282.62,110.35L282.48,110.10L282.38,109.85L282.32,109.59L282.30,109.34L282.33,109.08L282.39,108.84L282.29,108.86L282.27,108.91"/><path d="M282.39,108.84L282.50,108.60L282.83,108.15L283.30,107.75L283.91,107.43L284.62,107.18L285.41,107.03L286.26,106.96L286.90,106.99"/><path d="M285.51,109.99L285.61,108.91L285.29,109.86"/><path d="M285.61,108.91L286.73,108.76"/><path d="M286.59,110.20L286.01,110.28"/></g><g style="stroke:#282828;stroke-width:0.353"><path d="M286.90,106.97L286.24,106.95L285.38,107.01L284.57,107.17L283.84,107.42L283.22,107.75L282.74,108.16L282.40,108.61L282.37,108.67L282.27,108.91L282.23,109.11L282.18,109.44L282.15,109.94"/><path d="M285.29,109.86L286.55,110.59"/></g></g><g id="Actor_.10"><g style="stroke:#282828;stroke-width:0.106"><path d="M266.66,118.27L266.69,118.22L266.78,118.19L266.72,118.44L266.69,118.70L266.71,118.96L266.76,119.22L266.86,119.47L267.00,119.73L267.18,119.97L267.40,120.21L267.65,120.44L267.93,120.65L268.25,120.85L268.59,121.03L268.96,121.20L269.35,121.34L269.75,121.47L270.17,121.57L270.61,121.65L271.04,121.70L271.48,121.73L271.92,121.74L272.36,121.72L272.78,121.67L273.19,121.60L273.58,121.51L273.95,121.40L274.30,121.26L274.62,121.11L274.91,120.93L275.17,120.74L275.40,120.53L275.58,120.31L275.73,120.07L275.84,119.83L275.93,119.89L275.94,119.95L275.67,120.45L275.23,120.90L274.64,121.29L273.92,121.59L273.10,121.79L272.21,121.89L271.28,121.89L270.36,121.77L269.47,121.56L268.65,121.25L267.93,120.86L267.35,120.40L266.91,119.89L266.65,119.35L266.56,118.80"/><path d="M266.78,118.19L266.89,117.95L267.23,117.50L267.71,117.10L268.32,116.77L269.04,116.52L269.84,116.36L270.70,116.30L271.57,116.33L272.44,116.46L273.26,116.69L274.02,116.99L274.68,117.37L275.21,117.81L275.61,118.30L275.85,118.81L275.91,119.07L275.93,119.32L275.90,119.58L275.84,119.83"/><path d="M269.69,119.23L270.03,118.27L271.65,118.05L271.51,119.49L270.40,119.64"/><path d="M270.03,118.27L269.93,119.37"/><path d="M271.51,119.49L272.09,119.82"/><path d="M271.65,118.05L272.93,118.79"/><path d="M276.01,119.69L275.94,119.95L275.91,120.29"/></g><g style="stroke:#282828;stroke-width:0.353"><path d="M275.92,120.26L276.01,119.69L276.04,119.43L276.02,119.16L275.96,118.90L275.94,118.84L275.70,118.32L275.29,117.83L274.74,117.38L274.07,116.99L273.30,116.68L272.46,116.45L271.57,116.32L270.68,116.28L269.81,116.34L268.99,116.51L268.26,116.76L267.63,117.10L267.14,117.51L266.80,117.97L266.77,118.02L266.66,118.27L266.62,118.47L266.56,118.80L266.54,119.30"/><path d="M272.93,118.79L272.59,119.75L270.97,119.97L269.69,119.23"/></g></g><g id="Actor_.11"><g style="stroke:#282828;stroke-width:0.106"><path d="M297.00,86.81L296.03,86.45L295.15,85.89L294.55,85.23L294.28,84.52L294.36,83.82"/><path d="M296.88,84.26L296.83,84.61L296.93,84.80"/></g><g style="stroke:#282828;stroke-width:0.353"><path d="M297.00,82.21L296.50,82.30L295.52,82.66L294.78,83.18L294.36,83.82L294.24,84.70"/></g></g><g id="Actor_.12"><g style="stroke:#282828;stroke-width:0.106"><path d="M255.06,139.41L259.23,141.87"/><path d="M255.50,134.42L259.34,136.68"/><path d="M255.97,129.18L259.82,131.44"/><path d="M259.47,135.30L256.16,133.35"/><path d="M256.94,132.88L259.55,134.41"/><path d="M256.21,129.63L256.23,129.62"/><path d="M256.41,124.16L297.00,147.86"/><path d="M258.16,121.30L297.00,143.93"/><path d="M294.20,162.47L297.00,164.12"/><path d="M297.00,158.80L295.61,157.98"/><path d="M297.00,157.33L295.75,156.59"/><path d="M297.00,156.38L295.84,155.70"/><path d="M297.00,153.21L296.15,152.71"/></g><g style="stroke:#282828;stroke-width:0.353"><path d="M259.56,134.25L257.13,132.83L256.94,132.88L256.16,133.35L255.85,133.63L255.61,134.02L255.50,134.42L255.06,139.41L255.09,139.95L255.26,140.34L255.57,140.55L297.00,164.97"/><path d="M259.79,131.72L256.21,129.62L256.02,129.49L255.97,129.18L256.41,124.16L256.54,123.53L256.82,122.86L257.20,122.22L257.67,121.69L258.16,121.30L259.84,120.30"/><path d="M259.79,131.73L259.38,132.50L258.64,133.71"/><path d="M297.00,156.21L295.86,155.54"/><path d="M297.00,153.52L296.12,153.00"/></g></g><g id="Actor_.13"><g style="stroke:#282828;stroke-width:0.106"><path d="M260.00,118.43L260.06,118.98L260.36,119.44L260.39,119.50L260.98,119.96L260.77,122.35"/><path d="M260.98,119.96L297.00,140.91"/><path d="M274.58,117.29L274.83,116.88L273.78,116.39L272.58,116.05L271.30,115.88L270.03,115.89L268.83,116.08L267.78,116.44L266.92,116.95L266.33,117.58L266.02,118.29L266.02,119.05L266.33,119.80L266.92,120.50L267.78,121.12"/><path d="M274.85,121.55L275.70,121.04L276.30,120.41L276.60,119.69L276.60,118.94L276.29,118.19L275.69,117.49L274.83,116.88"/><path d="M286.94,106.56L286.86,106.55L285.59,106.56L284.41,106.75L283.36,107.11L282.52,107.61L281.93,108.23L281.63,108.94L281.64,109.68L281.95,110.42L282.55,111.12"/></g><g style="stroke:#282828;stroke-width:0.353"><path d="M297.00,143.46L260.77,122.35L260.18,121.90L259.84,121.37L259.79,120.83L260.00,118.43L260.24,117.92L260.74,117.49L284.13,103.51L284.83,103.22L285.69,103.07L286.60,103.10L287.27,103.24"/><path d="M267.78,121.12L268.84,121.61L269.40,121.77L270.04,121.95L271.32,122.12L272.59,122.11L273.80,121.91L274.85,121.55"/><path d="M282.55,111.12L283.41,111.73L284.31,112.14"/></g></g><g id="Actor_.14"><g style="stroke:#282828;stroke-width:0.106"><path d="M108.24,105.19L107.04,105.50L106.74,105.85L105.73,104.03L106.11,102.16L107.50,102.10"/><path d="M105.99,101.94L107.54,101.87L108.67,103.91L108.24,106.00"/><path d="M108.19,105.45L107.04,105.50L106.18,103.96L106.18,103.96L106.51,102.36"/><path d="M106.74,105.85L108.12,105.79"/><path d="M108.02,103.04L107.92,103.54L108.40,104.42"/><path d="M107.75,102.55L107.53,103.61L108.29,104.98"/><path d="M107.54,101.87L107.79,101.81"/></g><g style="stroke:#282828;stroke-width:0.353"><path d="M105.57,104.04L106.69,106.07L108.24,106.00L108.49,105.94L108.91,103.84L107.79,101.81L106.24,101.88L105.99,101.94L105.57,104.04"/><path d="M106.51,102.36L107.62,102.32"/><path d="M108.12,105.79L108.50,103.91L107.50,102.10"/></g></g><g id="Actor_.15"><g style="stroke:#282828;stroke-width:0.106"><path d="M111.22,90.61L110.01,90.92L109.15,89.37L109.47,87.77"/><path d="M111.17,90.86L110.01,90.92L109.70,91.26L108.70,89.44L109.08,87.56L110.47,87.48"/><path d="M108.96,87.34L110.52,87.26L111.65,89.29L111.22,91.41"/><path d="M109.70,91.26L111.10,91.19"/><path d="M111.26,90.40L110.50,89.03L110.72,87.94"/><path d="M111.00,88.43L110.89,88.96L111.37,89.83"/><path d="M110.52,87.26L110.76,87.20"/></g><g style="stroke:#282828;stroke-width:0.353"><path d="M109.22,90.69L109.66,91.48L111.22,91.41L111.46,91.35L111.89,89.23L110.76,87.20L109.20,87.28L108.96,87.34L108.53,89.45L109.22,90.69"/><path d="M109.47,87.77L110.60,87.71"/><path d="M111.10,91.19L111.48,89.30L110.47,87.48"/></g></g><g id="Actor_.16"><g style="stroke:#282828;stroke-width:0.106"><path d="M100.27,138.76L106.92,106.06"/><path d="M106.68,101.76L106.62,101.86"/><path d="M108.16,106.03L108.05,106.01"/><path d="M109.89,91.47L107.79,101.81"/><path d="M108.33,74.18L109.05,77.30L112.14,80.45L110.76,87.20"/><path d="M134.02,84.66L136.15,74.47L131.43,71.96L125.68,70.26L119.74,69.65L114.52,70.20L110.79,71.84L109.14,74.34"/><path d="M109.65,87.16L109.59,87.26"/><path d="M111.13,91.44L111.00,91.42"/><path d="M140.67,80.56L139.00,83.21L135.11,84.98L129.57,85.59L123.26,84.94L122.55,84.74L117.13,83.14L112.14,80.45"/><path d="M139.86,80.40L139.11,77.43L136.15,74.47"/></g><g style="stroke:#282828;stroke-width:0.353"><path d="M133.66,113.91L128.47,138.59L126.79,141.35L122.93,143.22L117.45,143.90L111.21,143.29L105.17,141.49L100.27,138.76L97.25,135.54L96.57,132.32L108.33,74.18L110.07,71.55L114.00,69.82L119.49,69.24L125.74,69.89L131.80,71.67L136.76,74.32L139.88,77.44L140.67,80.56L137.69,94.76"/><path d="M106.68,101.76L107.13,101.84"/><path d="M108.16,106.03L108.17,106.01"/><path d="M108.76,103.56L108.72,103.26L108.19,102.53"/><path d="M108.84,104.22L108.92,104.94L108.60,105.40"/><path d="M109.14,74.34L109.83,77.30L112.76,80.29L117.50,82.85L123.32,84.56L129.32,85.18L134.57,84.60L138.27,82.92L139.86,80.40"/><path d="M109.65,87.16L110.10,87.23"/><path d="M111.13,91.44L111.15,91.41"/><path d="M111.74,88.95L111.70,88.65L111.16,87.92"/><path d="M111.82,89.62L111.90,90.34L111.57,90.81"/><path d="M137.64,94.97L137.67,94.85"/></g></g><g id="Actor_.17"><g style="stroke:#282828;stroke-width:0.106"><path d="M133.94,114.58L133.97,114.10L133.69,113.37L133.35,111.58L133.70,109.11L134.76,105.83L136.60,100.52L137.99,94.85L138.16,92.49"/><path d="M133.65,113.87L133.67,113.87"/><path d="M136.19,100.36L136.13,100.54"/><path d="M170.74,59.11L140.11,78.36"/></g><g style="stroke:#282828;stroke-width:0.353"><path d="M180.65,84.93L133.94,114.58L133.57,114.35"/><path d="M133.67,113.87L133.48,113.48L133.12,112.69L133.01,112.36L132.96,112.00"/><path d="M132.94,111.93L132.82,111.15L132.87,110.17L133.17,108.78L133.75,106.99L134.24,105.66"/><path d="M134.66,104.51L134.70,104.41L134.44,105.12"/><path d="M134.70,104.41L136.09,100.64L135.68,101.75"/><path d="M137.68,94.77L137.65,94.92L136.19,100.36L136.09,100.64L136.13,100.54"/><path d="M163.81,57.39L136.77,74.33"/></g></g><g id="Actor_.18"><g style="stroke:#282828;stroke-width:0.106"><path d="M163.53,57.41L163.30,57.71"/><path d="M163.29,57.00L166.54,56.73L170.64,58.69L174.95,62.59L178.81,67.84L181.63,73.63L182.96,79.05L182.60,83.27L180.63,85.66"/><path d="M166.53,55.87L167.70,54.79L168.46,53.46L169.24,50.56L169.55,47.49L169.89,44.66L169.25,44.98L169.09,45.71L168.98,46.45L168.79,48.07L168.30,51.33L167.33,54.31L165.71,56.19L166.53,55.87L167.62,55.74L170.07,56.27L172.85,57.79L176.03,60.50L179.04,64.07L180.30,65.91L183.31,71.84"/><path d="M167.62,55.74L168.73,54.77L169.65,53.13L170.09,51.21L170.18,50.11L170.20,49.11L170.11,46.89L170.11,44.80L170.16,44.59L169.89,44.66L170.33,43.21"/><path d="M167.50,56.13L171.60,58.09L175.85,61.93L175.91,61.99L179.77,67.24L182.59,73.02L183.92,78.44L184.17,77.75L184.72,77.40L184.30,81.67"/><path d="M168.35,56.25L172.30,58.13L176.46,61.89L180.18,66.95L182.89,72.52L184.17,77.75L183.83,81.82"/><path d="M169.71,43.45L169.25,44.98L169.10,45.12"/><path d="M169.51,43.81L169.51,43.80"/><path d="M173.25,44.45L170.16,44.59L170.52,43.37"/><path d="M172.85,57.79L181.48,52.37L178.75,50.43L177.25,48.15L177.12,46.91L177.10,46.01L177.18,44.28L174.74,44.39"/><path d="M177.27,43.40L177.18,44.28L177.46,44.32L177.46,47.83L179.13,50.42L181.71,52.27L183.21,53.38L184.18,54.22L185.33,55.35L185.76,55.80L186.46,56.41L189.30,57.56"/><path d="M177.46,44.32L177.57,43.23"/><path d="M178.91,49.27L178.79,49.12"/><path d="M179.24,49.39L179.29,49.32L179.25,49.37L178.51,44.91L178.71,48.84"/><path d="M178.12,46.65L178.19,44.59L178.34,43.07"/><path d="M178.19,44.59L178.51,44.91L178.66,43.40"/><path d="M178.66,43.40L178.77,42.25"/><path d="M179.55,46.47L178.85,42.15"/><path d="M179.04,64.07L182.06,62.43L186.07,61.23L190.19,61.03L193.48,61.87L193.58,62.30L193.69,62.82L193.85,63.93L194.50,70.65L194.15,70.55L193.64,70.47L192.50,70.57L191.28,70.96L190.16,71.45L190.46,72.93L190.57,73.73L190.60,73.99L190.63,76.23L192.71,75.41"/><path d="M178.86,49.40L179.57,50.31L179.92,50.60"/><path d="M180.39,85.25L180.12,85.27"/><path d="M180.30,65.91L182.69,64.57L182.92,64.47L185.05,63.70L186.17,63.42L187.08,63.25L189.16,63.06L190.23,63.08L191.30,63.20L192.36,63.43L193.42,63.77L196.37,64.85"/><path d="M181.48,52.37L181.59,52.39L181.66,52.30L181.68,52.29"/><path d="M181.71,52.27L182.28,52.25L181.95,52.04"/><path d="M181.59,52.39L183.75,54.09L186.07,56.34L189.23,57.67"/><path d="M182.96,79.05L183.92,78.44L183.56,82.66"/><path d="M184.29,81.68L183.67,82.33"/><path d="M195.58,82.44L195.60,82.10L191.79,81.21L188.18,81.45L184.93,82.40"/><path d="M184.72,77.40L186.22,76.46L188.56,75.10L189.83,74.39L190.60,73.99"/><path d="M197.47,64.61L197.53,64.37L198.08,63.79L197.89,63.48L193.48,61.87L192.21,56.79L192.09,56.73L190.44,57.31"/><path d="M192.16,56.60L191.97,56.62L192.16,56.68L192.09,56.73"/><path d="M191.20,56.60L191.02,56.72"/><path d="M192.21,56.79L192.28,56.74L192.16,56.68"/><path d="M192.46,56.70L192.28,56.74L196.29,59.50"/><path d="M196.34,82.38L195.60,82.10L194.50,70.65"/><path d="M200.56,61.99L200.54,62.02L200.35,61.92L197.89,63.48L197.26,64.23L197.18,64.52"/><path d="M198.08,63.79L200.54,62.23L200.75,64.49"/><path d="M200.35,61.92L198.50,60.65L198.85,60.82L199.08,60.62"/><path d="M198.50,60.65L199.51,59.76L199.76,59.89"/><path d="M198.00,58.72L199.51,59.76"/><path d="M200.54,62.23L200.54,62.02"/></g><g style="stroke:#282828;stroke-width:0.353"><path d="M162.19,58.40L163.29,57.00L164.25,56.40L167.50,56.13L168.35,56.25"/><path d="M180.39,85.25L182.30,82.93L182.64,78.83L181.35,73.56L178.62,67.94L174.86,62.84L170.67,59.05L166.69,57.15L163.53,57.41"/><path d="M165.56,56.29L165.71,56.19"/><path d="M169.09,45.71L168.83,46.40L168.53,48.02L167.95,51.27L167.02,54.33L165.33,56.31"/><path d="M167.47,52.83L166.90,54.48"/><path d="M168.83,46.40L168.80,46.48L168.76,46.80"/><path d="M168.82,46.45L168.95,45.72L169.10,45.11L169.51,43.80L169.71,43.45L170.27,43.17L170.52,43.37L171.25,43.91L172.18,44.27L173.25,44.45L173.68,44.47L174.74,44.39L175.66,44.17L176.51,43.84L177.27,43.40L178.07,42.97L178.34,43.07L178.66,43.40"/><path d="M170.00,42.17L169.51,43.79"/><path d="M182.33,52.29L182.11,52.09L180.39,50.91L178.78,49.12"/><path d="M179.13,50.42L178.12,46.65"/><path d="M183.83,81.82L183.56,82.66L181.59,85.05L180.63,85.66L179.38,85.74"/><path d="M181.95,52.04L179.91,50.60"/><path d="M179.23,49.47L179.26,49.43L179.29,49.32L179.55,46.47L178.88,42.11"/><path d="M179.25,49.37L179.21,49.59"/><path d="M181.71,52.27L181.68,52.29L181.71,52.27"/><path d="M182.84,83.54L184.93,82.40"/><path d="M182.88,83.49L183.06,83.38L185.30,81.85"/><path d="M182.28,52.25L185.92,55.41L188.29,56.99L191.96,56.62L191.20,56.60L191.02,56.65L190.90,56.73"/><path d="M184.72,77.40L183.65,73.42L183.31,71.84"/><path d="M196.37,82.74L195.58,82.44L192.39,81.51L188.41,81.56L184.66,82.55"/><path d="M190.30,57.52L189.23,57.67L192.21,56.79L192.11,56.83"/><path d="M189.71,57.53L189.30,57.56"/><path d="M191.96,56.62L192.11,56.58L192.42,56.70"/><path d="M192.71,75.41L194.96,75.44"/><path d="M196.40,59.45L192.46,56.70L192.17,56.68"/><path d="M196.29,59.50L198.07,58.70"/><path d="M199.77,59.87L198.08,58.71"/><path d="M200.57,62.09L200.56,61.99L198.85,60.82"/></g></g><g id="Actor_.19"><g style="stroke:#282828;stroke-width:0.106"><path d="M171.98,38.50L172.16,38.60L171.45,39.12L170.97,39.75L170.74,40.42L170.79,41.08L171.12,41.68L171.69,42.17L172.47,42.51L173.38,42.68L174.36,42.65L175.32,42.43L176.19,42.04L176.39,42.27L176.88,42.96L175.74,43.47L174.48,43.75L173.20,43.79L172.01,43.58L171.00,43.13L170.25,42.49L169.82,41.70L169.75,40.84L170.05,39.96L170.68,39.15L171.61,38.46L171.98,38.50L172.93,38.08L175.05,37.81L176.90,38.35L177.88,39.55L177.70,41.01L177.17,41.69L176.39,42.27L173.58,42.98L171.12,42.16L170.46,40.31"/><path d="M172.16,38.60L174.72,37.95L176.97,38.69L177.58,40.38L176.19,42.04"/><path d="M173.29,40.02L173.42,39.88L173.71,39.71L174.07,39.61L174.42,39.91L174.55,40.68L174.36,40.46L174.06,40.51L173.95,40.77L173.83,40.00L173.77,40.16L173.61,40.13L173.31,40.04L173.21,40.11L173.29,40.02"/><path d="M173.21,40.11L173.12,40.36L173.16,40.60L173.32,40.81L173.39,40.70L173.42,40.86"/><path d="M173.31,40.04L173.40,40.57"/><path d="M173.32,40.81L173.58,40.96L173.91,41.04"/><path d="M173.61,40.13L173.74,40.89L173.86,41.02"/><path d="M173.74,41.00L173.74,41.00"/><path d="M174.09,41.03L173.95,40.77L173.89,40.90L173.74,40.89L173.49,40.87"/><path d="M173.83,40.00L173.93,39.68L174.06,40.51"/><path d="M173.39,40.70L173.46,40.66"/><path d="M174.42,39.91L174.52,40.04L174.66,39.96L175.03,39.82L175.19,40.03L175.23,40.27L175.14,40.52L174.93,40.75L174.63,40.92"/><path d="M173.93,39.68L174.07,39.61L174.43,39.60L174.77,39.67L175.03,39.82"/><path d="M174.79,40.83L174.79,40.83"/><path d="M175.14,40.52L175.03,40.44L175.06,40.59"/><path d="M175.03,40.44L174.96,40.42"/><path d="M174.66,39.96L174.79,40.73L174.64,40.78L174.55,40.68"/><path d="M174.79,40.73L174.94,40.70"/><path d="M177.86,42.37L176.93,43.07L176.90,43.00L176.88,42.96L178.69,40.80L177.89,38.58L174.96,37.62"/><path d="M176.93,43.07L177.01,43.55"/><path d="M178.95,42.03L178.95,42.03"/></g><g style="stroke:#282828;stroke-width:0.353"><path d="M176.93,43.07L175.72,43.55L174.62,43.79L173.52,43.93L172.01,43.66L170.97,43.18L170.55,42.94L170.22,42.53L169.81,41.85L169.72,40.86L169.75,40.70L169.76,40.64L169.95,40.10L170.05,39.96L170.49,39.34L170.69,39.15L171.59,38.46L171.61,38.46L172.93,38.08L174.96,37.62L174.00,37.67L171.61,38.46"/><path d="M170.47,43.33L170.13,42.39"/><path d="M171.98,38.50L171.45,39.12L170.46,40.31"/><path d="M171.59,38.46L172.73,37.99L173.61,37.79"/><path d="M173.21,40.11L173.37,40.52L173.46,40.66L173.50,40.89"/><path d="M173.32,40.81L173.74,41.00L173.91,41.04L174.28,41.02L174.63,40.92"/><path d="M174.93,40.75L174.63,40.92"/><path d="M174.76,40.85L174.79,40.83L175.14,40.52"/><path d="M175.03,39.82L175.01,40.26L174.96,40.42L175.00,40.64"/><path d="M174.96,37.62L175.26,37.64L176.49,37.84L177.56,38.32L177.89,38.58L178.26,38.93L178.29,38.98L178.80,40.65L178.95,42.03L178.14,43.00"/><path d="M177.86,42.37L178.73,40.82L178.80,40.65"/></g></g><g><g><path style="stroke:#000000;stroke-width:0.500;stroke-opacity:0.50;fill:#ff0000;fill-opacity:0.502" d="M219.72,64.53L221.83,63.65L223.89,63.06L225.87,62.76L227.74,62.77L229.49,63.07L231.08,63.67L232.49,64.55L233.70,65.70L234.70,67.10L235.47,68.74L236.00,70.59L236.29,72.62L236.34,74.80L236.13,77.11L235.68,79.52L235.00,81.98L234.08,84.47L232.95,86.94L231.63,89.38L230.12,91.74L228.45,93.98L226.64,96.09L224.72,98.03L222.72,99.78L220.66,101.30L218.56,102.58L216.47,103.61L214.40,104.36L212.39,104.82L211.15,108.96L205.28,102.02L216.12,92.37L214.87,96.53L216.08,96.25L217.33,95.80L218.59,95.19L219.86,94.42L221.10,93.50L222.31,92.45L223.47,91.28L224.56,90.00L225.57,88.65L226.48,87.22L227.28,85.75L227.96,84.25L228.51,82.75L228.93,81.27L229.20,79.82L229.32,78.43L229.29,77.11L229.11,75.89L228.78,74.78L228.31,73.79L227.71,72.95L226.98,72.26L226.12,71.74L225.17,71.38L224.11,71.21L222.99,71.21L221.79,71.39L220.56,71.75L219.29,72.28L218.01,72.98L217.60,65.68z"/></g></g><g/><g><g/><g><path style="stroke:#000000;stroke-width:0.250;fill:#ffffff" d="M283.63,156.86L292.71,156.86L292.71,163.07L283.63,163.07z"/><text xml:space="preserve" fill="#000000" stroke-width="0" x="284.41" y="161.13" font-size="3.66" opacity="1.00" font-family="MS Shell Dlg">Next</text></g></g><g><g/><g><path style="stroke:#000000;stroke-width:0.250;fill:#ffffff" d="M4.53,157.80L14.24,157.80L14.24,164.01L4.53,164.01z"/><text xml:space="preserve" fill="#000000" stroke-width="0" x="5.30" y="162.07" font-size="3.67" opacity="1.00" font-family="MS Shell Dlg">Back</text></g></g><g><g/><g><path style="stroke:#000000;stroke-width:0.250;fill:#ffffff" d="M4.30,7.12L98.88,7.12L98.88,15.02L4.30,15.02z"/><text xml:space="preserve" fill="#000000" stroke-width="0" x="5.29" y="12.55" font-size="4.83" opacity="1.00" font-family="MS Shell Dlg">Close the FF and MF and tighten the clamp</text></g></g><g id="paperID" visibility="hidden" opacity="0.00" transform="scale(0.000100)"><path style="stroke:#000000;stroke-width:0.500;fill:#e6e6e6;fill-rule:evenodd" d="M-2000.00,-2000.00L2297.00,-2000.00L2297.00,2167.00L-2000.00,2167.00zM0.00,0.00L297.00,0.00L297.00,167.00L0.00,167.00z"/><path style="fill:#000000;fill-opacity:0.118" d="M3.00,167.00L297.00,167.00L297.00,3.00L300.00,3.00L300.00,170.00L3.00,170.00z"/></g><g id="hotspot.0" ident="" onmouseover="ShowHotSpot(evt,&apos;0&apos;)" onmouseout="HideHotSpot(evt,&apos;0&apos;)" onmousemove="ShowToolTip(evt,&apos;0&apos;,&quot;2D Text 1&quot;)" opacity="0"><a xlink:href="v10.svg"><path style="fill:#00ff00;fill-rule:evenodd" d="M293.03,156.65L293.04,163.43L283.44,163.34L283.35,156.64z"/></a></g><g id="ToolTip" visibility="hidden" opacity="0" transform="translate(0,0)"><rect id="ToolTipShadow" opacity="0.20" fill="black" stroke="none" x="0" y="0" width="30" height="8"/><rect id="ToolTipBG" fill="#ffffe1" stroke="black" x="0" y="0" width="30" height="8"/><text xml:space="preserve" id="ToolTipText" fill="black" x="0" y="0" width="30" height="8">tooltip</text></g></g></svg>