<?xml version="1.0" encoding="UTF-8" standalone="yes"?><svg xmlns="http://www.w3.org/2000/svg" xmlns:xlink="http://www.w3.org/1999/xlink" width="297.000mm" height="167.000mm" viewBox="0.000000 0.000000 297.000000 167.000000" stroke-linejoin="round" stroke-linecap="round" fill="none" fill-rule="evenodd"><desc>Composer Export</desc><script type="text/ecmascript"><![CDATA[
if(typeof(top) != "undefined")
{
	top.ShowPaper = ShowPaper;
}
function ShowHotSpot(evt,hotspotid)
{
	var svgDocument = evt.target.ownerDocument;
	var strId = "hotspot."+hotspotid;
	var hotspot = svgDocument.getElementById(strId);
	if(hotspot)
		hotspot.setAttribute("opacity",".5");
}
function HideHotSpot(evt,hotspotid)
{
	var svgDocument = evt.target.ownerDocument;
	var strId = "hotspot."+hotspotid;
	var hotspot = svgDocument.getElementById(strId);
	if(hotspot)
		hotspot.setAttribute("opacity","0");

	var toolTip = svgDocument.getElementById('ToolTip');
	if(toolTip)
		toolTip.setAttribute("visibility","hidden");
}
function ShowToolTip(evt,hotspotid,strTooltip)
{
	if(strTooltip=="")
	return;

	// change text
	var svgDocument = evt.target.ownerDocument;
	var tiptext = svgDocument.getElementById('ToolTipText');
	if( !tiptext )
	return;
	tiptext.firstChild.nodeValue = " " + strTooltip + "  " ;

	// show tooltip before, else some refresh issue

	var toolTip = svgDocument.getElementById('ToolTip');
	if(!toolTip)
	return;

	toolTip.setAttribute("visibility","visible");
	toolTip.setAttribute("opacity",".95");

	// move tooltip
	// get viewbox

	var root = svgDocument.documentElement;
	var vbox = (root.getAttribute("viewBox")).split(' ');
	var x0 = parseFloat(vbox[0]);
	var y0 = parseFloat(vbox[1]);
	var vboxW = parseFloat(vbox[2]);
	var vboxH = parseFloat(vbox[3]);

	// get default width of svg

	var strW = root.getAttribute("width");
	var svgW = parseFloat(strW);
	if(strW.indexOf('mm') != -1)
	svgW *= 3.779;

	var strH = root.getAttribute("height");
	var svgH = parseFloat(strH);
	if(strH.indexOf('mm') != -1)
	svgH *= 3.779;  	// 96 dpi  -> 96/25.4 = 3.779

	// update the viewbox / width / height if svg is embedded in html with zoom fit all
	var realx0 = x0;
	var realy0 = y0;
	var realvboxW = vboxW;
	var realvboxH = vboxH;
	var realsvgW = svgW;
	var realsvgH = svgH;

	if ((typeof(top) == "undefined") || (typeof(top.svgctl1) != "undefined")) // embedded in html
	{
		// get window size in pxl

		svgW = window.innerWidth;
		svgH = window.innerHeight;

		// calculate real viewbox

		realsvgW = svgW;
		realsvgH = svgH;
		if((svgW / svgH) > (vboxW / vboxH))
		{
			realvboxW = (vboxH * svgW) / svgH;
			realvboxH = vboxH;
			realx0 = x0 - (realvboxW - vboxW)/2 ;
		}
		else
		{
			realvboxH = (vboxW * svgH) / svgW;
			realvboxW = vboxW;
			realy0 = y0 - (realvboxH - vboxH)/2 ;
		}
	}

	// get user zoom/pan

	var newScale = root.currentScale;
	var translation = root.currentTranslate;

	// transform pxl to user unit

	var xPos = (((evt.clientX+10- translation.x)/newScale) * realvboxW)/realsvgW  + realx0 ;
	var yPos = (((evt.clientY+5- translation.y)/newScale) * realvboxH)/ realsvgH  + realy0 ;
	var scaleForWidth = ( (1 / newScale) * realvboxH) / realsvgH;

	// move tooltip

	toolTip.setAttribute("transform", "translate(" + xPos + "," + yPos + ")" );

	// resize tooltip

	var fontsize = 12;
	tiptext.setAttribute("font-size",fontsize*scaleForWidth);
	tiptext.setAttribute("y", fontsize*scaleForWidth);
	var tipBG = svgDocument.getElementById('ToolTipBG');
	var outline = tiptext.getBBox();
	if(tipBG)
	{
		tipBG.setAttribute("stroke-width", 1*scaleForWidth);
		tipBG.setAttribute("width", Number(outline.width) );
		tipBG.setAttribute("height", Number(outline.height) + fontsize*.5*scaleForWidth );
	}
	var ToolTipShadow = svgDocument.getElementById('ToolTipShadow');
	if(ToolTipShadow)
	{
		ToolTipShadow.setAttribute("width", Number(outline.width) );
		ToolTipShadow.setAttribute("height", Number(outline.height) + fontsize*.5*scaleForWidth );
		ToolTipShadow.setAttribute("x", 3*scaleForWidth);
		ToolTipShadow.setAttribute("y", 3*scaleForWidth);
	}
}
function ShowPaper()
{
  var svgDocument = getDocument();
  var paper = svgDocument.getElementById("paperID");
  if(paper)
  {
    paper.setAttribute("transform","scale(1)");
    paper.setAttribute("opacity","1");
    paper.setAttribute("visibility","visible");
  }
  var svg = svgDocument.getRootElement();
  if(svg)
  {
    svg.setAttribute("width","307.000mm");
    svg.setAttribute("height","177.000mm");
    svg.setAttribute("viewBox","-5.000000 -5.000000 307.000000 177.000000");
  }
}
]]></script><defs/><g><path style="fill:#ffffff" d="M70.47,21.79L70.30,22.24L60.20,24.37L57.53,24.87L56.14,25.40L54.61,26.55L52.03,27.09L51.54,27.18L50.32,27.43L49.51,28.06L48.93,28.92L48.87,35.06L48.95,45.63L49.03,49.63L49.11,50.27L49.19,50.60L49.27,51.08L49.41,51.62L66.86,99.00L67.84,101.39L68.80,102.19L69.48,102.34L70.29,102.34L71.40,102.11L71.88,102.02L72.85,101.79L83.10,99.55L83.57,99.48L83.91,99.40L84.22,99.30L84.54,99.24L85.01,99.16L85.35,99.08L85.66,98.98L86.78,98.76L87.10,98.66L87.59,98.60L87.91,98.51L88.23,98.44L88.54,98.34L89.03,98.28L89.35,98.18L89.66,98.12L90.14,98.04L90.47,97.96L90.79,97.86L91.11,97.80L91.58,97.72L91.91,97.64L92.22,97.54L93.34,97.32L93.66,97.22L94.16,97.16L94.47,97.06L94.79,97.00L95.26,96.91L95.60,96.84L95.91,96.74L96.23,96.68L96.70,96.59L97.04,96.52L97.35,96.42L97.67,96.36L98.14,96.27L98.48,96.20L98.79,96.10L99.28,96.04L99.60,95.94L99.92,95.88L100.20,95.79L100.03,95.61L99.74,95.70L99.42,95.76L98.94,95.85L98.61,95.92L98.30,96.02L97.81,96.09L97.49,96.18L97.17,96.24L96.86,96.34L96.37,96.41L96.05,96.50L95.73,96.57L95.26,96.65L94.92,96.73L94.61,96.82L94.29,96.89L93.82,96.97L93.49,97.05L93.17,97.15L92.06,97.37L91.73,97.46L91.24,97.53L90.92,97.62L90.61,97.68L90.29,97.78L89.80,97.85L89.49,97.94L89.17,98.01L88.70,98.09L88.36,98.17L88.05,98.26L87.73,98.33L87.26,98.41L86.92,98.49L86.61,98.59L85.49,98.81L85.17,98.91L84.68,98.97L84.36,99.06L84.05,99.13L83.58,99.21L83.25,99.30L82.45,99.39L82.07,99.33L81.44,99.00L81.29,98.63L81.37,83.09L81.77,82.41L82.67,81.71L83.26,81.48L102.92,77.18L102.98,77.81L102.91,79.73L102.66,81.81L102.59,82.14L102.34,82.61L101.87,83.32L102.44,83.25L102.44,83.73L101.96,87.42L101.51,87.61L101.01,87.69L100.75,87.79L100.66,88.20L100.61,91.36L100.71,91.38L101.06,91.58L100.74,93.66L100.15,98.52L101.76,102.21L102.59,103.15L109.47,109.07L110.44,109.71L114.11,111.66L114.12,112.00L113.97,112.24L113.68,112.53L109.64,116.52L108.77,116.94L107.05,120.33L106.67,122.96L106.51,124.26L106.59,124.72L107.14,127.28L107.23,127.76L107.62,129.52L107.71,130.00L108.27,132.56L108.35,133.05L108.65,134.39L109.45,136.30L110.42,137.58L112.01,138.55L113.67,138.85L114.32,138.84L117.10,138.23L119.92,136.85L120.04,136.87L120.12,137.22L120.20,137.69L120.59,139.45L120.68,139.93L121.23,142.49L121.32,142.97L121.71,144.73L121.80,145.20L121.87,145.54L121.96,146.01L122.35,147.77L122.44,148.26L122.99,150.81L123.08,151.30L123.48,153.06L123.56,153.53L123.63,153.87L123.72,154.34L124.12,156.10L124.20,156.57L124.27,156.91L124.37,157.38L124.76,159.14L124.85,159.62L125.40,162.18L125.49,162.66L125.88,164.42L125.96,164.90L126.04,165.24L126.13,165.71L126.32,166.95L0.05,166.94L0.05,0.05L62.13,0.02z"/><path style="fill:#c8cfee" d="M62.13,0.02L74.92,0.04L82.19,19.00L83.31,18.95L91.85,17.17L92.04,17.28L92.03,17.61L90.46,17.97L75.57,21.11L75.24,21.09L74.87,19.91L73.63,16.78L73.58,16.52L73.40,16.52L73.44,18.10L74.61,21.25L73.81,21.49L70.78,22.13L70.47,21.79z"/><path style="fill:#4c4c4c" d="M74.92,0.04L90.77,0.04L90.90,0.48L91.29,2.24L91.38,2.72L91.77,4.48L91.86,4.96L92.26,6.72L92.25,7.21L92.04,17.28L91.85,17.17L83.31,18.95L82.19,19.00z"/><path style="fill:#c0c0c0" d="M146.04,7.19L146.18,8.18L146.34,8.53L146.43,9.35L149.09,21.13L149.18,21.61L149.41,22.57L149.50,23.06L149.73,24.01L149.82,24.50L150.05,25.45L150.14,25.94L150.37,26.90L150.46,27.38L150.69,28.34L150.78,28.82L151.01,29.78L151.09,30.26L151.33,31.22L151.42,31.70L151.65,32.66L151.74,33.14L151.96,34.11L152.05,34.64L152.23,34.73L152.25,34.87L152.16,34.97L152.21,35.21L152.29,35.55L152.38,36.02L152.61,36.98L152.70,37.46L152.93,38.42L153.02,38.91L153.25,39.86L153.34,40.35L153.57,41.30L153.66,41.79L153.89,42.75L153.98,43.23L154.21,44.19L154.30,44.67L154.43,45.37L154.62,45.67L155.41,46.32L157.10,52.66L157.09,53.32L156.84,53.73L156.84,54.49L157.53,56.88L157.97,58.49L160.10,59.43L164.26,60.24L165.38,60.40L168.58,60.68L168.64,60.79L169.39,60.80L171.75,61.04L172.07,61.35L172.63,62.60L172.72,63.08L173.11,64.68L173.20,65.16L174.55,71.40L174.64,71.88L174.64,73.64L174.57,74.58L175.53,74.35L176.48,73.49L176.70,73.39L176.54,72.86L176.56,72.04L176.69,70.86L177.02,70.23L177.55,70.07L177.87,70.10L178.31,70.81L178.39,71.72L178.47,72.38L178.62,72.90L176.34,74.03L175.89,74.87L175.50,76.53L175.28,78.29L175.18,78.77L174.96,81.33L174.51,81.46L173.68,81.79L173.50,81.69L173.42,82.12L173.36,82.78L171.82,93.50L171.51,93.87L170.48,94.48L166.49,96.08L166.40,96.13L166.46,96.54L166.54,97.03L166.63,97.50L166.70,97.99L166.79,98.46L166.92,99.17L167.10,99.47L167.56,99.81L168.69,103.80L169.26,106.47L169.27,106.95L168.85,107.85L168.85,108.77L169.58,112.07L169.67,112.55L170.70,116.87L170.79,117.36L172.30,123.76L172.39,124.24L173.43,128.56L173.52,129.04L173.91,130.64L174.00,131.13L175.03,135.45L175.12,135.93L176.63,142.33L176.72,142.81L177.75,147.13L177.84,147.62L178.23,149.21L178.32,149.70L179.35,154.02L179.44,154.50L180.14,157.53L180.06,157.64L180.05,157.93L180.29,157.97L187.45,162.53L190.36,166.96L126.32,166.95L126.13,165.71L126.11,165.29L126.04,165.24L125.96,164.90L125.95,164.48L125.88,164.42L125.49,162.66L125.47,162.23L125.40,162.18L124.85,159.62L124.83,159.19L124.76,159.14L124.37,157.38L124.35,156.96L124.27,156.91L124.20,156.57L124.19,156.15L124.12,156.10L123.72,154.34L123.71,153.92L123.63,153.87L123.56,153.53L123.55,153.11L123.48,153.06L123.08,151.30L123.07,150.87L122.99,150.81L122.44,148.26L122.43,147.83L122.35,147.77L121.96,146.01L121.95,145.59L121.87,145.54L121.80,145.20L121.79,144.78L121.71,144.73L121.32,142.97L121.31,142.54L121.23,142.49L120.68,139.93L120.67,139.50L120.59,139.45L120.20,137.69L120.19,137.27L120.12,137.22L120.04,136.87L120.03,136.45L119.92,136.85L117.10,138.23L114.32,138.84L113.67,138.85L112.01,138.55L110.42,137.58L109.45,136.30L108.65,134.39L108.35,133.05L108.34,132.62L108.27,132.56L107.71,130.00L107.70,129.57L107.62,129.52L107.23,127.76L107.22,127.33L107.14,127.28L106.59,124.72L106.57,124.30L106.51,124.26L106.67,122.96L107.05,120.33L108.77,116.94L109.64,116.52L113.68,112.53L113.95,112.82L113.97,112.24L114.12,112.00L114.11,111.66L110.44,109.71L109.47,109.07L102.59,103.15L101.76,102.21L100.15,98.52L100.74,93.66L101.06,91.58L101.40,90.97L101.61,90.90L101.63,90.30L101.66,89.65L101.84,89.18L101.80,89.02L101.86,88.38L101.96,87.73L101.96,87.42L102.44,83.73L102.44,83.25L102.51,83.08L102.59,82.14L102.66,81.81L102.91,79.73L102.98,77.81L103.07,74.76L103.36,72.62L104.55,69.04L104.93,68.27L105.31,68.01L105.32,67.73L105.30,67.30L105.22,67.25L105.15,66.91L105.13,66.50L105.06,66.44L104.98,65.87L104.66,65.86L104.16,64.91L102.75,60.36L102.73,59.94L102.66,59.88L102.51,58.65L103.09,57.15L102.99,56.67L102.59,54.92L102.57,54.49L102.50,54.43L102.11,52.68L102.09,52.25L102.02,52.19L101.63,50.43L101.61,50.01L101.54,49.95L101.15,48.19L101.13,47.77L101.06,47.71L100.67,45.95L100.65,45.53L100.58,45.47L100.33,44.08L98.58,43.43L96.50,42.14L94.74,40.71L93.30,38.94L92.32,37.05L92.00,35.76L91.86,32.99L91.86,31.38L92.03,20.33L92.03,17.61L92.04,17.28L92.25,7.21L92.33,6.79L92.26,6.72L91.86,4.96L91.84,4.54L91.77,4.48L91.38,2.72L91.36,2.30L91.29,2.24L90.90,0.48L90.94,0.03L144.41,0.04z"/><path style="fill:#c8cfee" d="M198.32,52.08L196.92,52.16L187.47,53.43L187.04,53.52L186.49,54.28L185.27,62.44L184.74,66.29L184.55,66.44L184.34,66.39L183.10,61.70L182.62,60.25L180.57,57.03L180.44,56.96L177.39,56.96L170.19,57.35L169.72,57.45L169.29,57.70L168.87,58.92L168.71,60.03L168.58,60.68L165.38,60.40L164.26,60.24L160.10,59.43L157.97,58.49L157.53,56.88L158.24,56.10L158.61,55.35L158.71,54.59L158.91,54.64L160.00,57.11L161.44,56.90L296.96,27.53L296.95,52.67L293.31,53.44L202.05,73.45L199.81,73.97L199.68,73.49L199.61,73.00L199.59,72.58L199.52,72.53L199.45,71.88L199.44,71.46L199.36,71.41L199.29,70.93L199.27,70.18L199.20,70.12L199.30,67.73L200.09,62.60L200.58,59.56L200.64,58.44L200.71,57.85L200.64,57.79L200.58,56.84L200.55,56.25L200.49,56.19L200.41,55.71L200.40,55.30L200.32,55.25L200.25,54.91L200.24,54.49L200.15,54.45L199.76,53.36L198.79,52.41z"/><path style="fill:#ffffff" d="M168.75,60.65L168.58,60.68L168.71,60.03z"/><path style="fill:#000020" d="M52.04,27.18L51.54,27.18L52.03,27.09z"/><path style="fill:#c8cfee" d="M52.04,27.18L52.03,27.09L54.61,26.55L54.71,26.70L54.38,27.01L54.22,27.64L54.24,31.86L53.90,31.12L52.47,27.42z"/><path style="fill:#404040" d="M52.47,27.42L53.90,31.12L54.24,31.86L54.37,32.40L69.43,72.75L69.80,73.52L71.35,78.02L71.99,81.23L72.09,90.93L72.09,91.10L71.83,101.78L71.73,101.96L71.40,102.11L70.29,102.34L69.48,102.34L68.80,102.19L67.84,101.39L66.86,99.00L49.41,51.62L49.27,51.08L49.26,50.65L49.19,50.60L49.11,50.27L49.10,49.68L49.03,49.63L48.95,45.63L48.93,35.12L48.87,35.06L48.93,28.92L49.51,28.06L50.32,27.43L51.54,27.18L52.04,27.18z"/><path style="fill:#000000" d="M198.79,52.41L199.76,53.36L200.15,54.45L200.25,54.91L200.32,55.25L200.41,55.71L200.49,56.19L200.58,56.84L200.64,57.79L200.64,58.44L200.58,59.56L200.09,62.60L199.30,67.73L199.20,70.12L199.29,70.93L199.36,71.41L199.45,71.88L199.52,72.53L199.61,73.00L199.68,73.49L199.70,73.91L199.81,73.97L200.07,76.74L200.07,81.60L197.84,95.54L196.81,96.75L196.19,97.09L185.52,98.68L185.02,98.04L184.38,95.48L184.06,93.38L182.78,97.93L181.93,99.15L178.93,100.00L174.73,100.92L173.02,100.92L171.89,98.20L170.48,94.48L171.51,93.87L171.82,93.50L173.36,82.78L173.42,82.12L173.68,81.79L174.51,81.46L174.94,81.44L174.96,81.33L175.18,78.77L175.28,78.29L175.50,76.53L175.89,74.87L176.34,74.03L178.62,72.90L178.47,72.38L178.46,71.78L178.39,71.72L178.31,70.81L177.87,70.10L177.67,69.85L177.55,70.07L177.02,70.23L176.69,70.86L176.56,72.04L176.54,72.86L176.48,73.49L175.53,74.35L174.57,74.58L174.64,73.64L174.64,71.88L174.62,71.46L174.55,71.40L173.20,65.16L173.18,64.73L173.11,64.68L172.72,63.08L172.70,62.65L172.63,62.60L172.07,61.35L171.75,61.04L169.39,60.80L168.75,60.65L168.71,60.03L168.87,58.92L169.29,57.70L169.72,57.45L170.19,57.35L177.39,56.96L180.44,56.96L180.57,57.03L182.62,60.25L183.10,61.70L184.34,66.39L184.55,66.44L184.53,67.03L184.76,66.43L184.74,66.29L185.27,62.44L186.49,54.28L187.04,53.52L187.47,53.43L196.92,52.16L198.32,52.08z"/><path style="fill:#000020" d="M100.71,91.38L100.61,91.36L100.66,88.20z"/><path style="fill:#868c8c" d="M54.61,26.55L56.14,25.40L57.53,24.87L60.20,24.37L70.30,22.24L70.78,22.13L73.81,21.49L74.61,21.25L75.24,21.09L75.57,21.11L90.46,17.97L92.03,17.61L92.03,20.33L91.00,21.03L88.98,22.54L87.63,23.75L86.17,25.49L84.66,27.98L83.67,30.68L83.45,32.02L83.29,33.30L83.22,36.66L83.22,39.55L83.29,40.50L83.37,41.63L83.99,44.09L85.28,46.81L86.89,49.03L88.66,50.79L91.06,52.71L93.93,54.33L96.97,55.61L99.84,56.42L102.64,56.88L103.09,57.15L102.51,58.65L102.66,59.88L102.75,60.36L104.16,64.91L104.66,65.86L104.98,65.87L105.06,66.44L105.15,66.91L105.22,67.25L105.32,67.73L105.31,68.01L104.93,68.27L104.55,69.04L75.30,75.30L72.79,75.31L71.35,74.82L70.24,74.01L69.80,73.52L69.43,72.75L54.37,32.40L54.24,31.86L54.22,27.64L54.38,27.01L54.71,26.70z"/><path style="fill:#868c8c" d="M152.61,35.69L152.73,35.91L157.81,48.41L158.86,51.38L158.86,52.84L158.71,54.59L158.61,55.35L158.24,56.10L157.53,56.88L156.84,54.49L156.84,53.73L157.09,53.32L157.17,52.72L157.10,52.66L155.41,46.32L154.62,45.67L154.43,45.37L154.30,44.67L154.29,44.24L154.21,44.19L153.98,43.23L153.97,42.80L153.89,42.75L153.66,41.79L153.65,41.36L153.57,41.30L153.34,40.35L153.33,39.92L153.25,39.86L153.02,38.91L153.01,38.48L152.93,38.42L152.70,37.46L152.69,37.03L152.61,36.98L152.38,36.02L152.37,35.60L152.29,35.55L152.21,35.21L152.40,35.06z"/><path style="fill:#fffe02" d="M72.96,28.07L74.40,28.71L76.00,29.83L76.63,30.63L77.35,32.03L77.46,32.50L77.43,34.37L77.28,35.18L76.31,36.77L75.29,37.67L74.09,38.39L72.78,38.84L71.46,39.12L68.63,39.12L66.70,38.65L64.96,37.67L63.50,36.08L63.02,35.13L62.87,34.32L62.86,32.44L63.19,31.49L63.84,30.38L64.25,29.83L66.07,28.61L67.42,28.00L68.21,27.82L69.48,27.66L70.77,27.66z"/><path style="fill:#fffe02" d="M82.93,54.88L84.00,55.29L85.44,56.09L86.10,56.72L87.06,57.83L87.69,59.12L87.77,59.72L87.86,60.19L87.69,61.75L86.99,63.30L86.09,64.32L84.91,65.22L82.88,66.07L80.91,66.34L80.00,66.34L78.55,66.18L76.79,65.70L74.89,64.56L73.77,63.28L73.26,62.34L72.95,60.89L72.95,59.82L73.27,58.54L73.93,57.44L74.66,56.57L75.78,55.77L77.54,54.97L78.45,54.72L79.73,54.56L80.86,54.56z"/><path style="fill:#c0c0c0" d="M185.64,69.39L185.63,69.68L185.81,69.87L185.82,70.37L185.99,70.36L186.72,72.52L186.80,73.00L186.87,73.49L186.97,73.96L187.04,74.60L187.00,75.09L186.89,75.17L186.94,75.52L187.00,75.09L187.12,75.07L187.20,75.56L187.12,75.89L187.10,76.33L187.20,76.06L187.29,76.04L187.36,76.52L187.28,76.84L187.26,77.45L187.36,77.01L187.45,77.00L187.52,77.49L187.61,78.13L187.61,82.62L187.49,83.29L187.38,83.32L187.35,83.72L187.21,84.87L187.11,85.13L186.68,85.20L186.19,85.29L185.76,85.30L186.07,82.46L186.17,81.81L186.39,78.30L186.46,77.71L186.39,77.64L186.32,76.70L186.30,75.94L186.24,75.88L186.16,75.40L186.14,74.99L186.07,74.93L186.01,74.28L185.99,73.86L185.91,73.81L185.84,73.32L185.83,72.90L185.75,72.85L185.68,72.36L185.67,71.95L185.59,71.90L185.52,71.56L185.51,71.14L185.44,71.08L184.81,68.25L185.02,68.22z"/><path style="fill:#c8cfee" d="M146.04,7.19L179.32,0.12L179.80,0.03L185.56,0.04L185.56,0.12L170.19,3.40L146.66,8.37L146.18,8.18z"/><path style="fill:#c8cfee" d="M151.09,30.26L151.28,29.80L155.72,28.92L290.43,0.04L296.94,0.05L296.95,4.80L296.35,5.00L231.51,18.93L213.10,22.86L205.41,24.53L184.76,28.94L177.07,30.62L153.06,35.74L152.61,35.69L152.40,35.06L152.25,34.87L152.23,34.73L152.03,34.16L151.96,34.11L151.74,33.14L151.72,32.72L151.65,32.66L151.42,31.70L151.40,31.28L151.33,31.22z"/><path style="fill:#c8cfee" d="M70.24,74.01L71.35,74.82L72.79,75.31L75.30,75.30L104.55,69.04L103.36,72.62L103.07,74.76L102.91,76.04L92.27,78.35L82.76,80.49L81.92,80.80L81.23,81.39L81.04,82.29L80.97,86.77L80.59,86.82L80.77,86.99L80.89,89.02L80.95,97.89L81.29,98.63L81.44,99.00L82.07,99.33L82.45,99.39L83.10,99.55L72.85,101.79L71.88,102.02L71.73,101.96L71.83,101.78L72.09,91.10L72.48,90.99L72.09,90.93L71.99,81.23L71.35,78.02L69.80,73.52z"/><path style="fill:#404040" d="M91.86,31.38L91.86,32.99L92.00,35.76L92.32,37.05L93.30,38.94L94.74,40.71L96.50,42.14L98.58,43.43L100.33,44.08L100.58,45.47L100.67,45.95L101.06,47.71L101.15,48.19L101.54,49.95L101.63,50.43L102.02,52.19L102.11,52.68L102.50,54.43L102.59,54.92L102.99,56.67L102.64,56.88L99.84,56.42L96.97,55.61L93.93,54.33L91.06,52.71L88.66,50.79L86.89,49.03L85.28,46.81L83.99,44.09L83.37,41.63L83.35,40.56L83.29,40.50L83.22,39.55L83.22,36.66L83.29,33.30L83.45,32.02L83.67,30.68L84.66,27.98L86.17,25.49L87.63,23.75L88.98,22.54L91.00,21.03L92.03,20.33z"/><path style="fill:#000000" d="M90.27,85.72L90.25,85.92L89.77,85.87L89.60,85.55L88.26,85.70L87.63,86.54L87.30,86.52L88.65,84.16L89.13,84.08z"/><path style="fill:#000000" d="M101.96,87.73L101.80,87.90L101.40,88.11L101.40,89.12L101.63,89.19L101.66,89.65L101.40,89.71L101.39,90.79L101.40,90.97L101.06,91.58L100.71,91.38L100.66,88.20L100.75,87.79L101.01,87.69L101.51,87.61L101.96,87.42z"/><path style="fill:#ffffff" d="M144.41,0.04L179.32,0.04L179.32,0.12L146.04,7.19z"/><path style="fill:#ffffff" d="M89.34,85.05L89.20,85.31L88.47,85.44L88.47,85.13L88.76,84.58L88.96,84.56z"/><path style="fill:#ffffff" d="M101.86,88.38L101.80,89.02L101.63,89.19L101.40,89.12L101.40,88.11L101.80,87.90z"/><path style="fill:#ffffff" d="M115.87,119.49L116.40,119.78L116.52,120.23L117.07,122.80L117.16,123.28L117.55,125.04L117.64,125.51L117.71,125.85L117.80,126.32L118.19,128.08L118.28,128.56L118.83,131.12L118.92,131.60L119.32,133.36L119.25,133.69L115.86,135.39L114.48,135.74L113.67,135.64L112.51,135.01L112.19,134.69L111.72,133.37L111.70,132.94L111.63,132.88L111.08,130.33L111.06,129.90L110.99,129.84L110.59,128.08L110.58,127.66L110.51,127.60L110.11,125.84L110.10,125.42L110.03,125.36L109.78,123.97L109.63,122.32L109.66,121.22L111.02,119.02L111.95,118.52L113.57,116.93L114.74,115.97z"/><path style="fill:#000020" d="M185.56,0.12L185.56,0.04L186.04,0.03z"/><path style="fill:#000020" d="M179.32,0.12L179.32,0.04L179.80,0.03z"/><path style="fill:#000020" d="M90.90,0.48L90.77,0.04L90.94,0.03z"/><path style="fill:#000020" d="M91.38,2.72L91.29,2.24L91.36,2.30z"/><path style="fill:#000020" d="M91.86,4.96L91.77,4.48L91.84,4.54z"/><path style="fill:#000020" d="M92.25,7.21L92.26,6.72L92.33,6.79z"/><path style="fill:#000020" d="M146.66,8.37L146.34,8.53L146.18,8.18z"/><path style="fill:#000020" d="M73.63,16.78L73.44,18.10L73.40,16.52L73.58,16.52z"/><path style="fill:#000020" d="M149.18,21.61L149.09,21.13L149.17,21.18z"/><path style="fill:#000020" d="M70.78,22.13L70.30,22.24L70.47,21.79z"/><path style="fill:#000020" d="M149.50,23.06L149.41,22.57L149.49,22.63z"/><path style="fill:#000020" d="M149.82,24.50L149.73,24.01L149.81,24.07z"/><path style="fill:#000020" d="M150.14,25.94L150.05,25.45L150.13,25.51z"/><path style="fill:#000020" d="M150.46,27.38L150.37,26.90L150.45,26.95z"/><path style="fill:#000020" d="M150.78,28.82L150.69,28.34L150.77,28.39z"/><path style="fill:#000020" d="M151.09,30.26L151.01,29.78L151.28,29.80z"/><path style="fill:#000020" d="M151.42,31.70L151.33,31.22L151.40,31.28z"/><path style="fill:#000020" d="M77.46,32.50L77.35,32.03L77.44,32.07z"/><path style="fill:#000020" d="M151.74,33.14L151.65,32.66L151.72,32.72z"/><path style="fill:#000020" d="M152.23,34.73L152.05,34.64L151.96,34.11L152.03,34.16z"/><path style="fill:#000020" d="M152.40,35.06L152.21,35.21L152.16,34.97L152.25,34.87z"/><path style="fill:#000020" d="M152.73,35.91L152.61,35.69L153.06,35.74z"/><path style="fill:#000020" d="M152.38,36.02L152.29,35.55L152.37,35.60z"/><path style="fill:#000020" d="M152.70,37.46L152.61,36.98L152.69,37.03z"/><path style="fill:#000020" d="M153.02,38.91L152.93,38.42L153.01,38.48z"/><path style="fill:#000020" d="M153.34,40.35L153.25,39.86L153.33,39.92z"/><path style="fill:#000020" d="M83.37,41.63L83.29,40.50L83.35,40.56z"/><path style="fill:#000020" d="M153.66,41.79L153.57,41.30L153.65,41.36z"/><path style="fill:#000020" d="M153.98,43.23L153.89,42.75L153.97,42.80z"/><path style="fill:#000020" d="M154.30,44.67L154.21,44.19L154.29,44.24z"/><path style="fill:#000020" d="M48.95,45.63L48.87,35.06L48.93,35.12z"/><path style="fill:#000020" d="M100.67,45.95L100.58,45.47L100.65,45.53z"/><path style="fill:#000020" d="M101.15,48.19L101.06,47.71L101.13,47.77z"/><path style="fill:#000020" d="M49.11,50.27L49.03,49.63L49.10,49.68z"/><path style="fill:#000020" d="M101.63,50.43L101.54,49.95L101.61,50.01z"/><path style="fill:#000020" d="M49.27,51.08L49.19,50.60L49.26,50.65z"/><path style="fill:#000020" d="M102.11,52.68L102.02,52.19L102.09,52.25z"/><path style="fill:#000020" d="M158.86,52.84L158.86,51.38L158.93,51.44z"/><path style="fill:#000020" d="M157.09,53.32L157.10,52.66L157.17,52.72z"/><path style="fill:#000020" d="M102.59,54.92L102.50,54.43L102.57,54.49z"/><path style="fill:#000020" d="M102.64,56.88L102.99,56.67L103.09,57.15z"/><path style="fill:#000020" d="M87.86,60.19L87.77,59.72L87.84,59.78z"/><path style="fill:#000020" d="M102.75,60.36L102.66,59.88L102.73,59.94z"/><path style="fill:#000020" d="M169.39,60.80L168.64,60.79L168.58,60.68L168.75,60.65z"/><path style="fill:#000020" d="M172.72,63.08L172.63,62.60L172.70,62.65z"/><path style="fill:#000020" d="M173.20,65.16L173.11,64.68L173.18,64.73z"/><path style="fill:#000020" d="M105.15,66.91L105.06,66.44L105.13,66.50z"/><path style="fill:#000020" d="M105.32,67.73L105.22,67.25L105.30,67.30z"/><path style="fill:#000020" d="M177.87,70.10L177.55,70.07L177.67,69.85z"/><path style="fill:#000020" d="M174.64,71.88L174.55,71.40L174.62,71.46z"/><path style="fill:#000020" d="M176.70,73.39L176.48,73.49L176.54,72.86z"/><path style="fill:#000020" d="M108.50,74.51L108.30,74.56L108.33,74.18z"/><path style="fill:#000020" d="M186.94,75.52L186.89,75.17L187.00,75.09z"/><path style="fill:#000020" d="M130.38,75.77L130.91,75.78L130.88,75.94L130.56,75.96z"/><path style="fill:#000020" d="M187.20,76.06L187.10,76.33L187.12,75.89z"/><path style="fill:#000020" d="M174.32,77.20L174.29,77.62L174.10,77.62L174.15,77.03z"/><path style="fill:#000020" d="M187.36,77.01L187.26,77.45L187.28,76.84z"/><path style="fill:#000020" d="M102.98,77.81L102.92,77.18L102.91,76.04L103.07,74.76z"/><path style="fill:#000020" d="M174.94,81.44L174.51,81.46L174.96,81.33z"/><path style="fill:#000020" d="M173.68,81.79L173.42,82.12L173.50,81.69z"/><path style="fill:#000020" d="M97.99,82.30L97.49,82.25L97.98,82.17z"/><path style="fill:#000020" d="M102.34,82.61L102.59,82.14L102.51,83.08z"/><path style="fill:#000020" d="M97.83,83.27L97.33,83.22L97.83,83.13z"/><path style="fill:#000020" d="M187.35,83.72L187.38,83.32L187.49,83.29z"/><path style="fill:#000020" d="M99.13,83.76L99.16,81.86L99.41,81.83z"/><path style="fill:#000020" d="M94.02,83.74L94.04,82.96L94.28,82.94z"/><path style="fill:#000020" d="M96.55,84.52L96.44,84.49L96.44,82.51L96.54,82.48z"/><path style="fill:#000020" d="M186.65,85.34L186.51,85.38L186.19,85.29L186.68,85.20z"/><path style="fill:#000020" d="M89.50,85.19L89.20,85.31L89.34,85.05z"/><path style="fill:#000020" d="M92.07,85.48L91.96,85.45L91.96,83.47L92.06,83.44z"/><path style="fill:#000020" d="M86.81,86.65L86.72,86.73L86.58,85.15L86.73,84.89z"/><path style="fill:#000020" d="M80.59,86.82L80.97,86.77L80.89,89.02L80.77,86.99z"/><path style="fill:#000020" d="M101.86,88.38L101.80,87.90L101.96,87.73z"/><path style="fill:#000020" d="M101.84,89.18L101.66,89.65L101.63,89.19L101.80,89.02z"/><path style="fill:#000020" d="M98.18,89.82L98.12,89.00L98.25,88.89z"/><path style="fill:#000020" d="M101.61,90.90L101.40,90.97L101.39,90.79L101.63,90.30z"/><path style="fill:#000020" d="M72.09,91.10L72.09,90.93L72.48,90.99z"/><path style="fill:#000020" d="M93.53,92.87L93.56,89.39L93.65,89.35z"/><path style="fill:#000020" d="M100.20,95.79L99.92,95.88L99.74,95.70L100.03,95.61z"/><path style="fill:#000020" d="M99.60,95.94L99.28,96.04L98.94,95.85L99.42,95.76z"/><path style="fill:#000020" d="M98.79,96.10L98.48,96.20L98.30,96.02L98.61,95.92z"/><path style="fill:#000020" d="M98.14,96.27L97.67,96.36L97.49,96.18L97.81,96.09z"/><path style="fill:#000020" d="M97.35,96.42L97.04,96.52L96.86,96.34L97.17,96.24z"/><path style="fill:#000020" d="M166.46,96.54L166.40,96.13L166.49,96.08z"/><path style="fill:#000020" d="M96.70,96.59L96.23,96.68L96.05,96.50L96.37,96.41z"/><path style="fill:#000020" d="M95.91,96.74L95.60,96.84L95.26,96.65L95.73,96.57z"/><path style="fill:#000020" d="M95.26,96.91L94.79,97.00L94.61,96.82L94.92,96.73z"/><path style="fill:#000020" d="M94.47,97.06L94.16,97.16L93.82,96.97L94.29,96.89z"/><path style="fill:#000020" d="M93.66,97.22L93.34,97.32L93.17,97.15L93.49,97.05z"/><path style="fill:#000020" d="M166.63,97.50L166.54,97.03L166.61,97.08z"/><path style="fill:#000020" d="M92.22,97.54L91.91,97.64L91.73,97.46L92.06,97.37z"/><path style="fill:#000020" d="M91.58,97.72L91.11,97.80L90.92,97.62L91.24,97.53z"/><path style="fill:#000020" d="M90.79,97.86L90.47,97.96L90.29,97.78L90.61,97.68z"/><path style="fill:#000020" d="M90.14,98.04L89.66,98.12L89.49,97.94L89.80,97.85z"/><path style="fill:#000020" d="M89.35,98.18L89.03,98.28L88.70,98.09L89.17,98.01z"/><path style="fill:#000020" d="M88.54,98.34L88.23,98.44L88.05,98.26L88.36,98.17z"/><path style="fill:#000020" d="M166.79,98.46L166.70,97.99L166.77,98.04z"/><path style="fill:#000020" d="M87.91,98.51L87.59,98.60L87.26,98.41L87.73,98.33z"/><path style="fill:#000020" d="M87.10,98.66L86.78,98.76L86.61,98.59L86.92,98.49z"/><path style="fill:#000020" d="M85.66,98.98L85.35,99.08L85.17,98.91L85.49,98.81z"/><path style="fill:#000020" d="M85.01,99.16L84.54,99.24L84.36,99.06L84.68,98.97z"/><path style="fill:#000020" d="M84.22,99.30L83.91,99.40L83.58,99.21L84.05,99.13z"/><path style="fill:#000020" d="M83.57,99.48L83.10,99.55L82.45,99.39L83.25,99.30z"/><path style="fill:#000020" d="M71.40,102.11L71.73,101.96L71.88,102.02z"/><path style="fill:#000020" d="M169.27,106.95L169.26,106.47L169.34,106.54z"/><path style="fill:#000020" d="M169.67,112.55L169.58,112.07L169.65,112.13z"/><path style="fill:#000020" d="M113.68,112.53L113.97,112.24L113.95,112.82z"/><path style="fill:#000020" d="M170.79,117.36L170.70,116.87L170.77,116.93z"/><path style="fill:#000020" d="M116.52,120.23L116.40,119.78L116.50,119.81z"/><path style="fill:#000020" d="M109.63,122.32L109.58,121.26L109.66,121.22z"/><path style="fill:#000020" d="M117.16,123.28L117.07,122.80L117.15,122.85z"/><path style="fill:#000020" d="M172.39,124.24L172.30,123.76L172.38,123.82z"/><path style="fill:#000020" d="M106.59,124.72L106.51,124.26L106.57,124.30z"/><path style="fill:#000020" d="M117.64,125.51L117.55,125.04L117.63,125.09z"/><path style="fill:#000020" d="M110.11,125.84L110.03,125.36L110.10,125.42z"/><path style="fill:#000020" d="M117.80,126.32L117.71,125.85L117.79,125.90z"/><path style="fill:#000020" d="M107.23,127.76L107.14,127.28L107.22,127.33z"/><path style="fill:#000020" d="M110.59,128.08L110.51,127.60L110.58,127.66z"/><path style="fill:#000020" d="M118.28,128.56L118.19,128.08L118.27,128.13z"/><path style="fill:#000020" d="M173.52,129.04L173.43,128.56L173.50,128.62z"/><path style="fill:#000020" d="M107.71,130.00L107.62,129.52L107.70,129.57z"/><path style="fill:#000020" d="M111.08,130.33L110.99,129.84L111.06,129.90z"/><path style="fill:#000020" d="M174.00,131.13L173.91,130.64L173.98,130.70z"/><path style="fill:#000020" d="M118.92,131.60L118.83,131.12L118.91,131.18z"/><path style="fill:#000020" d="M108.35,133.05L108.27,132.56L108.34,132.62z"/><path style="fill:#000020" d="M111.72,133.37L111.63,132.88L111.70,132.94z"/><path style="fill:#000020" d="M119.40,133.79L119.25,133.69L119.32,133.36z"/><path style="fill:#000020" d="M175.12,135.93L175.03,135.45L175.10,135.50z"/><path style="fill:#000020" d="M120.04,136.87L119.92,136.85L120.03,136.45z"/><path style="fill:#000020" d="M120.20,137.69L120.12,137.22L120.19,137.27z"/><path style="fill:#000020" d="M120.68,139.93L120.59,139.45L120.67,139.50z"/><path style="fill:#000020" d="M176.72,142.81L176.63,142.33L176.70,142.39z"/><path style="fill:#000020" d="M121.32,142.97L121.23,142.49L121.31,142.54z"/><path style="fill:#000020" d="M121.80,145.20L121.71,144.73L121.79,144.78z"/><path style="fill:#000020" d="M121.96,146.01L121.87,145.54L121.95,145.59z"/><path style="fill:#000020" d="M177.84,147.62L177.75,147.13L177.82,147.19z"/><path style="fill:#000020" d="M122.44,148.26L122.35,147.77L122.43,147.83z"/><path style="fill:#000020" d="M178.32,149.70L178.23,149.21L178.30,149.27z"/><path style="fill:#000020" d="M123.08,151.30L122.99,150.81L123.07,150.87z"/><path style="fill:#000020" d="M123.56,153.53L123.48,153.06L123.55,153.11z"/><path style="fill:#000020" d="M123.72,154.34L123.63,153.87L123.71,153.92z"/><path style="fill:#000020" d="M179.44,154.50L179.35,154.02L179.42,154.08z"/><path style="fill:#000020" d="M124.20,156.57L124.12,156.10L124.19,156.15z"/><path style="fill:#000020" d="M124.37,157.38L124.27,156.91L124.35,156.96z"/><path style="fill:#000020" d="M180.06,157.64L180.14,157.53L180.29,157.97L180.05,157.93z"/><path style="fill:#000020" d="M124.85,159.62L124.76,159.14L124.83,159.19z"/><path style="fill:#000020" d="M125.49,162.66L125.40,162.18L125.47,162.23z"/><path style="fill:#000020" d="M125.96,164.90L125.88,164.42L125.95,164.48z"/><path style="fill:#000020" d="M126.13,165.71L126.04,165.24L126.11,165.29z"/><path style="fill:#c0c0c0" d="M74.87,19.91L75.24,21.09L74.61,21.25L73.44,18.10L73.63,16.78z"/><path style="fill:#4c4c4c" d="M146.34,8.53L146.66,8.37L170.19,3.40L185.56,0.12L186.04,0.03L290.43,0.04L155.72,28.92L151.28,29.80L151.01,29.78L150.78,28.82L150.77,28.39L150.69,28.34L150.46,27.38L150.45,26.95L150.37,26.90L150.14,25.94L150.13,25.51L150.05,25.45L149.82,24.50L149.81,24.07L149.73,24.01L149.50,23.06L149.49,22.63L149.41,22.57L149.18,21.61L149.17,21.18L149.09,21.13L146.43,9.35z"/><path style="fill:#4c4c4c" d="M152.73,35.91L153.06,35.74L177.07,30.62L184.76,28.94L205.41,24.53L213.10,22.86L231.51,18.93L296.35,5.00L296.95,4.80L296.96,27.53L161.44,56.90L160.00,57.11L158.91,54.64L158.71,54.59L158.86,52.84L158.93,51.44L158.86,51.38L157.81,48.41z"/><path style="fill:#c8cfee" d="M99.92,95.88L99.60,95.94L99.42,95.76L99.74,95.70z"/><path style="fill:#c8cfee" d="M99.28,96.04L98.79,96.10L98.61,95.92L98.94,95.85z"/><path style="fill:#c8cfee" d="M98.48,96.20L98.14,96.27L97.81,96.09L98.30,96.02z"/><path style="fill:#c8cfee" d="M97.67,96.36L97.35,96.42L97.17,96.24L97.49,96.18z"/><path style="fill:#c8cfee" d="M97.04,96.52L96.70,96.59L96.37,96.41L96.86,96.34z"/><path style="fill:#c8cfee" d="M96.23,96.68L95.91,96.74L95.73,96.57L96.05,96.50z"/><path style="fill:#c8cfee" d="M95.60,96.84L95.26,96.91L94.92,96.73L95.26,96.65z"/><path style="fill:#c8cfee" d="M94.79,97.00L94.47,97.06L94.29,96.89L94.61,96.82z"/><path style="fill:#c8cfee" d="M94.16,97.16L93.66,97.22L93.49,97.05L93.82,96.97z"/><path style="fill:#c8cfee" d="M93.34,97.32L92.22,97.54L92.06,97.37L93.17,97.15z"/><path style="fill:#c8cfee" d="M91.91,97.64L91.58,97.72L91.24,97.53L91.73,97.46z"/><path style="fill:#c8cfee" d="M91.11,97.80L90.79,97.86L90.61,97.68L90.92,97.62z"/><path style="fill:#c8cfee" d="M90.47,97.96L90.14,98.04L89.80,97.85L90.29,97.78z"/><path style="fill:#c8cfee" d="M89.66,98.12L89.35,98.18L89.17,98.01L89.49,97.94z"/><path style="fill:#c8cfee" d="M89.03,98.28L88.54,98.34L88.36,98.17L88.70,98.09z"/><path style="fill:#c8cfee" d="M88.23,98.44L87.91,98.51L87.73,98.33L88.05,98.26z"/><path style="fill:#c8cfee" d="M87.59,98.60L87.10,98.66L86.92,98.49L87.26,98.41z"/><path style="fill:#c8cfee" d="M86.78,98.76L85.66,98.98L85.49,98.81L86.61,98.59z"/><path style="fill:#c8cfee" d="M85.35,99.08L85.01,99.16L84.68,98.97L85.17,98.91z"/><path style="fill:#c8cfee" d="M84.54,99.24L84.22,99.30L84.05,99.13L84.36,99.06z"/><path style="fill:#c8cfee" d="M83.91,99.40L83.57,99.48L83.25,99.30L83.58,99.21z"/><path style="fill:#404040" d="M82.76,80.49L92.27,78.35L102.91,76.04L102.92,77.18L83.26,81.48z"/><path style="fill:#404040" d="M81.37,83.09L81.29,98.63L80.95,97.89L80.89,89.02L80.97,86.77L81.04,82.29L81.10,82.35z"/><path style="fill:#000000" d="M83.26,81.48L82.67,81.71L81.77,82.41L81.37,83.09L81.10,82.35L81.04,82.29L81.23,81.39L81.92,80.80L82.76,80.49z"/><path style="fill:#000000" d="M101.62,81.84L101.46,82.24L100.90,82.65L101.62,83.30L101.57,83.47L101.29,83.49L100.33,82.81L99.64,82.99L99.53,83.84L99.21,84.02L99.13,83.76L99.41,81.83L100.54,81.62L101.35,81.62z"/><path style="fill:#000000" d="M98.59,82.22L97.99,82.30L97.98,82.17L98.59,82.03z"/><path style="fill:#000000" d="M98.31,83.09L97.83,83.27L97.83,83.13L98.29,83.01z"/><path style="fill:#000000" d="M96.91,82.67L96.90,83.21L97.33,83.22L97.83,83.27L96.96,83.51L96.81,84.51L96.55,84.52L96.54,82.48L97.49,82.25L97.99,82.30z"/><path style="fill:#000000" d="M102.51,83.08L102.44,83.25L101.87,83.32L102.34,82.61z"/><path style="fill:#000000" d="M92.82,83.61L93.94,84.48L94.02,83.74L94.28,82.94L94.40,82.98L94.41,84.96L94.21,85.10L93.78,85.07L92.49,83.93L92.32,85.47L92.07,85.48L92.06,83.44L92.51,83.31z"/><path style="fill:#000000" d="M85.46,86.53L85.60,86.56L86.36,84.76L86.67,84.56L87.04,84.57L87.04,86.58L86.81,86.65L86.73,84.89L86.58,85.15L85.76,86.88L85.23,86.88L84.63,85.70L84.31,87.23L84.12,87.23L84.11,85.23L84.65,85.05z"/><path style="fill:#000000" d="M91.20,85.78L90.84,85.78L90.89,83.66L91.20,83.61z"/><path style="fill:#000000" d="M96.14,91.70L96.31,91.70L97.78,88.49L98.19,88.26L98.90,88.26L98.89,91.85L98.24,92.01L98.18,89.82L98.25,88.89L98.12,89.00L96.64,92.32L95.81,92.49L94.40,89.87L94.25,92.80L94.05,92.94L93.57,92.99L93.53,92.87L93.65,89.35L94.74,89.05z"/><path style="fill:#ffffff" d="M200.25,54.91L200.15,54.45L200.24,54.49z"/><path style="fill:#ffffff" d="M200.41,55.71L200.32,55.25L200.40,55.30z"/><path style="fill:#ffffff" d="M200.58,56.84L200.49,56.19L200.55,56.25z"/><path style="fill:#ffffff" d="M200.64,58.44L200.64,57.79L200.71,57.85z"/><path style="fill:#ffffff" d="M184.76,66.43L184.53,67.03L184.55,66.44L184.74,66.29z"/><path style="fill:#ffffff" d="M199.29,70.93L199.20,70.12L199.27,70.18z"/><path style="fill:#ffffff" d="M185.52,71.56L185.44,71.08L185.51,71.14z"/><path style="fill:#ffffff" d="M199.45,71.88L199.36,71.41L199.44,71.46z"/><path style="fill:#ffffff" d="M185.68,72.36L185.59,71.90L185.67,71.95z"/><path style="fill:#ffffff" d="M178.47,72.38L178.39,71.72L178.46,71.78z"/><path style="fill:#ffffff" d="M199.61,73.00L199.52,72.53L199.59,72.58z"/><path style="fill:#ffffff" d="M186.80,73.00L186.72,72.52L186.79,72.58z"/><path style="fill:#ffffff" d="M185.84,73.32L185.75,72.85L185.83,72.90z"/><path style="fill:#ffffff" d="M199.81,73.97L199.70,73.91L199.68,73.49z"/><path style="fill:#ffffff" d="M186.97,73.96L186.87,73.49L186.95,73.54z"/><path style="fill:#ffffff" d="M186.01,74.28L185.91,73.81L185.99,73.86z"/><path style="fill:#ffffff" d="M199.81,73.97L202.05,73.45L293.31,53.44L296.95,52.67L296.94,166.94L190.36,166.96L187.45,162.53L180.29,157.97L180.14,157.53L179.44,154.50L179.42,154.08L179.35,154.02L178.32,149.70L178.30,149.27L178.23,149.21L177.84,147.62L177.82,147.19L177.75,147.13L176.72,142.81L176.70,142.39L176.63,142.33L175.12,135.93L175.10,135.50L175.03,135.45L174.00,131.13L173.98,130.70L173.91,130.64L173.52,129.04L173.50,128.62L173.43,128.56L172.39,124.24L172.38,123.82L172.30,123.76L170.79,117.36L170.77,116.93L170.70,116.87L169.67,112.55L169.65,112.13L169.58,112.07L168.85,108.77L168.85,107.85L169.27,106.95L169.34,106.54L169.26,106.47L168.69,103.80L167.56,99.81L167.10,99.47L166.92,99.17L166.79,98.46L166.77,98.04L166.70,97.99L166.63,97.50L166.61,97.08L166.54,97.03L166.46,96.54L166.49,96.08L170.48,94.48L171.89,98.20L173.02,100.92L174.73,100.92L178.93,100.00L181.93,99.15L182.78,97.93L184.06,93.38L184.38,95.48L185.02,98.04L185.52,98.68L196.19,97.09L196.81,96.75L197.84,95.54L200.07,81.60L200.07,76.74z"/><path style="fill:#ffffff" d="M187.12,75.07L187.00,75.09L187.04,74.60L187.11,74.66z"/><path style="fill:#ffffff" d="M186.16,75.40L186.07,74.93L186.14,74.99z"/><path style="fill:#ffffff" d="M187.29,76.04L187.20,76.06L187.12,75.89L187.20,75.56L187.27,75.62z"/><path style="fill:#ffffff" d="M186.32,76.70L186.24,75.88L186.30,75.94z"/><path style="fill:#ffffff" d="M187.45,77.00L187.36,77.01L187.28,76.84L187.36,76.52L187.43,76.58z"/><path style="fill:#ffffff" d="M187.61,78.13L187.52,77.49L187.59,77.54z"/><path style="fill:#ffffff" d="M186.39,78.30L186.39,77.64L186.46,77.71z"/><path style="fill:#ffffff" d="M101.15,82.00L101.09,82.18L100.45,82.52L99.63,82.56L99.63,82.03L101.00,81.86z"/><path style="fill:#ffffff" d="M186.63,85.77L186.51,85.38L186.65,85.34z"/><path style="fill:#ffffff" d="M101.63,90.30L101.39,90.79L101.40,89.71L101.66,89.65z"/><g id="Actor_.0"><g style="stroke:#282828;stroke-width:0.106"><path d="M131.11,40.73L122.04,0.00"/><path d="M128.67,69.39L128.52,68.71"/></g><g style="stroke:#282828;stroke-width:0.353"><path d="M90.93,0.00L103.22,57.23"/><path d="M154.54,45.52L144.44,0.00"/></g></g><g id="Actor_.1"><g style="stroke:#282828;stroke-width:0.106"><path d="M169.00,58.80L169.35,58.05L169.90,58.84L170.10,58.45L170.41,58.33L169.80,57.45"/><path d="M173.28,65.26L174.83,65.39L175.42,65.09L174.17,64.96L174.89,59.82L170.85,59.49L170.65,60.96"/><path d="M169.63,60.86L169.90,58.84L170.85,59.49L170.86,59.07L170.90,58.62L170.41,58.33"/><path d="M172.23,98.97L172.40,97.78L171.95,96.77L170.94,94.25"/><path d="M170.90,58.62L175.67,59.13L177.72,58.85L176.32,58.48L176.08,58.46L171.21,58.15L170.84,57.47L170.73,57.37"/><path d="M172.66,97.51L172.40,97.78L172.68,97.31"/><path d="M171.95,96.77L172.24,96.32L172.87,96.01"/><path d="M171.88,93.44L172.88,95.94"/><path d="M173.52,101.09L174.04,100.39L173.72,100.35L173.42,100.01L172.95,100.65"/><path d="M173.42,100.01L176.20,80.66L176.82,81.04L174.04,100.39L174.86,100.28L182.52,98.32L182.94,97.01L184.75,88.53L185.42,80.34L185.38,79.47L177.66,80.93L177.65,77.77L184.94,76.40L185.38,79.47L185.69,79.17L185.22,76.21L184.57,73.18L183.89,70.27L181.70,60.88L181.56,60.79L181.38,60.76L180.76,58.27L180.36,56.92"/><path d="M173.71,91.56L173.55,92.24L173.92,91.69"/><path d="M173.55,92.24L173.37,92.49L173.38,92.49"/><path d="M174.31,88.99L173.37,84.91L173.12,84.72"/><path d="M173.37,84.91L174.34,84.55L174.79,84.04L174.93,84.63"/><path d="M175.14,81.64L174.79,84.04L173.38,82.89"/><path d="M173.91,68.31L174.27,65.73L174.83,65.39"/><path d="M173.37,65.68L174.27,65.73L176.57,67.26L176.69,67.14L176.11,65.94"/><path d="M174.17,64.96L173.18,64.86"/><path d="M174.64,100.97L174.86,100.28L175.07,98.82L182.94,97.01L183.25,96.72L185.03,88.27L185.72,80.07L185.42,80.34L177.48,82.15L175.07,98.82"/><path d="M175.55,74.37L174.73,72.71"/><path d="M174.89,59.82L175.59,59.90L175.67,59.13L176.22,59.19L176.14,59.96L178.03,61.38L180.21,70.75L180.47,70.52L180.78,70.44L178.58,61.01L176.22,59.19"/><path d="M176.20,80.66L176.23,78.27L175.86,75.07L176.13,74.96L176.45,74.90L176.86,78.41L176.82,81.04L177.66,80.93L177.48,82.15"/><path d="M175.59,59.90L176.14,59.96L175.42,65.09L177.28,66.61L176.69,67.14"/><path d="M177.65,77.77L177.31,74.96L179.01,74.14L179.87,73.74L180.78,73.13L181.00,72.91L181.71,70.28L179.52,60.91L177.72,58.85"/><path d="M176.45,74.90L176.72,74.28L178.93,73.20L179.43,72.97L179.23,72.73"/><path d="M176.72,74.28L176.51,73.99L176.40,74.03"/><path d="M177.20,70.21L176.62,70.20L176.62,73.45"/><path d="M176.62,70.20L177.20,69.38"/><path d="M177.66,69.15L177.09,69.24L176.44,68.20L176.57,67.26"/><path d="M177.28,66.61L178.03,61.38L178.20,61.14L178.58,61.01"/><path d="M177.57,69.68L177.45,70.15"/><path d="M181.00,72.91L178.94,73.19L178.74,72.94"/><path d="M179.43,72.97L180.78,70.44"/><path d="M179.52,60.91L181.39,60.78L181.38,60.76"/><path d="M181.71,70.28L183.59,70.19L184.27,73.24L184.94,76.40L185.12,76.31L185.22,76.21"/><path d="M181.70,60.90L181.39,60.78L183.59,70.19L183.89,70.27L185.56,71.63L183.43,62.52L181.70,60.88L181.12,58.48L180.76,57.16"/><path d="M182.55,98.22L182.87,97.93"/><path d="M182.56,59.96L182.54,59.99"/><path d="M183.48,62.63L183.43,62.52L182.86,60.64"/><path d="M185.03,89.63L185.02,89.65"/><path d="M185.52,86.96L186.46,78.24"/><path d="M185.72,80.07L185.69,79.17"/><path d="M186.43,78.47L186.43,77.76L185.69,79.25L185.38,79.53"/><path d="M186.11,74.74L185.56,71.63L185.61,71.72"/><path d="M186.43,77.76L186.45,77.59"/></g><g style="stroke:#282828;stroke-width:0.353"><path d="M182.53,59.97L182.56,59.96L182.85,60.63L182.38,59.65L180.76,57.16L180.36,56.92L176.55,57.03L170.72,57.37L169.80,57.45L169.33,57.70L169.00,58.80L168.73,60.77"/><path d="M182.24,98.86L182.83,98.02L182.52,98.33L182.08,99.16L178.47,100.18L174.64,100.97L173.52,101.09L173.27,101.08L172.95,100.65L172.23,98.97L172.11,98.53L170.52,94.42"/><path d="M172.66,97.51L173.37,92.49L173.71,91.56L173.98,91.30"/><path d="M177.03,73.74L176.40,74.03L175.86,75.07L175.14,80.08L175.13,83.24L173.92,91.69"/><path d="M177.60,69.71L177.02,69.23L176.44,68.20L174.07,69.00"/><path d="M174.83,65.39L176.43,66.08"/><path d="M179.23,72.73L178.74,72.94L176.50,73.98"/><path d="M177.09,69.24L178.08,70.16"/><path d="M177.66,69.15L178.41,70.94L178.70,72.97"/><path d="M179.14,72.77L180.21,70.75"/><path d="M185.45,87.24L185.03,89.63L183.66,95.17L183.25,96.72L182.83,98.02"/><path d="M182.85,60.63L183.48,62.63L184.61,67.09L185.61,71.72L186.11,74.74L186.43,77.76"/><path d="M183.67,95.11L185.52,86.96L185.92,84.12L186.22,81.71L186.46,78.24L186.45,77.59L186.29,75.91L186.14,74.94"/></g></g><g id="Actor_.2"><g style="stroke:#282828;stroke-width:0.106"><path d="M186.39,71.91L185.66,72.01"/></g><g style="stroke:#282828;stroke-width:0.353"><path d="M184.83,68.10L185.20,68.29L186.39,71.91L187.31,77.28L187.62,82.34L187.20,85.13L185.75,85.33"/></g></g><g id="Actor_.3"><g style="stroke:#282828;stroke-width:0.106"><path d="M109.98,100.68L110.01,100.63L105.76,100.09L102.50,97.53L101.32,93.82"/><path d="M155.50,50.57L155.21,49.50L150.06,45.78L141.88,43.92L131.88,44.23L121.65,46.66L112.77,50.84L106.64,56.10L104.16,61.63L102.92,60.55L105.48,54.81L111.84,49.35L121.05,45.01L131.67,42.49L142.04,42.17L150.54,44.11L155.87,47.97L157.24,53.15L156.79,54.02"/><path d="M109.44,85.72L106.06,84.40L103.74,81.37L103.67,79.83"/><path d="M108.76,85.15L107.95,84.94L104.90,82.68L104.05,80.39"/><path d="M104.38,62.65L106.13,58.12L110.46,53.64L111.79,61.50L111.22,65.81L111.18,65.90"/><path d="M110.77,100.21L110.01,100.63L111.70,87.64"/><path d="M110.46,53.64L116.75,49.80L116.95,54.75L115.60,59.77L115.42,60.19L114.80,61.57L114.06,63.01L113.69,63.68L112.67,65.37L112.22,66.05"/><path d="M116.75,49.80L124.13,46.97L132.11,45.26L135.76,61.64L135.81,61.91L135.09,62.02L134.38,62.17L133.69,62.35L132.91,62.60L132.29,62.83L131.41,63.19L129.93,63.92L128.07,65.12L127.48,65.62L125.79,67.39L125.44,67.84L124.42,69.32L122.90,72.00"/><path d="M153.92,69.52L153.80,69.26L153.65,68.77L153.84,68.72L153.31,66.74L152.41,65.20L150.24,63.13L149.11,62.41L143.26,61.11L142.71,61.11L135.82,61.63L135.76,61.64L135.34,61.78L135.14,61.78L134.64,61.81L133.49,62.11L132.69,62.37L131.77,62.72L131.20,62.97L130.61,63.25L129.80,63.65L129.27,63.95L125.21,67.60L124.39,68.74L123.46,70.32L122.61,71.83"/><path d="M125.04,73.23L129.69,73.07L130.09,74.85L128.41,74.97"/><path d="M133.53,65.34L136.01,64.39L136.05,64.00L136.03,63.55L130.61,65.59L126.38,69.13L124.20,72.75"/><path d="M128.21,68.16L126.52,69.62L124.53,72.94"/><path d="M126.22,70.52L129.83,67.30"/><path d="M130.09,74.85L130.29,75.78"/><path d="M129.69,73.07L138.76,70.92L146.66,67.24L148.25,65.92"/><path d="M132.11,45.26L139.83,44.82L146.70,45.66L148.49,51.08L151.96,55.94L157.10,59.63L163.54,61.18L164.87,60.38"/><path d="M136.05,64.00L144.64,63.61L144.33,64.02L144.15,64.08"/><path d="M150.49,69.88L150.50,69.78L150.58,69.91L150.72,70.02L150.90,70.09L151.44,69.62L151.30,69.49L151.20,69.34L151.13,69.18L151.40,69.05L151.31,68.66L151.04,68.80L148.70,65.20L144.64,63.61L144.77,63.18L136.03,63.55L135.81,61.91L141.22,61.40"/><path d="M140.01,64.02L144.33,64.02L148.22,65.59L150.50,69.25L150.40,69.45"/><path d="M144.77,63.18L148.90,64.82L151.31,68.66"/><path d="M146.70,45.66L149.41,46.46L150.70,50.65L150.85,50.98L152.67,53.95L153.85,55.34"/><path d="M150.50,69.78L150.52,69.74L150.60,69.66L150.50,69.24L151.04,68.80L151.13,69.18L150.60,69.66L150.66,69.81L150.76,69.96L151.29,70.40"/><path d="M150.70,70.18L150.90,70.09"/><path d="M151.82,69.60L151.44,69.62L151.40,69.05L153.14,68.98L153.17,69.55L151.82,69.60"/><path d="M153.58,69.57L153.17,69.55L153.05,69.65"/><path d="M172.58,62.28L172.10,62.08L163.54,61.18L153.84,68.72L153.86,68.83L153.61,68.90L153.14,68.98"/><path d="M153.61,68.90L153.73,69.28L153.84,69.54"/><path d="M163.61,67.50L153.86,68.83L153.93,69.25L153.93,69.52"/><path d="M163.79,65.60L167.96,65.03L167.92,65.31"/><path d="M167.96,65.03L169.22,67.19L173.16,66.65L173.64,66.85L173.35,67.22"/><path d="M169.22,67.19L169.42,67.83"/><path d="M173.22,67.31L173.16,66.65L172.10,62.08L171.86,61.08"/></g><g style="stroke:#282828;stroke-width:0.353"><path d="M110.75,100.46L109.98,100.68L107.91,100.69L105.76,100.09L104.12,99.20L102.50,97.53L101.78,96.14L101.32,93.82L103.07,79.42L103.15,79.06"/><path d="M105.11,66.12L104.51,65.68L102.92,60.55L102.53,58.76L105.09,53.02L111.45,47.55L120.65,43.22L131.27,40.69L141.63,40.38L150.13,42.32L155.46,46.19L156.84,51.38L157.24,53.15L156.80,54.06"/><path d="M109.87,86.09L107.57,85.75L105.94,84.57L104.26,83.16L103.57,81.48L103.07,79.42"/><path d="M104.16,61.63L105.50,68.03"/><path d="M124.70,73.03L126.22,70.52"/><path d="M130.21,67.10L125.70,71.38"/><path d="M135.20,64.32L136.05,64.00L126.38,69.13L127.16,68.57"/><path d="M140.01,64.02L136.01,64.39L133.23,65.50"/><path d="M135.94,61.63L135.82,61.63L141.23,61.40L143.80,61.51"/><path d="M144.33,64.02L139.97,64.08L138.99,64.11"/><path d="M142.71,61.11L150.13,63.83"/><path d="M150.50,69.24L148.11,65.73L144.15,64.09L143.25,64.03"/><path d="M146.28,61.59L146.47,61.61L146.46,61.61"/><path d="M149.88,63.49L146.47,61.61"/><path d="M153.49,68.45L153.65,68.76L149.11,62.41"/><path d="M149.41,46.46L152.07,47.52L155.23,50.24L155.97,51.15L156.99,54.70L157.97,58.54"/><path d="M150.06,68.59L150.40,69.45L150.49,69.88L150.70,70.18L151.13,70.52"/><path d="M159.84,59.42L159.08,59.12L157.52,58.30L154.86,56.33L153.85,55.34"/><path d="M154.55,55.57L156.07,57.22"/><path d="M159.03,59.26L164.87,60.38L171.86,61.08L172.32,61.52L172.58,62.28L173.64,66.85L173.62,67.04"/><path d="M163.79,65.60L163.53,68.20"/></g></g><g id="Actor_.4"><g style="stroke:#282828;stroke-width:0.106"><path d="M185.46,96.46L185.06,96.47L184.57,94.37L184.48,92.26L184.61,92.33L186.12,92.12"/><path d="M184.99,89.77L184.61,92.33L184.69,94.35L185.15,96.36L185.48,96.36"/><path d="M184.48,92.26L184.65,91.17"/><path d="M185.67,98.74L185.96,98.15L185.84,98.07L185.56,98.65"/><path d="M199.51,72.03L198.60,71.81L199.22,75.85L199.49,79.66L199.36,82.47L197.08,96.60L185.96,98.15L188.12,84.02L199.36,82.47L200.17,81.42"/><path d="M185.84,98.07L187.99,83.95L188.12,84.02L188.24,81.22L187.96,77.42L187.34,73.37L198.60,71.81L198.45,70.87L198.39,69.97L198.42,69.30L199.24,68.26"/><path d="M186.63,69.29L186.30,69.32L185.83,67.30L185.75,65.24L187.27,65.03"/><path d="M185.53,68.78L185.41,68.91"/><path d="M186.61,69.39L186.20,69.43L185.71,67.31L185.62,65.16L185.75,65.24L187.12,56.01L187.00,55.94L185.62,65.16"/><path d="M187.29,73.39L187.22,73.42L187.07,72.42L187.00,71.47L187.03,70.78L187.15,70.85L187.13,71.52L187.19,72.42L187.34,73.37L187.29,73.39"/><path d="M187.22,73.42L187.83,77.40L188.11,81.18L187.99,83.95"/><path d="M186.99,53.56L187.45,54.11L187.95,55.72L188.07,56.40L188.35,57.96L188.56,60.22L188.50,61.89L199.84,60.34L198.42,69.30L187.15,70.85L188.50,61.89L188.38,61.81L188.23,57.97L187.35,54.22L186.61,54.31"/><path d="M187.03,70.78L188.38,61.81"/><path d="M187.00,55.94L187.16,55.58"/><path d="M187.44,55.97L187.12,56.01L187.26,55.71"/><path d="M187.95,55.72L199.30,54.17L200.25,54.58"/><path d="M198.32,52.02L198.79,52.57L199.30,54.17L199.70,56.41L199.91,58.66L199.84,60.34L200.67,59.29"/></g><g style="stroke:#282828;stroke-width:0.353"><path d="M184.15,93.19L184.26,94.37L184.64,96.52L185.12,98.08L185.56,98.65L185.67,98.74L196.57,97.04L197.08,96.60L197.89,95.56L200.17,81.42L200.29,78.95L200.06,75.58L199.29,70.60L199.19,69.26L199.24,68.26L200.67,59.29L200.72,58.01L200.56,56.28L200.25,54.58L199.86,53.35L199.50,52.93L198.32,52.02L186.99,53.56L186.61,54.32L184.67,67.39"/><path d="M186.69,85.20L186.73,85.42L186.84,86.65L186.82,87.55L185.46,96.46"/><path d="M187.45,83.47L187.80,83.14L187.77,78.33L186.82,72.37L185.53,68.78"/><path d="M186.61,69.39L188.00,60.18L188.02,59.26L187.91,58.01L187.69,56.78L187.57,56.40L187.41,55.89L187.16,55.58"/></g></g><g id="Actor_.5"><g style="stroke:#282828;stroke-width:0.106"><path d="M173.52,81.85L173.52,81.86"/><path d="M173.49,82.12L173.69,81.83L173.63,81.10"/><path d="M173.86,81.63L173.95,80.82L173.83,79.71"/><path d="M174.00,78.50L174.26,80.52L174.21,81.55"/><path d="M174.35,77.58L174.21,77.00"/><path d="M174.31,76.33L175.54,76.16L175.63,76.63"/><path d="M174.99,74.60L175.54,76.16L175.71,76.11"/><path d="M175.99,74.19L176.13,74.56"/><path d="M176.62,73.45L176.79,73.85"/><path d="M186.50,72.55L186.84,72.50"/></g><g style="stroke:#282828;stroke-width:0.353"><path d="M174.21,81.55L173.86,81.63L173.48,82.13"/><path d="M174.23,76.86L174.26,77.02L174.35,77.58L174.36,77.66L174.57,80.10L174.55,80.89L174.23,81.68L174.14,81.57"/><path d="M174.31,81.49L175.14,81.33"/><path d="M176.00,74.19L174.99,74.60L174.55,74.63"/><path d="M177.60,73.47L177.60,73.47L177.40,73.34L176.62,73.45L175.93,74.21"/><path d="M185.45,69.05L185.62,69.03"/></g></g><g id="Actor_.6"><g style="stroke:#282828;stroke-width:0.106"><path d="M177.24,70.18L177.58,70.47L178.18,70.39"/><path d="M177.58,70.47L177.67,70.69L177.75,71.05L177.79,71.46L177.91,73.33"/><path d="M177.79,71.46L178.47,71.36"/></g><g style="stroke:#282828;stroke-width:0.353"><path d="M177.99,70.07L177.24,70.18L176.96,70.36L176.76,70.99L176.63,72.73L176.66,73.44"/></g></g><g id="Actor_.7"><g style="stroke:#282828;stroke-width:0.106"><path d="M107.86,84.38L107.86,84.38"/><path d="M109.97,75.10L110.81,75.02L111.93,75.27"/></g><g style="stroke:#282828;stroke-width:0.353"><path d="M105.34,82.25L105.62,82.76L107.86,84.38L107.86,84.38"/></g></g><g id="Actor_.8"><g style="stroke:#282828;stroke-width:0.353"><path d="M92.35,6.63L91.92,35.14"/></g></g><g id="Actor_.9"><g style="stroke:#282828;stroke-width:0.106"><path d="M81.35,98.54L81.49,83.11L81.08,82.01"/><path d="M81.49,83.11L81.74,82.46L82.01,82.22L82.40,81.88L83.30,81.53L82.88,80.42"/><path d="M84.42,85.10L84.40,86.87L84.08,86.94"/><path d="M84.07,87.31L84.53,87.21L84.40,86.87"/><path d="M103.11,77.21L83.30,81.53"/><path d="M85.65,86.60L85.72,86.58L85.85,86.92L85.38,87.03L85.25,86.68L84.44,85.10"/><path d="M85.25,86.68L85.60,86.61"/><path d="M84.53,87.21L84.55,85.40L85.38,87.03"/><path d="M84.55,85.40L84.43,85.10"/><path d="M85.48,86.37L85.48,86.37"/><path d="M85.85,86.92L86.73,84.92"/><path d="M85.72,86.58L86.58,84.63"/><path d="M87.86,86.49L87.73,86.14L88.11,85.40L88.24,85.75L87.86,86.49L87.38,86.59"/><path d="M86.72,86.36L87.03,86.29L87.16,86.64L86.71,86.74"/><path d="M87.03,86.29L87.06,84.53"/><path d="M87.16,86.64L87.19,84.50"/><path d="M87.73,86.14L87.61,86.17"/><path d="M88.24,85.75L89.61,85.45L89.96,86.03L90.45,85.92"/><path d="M88.11,85.40L88.33,85.35"/><path d="M88.25,85.13L88.58,84.46L88.71,84.81L88.38,85.47"/><path d="M88.58,84.46L88.74,84.16"/><path d="M89.61,85.45L89.48,85.10L89.43,85.11"/><path d="M89.96,86.03L89.83,85.68L89.48,85.10"/><path d="M89.48,85.23L89.17,84.74L89.04,84.39L88.88,84.13"/><path d="M89.20,84.05L89.20,84.06"/><path d="M89.35,84.89L89.04,84.39"/><path d="M88.71,84.81L88.94,84.36L88.85,84.13"/><path d="M88.94,84.36L89.17,84.74"/><path d="M90.83,85.84L91.28,85.74L91.31,83.60"/><path d="M90.83,85.47L91.15,85.40L91.18,83.63"/><path d="M90.23,85.60L89.83,85.68"/><path d="M91.28,85.74L91.15,85.40"/><path d="M92.02,85.58L92.48,85.48L92.35,85.14L92.03,85.21"/><path d="M92.48,85.48L92.50,83.88L94.01,85.14L94.49,85.04L94.36,84.70L93.88,84.80L92.37,83.54L92.50,83.88"/><path d="M92.35,85.14L92.37,83.54"/><path d="M93.58,93.04L94.38,92.87L94.43,89.71L95.86,92.54L96.69,92.36L96.56,92.02L95.73,92.20L95.86,92.54"/><path d="M94.38,92.87L94.25,92.52L93.59,92.67"/><path d="M93.88,84.80L94.01,85.14"/><path d="M94.25,92.52L94.30,89.37L95.73,92.20"/><path d="M94.43,89.71L94.30,89.37"/><path d="M94.36,84.70L94.39,82.93"/><path d="M94.49,85.04L94.53,82.90"/><path d="M96.56,92.02L98.11,88.53"/><path d="M96.69,92.36L98.24,88.88"/><path d="M96.90,83.19L96.80,83.21L96.79,84.17L96.47,84.24"/><path d="M96.79,84.17L96.92,84.51L96.47,84.61"/><path d="M96.92,84.51L96.94,83.55L98.38,83.24L98.29,83.01"/><path d="M96.80,83.21L96.94,83.55"/><path d="M96.81,82.96L96.82,82.40"/><path d="M96.94,83.30L96.95,82.61L96.87,82.39"/><path d="M96.95,82.61L98.64,82.25L98.64,82.00"/><path d="M98.18,92.03L98.97,91.86L99.04,88.13"/><path d="M98.91,88.16L98.84,91.52L98.19,91.66"/><path d="M98.38,82.99L98.38,83.24"/><path d="M98.64,82.25L98.55,82.02"/><path d="M98.97,91.86L98.84,91.52"/><path d="M99.19,83.64L99.50,83.58L99.52,82.61L99.65,82.96L100.11,82.86L100.03,82.63"/><path d="M99.65,82.96L99.63,83.92L99.18,84.02"/><path d="M99.63,83.92L99.50,83.58"/><path d="M99.52,82.61L99.61,82.59"/><path d="M99.52,82.37L99.53,81.81"/><path d="M99.65,82.71L99.67,82.02L99.58,81.80"/><path d="M99.67,82.02L100.62,81.81L100.54,81.59"/><path d="M100.64,91.50L101.32,91.35"/><path d="M101.39,91.21L101.30,90.98L100.65,91.12"/><path d="M101.58,83.12L101.26,83.19L100.87,82.83L101.00,83.17L100.73,82.94L100.34,82.82L100.11,82.86"/><path d="M100.82,82.68L101.43,82.37L101.61,82.15L101.68,81.91L101.60,81.67"/><path d="M100.87,82.83L100.60,82.60L100.42,82.54"/><path d="M100.34,82.82L100.25,82.58"/><path d="M100.62,81.81L101.05,81.80L101.22,82.02"/><path d="M101.30,90.98L101.33,89.31L101.46,89.65L101.43,91.11"/><path d="M101.46,89.65L101.84,89.57"/><path d="M101.34,88.88L101.36,87.68L101.50,88.02L101.47,89.22"/><path d="M101.33,89.31L101.88,89.19"/><path d="M101.50,88.02L102.04,87.90"/><path d="M101.36,87.68L102.09,87.52"/><path d="M101.95,83.41L102.43,83.31L102.29,82.97L102.18,82.99"/><path d="M101.00,83.17L101.39,83.53L101.91,83.42"/><path d="M101.39,83.53L101.26,83.19"/><path d="M101.68,81.91L101.58,81.66"/><path d="M101.53,81.62L101.48,81.80L101.29,82.03L101.18,82.08"/><path d="M101.09,81.68L100.99,81.54"/><path d="M102.43,83.31L102.65,82.87"/><path d="M102.29,82.97L102.67,82.23L102.73,82.21"/><path d="M102.67,82.23L102.72,82.34"/></g><g style="stroke:#282828;stroke-width:0.353"><path d="M103.12,76.02L82.88,80.42L81.98,80.78L81.32,81.36L81.08,82.01L80.93,97.44L81.35,98.54L81.58,99.08L82.22,99.36L83.11,99.33"/><path d="M83.12,99.33L100.63,95.48"/><path d="M84.07,87.31L84.10,85.17L84.78,85.02L85.48,86.37L85.62,86.65L85.78,86.28L86.51,84.64L87.19,84.50"/><path d="M87.38,86.59L88.69,84.17L89.20,84.06L90.45,85.92"/><path d="M86.71,86.74L86.73,84.92L86.62,84.62"/><path d="M88.25,85.13L88.38,85.47L89.48,85.23L89.34,84.89"/><path d="M90.83,85.84L90.86,83.70L91.31,83.60"/><path d="M92.02,85.58L92.06,83.44L92.53,83.33L94.05,84.60L94.07,83.00L94.53,82.90"/><path d="M93.58,93.04L93.64,89.31L94.84,89.05L96.05,91.39L96.29,91.89L96.58,91.23L97.86,88.39L99.04,88.13"/><path d="M96.47,84.61L96.50,82.47L98.64,82.00"/><path d="M98.38,82.99L96.94,83.30L96.81,82.96"/><path d="M98.18,92.03L98.24,88.88L98.11,88.53"/><path d="M99.18,84.02L99.22,81.87L100.61,81.57L101.37,81.52L101.60,81.67"/><path d="M99.52,82.37L99.66,82.71L100.51,82.52L101.00,82.35L101.22,82.02L101.09,81.68"/><path d="M100.64,91.50L100.71,87.76L102.09,87.46"/><path d="M101.91,83.42L101.40,82.95L101.06,82.73L100.82,82.68L100.73,82.45"/><path d="M101.34,88.88L101.47,89.22L101.89,89.13"/><path d="M101.95,83.41L102.77,81.90"/></g></g><g id="Actor_.10"><g style="stroke:#282828;stroke-width:0.106"><path d="M160.12,57.16L160.15,57.06L158.90,52.95"/><path d="M160.15,57.06L297.00,27.38"/></g><g style="stroke:#282828;stroke-width:0.353"><path d="M152.75,35.89L297.00,4.92"/><path d="M297.00,27.48L160.12,57.16L160.07,57.15L160.00,57.02L158.84,54.19"/></g></g><g id="Actor_.11"><g style="stroke:#282828;stroke-width:0.106"><path d="M73.53,17.99L73.53,17.99"/><path d="M73.54,16.95L73.67,16.61"/></g><g style="stroke:#282828;stroke-width:0.353"><path d="M73.57,16.35L73.54,16.95L73.53,17.99L74.81,21.33"/></g></g><g id="Actor_.12"><g style="stroke:#282828;stroke-width:0.106"><path d="M151.05,29.80L290.26,0.00"/></g><g style="stroke:#282828;stroke-width:0.353"><path d="M146.33,8.50L186.45,0.00"/><path d="M290.72,0.00L151.08,29.90"/></g></g><g id="Actor_.13"><g style="stroke:#282828;stroke-width:0.106"><path d="M84.22,44.33L84.28,38.87L83.56,36.30L83.36,33.69"/><path d="M101.94,51.26L101.10,51.15L97.78,50.31L94.66,49.11L91.82,47.57L89.30,45.73L87.18,43.64L85.49,41.33L84.28,38.87L84.72,38.47L84.02,35.95L83.83,33.40L84.14,30.85L84.95,28.38L86.24,26.03L87.98,23.86L90.13,21.92L92.14,20.57"/><path d="M84.72,38.47L85.91,40.88L87.57,43.14L89.65,45.20L92.11,47.00L94.91,48.51L97.96,49.68L101.21,50.50L101.79,50.58"/><path d="M92.43,37.13L91.99,36.92L91.46,34.84L91.44,32.73L91.94,30.66L91.99,30.55"/><path d="M91.90,33.07L91.96,32.81"/><path d="M91.99,36.92L93.02,38.89L94.52,40.69L96.42,42.26L98.68,43.54L100.42,44.20"/></g><g style="stroke:#282828;stroke-width:0.353"><path d="M92.15,20.41L89.80,21.98L87.60,23.96L85.83,26.18L84.51,28.57L83.68,31.10L83.36,33.69L83.31,39.16L83.51,41.77L84.22,44.33L85.43,46.80L87.11,49.10L89.23,51.19L91.74,53.03L94.58,54.57L97.69,55.77L100.99,56.61L103.14,56.89"/><path d="M91.90,33.07L91.92,35.11L92.43,37.13L93.43,39.04L94.88,40.79L96.73,42.31L98.91,43.55L100.40,44.11"/></g></g><g id="Actor_.14"><g style="stroke:#282828;stroke-width:0.106"><path d="M82.31,18.89L86.10,17.20L90.02,15.78L92.22,15.15"/></g><g style="stroke:#282828;stroke-width:0.353"><path d="M75.03,0.00L82.27,18.80L82.36,19.03L82.52,19.11L82.74,19.10L92.01,17.14L92.19,17.14"/></g></g><g id="Actor_.15"><g style="stroke:#282828;stroke-width:0.106"><path d="M49.69,51.99L49.53,51.48L67.45,100.07L67.62,100.59"/><path d="M49.53,51.48L49.40,51.05"/><path d="M49.19,50.00L49.09,48.93"/><path d="M49.16,49.60L49.02,30.45L49.04,30.19L49.12,30.11L49.25,30.24L49.38,30.55L67.49,79.29L67.63,79.74L67.76,80.29L67.85,80.82L67.87,81.23L68.27,81.82L68.59,82.09L68.98,82.30L69.43,82.45L69.89,82.52L70.34,82.52L70.76,82.46L72.11,82.17"/><path d="M49.38,30.55L49.55,29.93L50.03,29.34L50.74,28.86L51.59,28.56L69.74,77.30L71.09,77.01"/><path d="M49.02,30.45L48.95,29.81"/><path d="M50.89,27.39L51.04,27.49L51.21,27.73L51.39,28.09L51.59,28.56L52.92,28.28"/><path d="M67.45,100.07L67.59,100.39L67.72,100.54L67.80,100.47L67.83,100.22L67.87,81.23"/><path d="M67.49,79.29L67.65,78.70L67.86,78.39L68.15,78.09L68.51,77.81L68.92,77.59L69.34,77.41L69.74,77.30L69.94,77.89L70.14,78.54L70.31,79.24L70.40,79.63L70.47,79.96L70.59,80.66L70.69,81.33L70.74,81.94L70.76,82.46L70.69,101.45L72.02,101.16"/><path d="M67.83,100.22L68.22,100.82L68.54,101.08L68.93,101.29L69.37,101.44L69.83,101.51L70.28,101.51L70.69,101.45L70.67,101.85L70.61,102.14L70.51,102.29"/></g><g style="stroke:#282828;stroke-width:0.353"><path d="M70.11,102.34L70.51,102.29L71.82,102.01L71.97,101.75L72.02,101.16L72.11,82.17L72.06,81.29L71.99,80.74L71.92,80.23L71.70,79.09L71.41,77.98L71.09,77.01L52.92,28.28L52.61,27.58L52.34,27.18L52.12,27.13L50.89,27.39L50.37,27.56L49.99,27.76L49.64,28.05L49.36,28.42L49.09,28.96L48.99,29.38L48.96,29.57L48.95,29.81L49.09,48.93L49.10,49.24L49.19,50.00L49.27,50.52L49.40,51.05L49.58,51.68L49.69,51.99L67.71,100.85L67.83,101.09L67.94,101.25L68.21,101.60L68.68,101.99L69.10,102.20L69.54,102.32L69.97,102.35L70.27,102.32"/><path d="M50.89,27.39L50.67,27.46"/></g></g><g id="Actor_.16"><g style="stroke:#282828;stroke-width:0.106"><path d="M65.07,37.67L65.08,37.23L64.59,36.85L63.79,35.98L63.22,35.01L62.90,33.98L62.85,32.92"/><path d="M75.22,29.25L75.69,29.62L76.10,30.03L76.47,30.47L76.78,30.93L77.03,31.41L77.22,31.90L77.35,32.41L77.41,32.92L77.40,33.44L77.34,33.95L77.20,34.46L77.01,34.95L76.75,35.43L76.43,35.89L76.06,36.32L75.63,36.72L75.15,37.09L74.63,37.43L74.07,37.72L73.47,37.98L72.85,38.19L72.20,38.35L71.53,38.47L70.85,38.54L70.16,38.56L69.48,38.52L68.80,38.45L68.13,38.32L67.49,38.14L66.87,37.92L66.27,37.66L66.17,37.60L65.72,37.36L65.20,37.01L64.73,36.63L63.95,35.79L63.39,34.84L63.08,33.84L63.05,33.18L63.03,32.81L63.24,31.79L63.70,30.82L64.39,29.94L65.30,29.17L66.38,28.54L67.60,28.08L68.91,27.80L70.27,27.71L71.63,27.82L72.94,28.12L73.56,28.34L74.15,28.60L74.70,28.90L75.22,29.25L75.32,29.21"/><path d="M66.21,37.92L65.08,37.23L65.10,37.14L65.20,37.01"/><path d="M77.60,33.17L77.48,34.26L77.47,34.28L77.09,35.30L76.43,36.27L75.53,37.13L74.79,37.60L74.42,37.83L73.16,38.36L71.78,38.69L70.34,38.82L68.89,38.72L67.60,38.44L67.50,38.42L66.21,37.92"/><path d="M68.14,34.02L68.30,33.54L68.30,31.72L67.66,33.67"/><path d="M68.30,33.54L70.86,33.00L70.86,31.18L72.78,32.58"/><path d="M68.30,31.72L70.86,31.18"/><path d="M70.86,33.00L72.29,34.05"/><path d="M77.43,32.09L77.43,32.09"/><path d="M76.98,31.05L76.99,31.07"/></g><g style="stroke:#282828;stroke-width:0.353"><path d="M62.84,33.70L62.85,32.92L63.06,31.88L63.53,30.88L63.56,30.82L64.27,29.92L65.19,29.13L66.30,28.49L67.54,28.02L68.88,27.74L70.27,27.65L71.66,27.76L72.99,28.07L74.23,28.56L75.32,29.21L76.23,30.01L76.92,30.93L76.98,31.05L77.37,31.93L77.43,32.09L77.60,33.17L77.59,33.60"/><path d="M72.78,32.58L72.13,34.52L69.57,35.07L67.66,33.67"/></g></g><g id="Actor_.17"><g style="stroke:#282828;stroke-width:0.106"><path d="M73.00,59.94L73.06,61.01L73.39,62.07L73.97,63.05L74.78,63.94L75.27,64.33L75.27,64.77"/><path d="M81.11,65.66L80.41,65.68L79.72,65.65L79.04,65.57L78.36,65.44L77.71,65.26L77.08,65.04L76.48,64.77L75.92,64.46L75.40,64.11L74.93,63.73L74.13,62.86L73.57,61.90L73.25,60.87L73.19,59.82L73.21,59.72L73.40,58.79L73.86,57.80L74.56,56.89L75.47,56.11L76.56,55.47L77.78,55.00L79.11,54.71L80.48,54.62L81.86,54.73L83.18,55.04L83.80,55.26L84.40,55.53L84.96,55.84L85.48,56.18L85.58,56.15"/><path d="M76.42,65.03L75.27,64.33L75.30,64.24L75.40,64.11"/><path d="M76.42,65.03L77.72,65.54L79.13,65.85L79.79,65.89L80.59,65.94L82.04,65.82L83.44,65.48L84.71,64.94L85.33,64.54L85.83,64.22L86.73,63.35L87.39,62.36L87.79,61.29L87.90,60.18"/><path d="M77.86,60.70L78.51,58.72L78.50,60.53L78.33,61.04"/><path d="M78.50,60.53L81.08,59.97L81.10,58.16L83.03,59.59"/><path d="M78.51,58.72L81.10,58.16"/><path d="M81.11,65.66L81.79,65.59L82.46,65.47L83.12,65.30L83.75,65.09L84.36,64.83L84.92,64.53L85.45,64.19L85.93,63.81L86.36,63.40L86.73,62.96L87.05,62.49L87.31,62.00L87.51,61.50L87.55,61.34L87.64,60.98L87.71,60.46L87.71,59.93L87.68,59.72L87.64,59.41L87.52,58.89L87.32,58.39L87.07,57.90L86.75,57.43L86.38,56.98L85.96,56.57L85.48,56.18"/><path d="M81.08,59.97L82.55,61.06"/><path d="M87.27,58.02L87.28,58.04"/><path d="M87.73,59.08L87.72,59.08"/></g><g style="stroke:#282828;stroke-width:0.353"><path d="M73.14,61.61L73.14,61.60"/><path d="M87.89,60.61L87.90,60.18L87.72,59.08L87.66,58.92L87.27,58.02L87.20,57.90L86.50,56.97L85.58,56.15L84.48,55.48L83.23,54.98L81.88,54.67L80.48,54.56L79.08,54.65L77.73,54.94L76.47,55.42L75.36,56.07L74.43,56.88L73.72,57.80L73.69,57.86L73.22,58.87L73.00,59.94L72.99,60.72"/><path d="M77.86,60.70L79.80,62.13L82.39,61.57L83.03,59.59"/></g></g><g id="Actor_.18"><g style="stroke:#282828;stroke-width:0.106"><path d="M54.27,28.00L52.92,28.28L55.56,35.39"/><path d="M52.92,28.28L52.61,27.58L52.34,27.18L52.12,27.13"/><path d="M58.28,42.65L65.60,62.28"/><path d="M68.40,69.80L71.09,77.01L104.47,69.77"/><path d="M71.82,102.01L71.97,101.75L72.03,101.15L72.05,94.97L80.98,93.02"/><path d="M103.12,75.42L72.11,82.17L72.06,81.29L71.92,80.23L71.70,79.09L71.41,77.98L71.09,77.01"/><path d="M72.03,101.15L81.57,99.06"/><path d="M72.06,92.96L80.99,91.01"/><path d="M81.01,89.52L72.07,91.47"/><path d="M72.08,88.48L72.08,88.44L81.04,86.49"/><path d="M72.08,88.44L72.11,82.17"/><path d="M186.36,0.00L146.32,8.49"/><path d="M157.88,58.18L297.00,28.00"/><path d="M186.16,57.37L181.54,58.37"/><path d="M183.84,64.07L185.21,63.77"/><path d="M184.75,66.87L184.56,66.91"/><path d="M297.00,45.78L199.42,67.12"/><path d="M199.68,73.17L297.00,51.83"/><path d="M199.75,65.07L297.00,43.82"/><path d="M199.99,63.54L297.00,42.36"/><path d="M200.49,60.44L297.00,39.40"/><path d="M297.00,33.27L200.17,54.32"/></g><g style="stroke:#282828;stroke-width:0.353"><path d="M54.94,26.53L52.12,27.13"/><path d="M71.82,102.01L100.61,95.70"/><path d="M81.01,89.17L72.07,91.13"/><path d="M81.03,86.78L72.08,88.74"/><path d="M146.05,7.24L180.20,0.00"/><path d="M185.16,64.08L183.91,64.35"/><path d="M184.80,66.52L184.48,66.59"/><path d="M199.80,73.94L297.00,52.62"/><path d="M296.99,42.03L200.05,63.19"/><path d="M200.44,60.75L297.00,39.69"/></g></g><g id="Actor_.19"><g style="stroke:#282828;stroke-width:0.106"><path d="M54.22,28.17L54.39,29.25L54.41,32.28"/><path d="M54.39,29.25L69.56,69.87L69.55,72.88"/><path d="M72.25,39.07L72.50,39.13L70.52,39.37L68.52,39.23L66.62,38.74L64.93,37.93L63.55,36.83L62.56,35.51L62.01,34.06L61.94,32.55L62.35,31.08L63.22,29.72L64.50,28.57L66.10,27.67L67.94,27.09L68.10,27.91"/><path d="M67.94,27.09L69.92,26.86L71.91,26.99L73.80,27.48L75.49,28.29L76.87,29.38L77.86,30.69L78.42,32.14L78.49,33.65L78.09,35.12L77.23,36.48L75.96,37.65L74.35,38.55L72.50,39.13"/><path d="M69.56,69.87L70.18,70.89L71.18,71.70L72.46,72.25L73.90,72.47L75.36,72.33L75.33,75.35"/><path d="M82.51,66.19L82.78,66.27L80.78,66.51L78.76,66.38L76.84,65.88L75.13,65.04L73.73,63.93L72.72,62.59L72.17,61.10L72.09,59.57L72.50,58.06L73.37,56.68L74.66,55.50L76.27,54.58L78.13,53.99L78.29,54.82"/><path d="M104.86,65.94L75.36,72.33"/><path d="M78.13,53.99L80.12,53.76L82.13,53.89L84.04,54.39L85.75,55.21L87.15,56.32L88.16,57.66L88.72,59.14L88.81,60.67L88.41,62.18L87.54,63.57L86.26,64.76L84.64,65.67L82.78,66.27"/><path d="M158.96,51.68L158.72,52.76L158.04,53.72L157.01,54.47L156.93,54.50"/></g><g style="stroke:#282828;stroke-width:0.353"><path d="M92.19,17.65L57.58,24.98L56.27,25.43L55.21,26.16L54.51,27.11L54.23,28.17L54.24,31.20L54.41,32.28L69.55,72.88L70.17,73.90L71.17,74.72L72.44,75.26L73.88,75.48L75.33,75.35L104.73,68.97"/><path d="M152.00,34.04L158.75,50.59L158.96,51.68L158.81,54.69L158.57,55.77L157.90,56.74L157.57,56.97"/></g></g><g id="Actor_.20"><g style="stroke:#282828;stroke-width:0.106"><path d="M62.40,0.00L70.83,22.17"/><path d="M64.79,0.00L73.07,21.70"/><path d="M74.69,21.35L66.53,0.00"/><path d="M69.77,0.00L77.71,20.72"/><path d="M79.71,20.29L79.84,20.18L80.82,19.63L81.91,19.28L74.49,0.00"/><path d="M81.91,19.28L91.13,17.33L91.79,17.31L92.19,17.50"/></g><g style="stroke:#282828;stroke-width:0.353"><path d="M70.74,22.19L62.30,0.00"/><path d="M67.33,0.00L75.43,21.20"/><path d="M92.19,17.33L92.12,17.14"/></g></g><g id="Actor_.21"><g style="stroke:#282828;stroke-width:0.106"><path d="M159.05,167.00L158.96,155.94L149.43,158.67L142.14,163.63L140.08,167.00"/><path d="M158.96,155.94L169.31,155.83L178.93,158.36L186.39,163.16L188.90,167.00"/></g><g style="stroke:#282828;stroke-width:0.353"><path d="M190.40,167.00L187.54,162.63L179.68,157.58L169.56,154.92L158.68,155.04L148.65,157.91L140.97,163.13L138.60,167.00"/></g></g><g id="Actor_.22"><g style="stroke:#282828;stroke-width:0.106"><path d="M156.59,155.64L143.55,97.02"/></g><g style="stroke:#282828;stroke-width:0.353"><path d="M126.53,167.00L115.33,114.01"/><path d="M180.30,157.98L168.09,105.51L167.10,101.83"/></g></g><g id="Actor_.23"><g style="stroke:#282828;stroke-width:0.106"><path d="M101.67,90.96L101.19,91.63L101.16,95.21L101.77,96.12"/><path d="M102.64,103.08L103.21,98.44L109.42,103.72L108.84,108.36L102.64,103.08"/><path d="M102.16,97.34L103.21,98.44L103.25,98.32L103.31,98.37"/><path d="M103.25,98.32L103.23,98.28"/><path d="M103.10,78.95L105.23,82.11L111.53,87.44L111.77,85.76L112.18,82.66L112.81,83.24L113.75,84.32L115.26,86.57L117.57,91.38L119.27,96.31L120.59,101.42L118.62,103.09L115.69,106.70L114.51,110.17L114.71,111.10"/><path d="M105.25,82.18L105.23,82.11L105.83,77.29L103.44,72.91"/><path d="M104.59,99.46L108.70,102.95"/><path d="M120.59,101.42L123.13,99.67L121.78,95.52L119.39,90.77L116.37,86.24L114.59,84.06L113.56,82.98L112.48,81.98L112.29,82.33L112.18,82.66L105.83,77.29"/><path d="M109.72,74.31L110.28,69.87L110.22,69.22L107.37,71.30L108.05,74.60L111.58,75.81L111.46,75.61"/><path d="M107.80,71.68L110.28,69.87L110.82,70.05L113.35,70.92L113.94,73.79"/><path d="M110.44,103.89L110.56,104.06L110.21,104.21L109.42,103.72L109.52,103.43L109.78,103.12L108.99,102.45"/><path d="M109.69,79.62L112.48,81.98L113.19,80.83L110.54,78.59"/><path d="M110.56,104.06L111.08,96.61L111.32,97.31L112.66,102.05L114.51,110.17L114.67,111.18"/><path d="M110.60,102.07L109.78,103.12L110.30,103.50L110.48,103.46"/><path d="M110.22,69.22L113.75,70.43L114.43,73.73L111.58,75.81"/><path d="M111.08,96.61L112.51,89.19L112.28,88.31"/><path d="M123.13,99.67L125.59,98.27L124.75,95.62L123.56,93.13L120.66,88.72L117.18,84.63L113.19,80.83L113.46,80.43L111.24,78.56"/><path d="M112.68,110.74L114.48,111.59"/><path d="M125.59,98.27L128.74,96.79L127.89,94.32L126.02,91.29L123.52,88.46L121.99,87.04L120.56,85.82L117.22,83.24L113.84,80.74L113.46,80.43L116.45,76.65"/><path d="M115.83,116.37L115.18,114.32"/><path d="M114.40,114.43L117.04,108.83L123.52,103.46L132.87,99.16L143.63,96.61L154.12,96.21L162.70,98.01L168.05,101.72L169.39,106.74"/><path d="M115.27,114.15L115.55,115.04"/><path d="M116.64,106.99L123.12,101.62L132.44,97.32L143.22,94.76L153.71,94.37L162.28,96.17L167.63,99.89"/><path d="M117.28,105.81L123.52,100.63L132.52,96.48L142.88,94.02L152.98,93.64L161.25,95.39L166.41,98.97"/><path d="M116.61,76.49L117.58,75.26"/><path d="M117.88,74.82L120.24,71.84L118.45,70.69L118.28,70.15L120.49,71.56L120.24,71.84L125.47,75.05L127.81,76.38L132.80,77.37L138.99,76.51L142.65,92.97L135.45,94.46L128.74,96.79"/><path d="M117.72,69.75L118.21,73.99"/><path d="M118.40,73.50L118.59,72.10L118.45,70.69"/><path d="M118.28,70.15L117.79,69.27"/><path d="M118.02,69.07L121.10,71.05L121.31,71.08L121.39,71.13"/><path d="M137.80,75.59L138.61,75.46L138.86,76.13L132.93,76.91L127.34,75.76L120.49,71.56"/><path d="M121.10,71.05L125.22,73.59"/><path d="M133.11,76.24L132.37,76.30L131.09,76.12"/><path d="M138.99,76.51L139.14,76.40L138.86,76.13L142.52,75.70L144.91,75.57L147.64,75.59L148.63,75.63L150.00,75.56L153.36,73.68"/><path d="M139.14,76.40L144.49,75.92L149.80,75.94L153.64,73.90"/><path d="M142.65,92.97L150.44,92.49L157.37,93.25L156.65,87.81L157.88,81.75L161.40,76.74L166.39,73.92L167.29,74.32L168.10,74.82L168.91,75.97L167.88,83.47L167.32,83.75L166.67,84.25L165.80,85.68L165.47,87.54L165.48,89.41L165.69,90.87"/><path d="M147.39,75.00L151.03,74.18L151.85,70.89L151.40,71.12L150.93,71.51L150.25,74.27"/><path d="M150.56,74.19L151.40,71.12L151.29,70.66L150.82,71.02L150.81,70.88L150.86,70.75"/><path d="M150.72,71.15L150.77,71.06L150.82,71.02L150.93,71.51L150.82,71.72"/><path d="M151.60,70.18L151.74,70.40L151.29,70.66L151.42,70.30"/><path d="M150.94,70.67L150.88,70.73"/><path d="M152.83,69.69L151.74,70.40L151.85,70.89"/><path d="M153.67,69.55L153.62,73.06"/><path d="M154.15,69.48L166.39,73.92L174.12,70.74L174.51,70.90"/><path d="M157.37,93.25L160.11,94.01L165.96,97.68"/><path d="M160.11,94.01L159.46,89.64L159.45,89.26L159.84,85.88L160.32,84.26L160.84,83.00L162.47,80.36L163.56,79.16L164.87,78.06L166.39,77.11L168.15,76.29L174.52,73.67L174.74,73.28"/><path d="M163.56,67.96L163.87,67.91L163.82,65.84"/><path d="M163.87,67.91L163.58,67.80"/><path d="M166.27,95.14L167.88,83.47"/><path d="M173.31,67.20L174.12,70.74L174.47,72.36L174.52,73.67L171.66,93.86L166.43,96.02"/><path d="M168.15,105.77L168.26,105.55"/><path d="M168.75,66.69L168.50,66.72L167.86,65.29"/><path d="M168.61,106.85L168.47,107.13"/><path d="M168.50,66.72L168.63,66.62"/></g><g style="stroke:#282828;stroke-width:0.353"><path d="M112.68,110.74L108.84,108.36L102.64,103.08L102.13,102.61L100.28,98.34L100.85,93.80L101.16,95.21L102.16,97.34"/><path d="M100.85,93.80L101.19,91.63L101.72,90.52"/><path d="M118.21,69.11L115.14,67.15L113.40,66.31L111.50,65.90L109.55,65.93L104.94,68.33L103.44,72.91L103.12,75.31L103.10,78.95L103.13,79.03L105.25,82.18L105.61,82.48"/><path d="M112.28,88.31L111.53,87.45L110.78,86.86L105.94,82.76"/><path d="M113.94,73.79L111.46,75.61L108.39,74.55L107.80,71.68"/><path d="M110.70,109.69L109.75,109.17L108.84,108.36"/><path d="M108.70,102.95L108.99,102.45L110.51,100.53"/><path d="M118.40,73.50L117.89,74.82L116.94,76.16L116.45,76.65L114.93,77.68L113.16,78.33L111.24,78.56L110.31,78.61L109.69,79.62L109.39,80.31"/><path d="M116.55,119.79L115.96,119.40L114.40,114.43L114.01,112.60L114.42,111.70L112.73,110.87L110.95,109.96L110.49,109.57"/><path d="M112.41,88.87L111.08,96.61L110.44,103.89"/><path d="M114.57,111.39L114.26,110.03L112.93,105.45"/><path d="M112.51,89.19L112.22,88.23"/><path d="M115.18,114.32L117.75,108.88L124.05,103.66L133.13,99.49L143.58,97.01L153.77,96.62L162.10,98.37L167.30,101.97L168.61,106.85"/><path d="M114.42,111.70L116.64,106.99L117.28,105.81"/><path d="M117.72,69.75L117.79,69.27L118.02,69.07L118.22,69.12L121.31,71.08L127.01,74.36"/><path d="M125.23,73.59L132.93,76.91"/><path d="M147.39,75.01L138.61,75.46L137.71,75.47L133.70,76.07L130.46,75.85"/><path d="M137.80,75.59L133.11,76.24"/><path d="M147.18,75.02L150.56,74.19"/><path d="M151.89,69.99L151.42,70.30L150.94,70.67L150.81,70.79L150.73,70.96L150.72,71.25L150.82,71.72L150.23,74.28"/><path d="M153.97,69.50L153.64,73.90L153.99,72.49"/><path d="M153.71,72.83L153.36,73.68"/><path d="M165.96,97.66L166.40,98.97L167.63,99.89L168.97,104.92L169.39,106.74L168.70,108.11"/><path d="M166.96,99.38L166.71,97.70L165.99,93.49L165.69,90.87L165.47,87.54"/><path d="M167.15,88.78L165.67,90.53"/><path d="M173.62,67.04L174.51,70.90L174.72,72.22L174.74,73.28L171.88,93.47L171.66,93.86L171.40,94.06L166.43,96.07"/></g></g><g id="Actor_.24"><g style="stroke:#282828;stroke-width:0.106"><path d="M106.61,124.23L107.77,123.33L109.49,123.38L109.63,121.15L110.84,119.10L111.07,118.86L110.27,118.19L109.52,117.28L114.10,113.05"/><path d="M111.87,133.84L111.63,133.44L109.91,133.39L108.74,134.28"/><path d="M109.49,123.38L109.73,123.79"/><path d="M111.42,118.96L111.07,118.86"/><path d="M113.84,138.83L115.64,138.55L116.53,138.20L115.86,137.44L115.41,136.32L119.63,134.34"/><path d="M115.41,136.32L115.36,135.92L115.94,135.45"/><path d="M116.97,138.24L116.53,138.20"/></g><g style="stroke:#282828;stroke-width:0.353"><path d="M110.39,137.15L108.74,134.28L106.61,124.23L107.10,120.72L107.08,120.64L108.88,117.02L109.63,116.73L109.52,117.28L109.49,117.93"/><path d="M120.14,136.75L116.97,138.24L115.64,138.55L114.38,138.84L113.84,138.83L112.15,138.53L110.70,137.69L109.62,136.37L109.00,134.73"/><path d="M112.09,134.53L111.87,133.84L109.73,123.79L109.63,121.15"/><path d="M109.64,121.33L111.07,118.90L111.42,118.96L114.83,115.80"/><path d="M109.63,116.73L114.22,112.14"/><path d="M111.63,133.44L111.99,134.40L112.61,135.16L113.44,135.64L114.40,135.81L115.43,135.65L115.94,135.45L119.48,133.63"/></g></g><g/><g><g/><g><path style="stroke:#000000;stroke-width:0.250;fill:#ffffff" d="M283.63,156.86L292.71,156.86L292.71,163.07L283.63,163.07z"/><text xml:space="preserve" fill="#000000" stroke-width="0" x="284.41" y="161.13" font-size="3.66" opacity="1.00" font-family="MS Shell Dlg">Next</text></g></g><g><g/><g><path style="stroke:#000000;stroke-width:0.250;fill:#ffffff" d="M4.53,157.80L14.24,157.80L14.24,164.01L4.53,164.01z"/><text xml:space="preserve" fill="#000000" stroke-width="0" x="5.30" y="162.07" font-size="3.67" opacity="1.00" font-family="MS Shell Dlg">Back</text></g></g><g><g/><g><path style="stroke:#000000;stroke-width:0.250;fill:#ffffff" d="M4.79,4.31L175.76,4.31L175.76,12.21L4.79,12.21z"/><text xml:space="preserve" fill="#000000" stroke-width="0" x="5.78" y="9.74" font-size="4.85" opacity="1.00" font-family="MS Shell Dlg">With the MFF mounted BB down on the jig, take a FF and offer it up to the MFF</text></g></g><g id="paperID" visibility="hidden" opacity="0.00" transform="scale(0.000100)"><path style="stroke:#000000;stroke-width:0.500;fill:#e6e6e6;fill-rule:evenodd" d="M-2000.00,-2000.00L2297.00,-2000.00L2297.00,2167.00L-2000.00,2167.00zM0.00,0.00L297.00,0.00L297.00,167.00L0.00,167.00z"/><path style="fill:#000000;fill-opacity:0.118" d="M3.00,167.00L297.00,167.00L297.00,3.00L300.00,3.00L300.00,170.00L3.00,170.00z"/></g><g id="hotspot.0" ident="" onmouseover="ShowHotSpot(evt,&apos;0&apos;)" onmouseout="HideHotSpot(evt,&apos;0&apos;)" onmousemove="ShowToolTip(evt,&apos;0&apos;,&quot;2D Text 1&quot;)" opacity="0"><a xlink:href="v5.svg"><path style="fill:#00ff00;fill-rule:evenodd" d="M293.03,156.65L293.04,163.43L283.44,163.34L283.35,156.64z"/></a></g><g id="ToolTip" visibility="hidden" opacity="0" transform="translate(0,0)"><rect id="ToolTipShadow" opacity="0.20" fill="black" stroke="none" x="0" y="0" width="30" height="8"/><rect id="ToolTipBG" fill="#ffffe1" stroke="black" x="0" y="0" width="30" height="8"/><text xml:space="preserve" id="ToolTipText" fill="black" x="0" y="0" width="30" height="8">tooltip</text></g></g></svg>