<?xml version="1.0" encoding="UTF-8" standalone="yes"?><svg xmlns="http://www.w3.org/2000/svg" xmlns:xlink="http://www.w3.org/1999/xlink" width="297.000mm" height="167.000mm" viewBox="0.000000 0.000000 297.000000 167.000000" stroke-linejoin="round" stroke-linecap="round" fill="none" fill-rule="evenodd"><desc>Composer Export</desc><script type="text/ecmascript"><![CDATA[
if(typeof(top) != "undefined")
{
	top.ShowPaper = ShowPaper;
}
function ShowHotSpot(evt,hotspotid)
{
	var svgDocument = evt.target.ownerDocument;
	var strId = "hotspot."+hotspotid;
	var hotspot = svgDocument.getElementById(strId);
	if(hotspot)
		hotspot.setAttribute("opacity",".5");
}
function HideHotSpot(evt,hotspotid)
{
	var svgDocument = evt.target.ownerDocument;
	var strId = "hotspot."+hotspotid;
	var hotspot = svgDocument.getElementById(strId);
	if(hotspot)
		hotspot.setAttribute("opacity","0");

	var toolTip = svgDocument.getElementById('ToolTip');
	if(toolTip)
		toolTip.setAttribute("visibility","hidden");
}
function ShowToolTip(evt,hotspotid,strTooltip)
{
	if(strTooltip=="")
	return;

	// change text
	var svgDocument = evt.target.ownerDocument;
	var tiptext = svgDocument.getElementById('ToolTipText');
	if( !tiptext )
	return;
	tiptext.firstChild.nodeValue = " " + strTooltip + "  " ;

	// show tooltip before, else some refresh issue

	var toolTip = svgDocument.getElementById('ToolTip');
	if(!toolTip)
	return;

	toolTip.setAttribute("visibility","visible");
	toolTip.setAttribute("opacity",".95");

	// move tooltip
	// get viewbox

	var root = svgDocument.documentElement;
	var vbox = (root.getAttribute("viewBox")).split(' ');
	var x0 = parseFloat(vbox[0]);
	var y0 = parseFloat(vbox[1]);
	var vboxW = parseFloat(vbox[2]);
	var vboxH = parseFloat(vbox[3]);

	// get default width of svg

	var strW = root.getAttribute("width");
	var svgW = parseFloat(strW);
	if(strW.indexOf('mm') != -1)
	svgW *= 3.779;

	var strH = root.getAttribute("height");
	var svgH = parseFloat(strH);
	if(strH.indexOf('mm') != -1)
	svgH *= 3.779;  	// 96 dpi  -> 96/25.4 = 3.779

	// update the viewbox / width / height if svg is embedded in html with zoom fit all
	var realx0 = x0;
	var realy0 = y0;
	var realvboxW = vboxW;
	var realvboxH = vboxH;
	var realsvgW = svgW;
	var realsvgH = svgH;

	if ((typeof(top) == "undefined") || (typeof(top.svgctl1) != "undefined")) // embedded in html
	{
		// get window size in pxl

		svgW = window.innerWidth;
		svgH = window.innerHeight;

		// calculate real viewbox

		realsvgW = svgW;
		realsvgH = svgH;
		if((svgW / svgH) > (vboxW / vboxH))
		{
			realvboxW = (vboxH * svgW) / svgH;
			realvboxH = vboxH;
			realx0 = x0 - (realvboxW - vboxW)/2 ;
		}
		else
		{
			realvboxH = (vboxW * svgH) / svgW;
			realvboxW = vboxW;
			realy0 = y0 - (realvboxH - vboxH)/2 ;
		}
	}

	// get user zoom/pan

	var newScale = root.currentScale;
	var translation = root.currentTranslate;

	// transform pxl to user unit

	var xPos = (((evt.clientX+10- translation.x)/newScale) * realvboxW)/realsvgW  + realx0 ;
	var yPos = (((evt.clientY+5- translation.y)/newScale) * realvboxH)/ realsvgH  + realy0 ;
	var scaleForWidth = ( (1 / newScale) * realvboxH) / realsvgH;

	// move tooltip

	toolTip.setAttribute("transform", "translate(" + xPos + "," + yPos + ")" );

	// resize tooltip

	var fontsize = 12;
	tiptext.setAttribute("font-size",fontsize*scaleForWidth);
	tiptext.setAttribute("y", fontsize*scaleForWidth);
	var tipBG = svgDocument.getElementById('ToolTipBG');
	var outline = tiptext.getBBox();
	if(tipBG)
	{
		tipBG.setAttribute("stroke-width", 1*scaleForWidth);
		tipBG.setAttribute("width", Number(outline.width) );
		tipBG.setAttribute("height", Number(outline.height) + fontsize*.5*scaleForWidth );
	}
	var ToolTipShadow = svgDocument.getElementById('ToolTipShadow');
	if(ToolTipShadow)
	{
		ToolTipShadow.setAttribute("width", Number(outline.width) );
		ToolTipShadow.setAttribute("height", Number(outline.height) + fontsize*.5*scaleForWidth );
		ToolTipShadow.setAttribute("x", 3*scaleForWidth);
		ToolTipShadow.setAttribute("y", 3*scaleForWidth);
	}
}
function ShowPaper()
{
  var svgDocument = getDocument();
  var paper = svgDocument.getElementById("paperID");
  if(paper)
  {
    paper.setAttribute("transform","scale(1)");
    paper.setAttribute("opacity","1");
    paper.setAttribute("visibility","visible");
  }
  var svg = svgDocument.getRootElement();
  if(svg)
  {
    svg.setAttribute("width","307.000mm");
    svg.setAttribute("height","177.000mm");
    svg.setAttribute("viewBox","-5.000000 -5.000000 307.000000 177.000000");
  }
}
]]></script><defs><mask id="mask0" x="0" y="0" height="100%" width="100%"><image x="196.102295" y="23.187279" height="96.672577" width="96.672577" xlink:href="DEMO FFF SVG_files/9c0b218f9f428d11_mask_0.jpg"/></mask></defs><g><path style="fill:#ffffff" d="M15.69,74.57L17.23,74.99L39.37,81.86L38.07,83.38L35.92,86.67L34.24,90.31L34.14,90.34L33.99,90.63L33.91,90.79L33.74,90.89L32.92,92.80L32.62,94.15L32.53,94.63L31.90,97.82L31.80,98.10L31.09,101.82L30.62,105.67L30.46,108.23L30.46,112.71L30.54,114.48L30.62,116.39L30.70,118.32L30.78,120.23L30.86,122.16L30.94,123.91L31.02,125.85L31.10,127.76L31.18,129.69L31.26,131.44L31.34,133.37L31.42,135.28L31.50,137.21L31.58,139.12L31.66,140.90L31.74,142.81L31.82,144.74L31.90,146.65L31.98,148.58L32.06,150.33L32.14,152.26L32.22,154.17L32.30,156.10L32.38,157.86L32.46,159.79L32.54,161.70L32.62,163.63L32.70,165.54L32.63,166.02L31.06,165.73L30.63,165.75L29.67,166.24L29.14,166.96L0.05,166.94L0.03,70.92z"/><path style="fill:#7f7f7f" d="M48.35,84.53L48.60,84.77L48.97,84.83L49.12,84.85L49.34,84.98L50.30,85.35L50.37,85.62L49.68,86.18L48.79,87.38L47.66,89.28L46.37,92.64L45.52,96.28L45.20,100.44L45.42,103.32L45.73,105.09L46.55,107.47L47.35,108.75L48.45,109.57L50.27,110.02L52.36,110.34L52.36,110.43L51.77,110.68L50.95,111.31L50.01,112.45L48.78,114.58L47.65,117.14L46.64,121.25L46.38,123.54L46.37,128.14L46.53,129.58L46.85,130.86L47.33,132.30L48.15,133.73L49.26,134.70L50.75,135.16L57.80,136.28L64.69,137.40L64.81,139.45L64.88,141.69L64.97,143.78L65.13,145.06L36.93,166.45L36.35,166.96L32.82,166.96L32.76,165.60L32.70,165.54L32.62,163.63L32.60,161.76L32.54,161.70L32.46,159.79L32.44,157.92L32.38,157.86L32.30,156.10L32.28,154.23L32.22,154.17L32.14,152.26L32.12,150.39L32.06,150.33L31.98,148.58L31.96,146.71L31.90,146.65L31.82,144.74L31.80,142.87L31.74,142.81L31.66,140.90L31.64,139.18L31.58,139.12L31.50,137.21L31.48,135.34L31.42,135.28L31.34,133.37L31.32,131.50L31.26,131.44L31.18,129.69L31.16,127.82L31.10,127.76L31.02,125.85L31.00,123.97L30.94,123.91L30.86,122.16L30.84,120.29L30.78,120.23L30.70,118.32L30.68,116.45L30.62,116.39L30.54,114.48L30.52,112.77L30.46,112.71L30.46,108.23L30.62,105.67L31.09,101.82L31.80,98.10L31.90,97.82L32.53,94.63L32.78,94.73L32.79,94.48L33.36,92.60L33.93,90.93L33.91,90.79L33.99,90.63L34.25,90.45L34.24,90.31L35.92,86.67L38.07,83.38L39.37,81.86z"/><path style="fill:#c8cfee" d="M67.41,144.22L37.31,166.96L36.35,166.96L36.93,166.45L65.13,145.06L66.29,144.23z"/><path style="fill:#4c4c4c" d="M78.29,143.00L81.60,143.51L84.00,144.15L88.32,145.75L90.31,146.83L90.54,147.05L90.78,147.09L91.20,147.36L91.27,147.72L90.98,147.83L67.19,166.29L66.45,166.96L37.31,166.96L67.41,144.22L68.53,143.58L68.86,143.49L71.09,143.10L72.68,142.93L75.88,142.85z"/><path style="fill:#c8cfee" d="M95.69,148.47L97.51,148.86L97.29,149.00L74.87,166.45L74.29,166.96L66.45,166.96L67.19,166.29L90.98,147.83L91.27,147.72z"/><path style="fill:#4c4c4c" d="M107.91,147.73L111.70,148.30L114.58,149.11L117.14,150.08L120.75,151.77L121.46,152.29L121.39,152.55L121.25,152.62L120.56,153.19L120.25,153.35L119.43,153.50L119.15,153.58L118.51,154.98L118.36,154.87L103.27,166.96L74.29,166.96L74.87,166.45L97.29,149.00L97.51,148.86L98.30,148.38L98.74,148.36L98.82,148.26L99.91,148.06L100.92,147.83L102.30,147.74L106.14,147.65z"/><path style="fill:#ffffff" d="M0.16,20.69L0.03,20.66L0.05,0.05L296.94,0.05L296.96,132.25L296.87,132.26L296.79,131.76L296.78,131.34L296.70,131.29L296.63,130.95L296.62,130.54L296.54,130.49L296.47,130.00L296.46,129.58L296.38,129.53L296.31,129.04L296.30,128.62L296.22,128.57L296.15,128.08L296.14,127.66L296.06,127.61L295.99,127.12L295.97,126.70L295.90,126.64L295.67,125.36L295.66,124.94L295.58,124.88L295.51,124.39L295.50,123.98L295.42,123.92L295.35,123.43L295.34,123.02L295.26,122.96L295.19,122.47L295.18,122.06L295.10,122.00L295.03,121.51L295.02,121.10L294.94,121.05L294.87,120.71L294.86,120.30L294.78,120.24L294.71,119.75L294.70,119.33L294.62,119.28L294.55,118.79L294.54,118.37L294.46,118.32L294.39,117.83L294.38,117.41L294.30,117.36L294.23,116.87L294.21,116.45L294.14,116.40L293.91,115.12L293.90,114.69L293.82,114.64L293.75,114.15L293.74,113.73L293.66,113.68L293.59,113.19L293.58,112.77L293.50,112.72L293.43,112.23L293.42,111.81L293.34,111.76L293.27,111.27L293.26,110.85L293.18,110.80L293.11,110.46L293.09,110.05L293.02,110.00L292.95,109.50L292.93,109.09L292.86,109.03L292.79,108.54L292.77,108.13L292.70,108.07L292.63,107.58L292.61,107.17L292.54,107.11L292.47,106.62L292.45,106.21L292.38,106.15L292.15,104.87L292.13,104.44L292.06,104.39L291.99,103.90L291.97,103.48L291.90,103.43L291.83,102.94L291.81,102.52L291.74,102.47L291.67,101.98L291.65,101.56L291.58,101.51L291.51,101.02L291.50,100.60L291.42,100.55L291.35,100.21L291.33,99.80L291.26,99.75L291.19,99.26L291.17,98.84L291.10,98.79L291.03,98.30L291.01,97.88L290.94,97.83L290.87,97.34L290.85,96.92L290.78,96.87L290.71,96.38L290.69,95.96L290.62,95.90L290.39,94.62L290.37,94.20L290.30,94.15L290.23,93.65L290.21,93.24L290.14,93.18L290.07,92.69L290.05,92.28L289.98,92.22L289.57,90.67L288.92,89.08L286.84,88.28L284.19,87.37L278.57,86.97L277.30,86.90L275.53,86.90L267.05,87.54L265.14,87.86L260.01,88.83L256.69,89.39L248.10,92.00L241.17,95.31L238.18,98.25L238.10,98.62L238.20,99.10L238.27,99.59L238.36,100.05L238.43,100.39L238.52,100.86L238.59,101.35L238.68,101.82L238.76,102.31L238.69,102.63L187.58,83.47L186.32,82.61L186.62,80.96L186.31,76.89L184.56,73.52L184.02,73.11L183.27,69.21L181.68,67.28L181.13,66.65L182.95,53.85L182.79,52.24L181.51,50.16L180.07,49.20L179.26,49.05L177.92,49.04L171.10,53.11L170.28,55.01L169.29,61.86L168.53,61.85L167.73,61.70L166.24,61.70L164.97,62.02L162.24,63.14L159.42,64.64L158.46,65.60L158.02,66.73L154.55,67.46L148.09,67.44L142.65,66.48L135.76,64.37L135.46,64.04L132.19,61.85L130.91,61.36L129.25,61.70L128.50,61.54L72.31,40.40L59.18,35.76L32.18,27.66L31.70,27.57L7.04,21.97L3.85,21.26L0.64,20.78L0.58,20.71z"/><path style="fill:#c8cfee" d="M118.51,154.98L118.10,156.36L117.67,156.92L117.58,156.96L117.59,157.64L117.68,157.68L117.78,158.55L119.08,159.98L120.99,161.12L123.91,162.06L125.05,162.21L125.20,162.37L125.15,164.70L124.99,165.01L122.80,166.96L103.27,166.96L118.36,154.87z"/><path style="fill:#000020" d="M90.31,146.83L90.81,146.97L90.78,147.09L90.54,147.05z"/><path style="fill:#fffe02" d="M32.63,166.02L32.66,166.96L29.14,166.96L29.67,166.24L30.63,165.75L31.06,165.73z"/><path style="fill:#404040" d="M72.19,93.95L72.08,94.78L72.08,97.83L71.85,100.23L71.76,100.69L71.35,102.89L70.39,105.93L69.11,108.66L68.10,110.04L67.20,111.07L66.46,111.65L66.01,111.81L66.43,111.87L68.05,112.10L69.75,112.45L70.71,113.09L71.67,114.37L72.31,115.97L72.72,117.84L72.81,118.31L72.88,118.95L72.97,119.76L72.97,123.11L72.82,125.04L72.72,125.51L72.31,127.87L71.35,131.07L70.23,133.47L69.11,135.23L67.92,136.45L66.81,137.25L65.65,137.50L65.31,137.49L64.69,137.40L57.80,136.28L50.75,135.16L49.26,134.70L48.15,133.73L47.33,132.30L46.85,130.86L46.53,129.58L46.37,128.14L46.38,123.54L46.64,121.25L47.65,117.14L48.78,114.58L50.01,112.45L50.95,111.31L51.77,110.68L52.36,110.43L52.80,110.36L52.36,110.34L50.27,110.02L48.45,109.57L47.35,108.75L46.55,107.47L45.73,105.09L45.42,103.32L45.20,100.44L45.52,96.28L46.37,92.64L47.66,89.28L48.79,87.38L49.68,86.18L50.37,85.62L50.30,85.35z"/><path style="fill:#404040" d="M98.31,148.13L98.30,148.38L97.51,148.86L95.69,148.47L91.27,147.72L91.20,147.36L90.78,147.09L90.81,146.97z"/><path style="fill:#404040" d="M122.80,152.06L123.71,152.31L124.23,152.70L122.33,152.88L121.39,152.55L121.46,152.29L120.75,151.77L121.19,151.81z"/><path style="fill:#404040" d="M125.95,162.98L126.04,165.86L126.00,166.96L122.80,166.96L124.99,165.01L125.15,164.70L125.20,162.37L125.52,162.29L125.84,162.38z"/><path style="fill:#c0c0c0" d="M0.64,20.78L3.85,21.26L7.04,21.97L31.70,27.57L32.18,27.66L59.18,35.76L72.31,40.40L128.50,61.54L129.25,61.70L130.91,61.36L132.19,61.85L135.46,64.04L135.33,64.25L135.76,64.37L142.65,66.48L148.09,67.44L154.55,67.46L158.02,66.73L159.85,66.35L163.46,65.28L165.06,65.29L169.16,66.83L169.35,67.14L169.58,67.13L169.97,66.96L174.30,68.58L175.29,69.35L175.58,70.02L175.76,71.41L174.96,77.01L174.76,77.27L174.77,77.55L174.99,77.62L177.67,79.61L180.85,81.07L181.62,81.07L182.51,80.82L182.99,80.81L184.38,81.39L185.52,82.17L186.32,82.61L187.58,83.47L238.69,102.63L238.84,102.73L238.83,102.38L238.76,102.31L238.68,101.82L238.66,101.40L238.59,101.35L238.52,100.86L238.50,100.44L238.43,100.39L238.36,100.05L238.34,99.64L238.27,99.59L238.20,99.10L238.17,98.68L238.10,98.62L238.18,98.25L241.17,95.31L248.10,92.00L256.69,89.39L260.01,88.83L265.14,87.86L267.05,87.54L275.53,86.90L277.30,86.90L278.57,86.97L284.19,87.37L286.84,88.28L288.92,89.08L289.57,90.67L289.98,92.22L290.07,92.69L290.14,93.18L290.23,93.65L290.30,94.15L290.39,94.62L290.62,95.90L290.71,96.38L290.78,96.87L290.87,97.34L290.94,97.83L291.03,98.30L291.10,98.79L291.19,99.26L291.26,99.75L291.35,100.21L291.42,100.55L291.51,101.02L291.58,101.51L291.67,101.98L291.74,102.47L291.83,102.94L291.90,103.43L291.99,103.90L292.06,104.39L292.15,104.87L292.38,106.15L292.47,106.62L292.54,107.11L292.63,107.58L292.70,108.07L292.79,108.54L292.86,109.03L292.95,109.50L293.02,110.00L293.11,110.46L293.18,110.80L293.27,111.27L293.34,111.76L293.43,112.23L293.50,112.72L293.59,113.19L293.66,113.68L293.75,114.15L293.82,114.64L293.91,115.12L294.14,116.40L294.23,116.87L294.30,117.36L294.39,117.83L294.46,118.32L294.55,118.79L294.62,119.28L294.71,119.75L294.78,120.24L294.87,120.71L294.94,121.05L295.03,121.51L295.10,122.00L295.19,122.47L295.26,122.96L295.35,123.43L295.42,123.92L295.51,124.39L295.58,124.88L295.67,125.36L295.90,126.64L295.99,127.12L296.06,127.61L296.15,128.08L296.22,128.57L296.31,129.04L296.38,129.53L296.47,130.00L296.54,130.49L296.63,130.95L296.70,131.29L296.79,131.76L296.87,132.26L296.96,132.73L296.94,166.94L250.24,166.96L250.21,166.51L250.19,166.09L250.11,166.04L250.05,165.70L250.03,165.28L249.96,165.23L249.88,164.74L249.87,164.32L249.80,164.26L249.57,162.98L249.55,162.56L249.48,162.50L249.37,162.06L248.90,162.10L176.10,133.97L175.70,133.90L175.67,134.01L173.66,137.32L171.60,139.42L168.28,140.77L166.98,140.77L165.38,140.61L164.26,140.45L154.78,136.76L151.73,134.38L151.10,131.61L151.10,130.64L151.14,130.18L151.27,129.90L151.19,129.89L151.00,130.14L148.47,131.02L143.67,132.46L141.21,132.92L138.64,132.92L136.61,132.67L136.53,132.41L136.84,132.13L136.09,132.12L133.20,131.80L132.57,131.79L132.41,131.73L130.74,131.51L127.77,130.51L126.59,130.05L124.37,127.77L124.37,127.11L125.81,119.44L126.10,117.61L126.28,117.09L124.66,113.57L123.76,113.32L122.32,113.00L121.83,112.91L117.83,111.57L117.77,111.48L117.35,111.55L116.45,111.81L115.69,111.81L114.12,111.15L110.73,109.10L110.43,108.72L110.41,108.61L109.99,108.58L72.19,93.95L50.30,85.35L49.34,84.98L49.40,84.72L49.12,84.85L48.97,84.83L48.80,84.58L48.35,84.53L39.37,81.86L17.23,74.99L15.69,74.57L0.03,70.92L0.03,20.66L0.16,20.69z"/><path style="fill:#000000" d="M180.07,49.20L181.51,50.16L182.79,52.24L182.95,53.85L181.13,66.65L181.68,67.28L183.27,69.21L184.02,73.11L184.56,73.52L186.31,76.89L186.62,80.96L186.32,82.61L185.52,82.17L184.38,81.39L182.99,80.81L182.97,80.60L182.51,80.82L181.62,81.07L180.85,81.07L177.67,79.61L174.99,77.62L174.96,77.01L175.76,71.41L175.58,70.02L175.29,69.35L174.30,68.58L169.97,66.96L169.58,67.13L169.35,67.14L169.16,66.83L165.06,65.29L163.46,65.28L159.85,66.35L158.02,66.73L158.46,65.60L159.42,64.64L162.24,63.14L164.97,62.02L166.24,61.70L167.73,61.70L168.53,61.85L169.29,61.86L170.28,55.01L171.10,53.11L177.92,49.04L179.26,49.05z"/><path style="fill:#ffffff" d="M109.99,108.58L110.43,108.72L110.73,109.10L114.12,111.15L115.69,111.81L116.45,111.81L117.35,111.55L117.83,111.57L121.83,112.91L122.32,113.00L123.76,113.32L124.66,113.57L126.28,117.09L126.10,117.61L125.81,119.44L124.37,127.11L124.30,127.18L124.37,127.77L126.59,130.05L127.77,130.51L127.87,130.84L128.89,132.11L130.43,132.46L131.35,132.47L132.53,131.88L132.57,131.79L133.20,131.80L136.09,132.12L136.53,132.41L136.61,132.67L138.64,132.92L141.21,132.92L143.67,132.46L148.47,131.02L151.00,130.14L151.14,130.18L151.10,130.64L151.10,131.61L151.73,134.38L154.78,136.76L164.26,140.45L165.38,140.61L166.98,140.77L168.28,140.77L171.60,139.42L173.66,137.32L175.67,134.01L176.10,133.97L248.90,162.10L249.37,162.06L249.48,162.50L249.57,162.98L249.80,164.26L249.88,164.74L249.96,165.23L250.05,165.70L250.11,166.04L250.21,166.51L250.24,166.96L126.16,166.96L126.10,165.92L126.04,165.86L125.95,162.98L126.07,162.56L126.48,162.38L128.62,162.24L130.11,161.81L131.32,160.94L131.87,159.89L131.96,159.31L132.04,158.88L131.96,158.82L131.08,156.79L129.48,155.84L129.19,155.76L128.90,155.47L128.04,153.58L126.75,153.11L124.56,152.78L124.23,152.70L123.71,152.31L122.80,152.06L121.19,151.81L120.75,151.77L117.14,150.08L114.58,149.11L111.70,148.30L107.91,147.73L106.14,147.65L102.30,147.74L100.92,147.83L99.91,148.06L98.82,148.26L98.31,148.13L90.81,146.97L90.31,146.83L88.32,145.75L84.00,144.15L81.60,143.51L78.29,143.00L75.88,142.85L72.68,142.93L71.09,143.10L68.86,143.49L68.64,143.33L68.04,143.40L66.98,143.67L66.29,144.23L65.13,145.06L64.97,143.78L64.94,141.74L64.88,141.69L64.81,139.45L64.89,137.58L65.31,137.49L65.65,137.50L66.81,137.25L67.92,136.45L69.11,135.23L70.23,133.47L71.35,131.07L72.31,127.87L72.72,125.51L72.82,125.04L72.97,123.11L72.97,119.76L72.95,119.01L72.88,118.95L72.81,118.31L72.79,117.89L72.72,117.84L72.31,115.97L71.67,114.37L70.71,113.09L69.75,112.45L68.05,112.10L66.43,111.87L66.46,111.65L67.20,111.07L68.10,110.04L69.11,108.66L70.39,105.93L71.35,102.89L71.76,100.69L71.85,100.23L72.08,97.83L72.15,94.84L72.08,94.78L72.19,93.95z"/><path style="fill:#ffffff" d="M162.33,129.07L162.95,129.21L165.33,130.70L167.25,131.67L168.33,131.67L168.80,131.49L169.50,131.49L172.05,132.47L172.73,132.77L172.71,132.99L170.89,135.98L170.15,136.85L167.85,137.91L166.29,137.91L163.89,137.11L155.74,133.89L154.61,132.93L154.14,131.46L154.14,130.63L154.37,129.51L154.65,129.22L154.98,129.17L156.41,128.84L158.02,128.69L159.63,128.68z"/><path style="fill:#fffbf0" d="M141.05,74.64L141.53,74.73L144.20,75.62L146.11,76.75L147.26,77.68L147.90,78.81L147.91,79.24L147.80,79.89L147.67,80.12L147.41,80.96L146.86,81.69L145.71,82.31L145.31,83.35L144.96,83.48L141.53,83.93L141.04,83.93L135.72,82.34L133.15,79.94L133.08,78.93L133.49,76.37L134.38,75.46L135.60,74.89L138.16,74.48z"/><path style="fill:#fffbf0" d="M130.74,131.51L132.41,131.73L132.57,131.79L132.53,131.88L131.35,132.47L130.43,132.46L128.89,132.11L127.87,130.84L127.77,130.51z"/><path style="fill:#fffbf0" d="M126.75,153.11L128.04,153.58L128.90,155.47L128.94,155.73L129.19,155.76L129.48,155.84L131.08,156.79L131.96,158.82L131.96,159.31L131.87,159.89L131.32,160.94L130.11,161.81L128.62,162.24L126.48,162.38L125.84,162.38L125.52,162.29L125.05,162.21L123.91,162.06L120.99,161.12L119.08,159.98L117.78,158.55L117.68,157.68L117.67,156.92L118.10,156.36L118.51,154.98L119.15,153.58L119.43,153.50L120.25,153.35L120.71,153.26L122.23,152.95L122.33,152.88L124.23,152.70L124.56,152.78z"/><path style="fill:#c8cfee" d="M122.33,152.88L122.23,152.95L120.71,153.26L120.56,153.19L121.25,152.62L121.39,152.55z"/><path style="fill:#000020" d="M0.64,20.78L0.16,20.69L0.58,20.71z"/><path style="fill:#000020" d="M135.76,64.37L135.33,64.25L135.46,64.04z"/><path style="fill:#000020" d="M134.90,64.14L134.70,64.08L134.93,63.95z"/><path style="fill:#000020" d="M159.57,76.09L159.37,76.14L159.42,75.94z"/><path style="fill:#000020" d="M174.76,77.27L174.96,77.01L174.99,77.62L174.77,77.55z"/><path style="fill:#000020" d="M182.99,80.81L182.51,80.82L182.97,80.60z"/><path style="fill:#000020" d="M48.97,84.83L48.60,84.77L48.35,84.53L48.80,84.58z"/><path style="fill:#000020" d="M49.34,84.98L49.12,84.85L49.40,84.72z"/><path style="fill:#000020" d="M34.25,90.45L33.99,90.63L34.14,90.34L34.24,90.31z"/><path style="fill:#000020" d="M290.07,92.69L289.98,92.22L290.05,92.28z"/><path style="fill:#000020" d="M290.23,93.65L290.14,93.18L290.21,93.24z"/><path style="fill:#000020" d="M32.79,94.48L32.78,94.73L32.53,94.63L32.62,94.15z"/><path style="fill:#000020" d="M290.39,94.62L290.30,94.15L290.37,94.20z"/><path style="fill:#000020" d="M290.71,96.38L290.62,95.90L290.69,95.96z"/><path style="fill:#000020" d="M290.87,97.34L290.78,96.87L290.85,96.92z"/><path style="fill:#000020" d="M72.08,97.83L72.08,94.78L72.15,94.84z"/><path style="fill:#000020" d="M291.03,98.30L290.94,97.83L291.01,97.88z"/><path style="fill:#000020" d="M238.20,99.10L238.10,98.62L238.17,98.68z"/><path style="fill:#000020" d="M291.19,99.26L291.10,98.79L291.17,98.84z"/><path style="fill:#000020" d="M238.36,100.05L238.27,99.59L238.34,99.64z"/><path style="fill:#000020" d="M291.35,100.21L291.26,99.75L291.33,99.80z"/><path style="fill:#000020" d="M238.52,100.86L238.43,100.39L238.50,100.44z"/><path style="fill:#000020" d="M291.51,101.02L291.42,100.55L291.50,100.60z"/><path style="fill:#000020" d="M238.68,101.82L238.59,101.35L238.66,101.40z"/><path style="fill:#000020" d="M291.67,101.98L291.58,101.51L291.65,101.56z"/><path style="fill:#000020" d="M238.84,102.73L238.69,102.63L238.76,102.31L238.83,102.38z"/><path style="fill:#000020" d="M291.83,102.94L291.74,102.47L291.81,102.52z"/><path style="fill:#000020" d="M291.99,103.90L291.90,103.43L291.97,103.48z"/><path style="fill:#000020" d="M292.15,104.87L292.06,104.39L292.13,104.44z"/><path style="fill:#000020" d="M292.47,106.62L292.38,106.15L292.45,106.21z"/><path style="fill:#000020" d="M292.63,107.58L292.54,107.11L292.61,107.17z"/><path style="fill:#000020" d="M292.79,108.54L292.70,108.07L292.77,108.13z"/><path style="fill:#000020" d="M110.43,108.72L109.99,108.58L110.41,108.61z"/><path style="fill:#000020" d="M292.95,109.50L292.86,109.03L292.93,109.09z"/><path style="fill:#000020" d="M293.11,110.46L293.02,110.00L293.09,110.05z"/><path style="fill:#000020" d="M52.36,110.43L52.36,110.34L52.80,110.36z"/><path style="fill:#000020" d="M293.27,111.27L293.18,110.80L293.26,110.85z"/><path style="fill:#000020" d="M117.83,111.57L117.35,111.55L117.77,111.48z"/><path style="fill:#000020" d="M66.43,111.87L66.01,111.81L66.46,111.65z"/><path style="fill:#000020" d="M293.43,112.23L293.34,111.76L293.42,111.81z"/><path style="fill:#000020" d="M293.59,113.19L293.50,112.72L293.58,112.77z"/><path style="fill:#000020" d="M293.75,114.15L293.66,113.68L293.74,113.73z"/><path style="fill:#000020" d="M30.54,114.48L30.46,112.71L30.52,112.77z"/><path style="fill:#000020" d="M293.91,115.12L293.82,114.64L293.90,114.69z"/><path style="fill:#000020" d="M241.11,115.55L241.24,116.19L241.05,116.51L241.05,115.48z"/><path style="fill:#000020" d="M140.70,116.57L140.47,116.67L140.53,116.39z"/><path style="fill:#000020" d="M294.23,116.87L294.14,116.40L294.21,116.45z"/><path style="fill:#000020" d="M294.39,117.83L294.30,117.36L294.38,117.41z"/><path style="fill:#000020" d="M72.81,118.31L72.72,117.84L72.79,117.89z"/><path style="fill:#000020" d="M30.70,118.32L30.62,116.39L30.68,116.45z"/><path style="fill:#000020" d="M294.55,118.79L294.46,118.32L294.54,118.37z"/><path style="fill:#000020" d="M294.71,119.75L294.62,119.28L294.70,119.33z"/><path style="fill:#000020" d="M72.97,119.76L72.88,118.95L72.95,119.01z"/><path style="fill:#000020" d="M241.88,119.72L241.70,119.88L241.68,119.52L241.88,119.33z"/><path style="fill:#000020" d="M241.81,120.27L242.01,120.28L242.04,120.66L241.86,120.63z"/><path style="fill:#000020" d="M294.87,120.71L294.78,120.24L294.86,120.30z"/><path style="fill:#000020" d="M295.03,121.51L294.94,121.05L295.02,121.10z"/><path style="fill:#000020" d="M30.86,122.16L30.78,120.23L30.84,120.29z"/><path style="fill:#000020" d="M295.19,122.47L295.10,122.00L295.18,122.06z"/><path style="fill:#000020" d="M295.35,123.43L295.26,122.96L295.34,123.02z"/><path style="fill:#000020" d="M295.51,124.39L295.42,123.92L295.50,123.98z"/><path style="fill:#000020" d="M295.67,125.36L295.58,124.88L295.66,124.94z"/><path style="fill:#000020" d="M31.02,125.85L30.94,123.91L31.00,123.97z"/><path style="fill:#000020" d="M295.99,127.12L295.90,126.64L295.97,126.70z"/><path style="fill:#000020" d="M124.37,127.77L124.30,127.18L124.37,127.11z"/><path style="fill:#000020" d="M296.15,128.08L296.06,127.61L296.14,127.66z"/><path style="fill:#000020" d="M159.63,128.68L158.02,128.69L158.56,128.44z"/><path style="fill:#000020" d="M296.31,129.04L296.22,128.57L296.30,128.62z"/><path style="fill:#000020" d="M162.95,129.21L162.33,129.07L162.64,128.93z"/><path style="fill:#000020" d="M154.65,129.22L154.37,129.51L154.44,129.08z"/><path style="fill:#000020" d="M31.18,129.69L31.10,127.76L31.16,127.82z"/><path style="fill:#000020" d="M296.47,130.00L296.38,129.53L296.46,129.58z"/><path style="fill:#000020" d="M151.14,130.18L151.00,130.14L151.19,129.89L151.27,129.90z"/><path style="fill:#000020" d="M296.63,130.95L296.54,130.49L296.62,130.54z"/><path style="fill:#000020" d="M296.79,131.76L296.70,131.29L296.78,131.34z"/><path style="fill:#000020" d="M136.09,132.12L136.84,132.13L136.53,132.41z"/><path style="fill:#000020" d="M296.96,132.73L296.87,132.26L296.96,132.25z"/><path style="fill:#000020" d="M31.34,133.37L31.26,131.44L31.32,131.50z"/><path style="fill:#000020" d="M176.10,133.97L175.67,134.01L175.70,133.90z"/><path style="fill:#000020" d="M31.50,137.21L31.42,135.28L31.48,135.34z"/><path style="fill:#000020" d="M292.35,136.55L292.12,137.32L292.10,136.43z"/><path style="fill:#000020" d="M292.29,137.45L292.47,137.43L292.47,137.78L292.29,137.76z"/><path style="fill:#000020" d="M65.31,137.49L64.89,137.58L64.81,139.45L64.69,137.40z"/><path style="fill:#000020" d="M31.66,140.90L31.58,139.12L31.64,139.18z"/><path style="fill:#000020" d="M68.86,143.49L68.53,143.58L68.04,143.40L68.64,143.33z"/><path style="fill:#000020" d="M64.97,143.78L64.88,141.69L64.94,141.74z"/><path style="fill:#000020" d="M31.82,144.74L31.74,142.81L31.80,142.87z"/><path style="fill:#000020" d="M98.82,148.26L98.74,148.36L98.30,148.38L98.31,148.13z"/><path style="fill:#000020" d="M31.98,148.58L31.90,146.65L31.96,146.71z"/><path style="fill:#000020" d="M32.14,152.26L32.06,150.33L32.12,150.39z"/><path style="fill:#000020" d="M120.25,153.35L120.56,153.19L120.71,153.26z"/><path style="fill:#000020" d="M129.19,155.76L128.94,155.73L128.90,155.47z"/><path style="fill:#000020" d="M32.30,156.10L32.22,154.17L32.28,154.23z"/><path style="fill:#000020" d="M117.68,157.68L117.59,157.64L117.58,156.96L117.67,156.92z"/><path style="fill:#000020" d="M131.96,159.31L131.96,158.82L132.04,158.88z"/><path style="fill:#000020" d="M32.46,159.79L32.38,157.86L32.44,157.92z"/><path style="fill:#000020" d="M125.52,162.29L125.20,162.37L125.05,162.21z"/><path style="fill:#000020" d="M249.57,162.98L249.48,162.50L249.55,162.56z"/><path style="fill:#000020" d="M126.07,162.56L125.95,162.98L125.84,162.38L126.48,162.38z"/><path style="fill:#000020" d="M32.62,163.63L32.54,161.70L32.60,161.76z"/><path style="fill:#000020" d="M249.88,164.74L249.80,164.26L249.87,164.32z"/><path style="fill:#000020" d="M250.05,165.70L249.96,165.23L250.03,165.28z"/><path style="fill:#000020" d="M250.21,166.51L250.11,166.04L250.19,166.09z"/><path style="fill:#000020" d="M126.16,166.96L126.00,166.96L126.04,165.86L126.10,165.92z"/><path style="fill:#000020" d="M32.82,166.96L32.66,166.96L32.63,166.02L32.70,165.54L32.76,165.60z"/><path style="fill:#fffe02" d="M33.93,90.93L33.36,92.60L32.79,94.48L32.62,94.15L32.92,92.80L33.74,90.89L33.91,90.79z"/><path style="fill:#404040" d="M68.53,143.58L67.41,144.22L66.29,144.23L66.98,143.67L68.04,143.40z"/><path style="fill:#ffffff" d="M174.94,63.94L174.74,63.99L174.77,63.61z"/><path style="fill:#ffffff" d="M143.25,113.59L142.76,114.58L140.70,116.57L140.53,116.39L140.91,115.30L143.25,113.41z"/><g id="Actor_.0"><g style="stroke:#282828;stroke-width:0.106"><path d="M0.01,22.57L26.36,28.58L54.83,37.19L68.44,42.06L62.98,46.66L57.90,54.04L54.02,63.08L53.99,63.19L51.93,72.36L51.95,80.44L54.08,86.06L57.96,88.39"/><path d="M125.08,63.32L68.44,42.06L70.46,41.21L72.00,40.94L72.35,40.88L74.09,41.09"/></g><g style="stroke:#282828;stroke-width:0.353"><path d="M-0.00,70.77L18.00,75.09L17.57,74.95"/><path d="M-0.00,20.71L4.37,21.37L32.31,27.73L60.59,36.27L74.09,41.09L129.23,61.84"/><path d="M54.08,86.06L43.41,83.07L18.00,75.09L18.05,75.10"/><path d="M47.86,84.31L57.96,88.39L110.54,108.71"/></g></g><g id="Actor_.1"><g style="stroke:#282828;stroke-width:0.106"><path d="M160.70,66.12L160.91,64.63L158.99,65.65L158.51,66.70"/><path d="M159.65,64.58L159.63,64.59"/><path d="M160.04,64.29L161.35,63.78L164.77,62.44L164.93,62.38L166.12,62.13L165.12,62.72L165.36,62.99L165.43,63.38L164.93,63.53L162.11,64.53L160.91,64.63L160.91,64.19L161.03,64.01L158.92,65.13"/><path d="M183.27,68.94L183.26,68.99L184.04,72.61L180.91,74.66L180.23,71.02L183.26,68.99L181.21,66.76L178.62,65.38L177.79,65.64L177.72,65.66L179.29,67.03L178.30,67.62L178.42,67.41L177.30,65.95L168.46,62.66L165.51,62.61L165.12,62.72L161.69,63.86L161.98,64.09L162.11,64.53L161.93,65.78"/><path d="M161.03,64.01L161.69,63.86"/><path d="M164.94,63.53L164.69,65.26"/><path d="M165.43,63.38L165.81,63.26L165.50,65.45"/><path d="M167.74,66.29L168.17,63.27L165.81,63.26L165.74,62.87L165.51,62.61"/><path d="M166.12,62.13L168.94,62.40L169.81,62.10"/><path d="M167.16,61.58L169.79,62.10"/><path d="M168.46,62.66L168.27,62.90L168.17,63.27L176.95,66.54L177.84,67.74L178.04,67.45L178.42,67.41"/><path d="M169.87,62.12L169.88,62.13"/><path d="M168.94,62.40L177.72,65.66"/><path d="M175.92,77.41L176.38,77.94L177.58,69.61L177.14,68.97L177.37,68.67L177.79,68.68L178.04,69.09L180.05,71.74L180.50,74.91L180.91,74.66L180.03,80.68"/><path d="M176.38,77.94L176.50,78.68"/><path d="M176.17,75.70L175.71,75.17L176.04,76.61"/><path d="M175.71,75.17L176.95,66.54L177.13,66.12L177.30,65.95"/><path d="M179.04,80.26L179.82,74.90L179.41,72.02L177.58,69.61L177.85,69.25L178.04,69.09"/><path d="M177.72,67.95L177.92,67.66L178.30,67.62L177.79,68.68"/><path d="M179.29,67.03L179.33,67.18L179.23,67.70L179.01,68.10L178.57,68.95L180.23,71.02"/><path d="M179.82,74.90L180.50,74.91L179.68,80.54"/><path d="M180.61,76.71L183.87,74.08"/><path d="M183.97,72.22L184.01,72.38"/></g><g style="stroke:#282828;stroke-width:0.353"><path d="M159.65,64.58L158.92,65.13L158.30,66.02L158.05,66.80"/><path d="M159.64,64.59L160.04,64.29L163.93,62.39L166.07,61.76L165.14,61.95L164.47,62.23"/><path d="M166.07,61.76L167.16,61.58L167.36,61.61L169.78,62.10L169.87,62.12L169.88,62.13L169.81,62.10"/><path d="M169.88,62.13L178.62,65.38L181.20,66.72L183.27,68.94L184.01,72.38L184.04,72.61L183.87,74.08L182.97,80.83"/><path d="M176.10,78.38L175.92,77.41L177.14,68.97L177.56,68.22L177.84,67.74"/></g></g><g id="Actor_.2"><g style="stroke:#282828;stroke-width:0.106"><path d="M108.68,94.62L110.38,95.27L110.26,103.70L112.28,109.53L116.13,111.88"/><path d="M113.86,109.15L111.91,103.54L112.03,95.41L110.38,95.27L112.64,85.54L116.71,76.02L121.93,68.22L127.49,63.32L132.53,62.07"/><path d="M123.01,111.72L121.34,111.76L118.13,111.56L116.31,111.00L113.70,107.35L112.72,102.26L113.00,95.78L112.03,95.41L112.04,95.40L114.22,86.03L118.14,76.86L123.17,69.33L128.53,64.61L133.38,63.40"/><path d="M113.00,95.78L114.66,88.11L117.57,80.35L121.30,73.54L121.45,73.34L125.36,68.35L129.50,64.98L144.95,70.78L145.16,70.92L144.80,71.15L144.45,71.43L144.11,71.76L143.72,72.19L143.41,72.58L142.85,73.38L142.22,74.39L141.99,74.88"/><path d="M113.70,107.35L118.74,109.07L121.13,110.00L122.95,111.15L124.14,112.47L124.76,113.51"/><path d="M117.57,80.35L124.93,83.07L128.15,84.89L129.10,85.82L129.25,86.00L129.61,86.53L129.88,87.03L131.18,89.84L131.80,90.99L126.64,117.58L128.65,119.57L132.29,120.99L136.31,121.34L139.36,120.52L139.23,120.75"/><path d="M121.30,73.54L125.06,75.99L127.45,79.45L127.60,79.77L128.08,80.81L128.53,81.92L129.86,85.41L130.23,86.28L130.42,86.70L130.22,86.72L129.88,87.03"/><path d="M126.16,116.53L126.06,116.23L126.80,117.96"/><path d="M127.74,119.16L130.64,120.78L134.41,121.59L137.84,121.33"/><path d="M132.16,86.90L130.42,86.70L131.75,89.44L131.39,89.55L131.18,89.84"/><path d="M129.50,64.98L133.28,63.71"/><path d="M132.22,91.40L133.83,92.96L137.49,94.37L141.54,94.74L144.60,93.94L144.57,93.65L144.46,93.46L143.23,93.97L139.78,94.21L135.99,93.40L133.07,91.79L132.12,90.61L131.80,90.99L132.22,91.40"/><path d="M132.12,90.61L131.75,89.44L131.94,89.05L132.14,88.86"/><path d="M132.53,89.58L132.56,90.47L134.59,92.22L137.96,93.43L141.59,93.71L143.13,93.47L143.59,93.28"/><path d="M138.79,121.09L139.07,120.81"/><path d="M140.22,118.13L139.36,120.52L144.60,93.94"/><path d="M143.71,112.84L140.75,115.45"/><path d="M140.89,114.77L144.05,111.97"/><path d="M144.42,110.81L144.36,110.77L143.91,111.27L141.10,113.68"/><path d="M150.05,72.27L150.28,71.98L153.03,72.81L156.85,74.38L156.76,74.74L156.83,74.96L157.22,75.11L157.16,75.03L157.15,74.90L157.16,74.74L157.53,74.74L157.70,74.71L158.01,73.93L157.54,73.74L157.69,73.50L158.98,72.69L159.29,73.12L159.73,72.96L159.77,72.92L159.63,72.61L159.32,72.39L159.21,72.35L159.30,72.27L157.40,71.58L155.72,71.03L152.07,69.95L148.61,69.38L148.35,69.41L144.98,70.76L144.95,70.78L144.80,70.94L144.67,70.99L144.38,71.15L143.82,71.68L143.49,72.05L142.97,72.71L142.38,73.58L141.98,74.25L141.71,74.73L141.69,74.80"/><path d="M159.00,66.59L159.09,66.90L153.97,67.80L147.90,67.53L142.38,66.47"/><path d="M143.61,75.39L146.20,72.06L150.43,70.82L153.32,71.68L157.33,73.36L157.18,73.60L153.35,72.09L150.49,71.29L146.36,72.53L146.27,73.17L145.21,74.55"/><path d="M144.36,110.77L144.45,110.71"/><path d="M144.41,93.37L144.46,93.46L144.54,93.39"/><path d="M147.81,69.72L145.16,70.92L146.20,72.06L146.36,72.53"/><path d="M146.27,73.17L148.24,72.27L150.28,71.98L150.49,71.29L150.43,70.82"/><path d="M156.83,74.96L154.78,74.14L152.71,73.23"/><path d="M154.43,70.75L159.21,72.35"/><path d="M157.16,74.74L157.24,74.53L156.85,74.38L157.18,73.60L157.54,73.74L157.24,74.53L157.70,74.71L158.38,75.10L158.15,75.40L157.89,75.49L157.22,75.11L157.47,75.02L157.70,74.71"/><path d="M157.33,73.36L157.69,73.50L158.01,73.93L159.29,73.12L158.38,75.10L158.66,75.30L159.27,76.29"/><path d="M157.89,75.49L158.03,75.59L158.63,76.56"/><path d="M158.03,75.59L158.58,75.43L158.66,75.30L159.73,72.96L159.59,72.65L159.28,72.43L158.98,72.69"/><path d="M164.95,65.25L159.09,66.90L159.30,72.27L159.41,72.31L159.28,72.43"/><path d="M164.20,69.45L159.41,72.31L159.70,72.57L159.77,72.92L164.49,70.10"/><path d="M162.79,68.64L164.83,67.42L164.75,67.99"/><path d="M164.83,67.42L167.32,68.00L167.47,68.20"/><path d="M167.32,68.00L169.24,66.85L169.47,67.23"/></g><g style="stroke:#282828;stroke-width:0.353"><path d="M117.65,111.45L116.12,111.88L114.44,111.23L110.60,108.87L108.56,103.05L108.68,94.62L110.95,84.89L115.01,75.38L120.23,67.58L125.80,62.69L130.85,61.44L132.53,62.07L136.03,64.44"/><path d="M117.57,111.42L117.56,111.43L116.31,111.00L113.86,109.15"/><path d="M117.00,111.23L121.83,112.84L124.75,113.50"/><path d="M117.56,111.43L117.62,111.44"/><path d="M121.67,111.29L122.58,111.59L123.39,111.84"/><path d="M122.37,111.00L123.69,112.09"/><path d="M122.95,111.15L123.46,111.82L124.36,112.86L124.76,113.51L124.87,113.76L124.76,113.51"/><path d="M122.85,111.67L122.97,111.71"/><path d="M126.06,116.23L124.98,113.97L125.48,115.02"/><path d="M124.87,113.76L126.16,116.53L127.09,118.59L127.74,119.16L127.64,119.06L126.80,117.96"/><path d="M127.74,119.16L129.10,120.36L132.45,121.57L136.06,121.85L137.60,121.59L138.79,121.09L139.09,120.80"/><path d="M133.38,63.40L136.37,64.57"/><path d="M133.28,63.71L136.59,64.63L144.05,67.00"/><path d="M137.84,121.33L139.23,120.75L140.01,120.00L140.22,118.13L145.09,93.45"/><path d="M143.66,112.96L140.73,115.54"/><path d="M169.48,67.23L169.24,66.85L164.95,65.25L163.71,65.28L159.00,66.59L154.51,67.59L148.31,67.51L142.33,66.45"/><path d="M144.60,93.94L144.97,93.44"/><path d="M144.52,75.76L145.12,74.71L145.11,74.73"/><path d="M146.27,73.17L145.12,74.71L146.36,72.53L146.25,72.67"/><path d="M149.42,69.64L147.81,69.72L144.98,70.76L145.02,70.75"/><path d="M146.18,73.29L148.18,72.41"/><path d="M147.82,72.57L150.05,72.27"/><path d="M148.35,69.41L154.43,70.75L150.85,69.74"/><path d="M152.71,73.23L149.75,72.31"/><path d="M150.31,69.60L150.75,69.72"/><path d="M162.79,68.64L164.20,69.45L164.43,69.72L164.49,70.10L164.41,70.66"/></g></g><g id="Actor_.3"><g style="stroke:#282828;stroke-width:0.106"><path d="M170.40,54.82L170.43,54.88L169.41,62.02"/><path d="M170.94,62.53L171.95,55.44L172.09,55.44L171.07,62.57"/><path d="M170.43,54.88L172.65,52.32L176.16,53.61L177.45,57.48L177.59,57.48L183.05,54.23"/><path d="M171.95,55.44L172.37,54.49L173.21,53.99L174.24,54.08L174.28,54.14"/><path d="M173.29,54.05L172.49,54.53L172.09,55.44L174.29,54.14"/><path d="M172.67,52.19L174.54,52.35L176.26,53.52L177.38,55.40L177.59,57.48L176.56,64.61"/><path d="M174.24,54.08L175.20,54.73L175.81,55.76L175.93,56.91L175.89,56.85"/><path d="M175.93,56.91L174.91,64.00"/><path d="M174.54,52.35L180.01,49.12"/><path d="M176.43,64.56L177.45,57.48"/><path d="M178.14,48.97L178.11,48.99"/><path d="M185.06,81.77L186.74,80.74"/></g><g style="stroke:#282828;stroke-width:0.353"><path d="M181.23,66.75L183.05,54.23L182.84,52.16L181.73,50.29L180.01,49.12L178.14,48.97L172.67,52.19L171.15,53.10L170.40,54.82L169.37,62.02"/><path d="M174.87,63.98L175.89,56.85L175.78,55.75L175.19,54.76L174.28,54.14L173.29,54.05"/><path d="M186.44,82.74L186.74,80.74L186.48,77.13L184.79,73.71L183.99,72.99"/></g></g><g id="Actor_.4"><g style="stroke:#282828;stroke-width:0.106"><path d="M133.88,91.40L133.98,90.89"/></g><g style="stroke:#282828;stroke-width:0.353"><path d="M133.53,90.63L133.88,91.40L135.88,92.55L138.45,93.29L141.10,93.48L141.19,93.02"/></g></g><g id="Actor_.5"><g style="stroke:#282828;stroke-width:0.106"><path d="M130.09,120.72L129.97,121.34"/><path d="M138.79,121.18L138.81,121.07"/></g><g style="stroke:#282828;stroke-width:0.353"><path d="M127.37,118.83L127.31,119.15"/><path d="M137.46,121.62L137.37,122.06"/></g></g><g id="Actor_.6"><g style="stroke:#282828;stroke-width:0.106"><path d="M103.04,167.00L118.83,154.42"/><path d="M121.57,152.24L120.04,153.45"/><path d="M121.39,152.54L121.37,152.55"/></g><g style="stroke:#282828;stroke-width:0.353"><path d="M120.32,153.40L121.39,152.54L121.53,152.42L121.57,152.24L118.28,150.57L114.90,149.27L111.47,148.34L108.04,147.79L104.64,147.63L101.32,147.86L98.12,148.48L74.33,167.00"/><path d="M103.25,167.00L118.75,154.65"/></g></g><g id="Actor_.7"><g style="stroke:#282828;stroke-width:0.106"><path d="M30.56,112.31L39.62,113.71L41.64,162.92"/><path d="M39.62,113.71L39.60,110.51L39.78,107.22L40.16,103.89L40.74,100.58L41.51,97.35L42.45,94.26L42.75,93.48L43.55,91.36L44.78,88.71L46.13,86.34L47.62,84.25"/></g><g style="stroke:#282828;stroke-width:0.353"><path d="M32.88,167.00L30.56,112.31L30.53,109.11L30.71,105.82L31.09,102.50L31.67,99.20L32.44,95.98L33.39,92.89L34.49,90.00L35.73,87.35L37.08,84.98L38.52,82.95L39.52,81.84"/><path d="M64.76,137.36L65.05,145.24"/></g></g><g id="Actor_.8"><g style="stroke:#282828;stroke-width:0.106"><path d="M91.45,147.41L66.12,167.00"/><path d="M91.27,147.72L91.25,147.72"/></g><g style="stroke:#282828;stroke-width:0.353"><path d="M66.34,167.00L91.27,147.72L91.41,147.60L91.45,147.41L88.19,145.76L87.75,145.59L84.84,144.47L81.45,143.54L78.06,143.00L74.71,142.85L71.43,143.08L68.28,143.70L37.46,167.00"/></g></g><g id="Actor_.9"><g style="stroke:#282828;stroke-width:0.106"><path d="M64.49,112.18L63.43,111.81L62.48,110.98L61.68,109.70L61.06,108.03L60.88,107.20L60.64,106.03L60.44,103.77L60.46,101.35L60.72,98.86L61.19,96.39L61.85,94.05L62.69,91.92L63.45,90.51"/></g><g style="stroke:#282828;stroke-width:0.353"><path d="M72.04,93.83L72.17,95.33L72.14,97.73L71.89,100.20L71.42,102.64L70.77,104.96L69.94,107.08L68.97,108.91L67.90,110.39L66.77,111.45L65.62,112.05L64.49,112.18L49.41,109.85L48.34,109.49L47.38,108.66L46.57,107.38L45.93,105.71L45.50,103.71L45.30,101.47L45.32,99.05L45.57,96.57L45.69,95.91L46.04,94.11L46.71,91.77L47.55,89.65L48.54,87.82L49.63,86.36L50.64,85.44"/></g></g><g id="Actor_.10"><g style="stroke:#282828;stroke-width:0.106"><path d="M66.23,144.35L67.04,144.04L67.83,144.04"/><path d="M66.47,144.17L66.45,144.19"/><path d="M66.90,143.86L67.40,143.65L67.95,143.57L68.53,143.60L68.44,143.67"/><path d="M68.67,143.62L68.53,143.60L68.70,143.50L68.89,143.47"/><path d="M91.04,147.21L98.52,148.40"/><path d="M97.71,148.80L91.22,147.76"/><path d="M122.65,152.92L121.92,152.68L121.34,152.59"/><path d="M121.92,152.68L122.48,152.24L121.16,152.03"/><path d="M122.84,152.11L122.48,152.24L123.07,152.39L123.64,152.66L123.77,152.75"/><path d="M125.90,167.00L125.77,162.32"/><path d="M125.33,167.00L125.20,162.20"/></g><g style="stroke:#282828;stroke-width:0.353"><path d="M66.23,144.35L66.90,143.86L67.12,143.74L67.63,143.54L68.37,143.44L68.89,143.47L69.20,143.52"/><path d="M90.50,146.93L99.06,148.30"/><path d="M120.61,151.75L122.84,152.11L123.35,152.24L123.49,152.28L124.00,152.51L124.43,152.81"/><path d="M126.11,167.00L125.99,162.37"/></g></g><g id="Actor_.11"><g style="stroke:#282828;stroke-width:0.106"><path d="M29.30,167.00L29.39,166.86L29.66,166.54L29.94,166.27L30.22,166.06L30.50,165.91"/><path d="M31.05,165.80L30.78,165.82"/></g><g style="stroke:#282828;stroke-width:0.353"><path d="M30.60,165.88L30.40,165.92L29.84,166.27L29.30,166.86L29.21,166.98L29.19,167.00"/><path d="M30.50,165.91L30.78,165.82"/><path d="M31.05,165.80L30.95,165.81"/><path d="M30.95,165.80L30.78,165.82"/><path d="M32.84,166.09L31.31,165.84L31.05,165.80"/></g></g><g id="Actor_.12"><g style="stroke:#282828;stroke-width:0.106"><path d="M34.33,90.41L34.15,90.65L33.91,91.05L33.67,91.50L33.46,91.99L33.27,92.51L33.10,93.06L32.96,93.63L32.84,94.21L32.76,94.80L32.73,95.03"/></g><g style="stroke:#282828;stroke-width:0.353"><path d="M34.39,90.25L34.06,90.65L33.98,90.77L33.51,91.59L33.12,92.56L32.82,93.64L32.63,94.77L32.57,95.56"/></g></g><g id="Actor_.13"><g style="stroke:#282828;stroke-width:0.106"><path d="M46.52,122.43L61.61,124.79L61.40,127.26L61.41,129.64L61.65,131.84L62.11,133.76L62.76,135.34L63.59,136.52L64.55,137.24L65.62,137.49"/><path d="M61.61,124.79L62.04,122.32L62.67,119.95L63.48,117.78L64.43,115.88L65.50,114.33L66.62,113.19L67.77,112.50L68.90,112.29"/></g><g style="stroke:#282828;stroke-width:0.353"><path d="M52.48,110.33L51.56,110.86L50.43,112.00L49.36,113.54L48.40,115.44L47.59,117.60L46.95,119.97L46.52,122.43L46.31,124.89L46.33,127.27L46.58,129.46L47.04,131.38L47.70,132.95L48.54,134.13L49.52,134.85L50.59,135.10L65.62,137.49L66.75,137.26L67.89,136.55L69.01,135.40L70.06,133.84L71.00,131.95L71.80,129.79L72.42,127.44L72.85,124.99L73.06,122.55L73.05,120.19L72.82,118.00L72.37,116.08L71.73,114.50L70.92,113.31L69.96,112.56L68.90,112.29L66.01,111.84"/></g></g><g id="Actor_.14"><g style="stroke:#282828;stroke-width:0.106"><path d="M118.48,155.43L103.97,167.00"/><path d="M119.87,160.44L111.70,167.00"/><path d="M121.92,152.68L121.27,153.20"/><path d="M125.26,164.48L122.15,167.00"/><path d="M124.73,165.40L124.68,165.40"/></g><g style="stroke:#282828;stroke-width:0.353"><path d="M67.83,144.04L67.04,144.04L66.23,144.35L36.24,167.00"/><path d="M97.71,148.80L91.22,147.76"/><path d="M122.65,152.92L121.92,152.68L121.34,152.59"/><path d="M122.75,167.00L124.72,165.40L125.13,165.04L125.26,164.48L125.20,162.20"/></g></g><g id="Actor_.15"><g style="stroke:#282828;stroke-width:0.106"><path d="M293.87,132.30L292.61,135.25L293.25,138.94L295.14,139.67"/><path d="M293.71,133.24L295.01,133.74L295.49,136.54L294.53,138.78L295.07,139.27L293.38,138.62"/><path d="M293.94,132.69L295.63,133.35L296.19,136.64L295.07,139.27"/></g><g style="stroke:#282828;stroke-width:0.353"><path d="M292.50,137.21L292.16,135.25L293.42,132.30L293.87,132.30L295.76,133.04L296.39,136.72L295.14,139.67L294.69,139.66L292.80,138.93L292.50,137.21"/><path d="M293.38,138.62L292.82,135.33L293.94,132.69"/><path d="M294.53,138.78L293.33,138.32"/></g></g><g id="Actor_.16"><g style="stroke:#282828;stroke-width:0.106"><path d="M289.46,106.66L288.19,109.60L288.26,109.99L288.83,113.31L290.73,114.07"/><path d="M288.97,112.99L290.66,113.68L290.13,113.19L291.08,110.96L290.60,108.15L289.29,107.61"/><path d="M290.66,113.68L291.79,111.06L291.22,107.75L289.52,107.06"/></g><g style="stroke:#282828;stroke-width:0.353"><path d="M288.00,111.12L287.74,109.60L289.00,106.67L289.46,106.66L291.36,107.44L291.99,111.14L290.73,114.07L290.28,114.08L288.38,113.31L288.00,111.12"/><path d="M288.97,112.99L288.39,109.68L289.52,107.06"/><path d="M288.92,112.70L290.13,113.19"/></g></g><g id="Actor_.17"><g style="stroke:#282828;stroke-width:0.106"><path d="M238.21,98.46L238.97,101.12L243.58,102.86L251.35,103.43L261.12,102.71L271.35,100.82L280.43,98.05L286.96,94.84L289.00,106.67"/><path d="M243.70,102.13L242.49,95.31L239.50,98.29"/><path d="M242.49,95.31L248.71,92.31L257.20,89.74L266.72,87.98L275.84,87.29L283.21,87.77L287.72,89.37L288.65,91.85"/><path d="M286.96,94.84L289.95,91.68"/><path d="M293.42,132.30L290.28,114.08"/><path d="M297.00,153.09L294.69,139.66"/></g><g style="stroke:#282828;stroke-width:0.353"><path d="M240.94,113.80L238.21,98.46L241.36,95.32L247.91,92.17L256.85,89.46L266.86,87.61L276.46,86.88L284.22,87.39L288.97,89.07L289.95,91.68L297.00,132.72"/><path d="M239.50,98.29L240.23,100.81L244.60,102.47L252.00,103.01L261.27,102.33L270.98,100.53L279.61,97.90L285.81,94.85L288.65,91.85"/><path d="M242.65,123.39L241.14,114.90"/><path d="M250.41,167.00L249.35,161.05"/><path d="M249.28,160.67L249.31,160.82"/><path d="M288.19,112.50L287.71,111.54L287.80,110.26"/><path d="M288.56,107.70L287.90,108.75L287.87,109.30"/><path d="M289.41,113.73L288.75,113.64L288.63,113.41"/><path d="M292.61,138.13L292.14,137.18L292.22,135.90"/><path d="M292.98,133.33L292.32,134.39L292.29,134.95"/><path d="M293.82,139.33L293.16,139.26L293.05,139.03"/></g></g><g id="Actor_.18"><g style="stroke:#282828;stroke-width:0.106"><path d="M239.58,106.17L179.42,83.59"/><path d="M250.08,158.39L252.34,152.48L252.08,148.03L250.52,143.38L246.57,134.56L243.20,125.98L241.22,117.77L241.05,116.37L241.19,117.11L241.08,116.33"/><path d="M241.19,117.11L241.22,117.28"/><path d="M241.12,114.65L241.05,116.37"/><path d="M249.15,162.08L248.48,161.43"/><path d="M249.33,160.87L249.25,160.90"/><path d="M249.24,160.93L249.33,160.89"/><path d="M252.19,154.59L252.28,154.42"/></g><g style="stroke:#282828;stroke-width:0.353"><path d="M173.01,132.73L167.20,130.49"/><path d="M175.85,133.82L249.15,162.08L249.50,161.87"/><path d="M238.97,102.75L184.00,82.24"/><path d="M243.33,126.06L241.22,117.78"/><path d="M241.40,118.48L241.08,116.33L241.15,114.99"/><path d="M243.02,124.86L243.33,125.62"/><path d="M250.08,141.15L246.97,134.50L244.20,127.74"/><path d="M248.48,161.43L250.08,158.39"/><path d="M249.24,160.93L249.37,160.19"/><path d="M249.15,160.16L250.41,157.90L252.28,154.42L252.48,153.33"/><path d="M252.57,152.87L253.09,150.04L251.73,144.68L251.01,143.14"/></g></g><g id="Actor_.19"><g style="stroke:#282828;stroke-width:0.106"><path d="M136.79,132.68L137.16,132.65L137.38,132.22L131.89,131.63L133.62,122.75L129.89,121.83L127.09,120.17L126.08,118.27L126.59,117.50"/><path d="M128.48,121.39L132.08,122.70L133.59,122.94L137.25,123.34L133.60,122.93"/><path d="M139.49,92.83L139.53,92.67L135.74,91.75L132.91,90.09L131.87,88.20"/><path d="M133.62,122.75L140.62,123.51L140.57,123.01L141.57,123.12L141.57,123.81L137.25,123.34"/><path d="M137.16,132.65L139.65,132.92L139.88,132.49L145.14,131.30L150.51,128.55L151.75,127.96"/><path d="M137.38,132.22L139.88,132.49L141.57,123.81L142.63,123.59L143.28,122.74L143.07,122.68L142.79,122.45L142.33,122.98L141.62,123.13L141.57,123.12L140.04,119.76"/><path d="M139.31,132.95L139.65,132.92L140.24,132.96"/><path d="M140.62,123.51L139.32,120.65"/><path d="M140.57,123.01L139.44,120.54"/><path d="M143.28,122.74L146.04,108.58L145.77,108.38L142.79,122.45L140.40,117.21L143.11,114.38"/><path d="M140.40,117.21L140.64,116.79"/><path d="M147.38,93.76L147.55,93.56L139.53,92.67L141.24,83.92"/><path d="M141.73,83.88L145.79,84.34L145.47,83.65"/><path d="M142.74,132.65L145.55,131.77L150.84,129.58L151.47,129.36"/><path d="M145.24,132.01L150.99,130.03L151.35,129.93"/><path d="M145.77,108.38L148.25,94.85L148.76,95.08L146.04,108.58L146.75,108.81L151.44,110.45L160.17,113.74L160.85,114.51L160.59,122.98L162.46,128.80"/><path d="M162.39,128.67L161.99,128.47L161.18,127.71L160.35,126.50L159.29,123.59L158.78,118.94L159.18,113.36L160.42,107.34L162.51,100.94L163.76,97.96L165.29,94.81L166.71,92.27L168.46,89.54L166.06,88.60L157.96,85.28L156.45,84.68L153.11,83.44L149.60,82.49L149.14,82.43L149.22,82.75L149.36,83.86L145.82,83.46L145.70,82.49"/><path d="M145.82,83.46L145.79,84.34"/><path d="M145.79,84.32L149.33,84.72L150.12,84.89L151.30,85.46L153.20,87.09L156.43,91.17L159.66,95.09L163.76,97.96"/><path d="M166.71,92.27L164.24,91.14L161.96,89.82L157.88,87.10L153.83,84.50L149.22,82.75L145.86,82.37"/><path d="M146.53,93.61L146.37,93.65"/><path d="M147.89,79.64L147.92,79.68L148.00,80.02L149.14,82.43L146.33,82.12"/><path d="M146.55,76.98L146.54,76.96"/><path d="M150.30,77.17L146.55,76.97L146.43,76.86"/><path d="M165.29,94.81L161.66,92.71L157.85,89.47L154.04,86.15L151.92,84.73L150.70,84.18L149.36,83.86L149.38,84.24L149.33,84.72L148.20,90.43L147.55,93.56L148.49,94.03L148.76,95.08"/><path d="M147.44,81.41L147.38,81.28"/><path d="M147.88,80.84L148.00,80.02"/><path d="M158.29,76.78L158.68,76.53L159.70,76.32L157.06,77.65L153.57,77.49"/><path d="M156.61,128.38L154.53,128.99"/><path d="M154.69,128.21L156.07,127.72L161.18,127.71"/><path d="M160.35,126.50L158.22,126.09L155.76,126.38L155.02,126.64"/><path d="M154.33,77.65L157.45,77.74L160.02,76.44L160.15,76.36L160.16,76.27L159.87,76.28L159.70,76.32L161.47,75.39"/><path d="M160.89,72.91L161.04,72.77L161.18,72.82L161.02,72.96L160.89,72.91L160.61,73.22L160.23,74.24L160.01,74.66L159.73,74.58L159.42,75.24L159.41,75.63L159.68,75.91L159.63,75.82L159.61,75.71L159.63,75.55L159.51,75.44L159.44,75.33L159.42,75.24L159.47,75.25L159.70,75.33L160.01,74.66L160.44,74.83L160.15,75.50L160.07,75.86L160.09,75.95"/><path d="M159.95,76.01L159.68,75.91L159.55,75.99L159.54,75.97"/><path d="M159.63,75.55L159.70,75.33L160.15,75.50L160.74,75.69"/><path d="M159.73,74.58L160.19,73.38L160.18,73.39"/><path d="M159.42,75.24L159.30,75.33L159.26,75.50"/><path d="M161.73,127.52L159.93,121.91L160.17,113.74L162.44,104.29L166.38,95.01L166.50,94.82L171.37,87.37L176.64,82.54"/><path d="M167.86,131.76L164.18,129.46L162.32,123.64L162.58,115.17L160.85,114.51L163.20,104.69L167.29,95.06L172.47,87.13L177.94,82.12"/><path d="M160.15,76.36L175.65,82.17L172.04,85.14L168.46,89.54"/><path d="M160.16,76.27L162.76,75.10L165.12,74.92L164.83,74.40"/><path d="M162.68,75.01L160.70,74.41L160.44,74.83L161.74,75.30"/><path d="M160.70,74.41L160.23,74.24L159.81,74.40"/><path d="M160.19,73.38L160.61,73.22L160.32,73.22"/><path d="M160.72,72.79L161.04,72.77L165.92,69.85L163.56,68.70L163.24,68.90"/><path d="M164.76,74.87L164.44,74.43L164.19,74.29L161.02,72.96"/><path d="M161.18,72.82L172.25,71.69L173.04,71.71L173.74,71.97L174.36,73.24L173.94,76.16"/><path d="M162.58,115.17L164.94,105.35L169.03,95.72L174.21,87.78L179.67,82.77L184.56,81.43"/><path d="M163.56,68.70L165.39,67.61"/><path d="M164.43,69.73L165.29,70.15L165.92,69.85"/><path d="M168.10,131.05L168.41,130.95"/><path d="M167.74,68.27L169.96,66.94"/><path d="M174.32,68.57L172.25,71.69L171.52,74.02L173.43,76.89L177.58,79.65L181.26,81.21"/><path d="M173.62,75.06L173.77,74.31L174.16,73.55L175.86,70.98"/><path d="M175.65,82.17L179.34,80.85"/><path d="M184.33,82.15L184.99,82.61"/></g><g style="stroke:#282828;stroke-width:0.353"><path d="M137.38,132.22L131.89,131.63L131.20,131.54L126.70,130.02L124.39,127.63L126.11,118.42"/><path d="M126.52,117.33L126.27,117.59L126.08,118.27L126.31,119.48L128.47,121.39"/><path d="M146.53,93.61L139.49,92.83L135.72,91.91L132.91,90.27L131.88,88.39L131.87,88.20L133.63,80.29"/><path d="M145.17,132.02L145.24,132.01L142.75,132.65L141.69,132.85L141.16,132.92L140.68,132.95L140.24,132.96L139.31,132.95L136.79,132.68L136.68,132.56L136.49,132.13"/><path d="M140.24,132.96L140.98,132.75L142.35,132.28"/><path d="M140.51,116.66L140.73,116.70"/><path d="M140.64,116.79L143.11,114.38L144.30,111.33L145.26,107.39L145.93,103.19L146.27,98.70L146.10,93.56"/><path d="M143.17,114.22L142.96,114.53"/><path d="M150.36,130.30L148.12,131.09L145.24,132.01L145.25,132.00"/><path d="M145.47,83.65L145.70,82.49L145.87,82.37L147.31,81.56L147.88,80.85"/><path d="M146.34,93.59L146.37,93.65L147.43,93.77L148.25,94.85"/><path d="M150.52,77.20L150.75,77.22L150.30,77.17L146.37,76.86"/><path d="M151.33,130.04L149.86,130.43L149.88,130.42"/><path d="M157.06,77.65L150.75,77.22L152.07,77.36L154.32,77.65"/><path d="M152.19,77.37L153.55,77.49"/><path d="M163.03,129.15L159.12,128.57L156.66,128.78L154.47,129.28"/><path d="M156.61,128.38L161.99,128.47"/><path d="M158.29,76.78L156.70,77.63"/><path d="M164.98,74.88L164.06,74.84L162.60,75.02L161.47,75.39L158.68,76.53L158.12,76.87"/><path d="M159.49,128.62L158.78,128.60"/><path d="M159.64,76.14L159.55,75.99L159.29,75.70L159.26,75.50L159.30,75.34L160.19,73.38L160.51,72.98L160.89,72.91"/><path d="M165.29,70.15L160.72,72.79L160.61,72.96"/><path d="M161.73,127.52L162.46,128.80L166.14,131.10L167.86,131.77L169.33,131.31"/><path d="M162.00,73.17L161.18,72.82L163.82,74.07L164.83,74.40L162.00,73.17"/><path d="M168.10,131.05L164.53,128.81L162.72,123.16L162.97,114.93L165.26,105.39L169.24,96.03L174.27,88.32L179.57,83.45L184.33,82.15"/><path d="M163.24,68.90L165.16,67.75"/><path d="M174.92,77.52L175.86,70.98L175.52,69.53L174.32,68.57L169.96,66.94L167.74,68.27L165.39,67.61L165.18,67.74"/><path d="M178.15,79.88L174.58,77.28L172.91,74.35"/><path d="M173.77,74.31L173.69,75.67"/><path d="M173.62,75.06L173.70,75.73"/><path d="M176.64,82.54L177.94,82.12L182.84,80.78L184.56,81.43L187.73,83.63"/><path d="M181.26,81.21L178.02,79.83"/><path d="M179.34,80.85L181.22,81.22"/></g></g><g id="Actor_.20"><g style="stroke:#282828;stroke-width:0.106"><path d="M151.86,134.35L154.57,136.49L154.88,136.75"/><path d="M151.21,130.66L152.38,129.90L153.74,123.33"/><path d="M152.38,129.90L153.51,130.19L154.15,130.79"/><path d="M154.57,136.49L154.54,135.81L164.06,139.51L164.09,140.19L164.40,140.45"/><path d="M154.54,135.81L155.27,134.17L156.07,134.12"/><path d="M164.09,140.19L165.94,140.63L167.62,140.60L167.93,140.59L169.89,140.06L171.66,139.10L173.10,137.77L173.66,137.00L173.58,137.39"/><path d="M164.06,139.51L164.79,137.86L165.59,137.82"/><path d="M171.06,135.99L171.69,135.56L172.08,135.68L175.44,130.34"/><path d="M173.66,137.00L173.08,136.28L172.08,135.68"/></g><g style="stroke:#282828;stroke-width:0.353"><path d="M169.84,137.23L169.91,137.19L170.74,136.43L171.06,135.99L174.46,130.31L175.44,130.34L176.71,131.18L177.00,132.01L173.58,137.39L171.66,139.40L168.08,140.83L165.94,140.63L164.40,140.45L154.88,136.75L152.29,134.69L151.86,134.35L151.13,131.13L151.21,130.66L152.61,123.69L153.74,123.33L155.16,123.80L155.45,124.62L154.15,130.79L154.11,131.06L154.52,132.90L156.07,134.12L165.59,137.82L166.50,138.04L164.79,137.86"/><path d="M151.21,130.66L151.24,130.64L152.80,130.30"/><path d="M170.25,137.07L167.56,138.14L166.50,138.04L166.52,138.04"/><path d="M166.79,138.06L167.78,138.04L167.86,138.02"/></g></g><g id="Actor_.21"><g style="stroke:#282828;stroke-width:0.106"><path d="M127.90,130.66L128.86,131.91L131.32,132.44L132.80,131.73"/><path d="M128.99,132.09L128.86,131.91L129.07,130.82"/><path d="M135.89,82.44L136.32,80.21L136.37,80.10L136.41,80.03L133.64,77.40L135.04,75.15"/><path d="M133.88,78.30L134.86,79.30L136.32,80.21"/><path d="M146.07,77.21L146.40,77.97L146.28,78.68L145.73,79.27L144.78,79.70L143.52,79.94L142.05,79.96L140.49,79.77L139.50,79.52L138.96,79.37L137.58,78.81L137.24,79.08L136.04,78.33L134.88,76.67L135.62,75.25L135.79,75.20L138.04,74.52L141.35,74.71"/><path d="M144.51,75.76L144.23,75.77L140.16,74.65L136.53,75.07L135.46,76.79L137.58,78.81"/><path d="M146.53,76.96L147.50,77.94L147.93,78.93L147.92,78.99L147.78,79.86L147.06,80.63L145.83,81.20L144.18,81.51L142.25,81.54L140.21,81.29L138.21,80.77L136.41,80.03L137.24,79.08L141.71,80.31L145.69,79.85L146.84,77.96"/><path d="M141.66,78.09L141.81,77.32L142.46,77.23L142.14,76.95L141.68,76.71L141.12,76.55L140.54,76.47L140.00,76.49L139.57,76.61L139.30,76.81L139.23,77.07L139.36,77.35L139.52,77.42L139.50,77.48"/><path d="M140.34,77.92L140.53,76.95L140.36,77.13L140.14,76.97L139.98,77.78"/><path d="M140.14,76.97L139.57,76.61"/><path d="M139.52,77.42L139.63,77.46"/><path d="M140.53,76.95L141.12,76.55L141.48,77.15L141.29,78.11"/><path d="M141.41,78.10L141.55,77.38L141.81,77.32"/><path d="M141.48,77.15L141.55,77.38"/><path d="M142.12,78.00L142.13,77.97L142.02,77.97"/><path d="M142.46,77.23L142.59,77.51L142.52,77.77L142.25,77.97L142.13,77.97"/><path d="M145.33,76.46L144.23,75.77"/></g><g style="stroke:#282828;stroke-width:0.353"><path d="M132.80,131.73L132.48,131.91L131.16,132.55L128.99,132.09L127.90,130.66L127.95,130.44"/><path d="M145.51,83.43L141.29,83.93L135.89,82.44L133.08,79.76L133.57,76.73L133.49,77.24L133.88,78.30"/><path d="M133.57,76.73L133.62,76.36L133.68,76.26L134.44,75.48L135.04,75.15L138.04,74.52L139.78,74.60L141.35,74.71L143.02,75.14L144.51,75.76L145.09,76.06L146.53,76.96L147.48,77.89L147.93,78.74L147.98,78.99L147.85,79.94L147.10,80.70L146.55,81.14L144.40,81.60L141.73,81.71L140.45,81.44L138.58,81.01L136.32,80.21"/><path d="M135.04,75.15L135.67,74.92L136.54,74.83"/><path d="M139.36,77.35L139.67,77.63L140.13,77.86L140.70,78.03L141.28,78.11L141.82,78.09L142.25,77.97"/><path d="M139.57,76.61L139.57,77.23L139.63,77.46L139.61,77.57"/><path d="M142.01,78.03L142.02,77.97L142.18,77.79L142.46,77.23"/><path d="M144.51,75.76L145.33,76.46L146.07,77.21L146.84,77.96"/><path d="M147.15,81.65L147.38,81.27"/><path d="M147.65,80.34L147.70,80.09"/></g></g><g id="Actor_.22"><g style="stroke:#282828;stroke-width:0.106"><path d="M117.79,158.34L120.99,161.03L126.41,162.27L128.31,162.18L129.92,161.80L131.11,161.15L131.79,160.30"/><path d="M126.36,162.37L126.39,162.35L126.41,162.27L126.84,160.12L121.41,158.88L118.21,156.19"/><path d="M123.03,157.10L122.35,155.57L124.51,154.89L124.61,155.69L123.03,156.20"/><path d="M124.26,157.47L124.61,155.69L126.69,156.31L127.19,157.43"/><path d="M124.51,154.89L127.34,155.73L128.02,157.26L125.87,157.95"/><path d="M130.73,159.49L129.62,159.87L128.30,160.08L126.84,160.12"/><path d="M130.48,160.79L132.07,159.03"/></g><g style="stroke:#282828;stroke-width:0.353"><path d="M118.16,156.46L117.71,157.03L117.79,158.34L118.21,156.19L119.10,153.65L123.55,152.73L125.08,152.87L126.62,153.17L128.10,153.62L130.73,159.49L130.48,160.79"/><path d="M117.79,158.34L117.81,158.44L118.88,159.79L120.57,160.91L121.02,161.14L121.51,161.35L122.02,161.47"/><path d="M125.29,162.21L125.98,162.37L126.36,162.37L123.60,161.97L121.02,161.14"/><path d="M123.49,157.24L123.03,156.20"/><path d="M123.03,157.10L125.87,157.95"/><path d="M127.19,157.43L125.72,157.90"/><path d="M126.36,162.37L128.24,162.28L129.83,161.90L129.88,161.88L131.06,161.24L131.73,160.39L131.79,160.30L132.07,159.03L131.07,156.81L128.98,155.58"/></g></g><g><g><path style="stroke:#000000;stroke-width:0.500;stroke-opacity:0.50;fill:#ff0000;fill-opacity:0.502" d="M130.79,136.31L132.17,136.58L130.37,131.18L126.67,135.49L128.04,135.76L124.34,154.72L127.08,155.26z"/></g></g><g/><g><g/><g><path style="stroke:#000000;stroke-width:0.250;fill:#ffffff" d="M283.63,156.86L292.71,156.86L292.71,163.07L283.63,163.07z"/><text xml:space="preserve" fill="#000000" stroke-width="0" x="284.41" y="161.13" font-size="3.66" opacity="1.00" font-family="MS Shell Dlg">Next</text></g></g><g><g/><g><path style="stroke:#000000;stroke-width:0.250;fill:#ffffff" d="M4.53,157.80L14.24,157.80L14.24,164.01L4.53,164.01z"/><text xml:space="preserve" fill="#000000" stroke-width="0" x="5.30" y="162.07" font-size="3.67" opacity="1.00" font-family="MS Shell Dlg">Back</text></g></g><g><g><path style="stroke:#000000;stroke-width:0.500;fill:#ffff00" d="M211.66,75.38L207.49,75.74L203.35,76.30L199.24,77.07L195.17,78.05L191.16,79.23L187.21,80.60L183.33,82.18L179.54,83.94L175.84,85.89L172.24,88.03L168.75,90.34L165.39,92.82L162.15,95.47L159.05,98.28L156.09,101.24L153.28,104.34L150.63,107.58L148.15,110.95L145.84,114.43L143.71,118.03L141.76,121.73L139.99,125.53L138.42,129.40L137.30,132.56L137.30,132.56L138.93,128.75L140.75,125.02L142.75,121.39L144.93,117.87L147.29,114.46L149.81,111.17L152.49,108.01L155.33,104.99L158.32,102.11L161.44,99.39L164.70,96.83L168.08,94.43L171.58,92.20L175.18,90.16L178.88,88.29L182.67,86.62L186.54,85.13L190.48,83.84L194.48,82.75L198.53,81.86L202.62,81.17L206.73,80.69L210.87,80.41L211.89,80.37z"/></g><g><image x="196.102295" y="23.187279" height="96.672577" width="96.672577" xlink:href="DEMO FFF SVG_files/9c0b218f9f428d11_image_0.jpg" mask="url(#mask0)"/><path style="stroke:#000000;stroke-width:0.250" d="M292.77,71.52L292.53,76.34L291.82,81.10L290.63,85.77L288.98,90.30L286.89,94.64L284.38,98.75L281.47,102.59L278.19,106.13L274.58,109.31L270.66,112.13L266.49,114.54L262.10,116.52L257.53,118.05L252.83,119.13L248.05,119.72L243.23,119.84L238.43,119.48L233.68,118.65L229.04,117.34L224.56,115.58L220.27,113.38L216.22,110.77L212.46,107.77L209.01,104.40L205.91,100.71L203.19,96.73L200.89,92.50L199.02,88.06L197.60,83.45L196.64,78.73L196.16,73.93L196.16,69.11L196.64,64.32L197.60,59.60L199.02,54.99L200.89,50.55L203.19,46.32L205.91,42.34L209.01,38.65L212.46,35.28L216.22,32.28L220.27,29.66L224.56,27.46L229.04,25.70L233.68,24.40L238.43,23.56L243.23,23.20L248.05,23.32L252.83,23.92L257.53,24.99L262.10,26.53L266.49,28.51L270.66,30.92L274.58,33.73L278.19,36.92L281.47,40.45L284.38,44.29L286.89,48.41L288.98,52.75L290.63,57.28L291.82,61.95L292.53,66.71L292.77,71.52z"/></g></g><g><g/><g><path style="stroke:#000000;stroke-width:0.250;fill:#ffffff" d="M4.93,7.12L284.29,7.12L284.29,19.96L4.93,19.96z"/><text xml:space="preserve" fill="#000000" stroke-width="0" x="5.92" y="12.55" font-size="4.84" opacity="1.00" font-family="MS Shell Dlg">Offer a Hinge Spindle nut to the underside of the hinge. Align the flat side of the nut with the flat feature on the hinge. Hold the nut </text><text xml:space="preserve" fill="#000000" stroke-width="0" x="5.92" y="17.49" font-size="4.82" opacity="1.00" font-family="MS Shell Dlg">in place with your off-hand.</text></g></g><g id="paperID" visibility="hidden" opacity="0.00" transform="scale(0.000100)"><path style="stroke:#000000;stroke-width:0.500;fill:#e6e6e6;fill-rule:evenodd" d="M-2000.00,-2000.00L2297.00,-2000.00L2297.00,2167.00L-2000.00,2167.00zM0.00,0.00L297.00,0.00L297.00,167.00L0.00,167.00z"/><path style="fill:#000000;fill-opacity:0.118" d="M3.00,167.00L297.00,167.00L297.00,3.00L300.00,3.00L300.00,170.00L3.00,170.00z"/></g><g id="hotspot.0" ident="" onmouseover="ShowHotSpot(evt,&apos;0&apos;)" onmouseout="HideHotSpot(evt,&apos;0&apos;)" onmousemove="ShowToolTip(evt,&apos;0&apos;,&quot;2D Text 1&quot;)" opacity="0"><a xlink:href="v7.svg"><path style="fill:#00ff00;fill-rule:evenodd" d="M293.03,156.65L293.04,163.43L283.44,163.34L283.35,156.64z"/></a></g><g id="ToolTip" visibility="hidden" opacity="0" transform="translate(0,0)"><rect id="ToolTipShadow" opacity="0.20" fill="black" stroke="none" x="0" y="0" width="30" height="8"/><rect id="ToolTipBG" fill="#ffffe1" stroke="black" x="0" y="0" width="30" height="8"/><text xml:space="preserve" id="ToolTipText" fill="black" x="0" y="0" width="30" height="8">tooltip</text></g></g></svg>